<svg width="130" height="163" viewBox="0 0 130 163" fill="none" xmlns="http://www.w3.org/2000/svg">
<path opacity="0.2" fill-rule="evenodd" clip-rule="evenodd" d="M24.7252 55.5291L21.9837 55.0142C20.0989 59.8204 17.5287 64.2833 14.4445 68.403L24.7252 55.5291Z" fill="#0088DC"/>
<path opacity="0.2" fill-rule="evenodd" clip-rule="evenodd" d="M27.6381 41.7971L25.9246 41.9688C25.2392 45.4018 24.7252 50.0364 23.0117 52.7828L25.9246 53.1261L30.8936 45.2301C28.8375 44.8868 27.6381 43.6853 27.6381 41.7971Z" fill="#0088DC"/>
<path d="M22.8404 42.312C37.7475 41.797 40.3177 24.117 46.4861 24.8036C46.6575 24.8036 47.0002 24.8036 47.1715 24.8036C47.1715 24.6319 46.8288 24.2886 46.6575 24.117C45.1154 22.2288 41.0031 18.2808 38.6042 18.1092C32.6071 17.4226 26.2673 18.2808 21.9837 22.9154C15.1299 30.2964 17.3573 42.9986 20.4416 51.5812V51.7528H20.2702C17.186 43.1703 14.9585 30.2964 21.8123 22.7438C26.096 18.1092 32.6071 17.2509 38.6042 17.9375C41.0031 18.1092 45.2867 22.2288 46.8288 24.117C47.5142 24.9752 47.6855 25.3185 46.4861 25.1469C40.8317 24.4603 37.9188 42.1404 23.0118 42.6553C22.6691 42.6553 22.6691 42.4837 22.8404 42.312ZM22.8404 42.312C22.6691 42.4837 22.6691 42.312 22.8404 42.312Z" stroke="#0088DC" stroke-width="0.4252" stroke-miterlimit="22.9256"/>
<path d="M22.8404 42.4837C37.9188 41.9687 40.3176 24.2886 46.3147 24.9752C47.1715 25.1469 47.3428 25.1469 46.6574 24.117C44.4299 21.1989 40.489 18.1092 38.6042 17.9375C18.8994 15.8777 13.0737 31.6696 20.2702 51.7528" stroke="#0088DC" stroke-width="0.4252" stroke-miterlimit="22.9256"/>
<path d="M47.1715 24.8036C47.6855 24.4603 48.3709 24.4603 48.8849 24.6319C50.9411 25.4902 51.2838 31.1547 51.4551 33.0428C51.6265 34.931 51.9692 37.5058 52.6546 39.2223V39.3939H52.4832C51.7978 37.5058 51.6265 35.1026 51.2838 33.0428C51.1124 31.3263 50.7698 25.6618 48.8849 24.8036C48.3709 24.6319 47.8569 24.8036 47.3428 24.9752C47.1715 25.1469 47.1715 25.1469 47.1715 24.8036ZM47.1715 24.8036C47.0001 24.9752 47.1715 24.8036 47.1715 24.8036Z" stroke="#0088DC" stroke-width="0.4252" stroke-miterlimit="22.9256"/>
<path d="M47.1715 24.9753C51.7978 22.7438 50.5984 34.4161 52.4832 39.394" stroke="#0088DC" stroke-width="0.4252" stroke-miterlimit="22.9256"/>
<path d="M39.1182 17.9375C41.6884 17.5942 45.9721 20.3407 48.8849 24.8036" stroke="#0088DC" stroke-width="0.4252" stroke-miterlimit="22.9256"/>
<path d="M27.638 41.6254C27.638 43.8568 29.0088 45.4017 31.2363 45.4017C31.2363 45.4017 31.4076 45.4017 31.4076 45.5733C31.4076 45.5733 31.4076 45.745 31.2363 45.745C28.8375 45.745 27.2953 44.0285 27.2953 41.6254C27.4667 41.6254 27.4667 41.4537 27.638 41.6254ZM27.638 41.6254C27.638 41.4537 27.638 41.6254 27.638 41.6254Z" stroke="#0088DC" stroke-width="0.4252" stroke-miterlimit="22.9256"/>
<path d="M27.6381 41.6254C27.6381 44.3718 29.5229 45.5733 31.4077 45.5733" stroke="#0088DC" stroke-width="0.4252" stroke-miterlimit="22.9256"/>
<path d="M30.2082 43.6853C28.4948 43.6853 28.4948 40.9388 30.2082 40.9388C30.2082 40.9388 30.3796 40.9388 30.3796 41.1105C30.3796 41.1105 30.3796 41.2821 30.2082 41.2821C28.8375 41.2821 28.8375 43.5136 30.2082 43.5136C30.3796 43.5136 30.3796 43.5136 30.2082 43.6853ZM30.2082 43.6853C30.3796 43.6853 30.3796 43.6853 30.2082 43.6853Z" stroke="#0088DC" stroke-width="0.4252" stroke-miterlimit="22.9256"/>
<path d="M30.2082 43.6852C28.6661 43.6852 28.6661 41.1105 30.2082 41.1105" stroke="#0088DC" stroke-width="0.4252" stroke-miterlimit="22.9256"/>
<path d="M50.5984 34.9311L50.7698 29.6099C50.7698 29.6099 50.7698 29.4382 50.9411 29.4382C50.9411 29.4382 51.1125 29.4382 51.1125 29.6099L50.9411 35.1027C49.7417 37.1625 50.0844 39.0507 50.0844 41.2822C50.2557 44.8868 48.5423 50.3797 46.6575 53.2978C45.458 55.3576 44.0873 57.2457 41.3457 56.7308C37.2334 55.5292 32.4358 51.7529 32.0931 47.29C32.0931 47.29 32.0931 47.1183 32.2644 47.1183C32.2644 47.1183 32.4358 47.1183 32.4358 47.29C32.7785 51.7529 37.5761 55.5292 41.5171 56.5591C44.2586 57.0741 45.2867 55.1859 46.4861 53.2978C48.1996 50.3797 50.0844 44.8868 49.913 41.2822C49.7417 38.879 49.399 36.9909 50.5984 34.9311Z" stroke="#0088DC" stroke-width="0.4252" stroke-miterlimit="22.9256"/>
<path d="M50.9411 29.6099L50.7698 35.1027C49.7417 36.9909 49.913 38.7074 49.913 41.2821C49.913 42.9987 49.2277 48.8348 46.4861 53.2977C45.2867 55.1859 44.0873 57.2457 41.3457 56.7308C37.2334 55.7008 32.6071 51.7529 32.0931 47.2899" stroke="#0088DC" stroke-width="0.4252" stroke-miterlimit="22.9256"/>
<path d="M38.9469 36.6476C40.489 35.446 43.5732 34.9311 44.944 36.6476V36.8192H44.7727C43.4019 35.1027 40.6604 35.6177 39.1182 36.8192H38.9469C38.9469 36.8192 38.9469 36.8192 38.9469 36.6476Z" stroke="#0088DC" stroke-width="0.4252" stroke-miterlimit="22.9256"/>
<path d="M39.1182 36.8192C40.8317 35.446 43.7446 35.2744 44.944 36.8192" stroke="#0088DC" stroke-width="0.4252" stroke-miterlimit="22.9256"/>
<path d="M47.1715 36.6475C47.8569 36.4758 49.399 35.6176 49.913 36.4758V36.6475H49.7417C49.399 36.1325 47.6855 36.8191 47.3428 36.9908C47.1715 36.9908 47.1715 36.9908 47.1715 36.6475ZM47.1715 36.6475C47.0001 36.8192 47.1715 36.6475 47.1715 36.6475Z" stroke="#0088DC" stroke-width="0.4252" stroke-miterlimit="22.9256"/>
<path d="M47.1715 36.8192C48.3709 36.3043 49.399 35.961 49.7417 36.4759" stroke="#0088DC" stroke-width="0.4252" stroke-miterlimit="22.9256"/>
<path d="M46.3147 40.5956C46.4861 42.1404 47.1715 43.5136 47.8568 45.0585C48.7136 46.775 44.7726 46.6034 43.9159 45.9168V45.7451H44.0872C44.7726 46.2601 48.1995 46.6034 47.5142 45.0585C46.8288 43.5136 46.3147 42.1404 45.972 40.5956C46.1434 40.5956 46.1434 40.5956 46.3147 40.5956ZM46.3147 40.5956C46.3147 40.4239 46.3147 40.5956 46.3147 40.5956Z" stroke="#0088DC" stroke-width="0.4252" stroke-miterlimit="22.9256"/>
<path d="M46.1434 40.5955C46.4861 42.4836 47.3428 44.2001 47.6855 45.0584C48.3709 46.6033 44.7727 46.4316 44.0873 45.9166" stroke="#0088DC" stroke-width="0.4252" stroke-miterlimit="22.9256"/>
<path d="M39.4609 39.5656C40.489 38.879 41.6884 39.2223 42.7165 38.879C43.2305 38.7073 43.5732 38.5357 43.9159 38.364H44.0872V38.5357C43.7445 38.7073 43.2305 39.0506 42.7165 39.2223C41.6884 39.5656 40.3176 39.2223 39.4609 39.9089C39.4609 39.9089 39.4609 39.9089 39.4609 39.5656ZM39.4609 39.5656C39.2896 39.7372 39.2896 39.7372 39.4609 39.5656Z" stroke="#0088DC" stroke-width="0.4252" stroke-miterlimit="22.9256"/>
<path d="M39.4609 39.7372C40.489 39.2223 41.6884 39.3939 42.7165 39.0506C43.2305 38.879 43.5732 38.7073 44.0873 38.364" stroke="#0088DC" stroke-width="0.4252" stroke-miterlimit="22.9256"/>
<path d="M42.0311 41.1104C42.1257 41.1104 42.2024 40.7262 42.2024 40.2522C42.2024 39.7782 42.1257 39.3939 42.0311 39.3939C41.9365 39.3939 41.8597 39.7782 41.8597 40.2522C41.8597 40.7262 41.9365 41.1104 42.0311 41.1104Z" stroke="#0088DC" stroke-width="0.4252" stroke-miterlimit="22.9256"/>
<path d="M47.5141 39.2224C48.1995 39.2224 48.8849 39.0507 49.3989 38.7074H49.5703V38.879C48.8849 39.2224 48.3709 39.394 47.5141 39.394C47.5141 39.5657 47.3428 39.394 47.5141 39.2224ZM47.5141 39.2224C47.3428 39.394 47.5141 39.2224 47.5141 39.2224Z" stroke="#0088DC" stroke-width="0.4252" stroke-miterlimit="22.9256"/>
<path d="M47.5142 39.394C48.1995 39.394 48.8849 39.2223 49.399 38.879" stroke="#0088DC" stroke-width="0.4252" stroke-miterlimit="22.9256"/>
<path d="M48.3709 40.7671C48.4655 40.7671 48.5422 40.4597 48.5422 40.0805C48.5422 39.7013 48.4655 39.3939 48.3709 39.3939C48.2762 39.3939 48.1995 39.7013 48.1995 40.0805C48.1995 40.4597 48.2762 40.7671 48.3709 40.7671Z" stroke="#0088DC" stroke-width="0.4252" stroke-miterlimit="22.9256"/>
<path d="M41.8598 49.1781C43.4019 49.8647 45.2867 50.208 46.8288 49.5214H47.0001V49.6931C45.2867 50.3797 43.4019 50.0364 41.8598 49.3498C41.6884 49.3498 41.6884 49.3498 41.8598 49.1781ZM41.8598 49.1781C41.6884 49.1781 41.8598 49.1781 41.8598 49.1781Z" stroke="#0088DC" stroke-width="0.4252" stroke-miterlimit="22.9256"/>
<path d="M41.8597 49.3497C43.5732 50.208 45.458 50.3796 47.0001 49.693" stroke="#0088DC" stroke-width="0.4252" stroke-miterlimit="22.9256"/>
<path d="M43.2306 51.0662C43.9159 51.5812 44.6013 51.5812 45.458 51.4095C45.458 51.4095 45.6294 51.4095 45.6294 51.5812C45.6294 51.5812 45.6294 51.7528 45.458 51.7528C44.6013 51.9245 43.7446 51.7528 43.0592 51.2379C43.0592 51.2379 43.0592 51.0662 43.2306 51.0662ZM43.2306 51.0662C43.0592 50.8946 43.2306 50.8946 43.2306 51.0662Z" stroke="#0088DC" stroke-width="0.4252" stroke-miterlimit="22.9256"/>
<path d="M43.0592 51.0663C43.7446 51.5812 44.6013 51.5812 45.458 51.4096" stroke="#0088DC" stroke-width="0.4252" stroke-miterlimit="22.9256"/>
<path d="M41.5171 47.9766C41.6884 49.0065 41.3457 49.8647 40.6604 50.5513H40.489V50.3797C41.1744 49.6931 41.3457 48.8348 41.3457 47.9766C41.3457 47.9766 41.3457 47.9766 41.5171 47.9766Z" stroke="#0088DC" stroke-width="0.4252" stroke-miterlimit="22.9256"/>
<path d="M41.5171 48.1482C41.6884 49.1781 41.3457 50.0364 40.6603 50.723" stroke="#0088DC" stroke-width="0.4252" stroke-miterlimit="22.9256"/>
<path d="M25.7532 53.2976C24.8965 55.5291 23.6971 57.5889 21.9836 59.4771C14.7871 66.6864 9.98944 74.4107 11.3602 84.8815C12.0456 90.2027 14.1017 95.5238 15.6438 100.673C17.3573 106.853 18.214 112.517 17.186 118.868C17.186 118.868 17.186 119.04 17.0146 119.04C17.0146 119.04 16.8433 119.04 16.8433 118.868C17.8713 112.517 17.0146 106.853 15.3012 100.845C13.759 95.6955 11.7029 90.3743 11.0175 85.0531C9.64674 74.5824 14.6158 66.6864 21.8123 59.4771C23.3544 57.5889 24.5538 55.5291 25.4106 53.2976C27.638 51.7528 29.1802 48.3198 30.0369 45.745C30.0369 45.745 30.2082 45.5733 30.2082 45.745C30.2082 45.745 30.3796 45.9166 30.2082 45.9166C29.5228 48.1481 27.9807 51.5811 25.7532 53.2976Z" stroke="#0088DC" stroke-width="0.4252" stroke-miterlimit="22.9256"/>
<path d="M30.3796 45.5734C29.0088 49.178 27.6381 51.7528 25.7533 53.126C24.8965 55.5291 23.5258 57.589 21.9837 59.3055C-1.66206 83.165 20.9556 95.1806 17.0146 118.525" stroke="#0088DC" stroke-width="0.4252" stroke-miterlimit="22.9256"/>
<path d="M20.4416 51.9245C21.9837 52.9544 23.8685 53.1261 25.7533 53.1261C25.7533 53.1261 25.7533 53.1261 25.9246 53.1261C25.9246 53.1261 25.9246 53.1261 25.9246 53.2977C25.7533 54.156 25.4106 54.8426 24.8965 55.5292C24.8965 55.5292 24.8965 55.5292 24.7252 55.5292C22.4977 55.3576 20.6129 54.6709 19.0708 53.2977C18.5568 52.7828 19.5848 51.2379 20.4416 51.9245Z" stroke="#0088DC" stroke-width="0.4252" stroke-miterlimit="22.9256"/>
<path d="M19.0708 53.1261C18.7281 52.7828 19.5848 51.4096 20.2702 51.9245C21.6409 52.7828 23.5257 53.1261 25.5819 53.1261C25.2392 53.9843 24.8965 54.8426 24.5538 55.3576C22.4977 55.1859 20.6129 54.671 19.0708 53.1261Z" stroke="#0088DC" stroke-width="0.4252" stroke-miterlimit="22.9256"/>
<path d="M18.8994 53.2977C11.0175 55.8725 12.3883 76.8139 1.07949 83.3366C0.394104 83.6799 0.394104 83.5083 0.908141 84.3666C2.96429 88.1429 6.3912 90.3743 10.1608 92.0909C10.1608 92.0909 10.3322 92.2625 10.1608 92.2625C10.1608 92.2625 9.98946 92.4342 9.98946 92.2625C6.21986 90.546 2.79294 88.1429 0.736795 84.5382C0.222758 83.68 0.222758 83.68 1.07949 83.165C12.3883 76.8139 10.8462 55.7008 19.0708 53.2977C18.8994 53.126 19.0708 53.126 18.8994 53.2977ZM18.8994 53.2977C19.0708 53.2977 19.0708 53.2977 18.8994 53.2977Z" stroke="#0088DC" stroke-width="0.4252" stroke-miterlimit="22.9256"/>
<path d="M18.8994 53.2977C10.6748 55.7008 12.3883 76.6423 0.908119 83.165C0.222737 83.68 0.222737 83.5083 0.736774 84.3666C2.62158 87.9713 6.04849 90.2027 9.98944 92.0909" stroke="#0088DC" stroke-width="0.4252" stroke-miterlimit="22.9256"/>
<path d="M39.4609 56.0441C38.0901 57.074 37.9188 59.6488 37.9188 61.1936C37.9188 61.1936 37.9188 61.3653 37.7475 61.3653C37.7475 61.3653 37.5761 61.3653 37.5761 61.1936C37.5761 59.4771 37.7475 56.9023 39.2896 55.8724H39.4609V56.0441Z" stroke="#0088DC" stroke-width="0.4252" stroke-miterlimit="22.9256"/>
<path d="M39.2895 55.8724C38.2615 56.7307 37.7474 58.6189 37.7474 61.1936" stroke="#0088DC" stroke-width="0.4252" stroke-miterlimit="22.9256"/>
<path d="M37.9188 58.7905C41.6884 59.4771 45.2866 61.1936 47.1715 64.7983L55.0534 84.3666V84.5382H54.882L46.8288 64.97C44.944 61.5369 41.517 59.9921 37.7474 59.1338C37.7474 59.1338 37.7474 58.9622 37.9188 58.7905ZM37.9188 58.7905C37.7474 58.9622 37.9188 58.7905 37.9188 58.7905Z" stroke="#0088DC" stroke-width="0.4252" stroke-miterlimit="22.9256"/>
<path d="M37.9188 58.9622C42.3738 59.8204 45.458 61.7086 47.0001 64.7983L55.0534 84.5382" stroke="#0088DC" stroke-width="0.4252" stroke-miterlimit="22.9256"/>
<path d="M52.8259 87.4563C53.8539 85.2248 55.7387 83.3366 57.6235 81.7918C60.8791 78.8737 64.6487 76.2989 68.0756 73.5525C68.5897 73.2092 68.4183 73.2092 68.761 73.5525C70.6458 75.784 71.8452 78.5304 72.3593 81.4485C72.3593 81.4485 72.3593 81.6201 72.1879 81.6201C72.1879 81.6201 72.0166 81.6201 72.0166 81.4485C71.5025 78.7021 70.3031 75.9556 68.4183 73.7242L68.247 73.5525L68.0756 73.7242C64.6487 76.4706 60.8791 79.0454 57.6235 81.9634C55.7387 83.5083 54.0253 85.3965 52.8259 87.6279C53.1686 87.6279 52.9972 87.6279 52.8259 87.4563ZM52.8259 87.4563C52.8259 87.6279 52.8259 87.6279 52.8259 87.4563Z" stroke="#0088DC" stroke-width="0.4252" stroke-miterlimit="22.9256"/>
<path d="M52.9973 87.6279C54.8821 83.8516 58.823 80.9335 68.247 73.7242C68.5897 73.3808 68.5897 73.3808 68.7611 73.7242C70.4745 75.784 71.6739 78.5304 72.3593 81.4485" stroke="#0088DC" stroke-width="0.4252" stroke-miterlimit="22.9256"/>
<path d="M64.6488 76.4706C66.5336 79.217 67.9043 82.3067 68.9324 85.3964V85.5681H68.7611C67.733 82.3067 66.3622 79.3887 64.4774 76.6422C64.3061 76.6422 64.3061 76.4706 64.6488 76.4706ZM64.6488 76.4706C64.4774 76.4706 64.4774 76.4706 64.6488 76.4706Z" stroke="#0088DC" stroke-width="0.4252" stroke-miterlimit="22.9256"/>
<path d="M64.4774 76.6423C66.1909 79.2171 67.733 82.1352 68.7611 85.5682" stroke="#0088DC" stroke-width="0.4252" stroke-miterlimit="22.9256"/>
<path d="M63.4493 77.5005C65.3341 80.2469 66.7049 83.165 67.5616 86.4263V86.598H67.3903C66.5335 83.5083 64.9914 80.5902 63.278 77.8438C63.1066 77.6721 63.1066 77.5005 63.4493 77.5005ZM63.4493 77.5005C63.278 77.5005 63.278 77.5005 63.4493 77.5005Z" stroke="#0088DC" stroke-width="0.4252" stroke-miterlimit="22.9256"/>
<path d="M63.278 77.6721C64.9914 80.4185 66.5335 83.3366 67.3903 86.4263" stroke="#0088DC" stroke-width="0.4252" stroke-miterlimit="22.9256"/>
<path d="M68.9324 73.8958C69.7891 72.8659 70.6458 72.0077 71.6739 71.1494H71.8453V71.3211C70.8172 72.1793 69.9605 73.0376 69.1037 73.8958H68.9324ZM68.9324 73.8958C68.9324 74.0675 68.9324 73.8958 68.9324 73.8958Z" stroke="#0088DC" stroke-width="0.4252" stroke-miterlimit="22.9256"/>
<path d="M68.9324 73.8958C69.7891 72.8659 70.6458 72.0076 71.6739 71.321" stroke="#0088DC" stroke-width="0.4252" stroke-miterlimit="22.9256"/>
<path d="M72.3593 74.4108C69.6178 68.4031 75.2722 66.1716 74.7581 60.6787C74.7581 60.1638 75.6149 60.1638 75.9576 60.3355C76.8143 60.6788 76.8143 61.7087 76.8143 62.3953V65.6566C76.8143 67.0298 78.3564 68.5747 78.3564 70.2912C78.3564 70.2912 78.3564 70.4629 78.1851 70.4629C78.0137 70.4629 78.0137 70.4629 78.0137 70.2912C78.0137 68.5747 76.4716 67.0298 76.4716 65.6566V62.3953C76.4716 61.7087 76.4716 60.8504 75.7862 60.5071C75.6149 60.3354 74.9295 60.3354 74.9295 60.6787C75.4435 66.1716 69.9605 68.4031 72.5307 74.2392C72.5307 74.4108 72.5307 74.5825 72.3593 74.4108ZM72.3593 74.4108C72.3593 74.5825 72.3593 74.5825 72.3593 74.4108Z" stroke="#0088DC" stroke-width="0.4252" stroke-miterlimit="22.9256"/>
<path d="M72.3593 74.4108C69.6178 68.403 75.2722 66.3432 74.7581 60.8504C74.7581 60.5071 75.2722 60.3354 75.7862 60.6787C76.3003 60.8504 76.6429 61.537 76.6429 62.5669V65.8282C76.6429 67.2015 78.1851 68.7463 78.1851 70.4628" stroke="#0088DC" stroke-width="0.4252" stroke-miterlimit="22.9256"/>
<path d="M76.6429 65.3134L78.185 64.2834H78.3564V64.4551L76.8143 65.485H76.6429C76.4716 65.3134 76.4716 65.3134 76.6429 65.3134Z" stroke="#0088DC" stroke-width="0.4252" stroke-miterlimit="22.9256"/>
<path d="M76.6429 65.3134L78.1851 64.2834" stroke="#0088DC" stroke-width="0.4252" stroke-miterlimit="22.9256"/>
<path d="M21.9837 59.3055C25.0679 63.0819 31.4077 67.7165 36.5481 65.485C37.7475 64.97 38.6042 64.1118 39.2896 63.0819H39.4609V63.2535C38.7756 64.4551 37.7475 65.3133 36.5481 65.8283C31.2364 68.0598 24.7252 63.4252 21.641 59.4772V59.3055C21.9837 59.3055 21.9837 59.3055 21.9837 59.3055Z" stroke="#0088DC" stroke-width="0.4252" stroke-miterlimit="22.9256"/>
<path d="M21.9836 59.4772C27.2954 65.9999 35.8626 68.918 39.6322 63.2535" stroke="#0088DC" stroke-width="0.4252" stroke-miterlimit="22.9256"/>
<path d="M24.3825 66.1715C27.2953 68.2313 31.0649 69.9478 34.8346 69.6045C37.2334 69.4329 39.4609 68.403 40.6603 66.3432H40.8317V66.5148C39.4609 68.5746 37.2334 69.7762 34.6632 69.9478C31.0649 70.1195 27.2953 68.403 24.2111 66.3432C24.2111 66.3432 24.2111 66.3432 24.3825 66.1715ZM24.3825 66.1715C24.2111 66.1715 24.3825 66.1715 24.3825 66.1715Z" stroke="#0088DC" stroke-width="0.4252" stroke-miterlimit="22.9256"/>
<path d="M24.3825 66.3433C32.6071 71.8361 38.4329 69.9479 40.8317 66.5149" stroke="#0088DC" stroke-width="0.4252" stroke-miterlimit="22.9256"/>
<path d="M20.6129 60.6787C23.3544 63.5968 26.2673 69.2613 27.124 73.2093C27.124 73.2093 27.124 73.3809 26.9527 73.3809C26.9527 73.3809 26.7813 73.3809 26.7813 73.2093C25.9246 69.4329 23.0117 63.5968 20.2702 60.8504V60.6787H20.6129V60.6787Z" stroke="#0088DC" stroke-width="0.4252" stroke-miterlimit="22.9256"/>
<path d="M20.6129 60.8503C23.3544 63.7684 26.2673 69.6046 27.1241 73.3809" stroke="#0088DC" stroke-width="0.4252" stroke-miterlimit="22.9256"/>
<path d="M47.8568 98.442C44.0872 93.8074 40.6603 89.0012 36.8907 84.3666C33.8065 80.5903 30.7223 76.814 26.9527 73.5526C24.0398 71.3211 19.5848 68.918 15.9865 71.4928C14.1017 72.866 13.245 75.0975 13.245 77.3289C13.245 80.247 13.5877 83.1651 14.6158 85.9115C16.6719 91.7476 20.7842 96.5539 25.2392 100.845C30.8936 106.166 37.062 110.973 43.0592 115.779C45.2866 117.152 47.3428 116.809 49.5703 115.779C53.8539 113.376 58.3089 110.458 62.2499 107.54C65.5054 105.136 68.5897 102.733 71.6739 100.159C72.3593 99.4719 72.3593 99.8152 72.0166 98.7853C70.6458 95.009 68.761 91.7476 66.5335 88.3146L66.3622 87.9713L66.1908 88.1429C62.4212 90.3744 58.6516 92.4342 54.882 94.6657C51.9691 96.3822 48.8849 98.2704 46.3147 100.502H46.1434V100.33C48.7136 98.0987 51.7978 96.2106 54.7107 94.494C58.4803 92.2626 62.2499 90.2028 66.0195 87.9713C66.5335 87.628 66.5335 87.7996 66.8762 88.1429C69.275 91.4043 70.9885 94.8374 72.5306 98.6137C72.8733 99.6436 73.0447 99.4719 72.1879 100.159C69.1037 102.733 66.0195 105.136 62.7639 107.54C58.823 110.458 54.368 113.547 50.0843 115.779C47.8568 116.98 45.6293 117.152 43.4018 115.779C37.4047 110.973 31.065 106.166 25.4105 100.845C20.9556 96.5539 16.8433 91.7476 14.7871 85.9115C13.759 83.1651 13.4163 80.247 13.4163 77.3289C13.5877 75.0975 14.2731 72.6943 16.3292 71.3211C19.9275 68.7464 24.5538 71.1495 27.4667 73.3809C31.065 76.6423 34.3205 80.4187 37.4047 84.3666C41.1743 89.0012 44.6013 93.8074 48.3709 98.442V98.6137C47.8568 98.442 47.8568 98.442 47.8568 98.442Z" stroke="#0088DC" stroke-width="0.4252" stroke-miterlimit="22.9256"/>
<path d="M47.8569 98.2704C39.4609 87.7997 33.9779 79.3887 27.124 73.2093C19.2421 67.0299 13.5877 70.6345 13.245 76.9856C13.0737 92.4342 26.4387 101.875 43.2305 115.436C45.458 116.809 47.5142 116.637 49.7417 115.436C55.9101 112.002 65.6768 105.136 71.8453 99.6436C72.702 98.957 72.5307 99.1286 72.188 98.0987C70.8172 94.3224 69.1037 91.061 66.5336 87.628C66.1909 87.113 66.3622 87.113 65.8482 87.4564C57.6236 92.4342 50.4271 96.0389 45.9721 99.8152" stroke="#0088DC" stroke-width="0.4252" stroke-miterlimit="22.9256"/>
<path d="M41.5171 112.517C42.2024 114.062 42.8878 115.264 44.4299 116.122V116.294H44.2586C42.7165 115.435 41.8598 114.234 41.1744 112.689C41.1744 112.517 41.1744 112.517 41.5171 112.517ZM41.5171 112.517C41.3457 112.517 41.5171 112.517 41.5171 112.517Z" stroke="#0088DC" stroke-width="0.4252" stroke-miterlimit="22.9256"/>
<path d="M41.3457 112.517C42.2024 114.405 42.8878 115.264 44.4299 116.122" stroke="#0088DC" stroke-width="0.4252" stroke-miterlimit="22.9256"/>
<path d="M61.7359 90.546C64.1347 94.494 66.3622 98.6136 68.0757 102.733V102.905H67.9043C66.1909 98.6136 63.9634 94.6656 61.5645 90.7177C61.3932 90.7177 61.3932 90.546 61.7359 90.546ZM61.7359 90.546C61.5645 90.546 61.5645 90.546 61.7359 90.546Z" stroke="#0088DC" stroke-width="0.4252" stroke-miterlimit="22.9256"/>
<path d="M61.5645 90.546C63.9634 94.3223 66.1908 98.442 67.9043 102.733" stroke="#0088DC" stroke-width="0.4252" stroke-miterlimit="22.9256"/>
<path d="M59.851 91.5759C62.5926 95.3523 64.8201 99.4719 66.7049 103.592C66.7049 103.592 66.7049 103.763 66.8762 103.763V103.935H66.7049C66.7049 103.935 66.7049 103.763 66.5335 103.763C64.6487 99.6435 62.4212 95.5239 59.6797 91.7476V91.5759C59.851 91.5759 59.851 91.5759 59.851 91.5759Z" stroke="#0088DC" stroke-width="0.4252" stroke-miterlimit="22.9256"/>
<path d="M59.8511 91.5759C62.5926 95.5239 64.8201 99.4719 66.7049 103.592C66.7049 103.592 66.7049 103.763 66.8762 103.763" stroke="#0088DC" stroke-width="0.4252" stroke-miterlimit="22.9256"/>
<path d="M43.7446 61.1936C43.5732 67.0298 44.6013 71.836 47.0002 77.1572C48.5423 80.4186 50.9411 84.1949 51.4551 87.6279C51.7978 90.031 51.2838 92.2625 50.0844 94.494C50.0844 94.6656 49.913 94.8373 49.913 94.8373C49.5703 95.5239 49.399 96.5538 49.5703 97.2404C49.5703 97.2404 49.5703 97.412 49.399 97.412C49.399 97.412 49.2276 97.412 49.2276 97.2404C49.0563 96.5538 49.2276 95.3522 49.5703 94.6656C49.5703 94.494 49.7417 94.3223 49.7417 94.3223C50.9411 92.2625 51.4551 90.031 51.1125 87.6279C50.5984 84.1949 48.1996 80.2469 46.6575 77.1572C44.2586 71.836 43.0592 67.0298 43.4019 61.022C43.5732 61.1936 43.5732 61.022 43.7446 61.1936ZM43.7446 61.1936C43.7446 61.022 43.7446 61.1936 43.7446 61.1936Z" stroke="#0088DC" stroke-width="0.4252" stroke-miterlimit="22.9256"/>
<path d="M43.5732 61.1936C42.8878 79.5603 55.7387 83.8516 49.913 94.4939C49.913 94.6656 49.7417 94.8372 49.7417 94.8372C49.399 95.5238 49.2276 96.5538 49.399 97.2404" stroke="#0088DC" stroke-width="0.4252" stroke-miterlimit="22.9256"/>
<path d="M49.7417 121.1C37.7475 124.705 27.2954 126.593 15.3012 121.443C14.1018 120.928 15.3012 118.01 16.8433 118.697C27.124 122.988 38.9469 121.958 49.2276 118.354C50.4271 117.839 51.2838 120.585 49.7417 121.1Z" stroke="#0088DC" stroke-width="0.4252" stroke-miterlimit="22.9256"/>
<path d="M49.5703 120.928C51.1124 120.413 50.0844 118.01 49.2276 118.353C38.6042 122.13 26.9527 122.988 16.6719 118.697C15.1298 118.01 14.1018 120.757 15.1298 121.1C27.8094 126.593 38.7755 124.361 49.5703 120.928Z" stroke="#0088DC" stroke-width="0.4252" stroke-miterlimit="22.9256"/>
<path d="M49.2276 115.435V118.697" stroke="#0088DC" stroke-width="0.4252" stroke-miterlimit="22.9256"/>
<path d="M50.0843 120.928C55.396 124.018 52.8259 149.937 51.9691 155.945C51.9691 155.945 51.9691 156.117 51.7978 156.117C51.6264 156.117 51.6264 156.117 51.6264 155.945C52.3118 150.109 55.0534 124.19 49.7416 121.1C49.913 121.1 49.913 120.928 50.0843 120.928ZM50.0843 120.928C49.913 120.928 50.0843 120.757 50.0843 120.928Z" stroke="#0088DC" stroke-width="0.4252" stroke-miterlimit="22.9256"/>
<path d="M50.0844 120.928C54.7107 123.675 53.3399 144.616 51.9692 155.774" stroke="#0088DC" stroke-width="0.4252" stroke-miterlimit="22.9256"/>
<path d="M14.9585 121.443C4.67774 129.854 10.3321 150.967 11.1889 162.468C11.1889 162.468 11.1889 162.64 11.0175 162.64C11.0175 162.64 10.8462 162.64 10.8462 162.468C9.98946 150.967 4.1637 129.683 14.6158 121.272H14.7871C14.9585 121.272 14.9585 121.443 14.9585 121.443Z" stroke="#0088DC" stroke-width="0.4252" stroke-miterlimit="22.9256"/>
<path d="M14.9585 121.443C4.5064 129.854 10.1608 150.624 11.1889 162.468" stroke="#0088DC" stroke-width="0.4252" stroke-miterlimit="22.9256"/>
<path d="M24.7252 124.361C22.155 130.026 22.4977 148.907 22.669 155.945C22.669 155.945 22.669 156.117 22.4977 156.117C22.4977 156.117 22.3263 156.117 22.3263 155.945C22.155 148.907 21.8123 130.026 24.3825 124.19C24.5538 124.19 24.5538 124.018 24.7252 124.361ZM24.7252 124.361C24.7252 124.19 24.7252 124.19 24.7252 124.361Z" stroke="#0088DC" stroke-width="0.4252" stroke-miterlimit="22.9256"/>
<path d="M24.5539 124.19C22.3264 128.996 22.155 144.788 22.4977 155.945" stroke="#0088DC" stroke-width="0.4252" stroke-miterlimit="22.9256"/>
<path d="M42.3738 123.16L42.8879 137.922C42.8879 137.922 42.8879 138.093 42.7165 138.093C42.7165 138.093 42.5452 138.093 42.5452 137.922L42.0311 123.16C42.2025 123.16 42.2025 123.16 42.3738 123.16Z" stroke="#0088DC" stroke-width="0.4252" stroke-miterlimit="22.9256"/>
<path d="M42.3738 123.16L42.7165 138.093" stroke="#0088DC" stroke-width="0.4252" stroke-miterlimit="22.9256"/>
<path d="M80.2412 84.8816C81.0979 84.7099 82.64 84.1949 83.4967 84.1949C84.1821 84.1949 85.3815 84.7099 86.0669 84.8816C86.0669 84.8816 86.2383 85.0532 86.0669 85.0532C86.0669 85.0532 85.8956 85.2249 85.8956 85.0532C85.2102 84.8816 84.0108 84.3666 83.3254 84.3666C82.4687 84.3666 81.0979 84.8816 80.0698 85.0532C80.0698 85.0532 80.0698 85.0532 80.2412 84.8816ZM80.2412 84.8816C80.0698 84.8816 80.0698 84.8816 80.2412 84.8816Z" stroke="#0088DC" stroke-width="0.4252" stroke-miterlimit="22.9256"/>
<path d="M80.2412 84.8816C82.126 84.5383 82.64 84.1949 83.4968 84.1949C84.1822 84.1949 84.8675 84.5383 86.067 84.8816" stroke="#0088DC" stroke-width="0.4252" stroke-miterlimit="22.9256"/>
<path d="M80.2412 82.3067C81.0979 82.1351 82.64 81.6201 83.4968 81.6201C84.3535 81.6201 85.7243 82.1351 86.581 82.3067C86.581 82.3067 86.7523 82.3067 86.7523 82.4784C86.7523 82.4784 86.7523 82.65 86.581 82.65C85.7243 82.4784 84.3535 81.9634 83.4968 81.9634C82.64 81.9634 81.0979 82.4784 80.2412 82.65C80.2412 82.65 80.2412 82.65 80.2412 82.3067ZM80.2412 82.3067C80.0698 82.4784 80.2412 82.3067 80.2412 82.3067Z" stroke="#0088DC" stroke-width="0.4252" stroke-miterlimit="22.9256"/>
<path d="M80.2412 82.4783C81.7833 82.135 82.8114 81.7917 83.4968 81.7917C84.3535 81.7917 85.0389 82.135 86.581 82.4783" stroke="#0088DC" stroke-width="0.4252" stroke-miterlimit="22.9256"/>
<path d="M71.6739 112.002L69.1037 124.876C67.2189 128.653 63.278 127.451 60.0224 126.25C57.9663 125.563 56.0815 126.078 54.368 127.279H54.1967V127.108C55.9101 125.735 57.9663 125.391 60.0224 126.078C63.1066 127.279 66.8762 128.481 68.761 124.876L71.3312 112.002L72.0166 111.316L72.5307 109.943L72.8733 109.428L73.0447 108.569L73.7301 106.681L73.9014 106.338V105.823L74.7581 103.248L75.2722 102.733L75.4435 102.39V101.875L76.8143 98.2704C76.8143 98.2704 76.9856 98.0987 76.9856 98.2704C76.9856 98.2704 77.157 98.442 76.9856 98.442L75.6149 102.047V102.562L75.4435 102.905L75.1008 103.42L74.4155 105.995V106.51L74.2441 106.853L73.5587 108.741L73.3874 109.599L73.0447 110.114L72.5307 111.488L71.6739 112.002Z" stroke="#0088DC" stroke-width="0.4252" stroke-miterlimit="22.9256"/>
<path d="M77.3283 97.927L75.9576 101.532V102.047L75.6149 102.562L75.1008 103.077L74.2441 105.651V106.166L73.9014 106.51L73.216 108.398L73.0447 109.256L72.702 109.771L72.188 111.144L71.5026 111.831L68.9324 124.705C67.2189 128.138 63.9634 127.451 60.0224 126.078C57.9663 125.391 56.0815 125.906 54.1967 127.108" stroke="#0088DC" stroke-width="0.4252" stroke-miterlimit="22.9256"/>
<path d="M80.2412 104.621V105.308V106.166L78.6991 109.771H78.5278V110.114V110.629L77.8424 112.002L77.3284 112.689V113.204V113.891L76.4716 115.779C75.6149 120.928 74.9295 125.735 73.0447 130.541C71.1599 134.145 66.7049 134.66 63.278 133.459C59.6797 132.429 57.4522 134.317 55.7388 137.235H55.5674V137.064C57.2809 134.145 59.6797 132.086 63.278 133.116C66.7049 134.317 70.9886 133.802 72.8734 130.369C74.5868 125.563 75.4435 120.757 76.3003 115.607L77.157 113.719V113.032V112.346V112.174L77.4997 112.002L78.1851 110.629V110.114V109.599V109.428H78.3564L79.8985 105.823V104.965V104.278L80.2412 103.763L82.2974 98.2704C82.2974 98.2704 82.4687 98.0987 82.4687 98.2704C82.4687 98.2704 82.6401 98.442 82.4687 98.442L80.4126 103.935L80.2412 104.621Z" stroke="#0088DC" stroke-width="0.4252" stroke-miterlimit="22.9256"/>
<path d="M82.4687 98.7853L80.4125 104.278L80.0698 104.793V105.48V106.338L78.5277 109.943L78.185 110.114V110.629V111.144L77.4997 112.517L77.157 112.689V113.376V114.062L76.3002 115.95C75.4435 121.1 74.7581 125.735 72.8733 130.712C71.1599 133.802 67.2189 135.004 63.1066 133.63C59.851 132.601 57.4522 134.317 55.3961 137.578" stroke="#0088DC" stroke-width="0.4252" stroke-miterlimit="22.9256"/>
<path d="M77.4997 97.9271L82.4687 98.6137L84.0108 87.2847C84.0108 87.2847 84.0108 87.113 84.1821 87.113C84.1821 87.113 84.3535 87.113 84.3535 87.2847L82.8114 98.7853C82.8114 98.7853 82.8114 98.7853 82.64 98.7853L77.4997 98.0987C77.4997 98.0987 77.3283 98.0987 77.3283 97.9271L78.5277 88.6579C78.5277 88.6579 78.5277 88.4862 78.6991 88.4862C78.6991 88.4862 78.8704 88.4862 78.8704 88.6579L77.4997 97.9271Z" stroke="#0088DC" stroke-width="0.4252" stroke-miterlimit="22.9256"/>
<path d="M84.0108 87.2847L82.4687 98.7853L77.3283 97.927L78.5277 88.6579" stroke="#0088DC" stroke-width="0.4252" stroke-miterlimit="22.9256"/>
<path d="M86.7523 82.4785C87.7804 83.1651 87.2664 84.5383 86.2383 85.0532C86.4096 85.2249 86.581 85.3965 86.7523 85.7399C86.9237 86.7698 85.7243 87.1131 85.0389 87.2847C84.6962 87.4564 82.8114 87.1131 82.2973 87.1131C76.3002 87.2847 79.3845 91.7476 72.702 92.4342C72.702 92.4342 72.5306 92.4342 72.5306 92.2626C72.5306 92.2626 72.5306 92.0909 72.702 92.0909C79.2131 91.4043 76.3002 86.9414 82.2973 86.7698C82.8114 86.7698 84.6962 87.1131 85.0389 86.9414C86.0669 86.7698 87.4377 85.5682 86.0669 84.8816C86.0669 84.8816 86.0669 84.8816 86.0669 84.7099C86.0669 84.7099 86.067 84.5383 86.2383 84.5383C87.2664 84.195 87.9518 82.8218 86.7523 82.1352C86.7523 82.1352 86.7523 82.1352 86.7523 81.9635V81.7919C87.6091 81.2769 87.4377 79.9037 86.4096 79.5604C85.5529 79.2171 84.6962 79.0455 83.8395 79.0455C82.8114 79.0455 81.4406 79.5604 80.5839 79.7321C80.5839 79.7321 80.4125 79.7321 80.4125 79.5604C80.4125 79.5604 80.4125 79.3888 80.5839 79.3888C81.612 79.0455 82.9827 78.7021 84.0108 78.7021C85.0389 78.7021 85.7243 78.8738 86.581 79.2171C87.2664 80.247 87.6091 81.7919 86.7523 82.4785Z" stroke="#0088DC" stroke-width="0.4252" stroke-miterlimit="22.9256"/>
<path d="M72.3593 92.4341C79.2131 91.5759 75.7862 87.2846 81.9547 87.113C83.1541 87.113 84.1822 87.4563 84.6962 87.2846C86.581 86.9413 86.7524 85.5681 85.7243 85.0531C87.095 84.7098 87.4377 82.9933 86.2383 82.4784C87.2664 81.9634 87.095 80.4186 85.8956 80.0753C85.0389 79.732 84.1822 79.5603 83.3254 79.5603C82.2974 79.5603 81.0979 80.0753 80.0699 80.2469" stroke="#0088DC" stroke-width="0.4252" stroke-miterlimit="22.9256"/>
<path d="M71.3312 96.0389C72.3593 94.8374 73.216 93.6358 74.2441 92.0909" stroke="#0088DC" stroke-width="0.4252" stroke-miterlimit="22.9256"/>
<path d="M83.154 13.303C81.9546 13.9896 80.9266 14.6762 79.8985 15.5345C81.0979 19.4825 82.126 23.6021 82.126 27.8934C82.126 27.8934 82.126 28.065 81.9546 28.065C81.9546 28.065 81.7833 28.065 81.7833 27.8934C81.7833 23.6021 80.7552 19.4825 79.5558 15.5345V15.3628C80.5839 14.5046 81.7833 13.6463 82.9827 12.9597C82.9827 12.9597 82.9827 12.9597 83.154 12.9597C85.0388 17.4226 87.4377 21.8856 90.5219 25.4903V25.6619H90.3506C87.4377 22.0572 85.0388 17.5943 83.154 13.303Z" stroke="#0088DC" stroke-width="0.4252" stroke-miterlimit="22.9256"/>
<path d="M82.126 27.7217C82.126 24.2887 81.4406 20.3407 79.8985 15.3628C80.9266 14.5046 82.126 13.6463 83.3254 12.9597C85.3816 17.766 87.7804 22.0572 90.8646 25.4903" stroke="#0088DC" stroke-width="0.4252" stroke-miterlimit="22.9256"/>
<path d="M113.825 15.3627C112.797 14.5045 111.769 13.8179 110.569 13.1313C108.685 17.7659 105.6 22.7437 102.345 26.3484H102.173V26.1768C105.429 22.4004 108.513 17.4225 110.398 12.788C110.398 12.788 110.398 12.788 110.569 12.788C111.769 13.4746 112.968 14.1612 113.996 15.1911C113.996 15.1911 113.996 15.1911 113.996 15.3627C112.626 19.4824 111.769 23.602 111.769 27.8933V31.8413C111.769 31.8413 111.769 32.0129 111.597 32.0129C111.597 32.0129 111.426 32.0129 111.426 31.8413V27.8933C111.597 23.7736 112.454 19.4824 113.825 15.3627Z" stroke="#0088DC" stroke-width="0.4252" stroke-miterlimit="22.9256"/>
<path d="M102.345 26.3485C105.429 22.9155 108.513 17.766 110.569 12.9597C111.769 13.6463 112.968 14.3329 113.996 15.3628C112.454 20.5124 111.769 24.4603 111.769 28.065V32.013" stroke="#0088DC" stroke-width="0.4252" stroke-miterlimit="22.9256"/>
<path d="M107.485 41.4537C108.513 41.797 109.37 42.8269 109.37 44.0285C109.37 45.4017 108.171 46.6033 106.8 46.6033C106.114 46.6033 105.6 46.4316 105.086 45.9166L103.202 50.3796C102.345 49.693 101.488 49.178 100.46 49.0064L75.7862 45.5733L74.2441 41.2821C73.7301 41.6254 73.216 41.797 72.702 41.797C71.1599 41.797 69.7891 40.5955 69.7891 38.8789C69.7891 37.849 70.3032 37.1624 70.9885 36.6475C70.9885 36.4758 70.9885 36.3042 70.9885 36.1325C70.9885 33.9011 72.702 32.1846 74.9295 32.1846C75.7862 32.1846 76.643 32.5279 77.3283 33.0428V32.8712C77.3283 30.1247 79.5558 27.8933 82.2974 27.8933C82.8114 27.8933 83.1541 27.8933 83.6681 28.0649C84.3535 27.2067 85.5529 26.5201 86.7524 26.5201C87.7804 26.5201 88.6372 26.8634 89.3225 27.55C90.1793 25.4902 92.2354 24.1169 94.6343 24.1169C96.6904 24.1169 98.4039 25.1469 99.4319 26.6917C99.946 26.5201 100.631 26.3484 101.317 26.3484C104.058 26.3484 106.286 28.5799 106.286 31.3263C106.286 32.0129 106.114 32.5279 105.943 33.2145C108.171 33.3861 109.884 35.2743 109.884 37.5057C110.055 39.3939 109.027 40.9388 107.485 41.4537Z" stroke="#0088DC" stroke-width="0.4252" stroke-miterlimit="22.9256"/>
<path d="M103.03 50.3796L105.943 43.1703C105.943 43.1703 106.114 42.9986 106.114 43.1703C106.114 43.1703 106.286 43.3419 106.114 43.3419L103.201 50.5513C103.373 50.5513 103.201 50.5513 103.03 50.3796Z" stroke="#0088DC" stroke-width="0.4252" stroke-miterlimit="22.9256"/>
<path d="M103.202 50.3796L106.286 43.1703" stroke="#0088DC" stroke-width="0.4252" stroke-miterlimit="22.9256"/>
<path fill-rule="evenodd" clip-rule="evenodd" d="M75.6149 45.5734L73.3874 39.2223V39.0507H73.5587L75.7862 45.2301C75.9576 45.5734 75.7862 45.5734 75.6149 45.5734C75.7862 45.5734 75.6149 45.5734 75.6149 45.5734Z" fill="#0088DC"/>
<path d="M75.6149 45.5734L73.3874 39.2223V39.0507H73.5587L75.7862 45.2301C75.9576 45.5734 75.7862 45.5734 75.6149 45.5734ZM75.6149 45.5734C75.7862 45.5734 75.6149 45.5734 75.6149 45.5734Z" stroke="#0088DC" stroke-width="0.4252" stroke-miterlimit="22.9256"/>
<path d="M75.7862 45.5734L73.5587 39.2223" stroke="#0088DC" stroke-width="0.4252" stroke-miterlimit="22.9256"/>
<path d="M83.6681 38.7074L83.1541 42.9987C83.1541 42.9987 83.1541 43.1703 82.9827 43.1703C82.9827 43.1703 82.8114 43.1703 82.8114 42.9987L83.3254 38.7074C83.3254 38.7074 83.4968 38.7074 83.6681 38.7074Z" stroke="#0088DC" stroke-width="0.4252" stroke-miterlimit="22.9256"/>
<path d="M83.4968 38.7074L82.9827 42.9987" stroke="#0088DC" stroke-width="0.4252" stroke-miterlimit="22.9256"/>
<path d="M88.8085 39.5656L88.2945 43.8569C88.2945 43.8569 88.2945 44.0286 88.1231 44.0286C88.1231 44.0286 87.9518 44.0286 87.9518 43.8569L88.4658 39.5656C88.6372 39.394 88.6372 39.394 88.8085 39.5656ZM88.8085 39.5656C88.8085 39.394 88.8085 39.394 88.8085 39.5656Z" stroke="#0088DC" stroke-width="0.4252" stroke-miterlimit="22.9256"/>
<path d="M88.6371 39.3939L88.1231 43.6852" stroke="#0088DC" stroke-width="0.4252" stroke-miterlimit="22.9256"/>
<path d="M93.9489 40.2522L93.4348 44.3718C93.4348 44.3718 93.4349 44.5435 93.2635 44.5435C93.2635 44.5435 93.0922 44.5435 93.0922 44.3718L93.6062 40.0806C93.7775 40.0806 93.7775 40.0806 93.9489 40.2522ZM93.9489 40.2522C93.9489 40.0806 93.9489 40.0806 93.9489 40.2522Z" stroke="#0088DC" stroke-width="0.4252" stroke-miterlimit="22.9256"/>
<path d="M93.9489 40.2522L93.2635 44.3718" stroke="#0088DC" stroke-width="0.4252" stroke-miterlimit="22.9256"/>
<path d="M99.2606 40.9388L98.7466 45.2301C98.7466 45.2301 98.7466 45.4017 98.5752 45.4017C98.5752 45.4017 98.4039 45.4017 98.4039 45.2301L98.9179 40.9388C98.9179 40.7671 99.0893 40.7671 99.2606 40.9388ZM99.2606 40.9388C99.0893 40.7671 99.2606 40.9388 99.2606 40.9388Z" stroke="#0088DC" stroke-width="0.4252" stroke-miterlimit="22.9256"/>
<path d="M99.0893 40.9388L98.4039 45.0585" stroke="#0088DC" stroke-width="0.4252" stroke-miterlimit="22.9256"/>
<path d="M83.6681 36.9908L83.8394 35.6176C83.8394 35.6176 83.8394 35.4459 84.0108 35.4459C84.0108 35.4459 84.1821 35.4459 84.1821 35.6176L84.0108 36.9908C83.8394 36.9908 83.8394 37.1624 83.6681 36.9908ZM83.6681 36.9908C83.6681 37.1624 83.6681 36.9908 83.6681 36.9908Z" stroke="#0088DC" stroke-width="0.4252" stroke-miterlimit="22.9256"/>
<path d="M83.8395 36.9909L84.0108 35.6177" stroke="#0088DC" stroke-width="0.4252" stroke-miterlimit="22.9256"/>
<path d="M88.8085 37.6774L88.9798 36.3042C88.9798 36.3042 88.9798 36.1326 89.1512 36.1326C89.1512 36.1326 89.3225 36.1326 89.3225 36.3042L89.1512 37.6774C88.9798 37.8491 88.9798 37.8491 88.8085 37.6774ZM88.8085 37.6774C88.8085 37.8491 88.8085 37.6774 88.8085 37.6774Z" stroke="#0088DC" stroke-width="0.4252" stroke-miterlimit="22.9256"/>
<path d="M88.9799 37.6774L89.1512 36.3042" stroke="#0088DC" stroke-width="0.4252" stroke-miterlimit="22.9256"/>
<path d="M93.9489 38.3641L94.1202 36.9909C94.1202 36.9909 94.1202 36.8192 94.2915 36.8192C94.2915 36.8192 94.4629 36.8192 94.4629 36.9909L94.2915 38.3641C94.2915 38.5357 94.1202 38.5357 93.9489 38.3641ZM93.9489 38.3641C94.1202 38.5357 93.9489 38.5357 93.9489 38.3641Z" stroke="#0088DC" stroke-width="0.4252" stroke-miterlimit="22.9256"/>
<path d="M94.1202 38.3641L94.2916 36.9908" stroke="#0088DC" stroke-width="0.4252" stroke-miterlimit="22.9256"/>
<path d="M99.2606 39.0506L99.4319 37.6774C99.4319 37.6774 99.4319 37.5057 99.6033 37.5057C99.6033 37.5057 99.7746 37.5057 99.7746 37.6774L99.4319 39.2222C99.4319 39.2222 99.4319 39.2222 99.2606 39.0506ZM99.2606 39.0506C99.2606 39.2222 99.2606 39.2222 99.2606 39.0506Z" stroke="#0088DC" stroke-width="0.4252" stroke-miterlimit="22.9256"/>
<path d="M99.2606 39.0507L99.4319 37.6775" stroke="#0088DC" stroke-width="0.4252" stroke-miterlimit="22.9256"/>
<path fill-rule="evenodd" clip-rule="evenodd" d="M62.7639 37.6774C62.5926 38.0207 62.5926 38.364 62.5926 38.7073C62.5926 39.0506 62.5926 39.5656 62.7639 39.9089C63.1066 40.7671 63.6207 41.4537 64.306 41.9687C64.9914 42.312 66.0195 42.4836 66.8762 42.312L66.7049 41.9687C65.8482 42.1403 65.1628 42.1403 64.4774 41.797C63.792 41.4537 63.278 40.7671 63.1066 40.0805C62.9353 39.7372 62.9353 39.3939 62.9353 39.0506C62.9353 38.7073 63.1066 38.364 63.278 38.0207L63.1066 37.8491C62.4212 37.8491 61.7359 37.6774 61.2218 37.3341C60.7078 36.9908 60.1937 36.4758 60.0224 35.7892C59.851 34.931 59.8511 34.2444 60.1937 33.5578C60.5364 32.8712 61.2218 32.3562 61.9072 32.1846C62.0785 32.1846 62.2499 32.0129 62.5926 32.0129C62.7639 32.0129 62.9353 32.0129 63.278 32.0129L63.4493 31.8413C63.4493 31.6696 63.278 31.6696 63.278 31.498C63.278 31.3263 63.1066 31.3263 63.1066 31.1547C62.9353 30.6397 63.1066 30.1248 63.278 29.7815C63.4493 29.4381 63.9633 29.0948 64.306 28.9232C64.8201 28.7515 65.3341 28.9232 65.6768 29.0948C66.0195 29.2665 66.3622 29.6098 66.5335 30.1248H66.7049C66.8762 30.1248 66.7049 30.1248 66.7049 29.9531C66.5335 29.4381 66.1908 29.0948 65.8482 28.9232C65.3341 28.5799 64.8201 28.5799 64.306 28.7515C63.792 28.9232 63.278 29.2665 63.1066 29.7815C62.7639 30.2964 62.7639 30.8114 62.9353 31.3263C62.9353 31.498 63.1066 31.6696 63.1066 31.6696C62.9353 31.6696 62.9353 31.6696 62.7639 31.6696C62.5926 31.6696 62.2499 31.6696 62.0785 31.8413C61.2218 32.1846 60.5364 32.6995 60.0224 33.3861C59.6797 34.0727 59.5084 35.1026 59.6797 35.9609C59.8511 36.6475 60.3651 37.3341 61.0505 37.6774C61.3932 37.5058 62.0785 37.6774 62.7639 37.6774Z" fill="#0088DC" stroke="#0088DC" stroke-width="0.2835" stroke-miterlimit="22.9256"/>
<path d="M111.769 29.6098C113.654 33.2145 114.168 36.3042 113.482 40.2522C113.482 40.2522 113.482 40.4238 113.311 40.4238C113.311 40.4238 113.14 40.4238 113.14 40.2522C113.825 36.3042 113.311 33.3861 111.426 29.7815C111.597 29.6098 111.597 29.6098 111.769 29.6098ZM111.769 29.6098C111.769 29.4382 111.769 29.4382 111.769 29.6098Z" stroke="#0088DC" stroke-width="0.4252" stroke-miterlimit="22.9256"/>
<path d="M111.769 29.6099C113.996 33.9011 113.996 37.1625 113.482 40.0806" stroke="#0088DC" stroke-width="0.4252" stroke-miterlimit="22.9256"/>
<path d="M83.3254 12.9597C92.4067 16.9077 101.488 16.9077 110.569 12.9597H110.741V13.1314C101.659 17.0793 92.4067 17.251 83.3254 13.1314C83.1541 13.1314 83.1541 13.1314 83.3254 12.9597ZM83.3254 12.9597C83.1541 12.9597 83.3254 12.9597 83.3254 12.9597Z" stroke="#0088DC" stroke-width="0.4252" stroke-miterlimit="22.9256"/>
<path d="M83.3254 13.1313C92.2354 17.0793 101.317 17.251 110.569 13.1313" stroke="#0088DC" stroke-width="0.4252" stroke-miterlimit="22.9256"/>
<path d="M116.909 93.2925L115.024 69.7763C115.024 69.7763 115.024 69.6046 115.196 69.6046C115.196 69.6046 115.367 69.6046 115.367 69.7763L117.252 93.4641C117.252 93.4641 117.252 93.4641 117.252 93.6358C105.772 103.763 97.3757 110.629 81.7833 112.861C81.7833 112.861 81.6119 112.861 81.6119 112.689C81.6119 112.689 81.6119 112.517 81.7833 112.517C97.0331 110.286 105.258 103.42 116.909 93.2925Z" stroke="#0088DC" stroke-width="0.4252" stroke-miterlimit="22.9256"/>
<path d="M115.024 69.6046L116.909 93.2925C103.716 104.965 96.005 110.458 81.6119 112.517" stroke="#0088DC" stroke-width="0.4252" stroke-miterlimit="22.9256"/>
<path d="M81.6119 119.383C81.9546 119.555 82.2973 119.555 82.64 119.383H82.8114C82.9827 119.555 83.154 119.555 83.4967 119.383C83.4967 119.383 83.4967 119.383 83.6681 119.383C84.0108 119.555 84.3535 119.555 84.8675 119.555C84.8675 119.555 84.8675 119.555 85.0389 119.555C85.2102 119.727 85.5529 119.727 85.7242 119.555C85.7242 119.555 85.7242 119.555 85.8956 119.555C85.8956 119.898 86.2383 119.898 86.581 119.898C86.581 119.898 86.581 119.898 86.7523 119.898C87.4377 120.242 88.2944 120.242 88.9798 120.07C88.9798 120.07 88.9798 120.07 89.1511 120.07C89.4938 120.413 89.8365 120.413 90.1792 120.07C90.1792 120.07 90.1792 120.07 90.3506 120.07C91.7213 120.413 93.2634 120.413 94.6342 120.07C94.6342 120.07 94.6342 120.07 94.8056 120.07C95.1482 120.413 95.4909 120.413 96.005 120.07C96.005 120.07 96.005 120.07 96.1763 120.07C96.6904 120.242 100.117 120.585 100.631 120.07C101.145 119.383 101.659 119.212 102.516 119.383C103.201 119.727 104.058 119.727 104.744 119.383C104.744 119.383 104.744 119.383 104.915 119.383C105.6 119.727 106.457 119.727 107.142 119.383C107.656 119.212 107.999 119.212 108.513 119.383C109.541 119.212 111.083 119.727 111.769 118.869C111.769 118.869 111.769 118.869 111.94 118.869C112.626 119.04 113.311 118.869 113.825 118.525C113.825 118.525 113.825 118.525 113.996 118.525C114.51 118.869 115.196 118.869 115.71 118.525C116.224 118.697 116.566 118.525 116.909 118.182C117.937 117.495 119.479 117.667 120.336 116.809C118.451 109.256 117.766 101.017 117.252 93.2925C117.252 93.2925 117.252 93.1208 117.423 93.1208C117.423 93.1208 117.595 93.1208 117.595 93.2925C118.109 101.017 118.794 109.428 120.679 116.809V116.98C119.822 117.839 118.28 117.667 117.252 118.354C116.909 118.697 116.395 118.869 115.881 118.697C115.196 119.04 114.682 119.04 113.996 118.697C113.311 119.04 112.797 119.212 111.94 119.04C111.083 119.898 109.713 119.212 108.513 119.555C108.171 119.383 107.828 119.383 107.314 119.555C106.457 119.898 105.772 119.898 104.915 119.555C104.058 119.898 103.373 119.898 102.516 119.555C101.831 119.383 101.317 119.555 100.974 120.07C100.631 120.585 97.033 120.242 96.3477 120.07C95.8336 120.413 95.4909 120.413 94.9769 120.07C93.6061 120.413 92.064 120.413 90.6933 120.07C90.3506 120.413 89.8365 120.413 89.4938 120.07C88.6371 120.242 87.9517 120.242 87.095 119.898C86.581 120.07 86.2383 120.07 85.8956 119.727C85.5529 119.898 85.3815 119.898 85.0389 119.727C84.6962 119.898 84.1821 119.898 83.8394 119.555C83.4967 119.727 83.3254 119.727 82.9827 119.555C82.64 119.727 82.126 119.727 81.7833 119.383C81.7833 119.383 81.7833 119.383 81.7833 119.212V107.196C81.7833 107.196 81.7833 107.025 81.9546 107.025C82.126 107.025 82.126 107.025 82.126 107.196V119.383H81.6119Z" stroke="#0088DC" stroke-width="0.4252" stroke-miterlimit="22.9256"/>
<path d="M81.4406 107.54V119.555C81.7833 119.727 82.126 119.727 82.64 119.727C82.9827 119.898 83.1541 119.898 83.4968 119.727C83.8395 120.07 84.3535 119.898 84.6962 119.898C84.8675 120.07 85.2102 120.07 85.5529 119.898C86.0669 120.242 86.4096 120.07 86.7523 120.07C87.6091 120.413 88.2944 120.413 89.1512 120.242C89.4939 120.585 90.0079 120.585 90.3506 120.242C91.8927 120.585 93.2635 120.585 94.6342 120.242C95.1483 120.585 95.491 120.585 96.005 120.242C98.4038 120.585 100.46 120.413 100.631 120.242C101.145 119.555 101.659 119.383 102.345 119.555C103.03 119.898 103.887 119.898 104.744 119.555C105.6 119.898 106.286 119.898 107.142 119.555C107.485 119.383 107.999 119.383 108.342 119.555C109.713 119.212 110.912 119.898 111.769 119.04C112.626 119.212 113.14 119.04 113.825 118.697C114.51 119.04 115.024 119.04 115.71 118.697C116.224 118.869 116.738 118.697 117.081 118.354C118.28 117.667 119.651 117.839 120.507 116.98C118.623 110.114 117.937 101.703 117.423 93.2925" stroke="#0088DC" stroke-width="0.4252" stroke-miterlimit="22.9256"/>
<path d="M115.196 95.009C115.538 102.733 115.71 110.629 116.738 118.182C116.738 118.182 116.738 118.354 116.567 118.354C116.567 118.354 116.395 118.354 116.395 118.182C115.367 110.458 115.024 102.733 114.682 95.009C115.024 94.8373 115.024 94.8373 115.196 95.009ZM115.196 95.009C115.196 94.8373 115.196 94.8373 115.196 95.009Z" stroke="#0088DC" stroke-width="0.4252" stroke-miterlimit="22.9256"/>
<path d="M115.024 95.0089C115.367 102.905 115.538 110.801 116.567 118.182" stroke="#0088DC" stroke-width="0.4252" stroke-miterlimit="22.9256"/>
<path d="M114.339 95.6956C114.339 103.248 114.51 111.144 115.538 118.525C115.538 118.525 115.538 118.697 115.367 118.697C115.367 118.697 115.196 118.697 115.196 118.525C114.168 111.144 114.168 103.248 113.996 95.6956C113.996 95.6956 114.168 95.6956 114.339 95.6956Z" stroke="#0088DC" stroke-width="0.4252" stroke-miterlimit="22.9256"/>
<path d="M114.168 95.6956C114.339 104.278 114.51 112.346 115.367 118.525" stroke="#0088DC" stroke-width="0.4252" stroke-miterlimit="22.9256"/>
<path d="M110.227 99.1285L111.597 119.04C111.597 119.04 111.597 119.212 111.426 119.212C111.426 119.212 111.255 119.212 111.255 119.04L109.884 99.3002C110.055 99.1285 110.055 99.1285 110.227 99.1285ZM110.227 99.1285C110.227 98.9569 110.227 99.1285 110.227 99.1285Z" stroke="#0088DC" stroke-width="0.4252" stroke-miterlimit="22.9256"/>
<path d="M110.055 99.1285L111.597 119.04" stroke="#0088DC" stroke-width="0.4252" stroke-miterlimit="22.9256"/>
<path d="M107.657 108.569L108.342 119.212C108.342 119.212 108.342 119.383 108.171 119.383C108.171 119.383 107.999 119.383 107.999 119.212L107.314 108.569C107.314 108.569 107.314 108.569 107.657 108.569ZM107.657 108.569C107.485 108.569 107.657 108.569 107.657 108.569Z" stroke="#0088DC" stroke-width="0.4252" stroke-miterlimit="22.9256"/>
<path d="M107.485 108.569L108.171 119.383" stroke="#0088DC" stroke-width="0.4252" stroke-miterlimit="22.9256"/>
<path d="M106.457 110.629L106.971 119.555C106.971 119.555 106.971 119.727 106.8 119.727C106.8 119.727 106.628 119.727 106.628 119.555L106.114 110.629C106.286 110.458 106.286 110.458 106.457 110.629ZM106.457 110.629C106.457 110.458 106.457 110.458 106.457 110.629Z" stroke="#0088DC" stroke-width="0.4252" stroke-miterlimit="22.9256"/>
<path d="M106.457 110.629L106.971 119.555" stroke="#0088DC" stroke-width="0.4252" stroke-miterlimit="22.9256"/>
<path d="M104.23 103.763L104.744 119.555C104.744 119.555 104.744 119.727 104.572 119.727C104.572 119.727 104.401 119.727 104.401 119.555L103.887 103.763C103.887 103.763 104.058 103.592 104.23 103.763ZM104.23 103.763C104.058 103.592 104.23 103.763 104.23 103.763Z" stroke="#0088DC" stroke-width="0.4252" stroke-miterlimit="22.9256"/>
<path d="M104.058 103.763L104.572 119.555" stroke="#0088DC" stroke-width="0.4252" stroke-miterlimit="22.9256"/>
<path d="M101.488 105.651L102.345 119.555C102.345 119.555 102.345 119.727 102.173 119.727C102.173 119.727 102.002 119.727 102.002 119.555L101.317 105.651C101.145 105.651 101.317 105.48 101.488 105.651ZM101.488 105.651C101.488 105.48 101.488 105.651 101.488 105.651Z" stroke="#0088DC" stroke-width="0.4252" stroke-miterlimit="22.9256"/>
<path d="M101.317 105.651L102.173 119.555" stroke="#0088DC" stroke-width="0.4252" stroke-miterlimit="22.9256"/>
<path d="M100.631 106.338V120.242C100.631 120.242 100.631 120.413 100.46 120.413C100.46 120.413 100.289 120.413 100.289 120.242V106.338C100.289 106.166 100.289 106.166 100.631 106.338ZM100.631 106.338C100.46 106.166 100.631 106.166 100.631 106.338Z" stroke="#0088DC" stroke-width="0.4252" stroke-miterlimit="22.9256"/>
<path d="M100.46 106.338V120.07" stroke="#0088DC" stroke-width="0.4252" stroke-miterlimit="22.9256"/>
<path d="M99.4319 107.024V115.779C99.4319 115.779 99.4319 115.95 99.2606 115.95C99.2606 115.95 99.0892 115.95 99.0892 115.779V107.024C99.0892 106.853 99.2606 106.853 99.4319 107.024ZM99.4319 107.024C99.2606 106.853 99.4319 106.853 99.4319 107.024Z" stroke="#0088DC" stroke-width="0.4252" stroke-miterlimit="22.9256"/>
<path d="M99.2606 107.025V115.779" stroke="#0088DC" stroke-width="0.4252" stroke-miterlimit="22.9256"/>
<path d="M95.6623 109.084L96.005 120.07C96.005 120.07 96.005 120.242 95.8337 120.242C95.8337 120.242 95.6623 120.242 95.6623 120.07L95.3196 109.084C95.491 109.084 95.491 108.913 95.6623 109.084ZM95.6623 109.084C95.6623 108.913 95.6623 109.084 95.6623 109.084Z" stroke="#0088DC" stroke-width="0.4252" stroke-miterlimit="22.9256"/>
<path d="M95.6624 109.084L95.8337 120.07" stroke="#0088DC" stroke-width="0.4252" stroke-miterlimit="22.9256"/>
<path d="M94.8056 109.599L94.6343 120.242C94.6343 120.242 94.6343 120.413 94.4629 120.413C94.4629 120.413 94.2916 120.413 94.2916 120.242L94.4629 109.599C94.6343 109.428 94.6343 109.428 94.8056 109.599ZM94.8056 109.599C94.8056 109.428 94.8056 109.428 94.8056 109.599Z" stroke="#0088DC" stroke-width="0.4252" stroke-miterlimit="22.9256"/>
<path d="M94.6342 109.599V120.07" stroke="#0088DC" stroke-width="0.4252" stroke-miterlimit="22.9256"/>
<path d="M89.8366 111.316L90.3506 120.07C90.3506 120.07 90.3506 120.242 90.1793 120.242C90.1793 120.242 90.0079 120.242 90.0079 120.07L89.6652 111.316C89.6652 111.316 89.6652 111.144 89.8366 111.316ZM89.8366 111.316C89.8366 111.144 89.8366 111.316 89.8366 111.316Z" stroke="#0088DC" stroke-width="0.4252" stroke-miterlimit="22.9256"/>
<path d="M89.6652 111.316L90.1793 120.07" stroke="#0088DC" stroke-width="0.4252" stroke-miterlimit="22.9256"/>
<path d="M89.1512 111.487V120.07C89.1512 120.07 89.1512 120.242 88.9798 120.242C88.8085 120.242 88.8085 120.242 88.8085 120.07V111.487C88.9798 111.487 88.9798 111.487 89.1512 111.487Z" stroke="#0088DC" stroke-width="0.4252" stroke-miterlimit="22.9256"/>
<path d="M88.9799 111.487V120.07" stroke="#0088DC" stroke-width="0.4252" stroke-miterlimit="22.9256"/>
<path d="M86.581 112.861L86.7523 119.898C86.7523 119.898 86.7523 120.07 86.581 120.07C86.581 120.07 86.4096 120.07 86.4096 119.898L86.2383 112.861C86.4096 112.861 86.4096 112.689 86.581 112.861ZM86.581 112.861C86.581 112.689 86.581 112.861 86.581 112.861Z" stroke="#0088DC" stroke-width="0.4252" stroke-miterlimit="22.9256"/>
<path d="M86.4097 112.861L86.581 119.898" stroke="#0088DC" stroke-width="0.4252" stroke-miterlimit="22.9256"/>
<path d="M84.5248 113.376L84.6962 119.727C84.6962 119.727 84.6962 119.898 84.5248 119.898C84.5248 119.898 84.3535 119.898 84.3535 119.727L84.1821 113.376C84.3535 113.376 84.3535 113.204 84.5248 113.376ZM84.5248 113.376C84.5248 113.204 84.5248 113.376 84.5248 113.376Z" stroke="#0088DC" stroke-width="0.4252" stroke-miterlimit="22.9256"/>
<path d="M84.5248 113.376L84.6962 119.727" stroke="#0088DC" stroke-width="0.4252" stroke-miterlimit="22.9256"/>
<path d="M82.6401 114.749L82.8114 119.727C82.8114 119.727 82.8114 119.898 82.6401 119.898C82.6401 119.898 82.4687 119.898 82.4687 119.727L82.2974 114.749C82.2974 114.577 82.4687 114.577 82.6401 114.749ZM82.6401 114.749C82.4687 114.577 82.6401 114.577 82.6401 114.749Z" stroke="#0088DC" stroke-width="0.4252" stroke-miterlimit="22.9256"/>
<path d="M82.4687 114.749L82.64 119.555" stroke="#0088DC" stroke-width="0.4252" stroke-miterlimit="22.9256"/>
<path d="M85.5529 64.2834C86.2383 64.455 86.581 64.97 86.581 65.6566L85.7243 72.351C85.5529 73.0376 85.0389 73.3809 84.3535 73.3809C83.6681 73.2093 83.3254 72.6943 83.3254 72.0077L84.1822 65.3133C84.3535 64.6267 85.0389 64.1117 85.5529 64.2834Z" stroke="#0088DC" stroke-width="0.4252" stroke-miterlimit="22.9256"/>
<path d="M75.9576 101.703L80.4126 104.278" stroke="#0088DC" stroke-width="0.4252" stroke-miterlimit="22.9256"/>
<path d="M75.6149 102.39L80.0699 105.308" stroke="#0088DC" stroke-width="0.4252" stroke-miterlimit="22.9256"/>
<path d="M74.4155 105.651L78.3564 109.771" stroke="#0088DC" stroke-width="0.4252" stroke-miterlimit="22.9256"/>
<path d="M74.0728 106.51L78.1851 110.457" stroke="#0088DC" stroke-width="0.4252" stroke-miterlimit="22.9256"/>
<path d="M73.3874 108.569L77.4997 112.346" stroke="#0088DC" stroke-width="0.4252" stroke-miterlimit="22.9256"/>
<path d="M72.8734 109.771L77.157 113.204" stroke="#0088DC" stroke-width="0.4252" stroke-miterlimit="22.9256"/>
<path d="M72.3593 111.144L76.3003 115.779" stroke="#0088DC" stroke-width="0.4252" stroke-miterlimit="22.9256"/>
<path d="M69.9604 120.413L74.7581 123.675" stroke="#0088DC" stroke-width="0.4252" stroke-miterlimit="22.9256"/>
<path d="M69.7891 120.928L74.4155 125.22" stroke="#0088DC" stroke-width="0.4252" stroke-miterlimit="22.9256"/>
<path d="M65.3341 127.279L67.7329 133.974" stroke="#0088DC" stroke-width="0.4252" stroke-miterlimit="22.9256"/>
<path d="M64.8201 127.279L66.8762 133.974" stroke="#0088DC" stroke-width="0.4252" stroke-miterlimit="22.9256"/>
<path d="M63.6207 127.108L64.1347 133.631" stroke="#0088DC" stroke-width="0.4252" stroke-miterlimit="22.9256"/>
<path d="M62.9353 127.108V133.287" stroke="#0088DC" stroke-width="0.4252" stroke-miterlimit="22.9256"/>
<path d="M57.6235 125.906L58.9943 133.63" stroke="#0088DC" stroke-width="0.4252" stroke-miterlimit="22.9256"/>
<path d="M55.9101 126.421L58.6516 133.974" stroke="#0088DC" stroke-width="0.4252" stroke-miterlimit="22.9256"/>
<path d="M45.458 136.377L39.8036 140.84H39.6323V140.668L45.2867 136.205H45.458V136.377Z" stroke="#0088DC" stroke-width="0.4252" stroke-miterlimit="22.9256"/>
<path d="M45.2867 136.205L39.8036 140.668" stroke="#0088DC" stroke-width="0.4252" stroke-miterlimit="22.9256"/>
<path d="M41.3457 139.81L41.003 155.945C41.003 155.945 41.003 156.117 40.8317 156.117C40.8317 156.117 40.6603 156.117 40.6603 155.945L41.003 139.81C41.003 139.638 41.1744 139.638 41.3457 139.81ZM41.3457 139.81C41.3457 139.638 41.3457 139.638 41.3457 139.81Z" stroke="#0088DC" stroke-width="0.4252" stroke-miterlimit="22.9256"/>
<path d="M41.1744 139.81L40.8317 155.945" stroke="#0088DC" stroke-width="0.4252" stroke-miterlimit="22.9256"/>
<path d="M38.4328 58.9622C39.8036 63.7684 41.8597 68.0597 45.1153 72.0077V72.1793H44.944C41.6884 68.2313 39.6322 63.94 38.2615 58.9622C38.0901 58.9622 38.0901 58.9622 38.4328 58.9622ZM38.4328 58.9622C38.2615 58.9622 38.2615 58.9622 38.4328 58.9622Z" stroke="#0088DC" stroke-width="0.4252" stroke-miterlimit="22.9256"/>
<path d="M38.2615 59.1338C39.6322 64.455 42.0311 68.7463 44.944 72.1793" stroke="#0088DC" stroke-width="0.4252" stroke-miterlimit="22.9256"/>
<path d="M76.4716 45.7451L99.9459 49.0064C103.03 49.3497 105.086 52.2678 104.744 55.3575C104.401 58.4473 101.488 60.5071 98.4038 60.1638L74.9295 56.9024C71.8452 56.5591 69.7891 53.641 70.1318 50.5513C70.6458 47.4616 73.5587 45.4018 76.4716 45.7451Z" stroke="#0088DC" stroke-width="0.4252" stroke-miterlimit="22.9256"/>
<path d="M76.4716 45.9167L99.946 49.1781C102.859 49.5214 105.086 52.4395 104.572 55.3576C104.23 58.2756 101.317 60.5071 98.4038 59.9921L74.9295 56.7308C72.0166 56.3875 69.7891 53.4694 70.3031 50.5513C70.8172 47.6333 73.5587 45.4018 76.4716 45.9167Z" stroke="#0088DC" stroke-width="0.4252" stroke-miterlimit="22.9256"/>
<path d="M75.7862 47.1182L97.7184 50.208C100.289 50.5513 102.173 52.9544 101.831 55.5291C101.488 58.1039 99.0892 59.9921 96.519 59.6488L74.5868 56.5591C72.0166 56.2158 70.1318 53.8126 70.4745 51.2379C70.8172 48.4914 73.216 46.7749 75.7862 47.1182Z" stroke="#0088DC" stroke-width="0.4252" stroke-miterlimit="22.9256"/>
<path d="M75.7862 47.29L97.7184 50.3797C100.289 50.723 102.002 53.1261 101.659 55.7009C101.317 58.104 98.9179 59.8205 96.3477 59.4772L74.4154 56.3875C71.8452 56.0442 70.1318 53.6411 70.4745 51.0663C70.8172 48.6632 73.216 46.9467 75.7862 47.29Z" stroke="#0088DC" stroke-width="0.4252" stroke-miterlimit="22.9256"/>
<path d="M81.2692 2.83228H94.4629C94.4629 2.83228 94.6342 2.83228 94.6342 3.00393C94.6342 3.17558 94.6342 3.17558 94.4629 3.17558H81.0979C81.0979 3.00393 81.0979 3.00393 81.2692 2.83228ZM81.2692 2.83228C81.0979 2.83228 81.0979 2.83228 81.2692 2.83228Z" stroke="#0088DC" stroke-width="0.4252" stroke-miterlimit="22.9256"/>
<path d="M81.2693 2.83228H94.4629" stroke="#0088DC" stroke-width="0.4252" stroke-miterlimit="22.9256"/>
<path d="M98.9179 2.83228L111.426 3.00393C118.109 2.83228 123.592 8.32511 123.592 15.0195V35.961C123.592 35.961 123.592 36.1326 123.42 36.1326C123.42 36.1326 123.249 36.1326 123.249 35.961V15.0195C123.249 8.49677 117.766 3.17558 111.255 3.17558L98.7465 3.00393C98.9179 3.00393 98.7465 3.00393 98.9179 2.83228ZM98.9179 2.83228C98.7465 2.83228 98.9179 2.83228 98.9179 2.83228Z" stroke="#0088DC" stroke-width="0.4252" stroke-miterlimit="22.9256"/>
<path d="M98.9179 2.83228L111.426 3.00393C117.423 2.83228 123.42 7.81016 123.42 15.0195V35.961" stroke="#0088DC" stroke-width="0.4252" stroke-miterlimit="22.9256"/>
<path d="M93.6062 3.51887V1.97401C93.6062 -0.257457 97.0331 -0.0858057 97.0331 1.97401V6.60859C97.0331 6.60859 97.0331 6.78024 96.8618 6.78024C96.8618 6.78024 96.6904 6.78024 96.6904 6.60859V1.97401C96.6904 0.257497 93.7775 0.0858456 93.7775 1.97401V3.51887C93.7775 3.51887 93.7775 3.69052 93.6062 3.51887ZM93.6062 3.51887C93.6062 3.69052 93.6062 3.51887 93.6062 3.51887Z" stroke="#0088DC" stroke-width="0.4252" stroke-miterlimit="22.9256"/>
<path d="M93.7775 3.51885V1.97399C93.7775 -0.0858261 96.8617 0.0858252 96.8617 1.97399V6.60857" stroke="#0088DC" stroke-width="0.4252" stroke-miterlimit="22.9256"/>
<path d="M67.5616 89.0011C69.4464 87.1129 70.3032 85.3964 71.6739 82.9933C72.0166 82.3067 72.3593 81.6201 72.8734 81.1051C74.7582 78.1871 78.8705 75.0974 78.8705 71.4927C78.8705 70.8061 79.7272 70.9777 80.2412 71.1494C81.098 71.6643 81.098 72.5226 80.9266 73.3808C80.5839 74.5824 79.7272 76.2989 80.0699 77.5005V77.6721H79.8985C79.5558 76.4706 80.4126 74.5824 80.7553 73.3808C80.7553 72.6942 80.9266 71.836 80.2412 71.321C80.0699 71.1494 79.3845 70.9777 79.3845 71.321C79.3845 75.0974 75.2722 78.1871 73.3874 81.1051C73.0447 81.7918 72.5307 82.3067 72.188 82.9933C70.9886 85.3964 69.9605 87.1129 68.0757 89.0011H67.9043C67.5616 89.0011 67.5616 89.0011 67.5616 89.0011Z" stroke="#0088DC" stroke-width="0.4252" stroke-miterlimit="22.9256"/>
<path d="M67.733 89.0011C70.6458 86.0831 71.3312 83.5083 73.0447 81.1052C75.1008 78.0155 79.0418 75.0974 79.0418 71.3211C79.0418 70.9778 79.7272 70.8061 80.2412 71.1494C80.7553 71.4927 80.9266 72.0077 80.9266 73.2092C80.5839 74.4108 79.7272 76.2989 80.0699 77.5005" stroke="#0088DC" stroke-width="0.4252" stroke-miterlimit="22.9256"/>
<path d="M98.2325 9.18331C104.058 9.35496 110.055 11.5864 114.51 15.5344C115.538 16.5643 117.423 18.9674 116.224 20.3406C115.367 21.1989 113.825 20.8556 112.968 20.3406V20.169H113.14C113.996 20.5123 115.367 21.0272 116.224 20.169C117.423 18.7958 115.538 16.5643 114.51 15.7061C109.884 11.7581 104.058 9.69826 98.2325 9.52661C98.2325 10.2132 97.7185 10.7282 96.8618 10.7282C96.1764 10.7282 95.6623 10.2132 95.6623 9.52661C89.8366 9.86991 84.0108 11.9297 79.5558 15.8777C78.6991 16.736 76.9856 19.1391 78.0137 20.3406C78.6991 21.1989 80.2412 20.6839 81.098 20.3406H81.2693V20.5123C80.2412 21.0272 78.6991 21.3705 77.8424 20.5123C76.643 19.1391 78.3564 16.736 79.3845 15.7061C83.8395 11.7581 89.6652 9.69826 95.6623 9.35496C95.8337 8.66835 96.3477 8.32505 96.8618 8.32505C97.5471 8.1534 98.0612 8.66835 98.2325 9.18331Z" stroke="#0088DC" stroke-width="0.4252" stroke-miterlimit="22.9256"/>
<path d="M81.0979 20.3407C77.4997 22.0572 76.1289 19.1391 79.3845 15.7061C84.0108 11.7581 89.8366 9.69828 95.6623 9.35498L81.0979 20.3407ZM98.0612 9.35498C104.058 9.52663 109.884 11.7581 114.339 15.7061C117.937 19.1391 116.224 22.0572 112.797 20.3407L98.0612 9.35498ZM96.8617 8.32507C97.5471 8.32507 97.8898 8.84003 98.0612 9.35498C98.0612 9.35498 98.0612 9.35498 98.0612 9.52663C98.0612 10.2132 97.5471 10.7282 96.8617 10.7282C96.1764 10.7282 95.6623 10.2132 95.6623 9.52663C95.6623 9.52663 95.6623 9.52663 95.6623 9.35498C95.8337 8.66838 96.3477 8.32507 96.8617 8.32507Z" stroke="#0088DC" stroke-width="0.4252" stroke-miterlimit="22.9256"/>
<path d="M86.2383 18.6242C92.2354 17.0793 101.488 17.2509 107.485 18.6242C107.485 18.6242 107.656 18.6242 107.656 18.7958C107.656 18.7958 107.656 18.9675 107.485 18.9675C101.488 17.5942 92.2354 17.4226 86.2383 18.9675C86.2383 18.7958 86.2383 18.7958 86.2383 18.6242Z" stroke="#0088DC" stroke-width="0.4252" stroke-miterlimit="22.9256"/>
<path d="M86.2383 18.6242C92.064 17.0793 101.317 17.2509 107.485 18.6242" stroke="#0088DC" stroke-width="0.4252" stroke-miterlimit="22.9256"/>
<path d="M76.1289 56.9023C80.5839 57.5889 82.8114 61.5369 82.126 65.4849L80.2412 77.3288" stroke="#0088DC" stroke-width="0.4252" stroke-miterlimit="22.9256"/>
<path d="M96.8618 59.8204C92.5781 59.1338 89.1512 62.2236 88.6372 66.1715L86.9237 78.0155" stroke="#0088DC" stroke-width="0.4252" stroke-miterlimit="22.9256"/>
<path d="M85.8956 51.9244L92.2354 52.7827C95.6623 53.4693 97.3758 56.2157 97.5471 59.6487C97.5471 59.6487 97.5471 59.8204 97.3758 59.8204C97.3758 59.8204 97.2044 59.8204 97.2044 59.6487C97.2044 56.3874 95.491 53.641 92.2354 53.126L85.8956 52.0961C85.7243 52.0961 85.7243 52.0961 85.8956 51.9244ZM85.8956 51.9244C85.7243 51.9244 85.7243 51.9244 85.8956 51.9244Z" stroke="#0088DC" stroke-width="0.4252" stroke-miterlimit="22.9256"/>
<path d="M85.8956 52.0962L92.0641 52.9544C95.3196 53.6411 97.2044 56.3875 97.2044 59.6488" stroke="#0088DC" stroke-width="0.4252" stroke-miterlimit="22.9256"/>
<path d="M76.1289 56.7307C76.6429 55.1858 77.3283 53.641 78.8704 52.7827H79.0418V52.9544C77.671 53.8126 76.8143 55.1858 76.4716 56.7307C76.3003 56.7307 76.3003 56.9023 76.1289 56.7307Z" stroke="#0088DC" stroke-width="0.4252" stroke-miterlimit="22.9256"/>
<path d="M76.3002 56.7307C76.8143 55.0142 77.671 53.641 79.0418 52.9543" stroke="#0088DC" stroke-width="0.4252" stroke-miterlimit="22.9256"/>
<path d="M84.1821 52.0962C82.9827 51.7529 81.7833 51.9245 80.5839 52.2678C80.5839 52.2678 80.4125 52.2678 80.4125 52.0962C80.4125 52.0962 80.4125 51.9245 80.5839 51.9245C81.7833 51.5812 82.9827 51.5812 84.3535 51.7529C84.3535 51.7529 84.3535 51.9245 84.1821 52.0962ZM84.1821 52.0962C84.3535 51.9245 84.1821 52.0962 84.1821 52.0962Z" stroke="#0088DC" stroke-width="0.4252" stroke-miterlimit="22.9256"/>
<path d="M84.1821 51.9244C82.9827 51.5811 81.7833 51.7528 80.5839 52.0961" stroke="#0088DC" stroke-width="0.4252" stroke-miterlimit="22.9256"/>
<path d="M67.0476 42.312C67.2369 42.312 67.3903 42.1583 67.3903 41.9687C67.3903 41.7791 67.2369 41.6254 67.0476 41.6254C66.8583 41.6254 66.7049 41.7791 66.7049 41.9687C66.7049 42.1583 66.8583 42.312 67.0476 42.312Z" fill="#0088DC"/>
<path d="M66.7049 29.7815C66.8941 29.7815 67.0476 29.6277 67.0476 29.4381C67.0476 29.2485 66.8941 29.0948 66.7049 29.0948C66.5156 29.0948 66.3622 29.2485 66.3622 29.4381C66.3622 29.6277 66.5156 29.7815 66.7049 29.7815Z" fill="#0088DC"/>
<path d="M114.339 42.1403C114.528 42.1403 114.682 41.9866 114.682 41.797C114.682 41.6074 114.528 41.4537 114.339 41.4537C114.15 41.4537 113.996 41.6074 113.996 41.797C113.996 41.9866 114.15 42.1403 114.339 42.1403Z" fill="#0088DC"/>
<path d="M105.086 62.052C105.276 62.052 105.429 61.8983 105.429 61.7087C105.429 61.5191 105.276 61.3654 105.086 61.3654C104.897 61.3654 104.744 61.5191 104.744 61.7087C104.744 61.8983 104.897 62.052 105.086 62.052Z" fill="#0088DC"/>
<path opacity="0.2" fill-rule="evenodd" clip-rule="evenodd" d="M15.9865 89.1728C14.6158 86.0831 13.5877 82.9934 12.9023 79.9037C12.9023 79.732 12.9023 76.1273 14.4444 72.866C15.3012 70.9778 19.7561 68.403 26.4386 72.1793C28.6661 73.3809 20.6129 61.537 20.6129 61.3653C20.2702 59.8205 13.5877 69.9479 12.0456 74.0675C7.24791 89.1728 19.9275 100.673 17.0146 118.525C20.7842 120.07 28.1521 121.1 32.093 121.443C29.3515 117.839 26.7813 111.487 26.7813 101.875C23.3544 98.6136 18.3854 93.6358 15.9865 89.1728Z" fill="#0088DC"/>
<path opacity="0.2" fill-rule="evenodd" clip-rule="evenodd" d="M49.5703 120.928C42.5452 122.13 37.7475 123.675 31.579 121.615C31.4077 121.615 31.4077 121.615 31.2364 121.615C27.1241 121.272 20.2702 120.413 16.5006 118.869C14.9585 118.182 13.9304 120.928 14.9585 121.272C27.8094 126.593 38.7756 124.361 49.5703 120.928Z" fill="#0088DC"/>
<path opacity="0.2" fill-rule="evenodd" clip-rule="evenodd" d="M11.0175 162.983V161.781C9.1327 151.139 5.36309 127.279 14.7871 121.443C17.8713 122.816 19.5848 123.16 24.7252 124.018C24.7252 124.018 24.5538 122.988 24.5538 123.16L22.4977 133.459C19.9275 155.087 27.8094 162.983 11.0175 162.983Z" fill="#0088DC"/>
<path opacity="0.2" fill-rule="evenodd" clip-rule="evenodd" d="M45.458 136.205C40.8317 144.788 45.2867 155.945 40.8317 156.46L41.003 139.982L45.458 136.205Z" fill="#0088DC"/>
<g opacity="0.2">
<path fill-rule="evenodd" clip-rule="evenodd" d="M76.9856 47.4616L97.5471 50.3797C100.117 50.723 101.831 53.1261 101.488 55.7008C101.317 57.2457 100.289 58.7906 99.0892 59.4772C98.9179 59.4772 98.7465 59.8205 98.7465 59.6488C103.03 49.8647 89.6652 50.3796 76.9856 47.4616C75.6148 47.1183 75.4435 47.1183 76.9856 47.4616Z" fill="#0088DC"/>
<path d="M76.9856 47.4616L97.5471 50.3797C100.117 50.723 101.831 53.1261 101.488 55.7008C101.317 57.2457 100.289 58.7906 99.0892 59.4772C98.9179 59.4772 98.7465 59.8205 98.7465 59.6488C103.03 49.8647 89.6652 50.3796 76.9856 47.4616ZM76.9856 47.4616C75.6148 47.1183 75.4435 47.1183 76.9856 47.4616Z" stroke="#0088DC" stroke-width="0.216" stroke-miterlimit="22.9256"/>
</g>
<path d="M86.7524 80.0753C87.6091 79.5604 87.9518 78.1872 86.7524 77.8439C85.5529 77.6722 84.8676 77.1573 83.6681 77.1573C81.612 77.1573 79.0418 77.8439 77.157 78.8738H76.9857V78.7021C78.8705 77.6722 81.612 76.9856 83.4968 76.9856C84.8676 76.9856 85.5529 77.5005 86.581 77.8439C87.9518 78.0155 87.7804 79.9037 86.581 80.4186C86.7524 80.4186 86.581 80.247 86.7524 80.0753ZM86.7524 80.0753C86.581 80.247 86.581 80.0753 86.7524 80.0753Z" stroke="#0088DC" stroke-width="0.4252" stroke-miterlimit="22.9256"/>
<path d="M86.7524 80.247C87.7804 79.732 87.9518 78.0155 86.7524 77.8439C85.8956 77.6722 84.8676 76.9856 83.4968 76.9856C81.4406 76.9856 78.6991 77.6722 76.9857 78.7021" stroke="#0088DC" stroke-width="0.4252" stroke-miterlimit="22.9256"/>
<path fill-rule="evenodd" clip-rule="evenodd" d="M121.536 38.1924C123.078 38.1924 124.277 38.7073 125.305 39.7372C126.333 40.7672 126.847 41.9687 126.847 43.5136C126.847 44.0285 126.847 44.5435 126.676 45.0584C126.505 45.4017 126.333 45.9167 126.162 46.26C127.19 46.7749 128.218 47.4615 128.732 48.3198C129.417 49.3497 129.76 50.3796 129.76 51.7528C129.76 53.2977 129.246 54.6709 128.218 55.7008C127.361 56.7307 125.991 57.4173 124.62 57.589C124.962 58.1039 125.134 58.6189 125.476 59.1338C125.648 59.8204 125.819 60.507 125.819 61.1937C125.819 62.9102 125.134 64.455 123.934 65.6566C122.735 66.8581 121.193 67.5447 119.479 67.5447C119.137 67.5447 118.623 67.5447 118.28 67.3731C117.937 67.3731 117.595 67.2014 117.252 67.0298C117.081 67.888 116.566 68.5747 115.881 69.0896C115.196 69.6046 114.339 69.9479 113.482 69.9479C112.797 69.9479 112.283 69.7762 111.597 69.4329C111.083 69.0896 110.569 68.7463 110.227 68.2313C109.37 68.2313 108.513 67.888 107.999 67.2014C107.314 66.5148 106.971 65.8282 106.971 64.7983C106.971 64.455 106.971 64.1117 107.142 63.7684C107.142 63.4251 107.314 63.2535 107.485 63.0818L104.915 61.8803L105.086 61.5369L107.999 62.9102V63.2535C107.828 63.4251 107.657 63.7684 107.657 64.1117C107.485 64.455 107.485 64.6267 107.485 64.97C107.485 65.8282 107.828 66.5148 108.342 67.0298C108.856 67.5447 109.713 67.888 110.398 67.888C110.741 68.403 111.255 68.7463 111.769 69.0896C112.283 69.2613 112.797 69.4329 113.482 69.4329C114.339 69.4329 115.196 69.0896 115.71 68.5747C116.395 68.0597 116.738 67.3731 117.081 66.5148V66.3432H117.252C117.595 66.5148 117.937 66.6865 118.451 66.6865C118.794 66.6865 119.137 66.8581 119.651 66.8581C121.364 66.8581 122.735 66.1715 123.763 65.1416C124.791 64.1117 125.476 62.5669 125.476 61.022C125.476 60.3354 125.305 59.6488 125.134 59.1338C124.962 58.4472 124.62 57.9323 124.277 57.4173L124.106 57.2457H124.448C125.819 57.074 127.19 56.3874 128.047 55.3575C128.903 54.3276 129.417 52.9544 129.417 51.5812C129.417 50.3796 129.075 49.3497 128.389 48.3198C127.704 47.4615 126.847 46.6033 125.648 46.26H125.476L125.648 46.0883C125.819 45.745 126.162 45.2301 126.162 44.8868C126.333 44.3718 126.333 44.0285 126.333 43.5136C126.333 42.1404 125.819 40.9388 124.791 39.9089C123.934 39.0506 122.564 38.364 121.193 38.364C120.165 38.364 119.308 38.7073 118.451 39.2223C117.595 39.7372 116.909 40.5955 116.566 41.4538V41.6254L114.168 41.7971V41.4538L116.395 41.2821C116.738 40.4238 117.423 39.5656 118.28 39.0506C119.479 38.5357 120.507 38.1924 121.536 38.1924Z" fill="#0088DC" stroke="#0088DC" stroke-width="0.2835" stroke-miterlimit="22.9256"/>
<path opacity="0.2" fill-rule="evenodd" clip-rule="evenodd" d="M79.8985 98.4419L76.9856 98.0986L75.9575 101.703V102.218L75.6149 102.562L75.1008 103.077L74.2441 105.651V106.166L73.9014 106.51L73.216 108.398L73.0447 109.256L72.702 109.771L72.3593 111.316L71.6739 112.002L69.1037 124.876C67.3903 128.309 64.1347 127.623 60.1937 126.249C58.1376 125.563 56.2528 126.078 54.368 127.279L54.5393 131.914C57.9662 125.734 64.1347 131.399 68.9324 129.339C73.0447 127.623 74.5868 107.539 79.8985 98.4419Z" fill="#0088DC"/>
</svg>
