<svg width="156" height="164" viewBox="0 0 156 164" fill="none" xmlns="http://www.w3.org/2000/svg">
<path d="M95.9302 82.2361C95.2829 78.3287 91.2373 80.2824 89.2954 77.6774C89.1336 77.5146 88.3244 78.1659 88.9717 78.9799C89.7809 79.9568 92.0464 81.0965 92.3701 81.9105V82.0733C92.3701 82.0733 92.3701 82.2361 92.2082 82.2361C92.2082 82.2361 92.0464 82.2362 92.0464 82.0733V81.9105C91.8846 81.4221 91.2373 80.9337 90.7518 80.7708C89.9427 80.2824 89.2954 79.794 88.6481 79.1427C87.5153 77.8402 88.9717 77.189 89.2954 77.5146C91.0755 79.9568 95.2829 78.0031 95.9302 82.0733C96.2539 82.2362 96.0921 82.2361 95.9302 82.2361Z" stroke="#0088DC" stroke-width="0.4252" stroke-miterlimit="22.9256"/>
<path d="M96.0921 82.0733C95.4448 78.003 91.3992 80.1195 89.4573 77.5145C89.2954 77.3517 88.0008 77.8402 88.9718 78.9798C90.2664 80.4451 92.2083 80.9336 92.3701 82.0733" stroke="#0088DC" stroke-width="0.4252" stroke-miterlimit="22.9256"/>
<path d="M88.9717 83.7014L91.2373 82.8873H91.3991V83.0501L89.1335 83.8642C88.9717 84.027 88.9717 84.027 88.9717 83.7014ZM88.9717 83.7014C88.8099 83.8642 88.8099 83.7014 88.9717 83.7014Z" stroke="#0088DC" stroke-width="0.4252" stroke-miterlimit="22.9256"/>
<path d="M88.9717 83.8642L91.2372 83.0502" stroke="#0088DC" stroke-width="0.4252" stroke-miterlimit="22.9256"/>
<path d="M90.7519 85.0039L91.8846 84.5155H92.0465V84.6783L90.9137 85.1668C90.7519 85.1668 90.59 85.1667 90.7519 85.0039ZM90.7519 85.0039C90.59 85.0039 90.59 85.0039 90.7519 85.0039Z" stroke="#0088DC" stroke-width="0.4252" stroke-miterlimit="22.9256"/>
<path d="M90.7518 85.004L91.8846 84.6783" stroke="#0088DC" stroke-width="0.4252" stroke-miterlimit="22.9256"/>
<path d="M107.42 84.1898C109.524 85.3295 110.98 86.3064 113.407 86.7948C116.482 87.6089 119.395 88.0973 122.47 88.4229C124.25 88.5857 126.192 88.5857 128.134 88.9114C128.943 89.0742 129.752 89.237 130.399 89.5626C130.399 89.5626 130.561 89.7254 130.399 89.7254C130.399 89.7254 130.237 89.8882 130.237 89.7254C129.428 89.3998 128.781 89.237 127.972 89.0742C126.192 88.7485 124.25 88.7485 122.308 88.5857C119.233 88.2601 116.158 87.7717 113.084 86.9576C110.656 86.3064 109.2 85.4923 107.096 84.3526V84.1898C107.258 84.1898 107.258 84.1898 107.42 84.1898Z" stroke="#0088DC" stroke-width="0.4252" stroke-miterlimit="22.9256"/>
<path d="M107.258 84.3527C108.876 85.3295 110.333 86.3064 113.246 86.9576C123.117 89.237 126.03 88.0973 130.237 89.7254" stroke="#0088DC" stroke-width="0.4252" stroke-miterlimit="22.9256"/>
<path d="M100.461 82.5617C99.0049 82.2361 97.2248 81.5848 95.7684 81.2592L95.6066 81.0964L95.7684 80.9336C97.2248 81.422 99.0049 82.0733 100.461 82.2361C100.623 82.3989 100.623 82.3989 100.461 82.5617ZM100.461 82.5617C100.623 82.5617 100.461 82.5617 100.461 82.5617Z" stroke="#0088DC" stroke-width="0.4252" stroke-miterlimit="22.9256"/>
<path d="M100.461 82.3989C99.6523 82.2361 97.2249 81.4221 95.7684 81.0964" stroke="#0088DC" stroke-width="0.4252" stroke-miterlimit="22.9256"/>
<path d="M120.528 38.9283C120.851 40.2308 121.013 41.8589 120.851 43.1614C120.69 45.7664 121.984 49.8367 123.279 51.9532C124.088 53.4185 125.059 54.8838 127.001 54.3954C129.752 53.5813 133.797 52.116 134.121 48.697C134.121 48.697 134.121 48.5342 134.283 48.5342C134.283 48.5342 134.445 48.5342 134.445 48.697C134.121 52.116 129.914 53.907 127.001 54.5582C124.897 55.0466 123.926 53.5813 123.117 51.9532C121.822 49.6739 120.528 45.6036 120.528 42.9986C120.528 41.6961 120.528 40.068 120.204 38.7655C120.366 38.9283 120.366 38.9283 120.528 38.9283Z" stroke="#0088DC" stroke-width="0.4252" stroke-miterlimit="22.9256"/>
<path d="M120.528 38.9282C120.851 40.0679 121.013 41.8588 120.851 43.1613C120.851 44.4638 121.337 48.6969 123.441 52.1159C124.25 53.4184 125.221 55.0466 127.325 54.5581C130.399 53.7441 134.283 52.116 134.607 48.6969" stroke="#0088DC" stroke-width="0.4252" stroke-miterlimit="22.9256"/>
<path d="M129.105 40.7192C127.972 39.9051 125.868 39.4167 124.897 40.7192H124.735V40.5563C125.706 39.2539 127.972 39.5795 129.266 40.5563C129.266 40.7192 129.266 40.7192 129.105 40.7192ZM129.105 40.7192C129.266 40.882 129.105 40.882 129.105 40.7192Z" stroke="#0088DC" stroke-width="0.4252" stroke-miterlimit="22.9256"/>
<path d="M129.266 40.7192C127.972 39.7423 125.868 39.5795 124.897 40.7192" stroke="#0088DC" stroke-width="0.4252" stroke-miterlimit="22.9256"/>
<path d="M122.793 40.3935C122.47 40.2307 121.337 39.7423 121.013 40.0679H120.851V39.9051C121.175 39.4167 122.47 39.9051 122.955 40.0679C122.955 40.2307 122.955 40.2307 122.793 40.3935ZM122.793 40.3935C122.955 40.3935 122.955 40.3935 122.793 40.3935Z" stroke="#0088DC" stroke-width="0.4252" stroke-miterlimit="22.9256"/>
<path d="M122.793 40.2307C121.984 39.9051 121.175 39.5795 120.851 40.0679" stroke="#0088DC" stroke-width="0.4252" stroke-miterlimit="22.9256"/>
<path d="M128.457 42.9986C127.648 42.5101 127.324 42.1845 126.353 42.1845C126.03 42.1845 125.544 42.1845 125.221 42.0217V41.8589H125.383C125.706 42.0217 126.03 42.0217 126.353 42.0217C127.486 41.8589 127.81 42.3473 128.619 42.8358C128.619 42.8358 128.619 42.9986 128.457 42.9986ZM128.457 42.9986C128.619 42.9986 128.619 43.1614 128.457 42.9986Z" stroke="#0088DC" stroke-width="0.4252" stroke-miterlimit="22.9256"/>
<path d="M128.619 42.9986C127.972 42.5102 127.486 42.0217 126.353 42.1845C126.03 42.1845 125.544 42.1845 125.221 42.0217" stroke="#0088DC" stroke-width="0.4252" stroke-miterlimit="22.9256"/>
<path d="M126.839 43.6498C126.928 43.6498 127.001 43.3582 127.001 42.9985C127.001 42.6389 126.928 42.3473 126.839 42.3473C126.75 42.3473 126.677 42.6389 126.677 42.9985C126.677 43.3582 126.75 43.6498 126.839 43.6498Z" stroke="#0088DC" stroke-width="0.4252" stroke-miterlimit="22.9256"/>
<path d="M122.793 42.1845C122.146 42.1845 121.661 42.0217 121.013 41.8589V41.696H121.175C121.661 42.0217 122.146 42.0217 122.793 42.0217C122.955 41.8589 122.955 42.0217 122.793 42.1845ZM122.793 42.1845C122.955 42.1845 122.955 42.1845 122.793 42.1845Z" stroke="#0088DC" stroke-width="0.4252" stroke-miterlimit="22.9256"/>
<path d="M122.793 42.0217C122.146 42.0217 121.661 41.8589 121.175 41.696" stroke="#0088DC" stroke-width="0.4252" stroke-miterlimit="22.9256"/>
<path d="M121.984 42.9986C122.074 42.9986 122.146 42.7799 122.146 42.5102C122.146 42.2404 122.074 42.0217 121.984 42.0217C121.895 42.0217 121.822 42.2404 121.822 42.5102C121.822 42.7799 121.895 42.9986 121.984 42.9986Z" stroke="#0088DC" stroke-width="0.4252" stroke-miterlimit="22.9256"/>
<path d="M126.839 49.511C125.706 49.9994 124.412 50.325 123.279 49.8366C123.279 49.8366 123.117 49.6738 123.279 49.6738C123.279 49.6738 123.441 49.511 123.441 49.6738C124.573 50.1622 125.706 49.8366 126.839 49.3482C126.839 49.1853 127.001 49.1853 126.839 49.511ZM126.839 49.511C127.001 49.3482 127.001 49.511 126.839 49.511Z" stroke="#0088DC" stroke-width="0.4252" stroke-miterlimit="22.9256"/>
<path d="M126.839 49.3481C125.544 49.9994 124.412 50.1622 123.279 49.6738" stroke="#0088DC" stroke-width="0.4252" stroke-miterlimit="22.9256"/>
<path d="M126.677 50.8135C126.354 51.1392 125.868 51.302 125.221 51.302C125.221 51.302 125.059 51.302 125.059 51.1392C125.059 51.1392 125.059 50.9763 125.221 50.9763C125.706 50.9763 126.03 50.8135 126.515 50.4879H126.677C126.677 50.6507 126.677 50.8135 126.677 50.8135Z" stroke="#0088DC" stroke-width="0.4252" stroke-miterlimit="22.9256"/>
<path d="M126.515 50.6508C126.192 50.9764 125.706 51.1392 125.221 51.1392" stroke="#0088DC" stroke-width="0.4252" stroke-miterlimit="22.9256"/>
<path d="M127.324 48.5341C127.324 49.1853 127.486 49.8366 127.972 50.325V50.4878H127.81C127.324 49.9994 127.163 49.3482 127.163 48.5341C127.001 48.3713 127.163 48.3713 127.324 48.5341ZM127.324 48.5341C127.324 48.3713 127.324 48.3713 127.324 48.5341Z" stroke="#0088DC" stroke-width="0.4252" stroke-miterlimit="22.9256"/>
<path d="M127.163 48.5342C127.163 49.3482 127.324 49.9995 127.81 50.4879" stroke="#0088DC" stroke-width="0.4252" stroke-miterlimit="22.9256"/>
<path d="M137.52 49.6738C137.843 51.3019 139.461 54.721 140.594 56.0234V56.1863H140.432C139.3 54.721 137.519 51.4647 137.358 49.6738C137.358 49.6738 137.358 49.6738 137.52 49.6738ZM137.52 49.6738C137.52 49.511 137.52 49.6738 137.52 49.6738Z" stroke="#0088DC" stroke-width="0.4252" stroke-miterlimit="22.9256"/>
<path d="M137.358 49.6738C137.519 50.6507 138.814 54.0697 140.432 56.0235" stroke="#0088DC" stroke-width="0.4252" stroke-miterlimit="22.9256"/>
<path d="M128.943 54.0697C129.428 54.2325 130.075 55.3722 130.075 55.8606C130.075 55.8606 130.075 56.0234 129.914 56.0234C129.914 56.0234 129.752 56.0234 129.752 55.8606C129.914 55.3722 129.266 54.3953 128.781 54.2325C128.781 54.3953 128.781 54.2325 128.943 54.0697ZM128.943 54.0697C128.781 54.0697 128.781 54.0697 128.943 54.0697Z" stroke="#0088DC" stroke-width="0.4252" stroke-miterlimit="22.9256"/>
<path d="M128.781 54.2325C129.105 54.3954 129.914 55.2094 129.752 56.0235" stroke="#0088DC" stroke-width="0.4252" stroke-miterlimit="22.9256"/>
<path d="M127.324 56.6747C125.544 57.1632 124.088 57.9772 122.955 59.2797C117.777 64.8153 119.071 76.8633 115.997 84.027C115.997 84.027 115.835 84.1899 115.835 84.027C115.835 84.027 115.673 83.8642 115.835 83.8642C117.291 80.608 117.777 76.5377 118.262 72.9559C119.071 66.6062 120.042 58.3028 127.324 56.1863C127.324 56.3491 127.324 56.3491 127.324 56.6747ZM127.324 56.6747C127.486 56.5119 127.324 56.6747 127.324 56.6747Z" stroke="#0088DC" stroke-width="0.4252" stroke-miterlimit="22.9256"/>
<path d="M127.325 56.512C116.806 59.4426 119.719 75.0725 115.997 84.0271" stroke="#0088DC" stroke-width="0.4252" stroke-miterlimit="22.9256"/>
<path d="M116.968 84.6783C115.997 83.8643 113.893 83.7015 112.598 83.5387C110.009 83.3759 107.582 83.3759 104.993 83.0502C104.993 83.0502 104.831 83.0502 104.831 82.8874C104.831 82.8874 104.831 82.7246 104.993 82.7246C107.582 83.0502 110.009 83.0502 112.598 83.213C113.893 83.3759 115.997 83.5387 117.129 84.3527V84.5155C117.129 84.8412 116.968 84.8412 116.968 84.6783Z" stroke="#0088DC" stroke-width="0.4252" stroke-miterlimit="22.9256"/>
<path d="M116.968 84.6783C115.349 83.213 110.818 83.7014 104.993 83.0502" stroke="#0088DC" stroke-width="0.4252" stroke-miterlimit="22.9256"/>
<path d="M132.341 60.2566C131.856 60.2566 131.208 59.931 130.723 59.7682V59.6053H130.885C131.37 59.931 131.856 60.0938 132.341 60.0938C132.503 60.0938 132.503 60.0938 132.341 60.2566ZM132.341 60.2566C132.503 60.2566 132.341 60.2566 132.341 60.2566Z" stroke="#0088DC" stroke-width="0.4252" stroke-miterlimit="22.9256"/>
<path d="M132.341 60.2566C131.856 60.2566 131.208 60.0938 130.723 59.7682" stroke="#0088DC" stroke-width="0.4252" stroke-miterlimit="22.9256"/>
<path d="M132.503 61.559C131.694 61.3962 130.723 61.2334 130.075 60.745V60.5822H130.237C130.885 61.0706 131.694 61.2334 132.665 61.3962C132.665 61.2334 132.665 61.3962 132.503 61.559ZM132.503 61.559C132.665 61.3962 132.665 61.559 132.503 61.559Z" stroke="#0088DC" stroke-width="0.4252" stroke-miterlimit="22.9256"/>
<path d="M132.503 61.3962C131.532 61.2334 130.723 61.0706 130.075 60.5822" stroke="#0088DC" stroke-width="0.4252" stroke-miterlimit="22.9256"/>
<path d="M121.337 88.0974C121.175 86.7949 120.69 84.0271 120.042 82.8874C120.042 82.7246 119.881 82.7246 119.881 82.5618C118.91 80.9337 118.586 79.3055 118.748 77.3518C119.071 74.7468 120.851 71.979 121.822 69.5368C123.603 65.6294 124.25 62.0475 124.088 57.8144C124.088 57.8144 124.088 57.6516 124.25 57.6516C124.25 57.6516 124.412 57.6516 124.412 57.8144C124.573 62.0475 123.926 65.7922 122.146 69.6997C121.175 71.979 119.395 74.9096 119.071 77.3518C118.748 79.1427 119.233 80.7708 120.204 82.399C120.204 82.5618 120.366 82.5618 120.366 82.7246C121.175 83.8643 121.499 86.4692 121.661 87.9345C121.661 88.0974 121.499 88.2602 121.337 88.0974ZM121.337 88.0974C121.499 88.2602 121.337 88.2602 121.337 88.0974Z" stroke="#0088DC" stroke-width="0.4252" stroke-miterlimit="22.9256"/>
<path d="M121.499 88.0973C121.337 86.1436 120.851 83.8642 120.204 82.8873C120.204 82.8873 120.042 82.7245 120.042 82.5617C115.673 74.7468 124.897 71.4905 124.25 57.9772" stroke="#0088DC" stroke-width="0.4252" stroke-miterlimit="22.9256"/>
<path d="M142.698 57.8145C144.802 59.7682 146.905 62.2104 147.876 64.9782C149.818 70.0253 148.038 78.0031 146.744 83.0502C145.611 87.9346 143.507 95.7495 144.316 100.634C144.316 100.634 144.316 100.797 144.154 100.797C144.154 100.797 143.993 100.797 143.993 100.634C143.183 95.7495 145.449 87.9346 146.42 83.0502C147.553 78.0031 149.333 70.0253 147.553 65.141C146.582 62.3732 144.478 60.0938 142.374 58.1401V57.9773C142.536 57.8145 142.536 57.8145 142.698 57.8145Z" stroke="#0088DC" stroke-width="0.4252" stroke-miterlimit="22.9256"/>
<path d="M142.536 57.9772C144.64 59.9309 146.744 62.3731 147.715 64.9781C151.113 74.0955 142.86 91.6792 144.154 100.634" stroke="#0088DC" stroke-width="0.4252" stroke-miterlimit="22.9256"/>
<path d="M121.822 100.959C118.262 103.076 117.129 128.637 116.968 133.033C116.644 140.034 116.32 146.872 115.673 153.873C115.673 153.873 115.673 154.036 115.511 154.036C115.349 154.036 115.349 154.036 115.349 153.873C115.997 147.035 116.32 140.034 116.644 133.033C116.968 128.475 117.939 103.076 121.661 100.797C121.822 100.634 121.822 100.634 121.822 100.959ZM121.822 100.959C121.984 100.797 121.984 100.797 121.822 100.959Z" stroke="#0088DC" stroke-width="0.4252" stroke-miterlimit="22.9256"/>
<path d="M121.822 100.797C117.453 103.564 117.129 135.964 115.511 153.71" stroke="#0088DC" stroke-width="0.4252" stroke-miterlimit="22.9256"/>
<path d="M144.316 100.634C152.246 103.727 154.997 154.199 155.644 163.479C155.644 163.479 155.644 163.642 155.482 163.642C155.482 163.642 155.32 163.642 155.32 163.479C154.673 154.362 151.922 103.89 144.154 100.797C144.154 100.797 144.154 100.634 144.316 100.634ZM144.316 100.634C144.154 100.634 144.154 100.471 144.316 100.634Z" stroke="#0088DC" stroke-width="0.4252" stroke-miterlimit="22.9256"/>
<path d="M144.316 100.634C151.598 103.564 154.511 146.221 155.644 163.479" stroke="#0088DC" stroke-width="0.4252" stroke-miterlimit="22.9256"/>
<path d="M133.959 43.3241C134.121 43.1613 134.121 42.9985 134.283 42.6729C134.768 42.1845 135.739 41.8588 136.225 42.5101C137.196 43.6498 135.901 46.7432 134.768 46.7432C134.768 46.7432 134.607 46.7432 134.607 46.5804C134.607 46.5804 134.607 46.4176 134.768 46.4176C135.739 46.4176 136.872 43.487 136.063 42.5101C135.578 42.0216 134.93 42.3473 134.445 42.6729C133.797 43.3241 134.121 43.8126 133.312 42.6729C131.856 40.7192 127.486 34.6951 127.163 32.5786C127.163 32.5786 127.163 32.4158 127.324 32.4158C127.324 32.4158 127.486 32.4158 127.486 32.5786C127.81 34.5323 132.179 40.7192 133.636 42.5101C133.636 42.9985 133.797 43.3241 133.959 43.3241Z" stroke="#0088DC" stroke-width="0.4252" stroke-miterlimit="22.9256"/>
<path d="M127.324 32.9043C127.648 34.858 131.856 40.7192 133.474 42.9986C134.283 43.9755 133.797 43.487 134.445 42.9986C134.93 42.5102 135.739 42.3474 136.225 42.8358C137.196 43.9755 135.739 46.9061 134.768 46.9061" stroke="#0088DC" stroke-width="0.4252" stroke-miterlimit="22.9256"/>
<path d="M118.91 47.3945C119.071 42.1845 120.366 32.7415 127.324 32.7415C127.324 32.7415 127.486 32.7415 127.486 32.9043C127.486 32.9043 127.486 33.0671 127.324 33.0671C120.528 33.0671 119.233 42.3473 119.071 47.5573C119.233 47.5573 119.071 47.5573 118.91 47.3945ZM118.91 47.3945C118.91 47.5573 118.91 47.5573 118.91 47.3945Z" stroke="#0088DC" stroke-width="0.4252" stroke-miterlimit="22.9256"/>
<path d="M119.071 47.3945C119.233 38.1143 122.308 32.9043 127.325 32.9043" stroke="#0088DC" stroke-width="0.4252" stroke-miterlimit="22.9256"/>
<path d="M130.723 26.0662C130.237 25.9034 129.59 25.7405 128.943 25.7405C124.088 25.7405 120.69 32.9042 119.719 36.8117C119.233 38.6026 119.071 40.7192 119.233 42.5101C119.719 48.0457 122.146 53.0929 123.117 58.4656C123.117 58.4656 123.117 58.6285 122.955 58.6285C122.955 58.6285 122.793 58.6285 122.793 58.4656C121.661 53.0929 119.395 48.0457 118.91 42.5101C118.748 40.5564 118.91 38.6026 119.395 36.6489C120.366 32.5786 123.764 25.4149 128.781 25.4149C129.428 25.4149 130.076 25.5777 130.561 25.7405C130.885 25.9034 130.885 26.0662 130.723 26.0662ZM130.723 26.0662C130.723 26.0662 130.723 26.229 130.723 26.0662Z" stroke="#0088DC" stroke-width="0.4252" stroke-miterlimit="22.9256"/>
<path d="M130.723 26.0662C124.897 23.624 118.424 34.0439 119.233 42.6729C119.719 48.0457 122.146 53.9069 123.117 58.6285" stroke="#0088DC" stroke-width="0.4252" stroke-miterlimit="22.9256"/>
<path d="M146.258 56.6747C145.773 53.2557 145.773 49.3482 145.934 45.9292C146.096 35.8349 143.345 24.4381 130.885 26.0662L127.486 32.9043H127.324V32.7415L130.723 25.9034C130.723 25.9034 130.723 25.9034 130.885 25.9034C143.669 24.1124 146.42 35.6721 146.258 45.9292C146.258 49.3482 146.096 53.2557 146.744 56.6747V56.8376L143.669 58.6285H143.507V58.4657L146.258 56.6747Z" stroke="#0088DC" stroke-width="0.4252" stroke-miterlimit="22.9256"/>
<path d="M127.324 32.9043L130.723 26.0662C142.374 24.4381 146.096 34.044 146.096 46.092C146.096 50.9764 146.096 54.0698 146.582 56.8376L143.507 58.6285" stroke="#0088DC" stroke-width="0.4252" stroke-miterlimit="22.9256"/>
<path d="M123.441 44.4638C123.279 45.1151 122.955 46.4176 122.632 46.906C122.47 47.2316 122.632 47.7201 123.117 47.7201C123.441 47.7201 123.764 47.3944 124.088 47.3944C124.412 47.3944 124.573 47.7201 124.897 47.2316H125.059V47.3944C124.573 48.0457 124.412 47.7201 123.926 47.5573C123.764 47.5573 123.279 47.8829 122.955 47.8829C122.308 47.8829 121.984 47.2316 122.308 46.7432C122.632 46.2548 122.955 44.9523 123.117 44.301C123.279 44.4638 123.279 44.301 123.441 44.4638Z" stroke="#0088DC" stroke-width="0.4252" stroke-miterlimit="22.9256"/>
<path d="M123.279 44.4639C123.117 45.2779 122.793 46.5804 122.47 46.906C122.308 47.2317 122.47 47.8829 122.955 47.8829C123.279 47.8829 123.603 47.5573 123.926 47.5573C124.25 47.5573 124.412 48.0457 124.897 47.3945" stroke="#0088DC" stroke-width="0.4252" stroke-miterlimit="22.9256"/>
<path d="M136.063 48.6969C136.421 48.6969 136.71 48.4053 136.71 48.0457C136.71 47.686 136.421 47.3944 136.063 47.3944C135.706 47.3944 135.416 47.686 135.416 48.0457C135.416 48.4053 135.706 48.6969 136.063 48.6969Z" stroke="#0088DC" stroke-width="0.4252" stroke-miterlimit="22.9256"/>
<path d="M136.063 48.5341C136.331 48.5341 136.549 48.3154 136.549 48.0457C136.549 47.7759 136.331 47.5573 136.063 47.5573C135.795 47.5573 135.578 47.7759 135.578 48.0457C135.578 48.3154 135.795 48.5341 136.063 48.5341Z" stroke="#0088DC" stroke-width="0.4252" stroke-miterlimit="22.9256"/>
<path d="M121.822 100.634C127.648 103.076 138.49 102.75 144.154 100.471H144.316V100.634C138.49 102.913 127.486 103.239 121.661 100.797C121.661 100.797 121.661 100.797 121.822 100.634ZM121.822 100.634C121.661 100.634 121.822 100.634 121.822 100.634Z" stroke="#0088DC" stroke-width="0.4252" stroke-miterlimit="22.9256"/>
<path d="M121.822 100.797C128.619 103.727 139.785 102.425 144.316 100.634" stroke="#0088DC" stroke-width="0.4252" stroke-miterlimit="22.9256"/>
<path d="M142.698 57.9772C140.756 60.4193 137.358 62.3731 134.445 63.5128C132.988 64.0012 132.988 64.3268 132.827 62.6987L132.503 60.0937C132.341 59.4425 132.665 59.6053 133.15 59.6053C135.578 59.6053 138.814 57.6515 140.594 56.0234C141.241 55.6978 142.212 57.4887 142.698 57.9772Z" stroke="#0088DC" stroke-width="0.4252" stroke-miterlimit="22.9256"/>
<path d="M142.536 57.9773C142.051 57.4888 141.242 55.8607 140.594 56.3491C138.652 58.3029 135.416 59.931 132.988 59.931C132.503 59.931 132.341 59.7682 132.503 60.2566L132.827 62.8616C132.988 64.3269 132.827 64.1641 134.283 63.5128C137.681 62.2104 140.756 60.2566 142.536 57.9773Z" stroke="#0088DC" stroke-width="0.4252" stroke-miterlimit="22.9256"/>
<path d="M129.914 56.0235C129.752 57.0003 129.914 58.3028 130.561 58.9541C131.046 59.4425 131.208 59.1169 130.561 59.931C130.075 60.4194 129.59 61.0706 129.266 61.7219C128.619 62.8616 128.619 63.6756 127.81 61.7219C127.163 60.0938 127.324 58.3028 127.163 56.5119C127.163 56.5119 127.163 56.5119 127.163 56.3491C127.972 55.8607 129.105 55.535 129.914 56.0235ZM129.914 56.0235C129.914 55.8607 129.914 55.8607 129.914 56.0235Z" stroke="#0088DC" stroke-width="0.4252" stroke-miterlimit="22.9256"/>
<path d="M127.324 56.512C127.972 56.0235 128.943 55.6979 129.752 56.0235C129.59 56.8376 129.59 58.3029 130.399 58.9541C130.885 59.4426 131.046 59.1169 130.399 59.7682C129.914 60.4194 129.428 60.9079 129.105 61.5591C128.619 62.536 128.619 63.35 127.81 61.5591C127.324 59.931 127.486 58.1401 127.324 56.512Z" stroke="#0088DC" stroke-width="0.4252" stroke-miterlimit="22.9256"/>
<path d="M121.822 98.5173C127.486 100.96 138.005 100.634 143.831 98.5173H143.993V98.6801C138.005 100.797 127.486 101.122 121.822 98.6801C121.661 98.843 121.661 98.6801 121.822 98.5173ZM121.822 98.5173C121.661 98.5173 121.822 98.5173 121.822 98.5173Z" stroke="#0088DC" stroke-width="0.4252" stroke-miterlimit="22.9256"/>
<path d="M121.822 98.6801C128.457 101.611 139.3 100.308 143.993 98.6801" stroke="#0088DC" stroke-width="0.4252" stroke-miterlimit="22.9256"/>
<path d="M121.984 95.4238V100.797C121.984 100.797 121.984 100.959 121.822 100.959C121.822 100.959 121.661 100.959 121.661 100.797V95.4238C121.661 95.4238 121.822 95.4238 121.984 95.4238ZM121.984 95.4238C121.822 95.4238 121.984 95.4238 121.984 95.4238Z" stroke="#0088DC" stroke-width="0.4252" stroke-miterlimit="22.9256"/>
<path d="M121.822 95.4238V100.797" stroke="#0088DC" stroke-width="0.4252" stroke-miterlimit="22.9256"/>
<path d="M107.744 89.8883C110.656 91.842 115.511 93.3073 118.91 94.2842C122.632 95.4239 126.515 96.238 130.076 97.3776C131.856 97.8661 133.15 97.5404 134.445 96.0751C138.005 91.028 141.889 85.3296 144.478 79.794C146.258 76.0493 147.715 71.6534 146.744 67.5831C146.42 66.4435 145.934 65.6294 144.963 65.141C142.212 63.8385 139.3 66.7691 138.005 68.8856C134.121 75.0725 131.694 82.5618 128.781 89.3999C128.781 89.3999 128.619 89.5627 128.619 89.3999C128.619 89.3999 128.457 89.2371 128.619 89.2371C131.37 82.399 133.798 74.9097 137.843 68.7228C139.138 66.4435 142.212 63.6757 145.125 64.9782C146.258 65.4666 146.744 66.4435 147.067 67.5831C148.038 71.8162 146.582 76.2121 144.802 79.9568C142.212 85.6552 138.329 91.1908 134.768 96.4008C133.474 97.8661 132.017 98.1917 130.237 97.7033C126.515 96.5636 122.793 95.5867 119.071 94.6098C115.673 93.633 110.818 92.1677 107.905 90.2139V90.0511C107.582 89.8883 107.744 89.7255 107.744 89.8883Z" stroke="#0088DC" stroke-width="0.4252" stroke-miterlimit="22.9256"/>
<path d="M107.744 89.8882C112.598 93.1444 124.735 95.7494 130.237 97.3775C132.017 97.866 133.474 97.5404 134.768 96.0751C143.507 83.5386 148.685 74.4211 147.067 67.4202C146.096 63.0243 140.918 63.8384 138.167 68.5599C134.445 74.4211 132.827 79.9567 128.943 89.0742" stroke="#0088DC" stroke-width="0.4252" stroke-miterlimit="22.9256"/>
<path opacity="0.2" fill-rule="evenodd" clip-rule="evenodd" d="M155.482 163.967C154.349 150.454 152.084 104.053 143.831 100.634C141.403 101.611 139.138 102.425 136.225 102.425C147.067 109.588 136.225 161.851 155.482 163.967Z" fill="#0088DC"/>
<path opacity="0.2" fill-rule="evenodd" clip-rule="evenodd" d="M144.478 64.6525C143.669 62.3731 142.698 60.9078 141.08 59.6053L142.536 58.14C144.64 60.0938 146.42 62.2103 147.391 64.9781C150.789 74.2584 142.374 92.0048 143.831 100.797L136.387 102.262C138.976 96.0751 141.403 89.5626 143.022 82.3989C145.611 77.5146 147.553 72.4674 146.744 66.9318C146.42 65.955 145.611 65.1409 144.478 64.6525Z" fill="#0088DC" stroke="#0088DC" stroke-width="0.4252" stroke-miterlimit="22.9256"/>
<path fill-rule="evenodd" clip-rule="evenodd" d="M91.8846 81.4221C90.2663 81.4221 88.3244 82.0733 86.868 82.8874H86.7062V82.7246C88.1626 82.0733 90.1045 81.4221 91.7228 81.2593C91.8846 81.2593 92.0464 81.2593 91.8846 81.4221C92.0464 81.4221 92.0464 81.4221 91.8846 81.4221Z" fill="#0088DC"/>
<path d="M91.8846 81.4221C90.2663 81.4221 88.3244 82.0733 86.868 82.8874H86.7062V82.7246C88.1626 82.0733 90.1045 81.4221 91.7228 81.2593C91.8846 81.2593 92.0464 81.2593 91.8846 81.4221ZM91.8846 81.4221C92.0464 81.4221 92.0464 81.4221 91.8846 81.4221Z" stroke="#0088DC" stroke-width="0.4252" stroke-miterlimit="22.9256"/>
<path d="M91.8846 81.2593C90.4282 81.2593 88.3245 81.9105 86.868 82.7246" stroke="#0088DC" stroke-width="0.4252" stroke-miterlimit="22.9256"/>
<path fill-rule="evenodd" clip-rule="evenodd" d="M107.42 84.5154L104.831 83.0501C104.345 82.8873 104.507 82.8873 104.022 82.8873C103.374 82.8873 102.727 82.7245 102.241 82.3989C101.918 82.2361 102.08 82.2361 101.756 82.3989C101.109 82.5617 100.461 82.5617 99.8141 82.3989C99.6523 82.3989 99.4904 82.7245 99.4904 82.8873C99.4904 83.2129 100.3 83.5386 100.623 83.7014L100.785 83.8642L100.623 84.027C100.138 83.8642 99.3286 83.5385 99.3286 83.0501C99.3286 82.7245 99.4904 82.2361 99.8141 82.2361C100.461 82.3989 101.109 82.3989 101.756 82.2361C102.08 82.2361 102.08 82.0732 102.403 82.2361C102.889 82.5617 103.536 82.7245 104.183 82.7245C104.669 82.7245 104.669 82.7245 105.154 82.8873L107.744 84.3526C107.744 84.3526 107.905 84.5154 107.744 84.5154C107.582 84.5154 107.582 84.5154 107.42 84.5154Z" fill="#0088DC" stroke="#0088DC" stroke-width="0.4252" stroke-miterlimit="22.9256"/>
<path d="M107.582 84.3527L104.993 82.8874C104.507 82.7246 104.669 82.7246 104.183 82.7246C103.536 82.7246 103.051 82.5617 102.403 82.2361C102.08 82.0733 102.241 82.0733 101.756 82.2361C101.109 82.3989 100.461 82.3989 99.8141 82.2361C99.4904 82.2361 99.3286 82.5617 99.3286 82.8874C99.3286 83.213 99.9759 83.7014 100.623 83.8642" stroke="#0088DC" stroke-width="0.4252" stroke-miterlimit="22.9256"/>
<path fill-rule="evenodd" clip-rule="evenodd" d="M104.345 84.3526L98.6813 83.8642C97.7104 83.8642 96.7394 83.7014 95.7685 83.7014C95.4448 83.7014 95.283 84.027 95.4448 84.3526V84.5154H95.283C94.9593 84.027 95.283 83.5386 95.7685 83.5386C96.7394 83.5386 97.7104 83.7014 98.6813 83.7014L104.345 84.1898C104.507 84.1898 104.507 84.1898 104.345 84.3526C104.507 84.3526 104.507 84.3526 104.345 84.3526Z" fill="#0088DC"/>
<path d="M104.345 84.3526L98.6813 83.8642C97.7104 83.8642 96.7394 83.7014 95.7685 83.7014C95.4448 83.7014 95.283 84.027 95.4448 84.3526V84.5154H95.283C94.9593 84.027 95.283 83.5386 95.7685 83.5386C96.7394 83.5386 97.7104 83.7014 98.6813 83.7014L104.345 84.1898C104.507 84.1898 104.507 84.1898 104.345 84.3526ZM104.345 84.3526C104.507 84.3526 104.507 84.3526 104.345 84.3526Z" stroke="#0088DC" stroke-width="0.4252" stroke-miterlimit="22.9256"/>
<path d="M104.345 84.3527L98.6813 83.8642C97.7103 83.8642 96.7394 83.7014 95.7684 83.7014C95.2829 83.7014 95.1211 84.1899 95.4447 84.5155" stroke="#0088DC" stroke-width="0.4252" stroke-miterlimit="22.9256"/>
<path fill-rule="evenodd" clip-rule="evenodd" d="M97.063 88.423C96.7393 88.7486 96.7393 89.3998 97.2248 89.5626C99.0049 90.0511 100.947 90.3767 102.727 90.5395C104.345 90.5395 105.963 90.2139 107.743 89.8883C107.743 89.8883 107.905 89.8883 107.905 90.0511C107.905 90.0511 107.905 90.2139 107.743 90.2139C106.125 90.5395 104.507 90.8651 102.727 90.8651C100.947 90.8651 99.0049 90.5395 97.2248 89.8883C96.5775 89.5627 96.5775 88.7486 97.063 88.423H97.2248C97.063 88.423 97.063 88.423 97.063 88.423Z" fill="#0088DC"/>
<path d="M97.063 88.423C96.7393 88.7486 96.7393 89.3998 97.2248 89.5626C99.0049 90.0511 100.947 90.3767 102.727 90.5395C104.345 90.5395 105.963 90.2139 107.743 89.8883C107.743 89.8883 107.905 89.8883 107.905 90.0511C107.905 90.0511 107.905 90.2139 107.743 90.2139C106.125 90.5395 104.507 90.8651 102.727 90.8651C100.947 90.8651 99.0049 90.5395 97.2248 89.8883C96.5775 89.5627 96.5775 88.7486 97.063 88.423ZM97.063 88.423H97.2248C97.063 88.423 97.063 88.423 97.063 88.423Z" stroke="#0088DC" stroke-width="0.4252" stroke-miterlimit="22.9256"/>
<path d="M96.9012 88.423C96.5776 88.7486 96.4158 89.3998 97.0631 89.7255C98.6813 90.2139 100.623 90.5395 102.565 90.7023C104.345 90.7023 105.64 90.3767 107.582 90.0511" stroke="#0088DC" stroke-width="0.4252" stroke-miterlimit="22.9256"/>
<path fill-rule="evenodd" clip-rule="evenodd" d="M100.947 85.818L95.4448 84.8411C94.7975 84.8411 94.4739 85.6552 95.1212 85.9808C97.0631 86.3064 99.005 86.7948 100.947 87.1205C100.947 87.1205 101.109 87.1205 101.109 87.2833C101.109 87.2833 101.109 87.4461 100.947 87.4461C99.005 87.1205 97.0631 86.632 95.1212 86.3064C94.1502 85.818 94.6357 84.5155 95.6067 84.6783L101.109 85.6552C101.109 85.6552 101.109 85.6552 100.947 85.818C101.109 85.818 101.109 85.818 100.947 85.818Z" fill="#0088DC"/>
<path d="M100.947 85.818L95.4448 84.8411C94.7975 84.8411 94.4739 85.6552 95.1212 85.9808C97.0631 86.3064 99.005 86.7948 100.947 87.1205C100.947 87.1205 101.109 87.1205 101.109 87.2833C101.109 87.2833 101.109 87.4461 100.947 87.4461C99.005 87.1205 97.0631 86.632 95.1212 86.3064C94.1502 85.818 94.6357 84.5155 95.6067 84.6783L101.109 85.6552C101.109 85.6552 101.109 85.6552 100.947 85.818ZM100.947 85.818C101.109 85.818 101.109 85.818 100.947 85.818Z" stroke="#0088DC" stroke-width="0.4252" stroke-miterlimit="22.9256"/>
<path d="M100.947 85.6552L95.4448 84.6783C94.6357 84.6783 94.312 85.6552 95.1211 86.1437C97.0631 86.6321 99.1668 87.1205 100.947 87.2833" stroke="#0088DC" stroke-width="0.4252" stroke-miterlimit="22.9256"/>
<path fill-rule="evenodd" clip-rule="evenodd" d="M95.2829 86.3064C94.7974 86.4692 94.4738 87.2833 95.1211 87.6089C97.5484 88.2602 99.814 88.423 102.241 88.9114C102.241 88.9114 102.403 88.9114 102.403 89.0742C102.403 89.0742 102.403 89.237 102.241 89.237C99.814 88.7486 97.3866 88.5858 94.9592 87.9345C94.1501 87.6089 94.4738 86.3064 95.1211 86.1436C95.2829 85.9808 95.4447 86.1436 95.2829 86.3064C95.4447 86.1436 95.2829 86.3064 95.2829 86.3064Z" fill="#0088DC"/>
<path d="M95.2829 86.3064C94.7974 86.4692 94.4738 87.2833 95.1211 87.6089C97.5484 88.2602 99.814 88.423 102.241 88.9114C102.241 88.9114 102.403 88.9114 102.403 89.0742C102.403 89.0742 102.403 89.237 102.241 89.237C99.814 88.7486 97.3866 88.5858 94.9592 87.9345C94.1501 87.6089 94.4738 86.3064 95.1211 86.1436C95.2829 85.9808 95.4447 86.1436 95.2829 86.3064ZM95.2829 86.3064C95.4447 86.1436 95.2829 86.3064 95.2829 86.3064Z" stroke="#0088DC" stroke-width="0.4252" stroke-miterlimit="22.9256"/>
<path d="M95.2829 86.1436C94.7975 86.3064 94.312 87.2832 95.1211 87.6089C97.7103 88.4229 99.8141 88.4229 102.241 88.9114" stroke="#0088DC" stroke-width="0.4252" stroke-miterlimit="22.9256"/>
<path d="M40.9095 32.2529C40.9095 33.3926 41.0714 35.1835 41.8805 36.1604C43.0133 37.6257 42.6896 45.2778 42.5278 47.2316C42.0423 53.0928 30.7145 50.9763 30.3909 47.0688C30.3909 47.0688 30.3909 46.906 30.5527 46.906C30.5527 46.906 30.7145 46.906 30.7145 47.0688C31.0382 50.8134 41.8805 52.93 42.366 47.2316C42.5278 45.4407 42.8514 37.7885 41.8805 36.3232C41.0714 35.3463 41.0714 33.5554 40.9095 32.2529ZM40.9095 32.2529C40.7477 32.2529 40.7477 32.2529 40.9095 32.2529Z" stroke="#0088DC" stroke-width="0.4252" stroke-miterlimit="22.9256"/>
<path d="M40.7478 32.2529C40.9096 34.3695 41.0714 35.3463 41.7187 36.1604C42.366 37.1373 42.6897 42.6729 42.366 47.0688C41.8805 52.93 30.8764 50.6506 30.5527 46.906" stroke="#0088DC" stroke-width="0.4252" stroke-miterlimit="22.9256"/>
<path d="M33.6274 38.277C34.2747 37.6258 35.0839 36.9745 35.893 36.6489H36.0548V36.8117C35.2457 37.1374 34.4366 37.6258 33.7893 38.277H33.6274Z" stroke="#0088DC" stroke-width="0.4252" stroke-miterlimit="22.9256"/>
<path d="M33.7892 38.277C34.4365 37.6258 35.2456 37.1374 36.0547 36.6489" stroke="#0088DC" stroke-width="0.4252" stroke-miterlimit="22.9256"/>
<path d="M39.2913 35.1836C39.615 34.858 40.1005 34.5323 40.5859 34.5323C40.5859 34.5323 40.7478 34.5323 40.7478 34.6952C40.7478 34.6952 40.7478 34.858 40.5859 34.858C40.1005 35.0208 39.615 35.1836 39.2913 35.5092H39.1295C39.2913 35.3464 39.2913 35.1836 39.2913 35.1836Z" stroke="#0088DC" stroke-width="0.4252" stroke-miterlimit="22.9256"/>
<path d="M39.4531 35.1836C39.7768 34.858 40.2623 34.5323 40.7477 34.5323" stroke="#0088DC" stroke-width="0.4252" stroke-miterlimit="22.9256"/>
<path d="M35.3266 38.7645C35.4157 38.7572 35.4584 38.388 35.422 37.9399C35.3856 37.4918 35.2839 37.1345 35.1949 37.1418C35.1058 37.1491 35.0631 37.5183 35.0994 37.9664C35.1358 38.4145 35.2375 38.7718 35.3266 38.7645Z" stroke="#0088DC" stroke-width="0.4252" stroke-miterlimit="22.9261"/>
<path d="M40.1535 36.0134C40.2426 36.006 40.2912 35.7095 40.2622 35.351C40.2331 34.9925 40.1373 34.7078 40.0483 34.7152C39.9592 34.7225 39.9105 35.019 39.9396 35.3775C39.9687 35.736 40.0644 36.0207 40.1535 36.0134Z" stroke="#0088DC" stroke-width="0.4252" stroke-miterlimit="22.9259"/>
<path d="M39.9386 37.9513C40.2622 38.7654 40.424 39.5794 41.0713 40.3935C41.7186 41.5332 39.4531 41.5332 38.9676 41.3704C38.9676 41.3704 38.8058 41.3704 38.8058 41.2076C38.8058 41.2076 38.8058 41.0447 38.9676 41.0447C39.2913 41.0447 41.395 41.3704 40.9095 40.3935C40.2622 39.5794 40.1004 38.7654 39.7767 37.9513C39.7767 37.9513 39.7767 37.9513 39.9386 37.9513ZM39.9386 37.9513C39.9386 37.7885 39.9386 37.7885 39.9386 37.9513Z" stroke="#0088DC" stroke-width="0.4252" stroke-miterlimit="22.9256"/>
<path d="M39.9386 37.9514C40.2623 38.7655 40.4241 39.5795 41.0714 40.3936C41.7187 41.3705 39.615 41.3705 38.9677 41.2076" stroke="#0088DC" stroke-width="0.4252" stroke-miterlimit="22.9256"/>
<path d="M37.8348 44.6266C38.9676 44.6266 40.2622 44.7894 41.2332 43.9753H41.395V44.1382C40.2622 44.9522 39.1294 44.7894 37.8348 44.7894C37.8348 44.7894 37.8348 44.7894 37.8348 44.6266Z" stroke="#0088DC" stroke-width="0.4252" stroke-miterlimit="22.9256"/>
<path d="M37.8348 44.6266C39.6149 44.7894 40.4241 44.6266 41.2332 43.9753" stroke="#0088DC" stroke-width="0.4252" stroke-miterlimit="22.9256"/>
<path d="M39.1295 45.7663C39.4531 45.9291 40.1004 46.092 40.4241 45.9291C40.4241 45.9291 40.5859 45.9291 40.5859 46.092C40.5859 46.092 40.5859 46.2548 40.4241 46.2548C39.9386 46.2548 39.2913 46.2548 38.9677 45.9291C38.9677 45.9291 38.9677 45.7663 39.1295 45.7663ZM39.1295 45.7663C38.9677 45.7663 39.1295 45.6035 39.1295 45.7663Z" stroke="#0088DC" stroke-width="0.4252" stroke-miterlimit="22.9256"/>
<path d="M39.1295 45.7664C39.4532 45.9292 39.9386 46.092 40.5859 45.9292" stroke="#0088DC" stroke-width="0.4252" stroke-miterlimit="22.9256"/>
<path d="M37.8348 43.9754C37.8348 44.4638 37.673 45.2779 37.3493 45.6035H37.1875V45.4407C37.5112 45.1151 37.673 44.4638 37.673 43.9754C37.673 43.8126 37.673 43.8126 37.8348 43.9754ZM37.8348 43.9754C37.8348 43.8126 37.8348 43.8126 37.8348 43.9754Z" stroke="#0088DC" stroke-width="0.4252" stroke-miterlimit="22.9256"/>
<path d="M37.673 43.9753C37.673 44.4638 37.5112 45.2778 37.1875 45.6035" stroke="#0088DC" stroke-width="0.4252" stroke-miterlimit="22.9256"/>
<path d="M18.7394 36.3232C18.9012 40.8819 20.3577 46.906 25.2125 48.6969C27.8017 49.5109 28.9344 46.4175 28.1253 46.5803C26.3452 47.0688 25.3743 46.2547 24.727 44.6266C24.4033 43.6497 24.4033 42.1844 25.3743 41.696C26.0216 41.3704 26.9925 41.3704 27.3162 42.0216C28.2871 43.3241 28.9344 43.6497 28.6108 41.696C28.2871 39.2538 27.3162 36.8116 27.478 34.3695C27.478 34.3695 27.478 34.2067 27.6398 34.2067C27.6398 34.2067 27.8017 34.2067 27.8017 34.3695C27.6398 36.6488 28.7726 39.2538 28.9344 41.696C29.2581 43.9754 28.2871 43.6497 27.1544 42.1844C26.8307 41.696 26.0216 41.5332 25.3743 41.8588C24.4033 42.3472 24.5651 43.6497 24.8888 44.6266C25.3743 46.2547 26.3452 46.906 27.9635 46.4175C29.4199 45.9291 28.1253 49.8366 25.0506 48.8597C20.1959 47.0688 18.5776 40.8819 18.4158 36.3232C18.4158 36.1604 18.4158 36.1604 18.7394 36.3232ZM18.7394 36.3232C18.5776 36.1604 18.7394 36.1604 18.7394 36.3232Z" stroke="#0088DC" stroke-width="0.4252" stroke-miterlimit="22.9256"/>
<path d="M18.5776 36.3232C18.7395 43.1613 21.4905 47.3944 25.0507 48.8597C27.8017 49.6738 29.0963 46.2547 27.9635 46.5804C27.1544 46.906 25.5361 47.0688 24.727 44.6266C23.7561 41.5332 26.3453 41.0448 27.1544 42.0216C28.449 43.8126 28.9345 43.4869 28.7727 41.696C28.449 39.091 27.4781 36.6489 27.6399 34.3695" stroke="#0088DC" stroke-width="0.4252" stroke-miterlimit="22.9256"/>
<path d="M27.3162 45.6035C26.1834 45.4407 26.0216 44.3011 26.9925 43.8126H27.1544V43.9754C26.3452 44.3011 26.507 45.1151 27.478 45.2779C27.478 45.4407 27.478 45.4407 27.3162 45.6035ZM27.3162 45.6035C27.478 45.6035 27.478 45.6035 27.3162 45.6035Z" stroke="#0088DC" stroke-width="0.4252" stroke-miterlimit="22.9256"/>
<path d="M27.4781 45.6035C26.1834 45.4407 26.5071 44.4638 27.1544 44.1382" stroke="#0088DC" stroke-width="0.4252" stroke-miterlimit="22.9256"/>
<path d="M40.5859 53.0929C42.8514 63.0244 43.9842 74.4212 42.5278 84.3527C42.5278 84.3527 42.5278 84.5155 42.3659 84.5155C42.3659 84.5155 42.2041 84.5155 42.2041 84.3527C43.6605 74.2584 42.5278 63.0244 40.2622 53.0929C40.424 53.0929 40.424 52.9301 40.5859 53.0929ZM40.5859 53.0929C40.5859 52.9301 40.5859 53.0929 40.5859 53.0929Z" stroke="#0088DC" stroke-width="0.4252" stroke-miterlimit="22.9256"/>
<path d="M40.5859 53.0928C42.8515 62.8615 43.9843 74.4211 42.5278 84.3526" stroke="#0088DC" stroke-width="0.4252" stroke-miterlimit="22.9256"/>
<path d="M20.1958 108.449C25.8597 110.565 31.5236 110.891 37.3493 110.24C38.3203 110.077 37.9966 110.24 37.9966 109.426L36.3784 76.3749C36.2166 74.2584 36.0547 73.9327 35.0838 72.1418C31.8473 65.7922 26.3452 56.3491 25.6979 49.1854C25.6979 49.1854 25.6979 49.0226 25.8597 49.0226C25.8597 49.0226 26.0215 49.0226 26.0215 49.1854C26.6688 56.1863 32.1709 65.6294 35.4074 71.979C36.3784 73.9327 36.5402 74.0955 36.702 76.3749L38.3203 109.426C38.3203 110.403 38.4821 110.403 37.5112 110.565C31.5236 111.217 25.8597 110.891 20.1958 108.774C20.1958 108.774 20.1958 108.774 20.1958 108.612C19.8722 106.007 19.8722 103.239 20.034 100.634C20.1958 98.3545 20.3576 96.0751 20.5195 93.7957C20.6813 91.0279 20.3576 88.2601 19.7103 85.4923C19.7103 85.4923 19.7103 85.3295 19.8722 85.3295C19.8722 85.3295 20.034 85.3295 20.034 85.4923C20.8431 88.2601 21.0049 91.0279 20.8431 93.7957C20.8431 96.0751 20.5195 98.3545 20.3576 100.634C19.8722 103.239 19.8722 105.844 20.1958 108.449Z" stroke="#0088DC" stroke-width="0.4252" stroke-miterlimit="22.9256"/>
<path d="M25.8598 49.0226C26.5071 55.6979 31.3619 64.1641 35.2457 71.8162C36.2166 73.7699 36.3785 73.9327 36.5403 76.2121L38.1585 109.263C38.1585 110.24 38.3204 110.077 37.3494 110.24C31.6855 110.891 25.8598 110.728 20.0341 108.449C19.0631 99.0057 21.6523 93.3073 19.5486 85.3295" stroke="#0088DC" stroke-width="0.4252" stroke-miterlimit="22.9256"/>
<path d="M26.6688 53.0929C29.5817 55.2094 35.0838 55.6978 37.673 52.9301H37.8348V53.0929C35.0838 55.8607 29.5817 55.3722 26.6688 53.2557V53.0929ZM26.6688 53.0929C26.507 53.0929 26.6688 53.0929 26.6688 53.0929Z" stroke="#0088DC" stroke-width="0.4252" stroke-miterlimit="22.9256"/>
<path d="M26.6688 53.2556C29.9053 55.5349 35.4074 55.6978 37.8348 53.0928" stroke="#0088DC" stroke-width="0.4252" stroke-miterlimit="22.9256"/>
<path d="M27.478 55.535C29.5817 57.6516 36.0548 57.6516 38.3203 55.3722H38.4821V55.535C36.2166 57.9772 29.5817 57.9772 27.3162 55.6978V55.535H27.478Z" stroke="#0088DC" stroke-width="0.4252" stroke-miterlimit="22.9256"/>
<path d="M27.478 55.6978C29.2581 57.4888 35.893 58.3028 38.4822 55.535" stroke="#0088DC" stroke-width="0.4252" stroke-miterlimit="22.9256"/>
<path d="M26.3452 52.2787C24.727 52.93 22.9469 53.9069 21.9759 55.3722H21.8141V55.2094C22.785 53.7441 24.5651 52.6044 26.3452 51.9531C26.3452 51.9531 26.3452 51.9531 26.3452 52.2787ZM26.3452 52.2787C26.507 52.1159 26.3452 52.2787 26.3452 52.2787Z" stroke="#0088DC" stroke-width="0.4252" stroke-miterlimit="22.9256"/>
<path d="M26.3452 52.116C24.8888 52.6044 22.9469 53.7441 21.976 55.3722" stroke="#0088DC" stroke-width="0.4252" stroke-miterlimit="22.9256"/>
<path d="M49.9718 60.0938C49.9718 59.2797 49.81 57.1632 49.3245 56.5119C46.088 54.0697 44.3079 54.0697 40.4241 53.2557L37.5112 51.7904V51.6276H37.6731L40.5859 53.0929C44.4697 53.9069 46.2498 53.9069 49.4863 56.3491C50.1336 57.0003 50.1336 59.1169 50.2955 60.0938C50.2955 60.0938 50.1336 60.0938 49.9718 60.0938ZM49.9718 60.0938C50.1336 60.2566 49.9718 60.0938 49.9718 60.0938Z" stroke="#0088DC" stroke-width="0.4252" stroke-miterlimit="22.9256"/>
<path d="M50.1336 60.0938C49.9718 58.6285 49.81 57.0003 49.3245 56.3491C46.088 53.9069 44.4697 53.9069 40.4241 53.0929L37.5112 51.6276" stroke="#0088DC" stroke-width="0.4252" stroke-miterlimit="22.9256"/>
<path d="M21.9759 55.2094C22.9469 60.5821 26.1834 67.2574 28.2871 72.3046V72.4674H28.1253C26.0216 67.4202 22.6232 60.5821 21.8141 55.2094C21.8141 55.2094 21.8141 55.2094 21.9759 55.2094Z" stroke="#0088DC" stroke-width="0.4252" stroke-miterlimit="22.9256"/>
<path d="M21.8141 55.3722C22.6232 60.2565 26.1834 67.7459 28.1253 72.6302" stroke="#0088DC" stroke-width="0.4252" stroke-miterlimit="22.9256"/>
<path d="M14.0465 59.9309C17.1212 60.2565 19.0631 67.9086 19.5486 70.0252C20.1959 72.793 21.005 77.0261 20.6814 79.7939C20.6814 79.7939 20.6814 79.9567 20.5195 79.9567C20.5195 79.9567 20.3577 79.9567 20.3577 79.7939C20.6814 77.0261 19.8722 72.793 19.2249 70.0252C18.7395 67.9086 16.6357 59.7681 13.7229 60.0937H13.561V59.9309C15.9884 57.6515 18.5776 56.0234 21.8141 55.2094C21.8141 55.2094 21.976 55.2093 21.976 55.3722C21.976 55.3722 21.976 55.535 21.8141 55.535C18.9013 56.1862 16.3121 57.8143 14.0465 59.9309Z" stroke="#0088DC" stroke-width="0.4252" stroke-miterlimit="22.9256"/>
<path d="M20.5195 79.7939C21.0049 74.9095 17.9302 59.6053 13.7228 59.9309C15.9883 57.8143 18.5776 56.1862 21.9759 55.2094" stroke="#0088DC" stroke-width="0.4252" stroke-miterlimit="22.9256"/>
<path d="M50.4572 63.0243C50.4572 63.5127 50.619 64.1639 50.619 64.6524C50.7808 67.2574 50.7808 69.8623 50.9427 72.4673C51.1045 77.5145 51.2663 82.7245 51.4282 87.7716C51.4282 87.7716 51.4282 87.9344 51.2663 87.9344C51.2663 87.9344 51.1045 87.9344 51.1045 87.7716C50.9427 82.7245 50.7808 77.5145 50.619 72.4673C50.619 69.8623 50.4572 67.2574 50.2954 64.6524C50.2954 64.1639 50.2954 63.5127 50.1335 63.0243C50.2954 63.0243 50.2954 62.8615 50.4572 63.0243ZM50.4572 63.0243C50.4572 62.8615 50.4572 63.0243 50.4572 63.0243Z" stroke="#0088DC" stroke-width="0.4252" stroke-miterlimit="22.9256"/>
<path d="M50.4573 63.0243C50.7809 68.0714 50.7809 71.4905 51.2664 87.7716" stroke="#0088DC" stroke-width="0.4252" stroke-miterlimit="22.9256"/>
<path d="M47.3826 109.588C49.81 109.426 52.2374 108.937 54.503 107.96C53.6938 104.378 53.0465 100.797 52.2374 97.052C51.7519 94.6098 51.2665 92.0048 51.1046 89.5626C51.1046 89.5626 51.1046 89.3998 51.2665 89.3998C51.2665 89.3998 51.4283 89.3998 51.4283 89.5626C51.5901 92.0048 52.0756 94.6098 52.5611 97.052C53.2084 100.634 54.0175 104.378 54.8266 107.96V108.123C52.5611 109.1 49.9719 109.588 47.3826 109.751C47.3826 109.751 47.2208 109.751 47.2208 109.588L41.0714 77.5146C40.7478 75.5609 40.4241 73.9327 40.4241 71.979C40.2623 68.2343 39.615 55.6979 37.6731 53.0929V52.9301H37.8349C39.7768 55.6978 40.586 68.0715 40.586 71.979C40.586 73.9327 40.9096 75.5609 41.2333 77.5146L47.3826 109.588Z" stroke="#0088DC" stroke-width="0.4252" stroke-miterlimit="22.9256"/>
<path d="M51.2665 89.5625C51.4283 93.1444 52.8847 99.9825 54.503 107.96C52.3992 108.774 49.6482 109.426 47.2208 109.588L41.0714 77.5145C40.586 75.3979 40.4241 74.0954 40.4241 71.9789C40.2623 65.6293 39.2914 55.2093 37.6731 53.0928" stroke="#0088DC" stroke-width="0.4252" stroke-miterlimit="22.9256"/>
<path d="M49.4864 56.3491C51.9137 57.8144 53.3702 66.6062 54.0175 69.2112C54.6648 72.1418 55.9594 79.4683 57.9013 81.5849V81.7477H57.7395C55.7976 79.6311 54.3411 72.3046 53.8557 69.374C53.3702 66.769 51.7519 57.9772 49.4864 56.6747C49.3245 56.5119 49.3245 56.3491 49.4864 56.3491ZM49.4864 56.3491C49.3245 56.3491 49.3245 56.1863 49.4864 56.3491Z" stroke="#0088DC" stroke-width="0.4252" stroke-miterlimit="22.9256"/>
<path d="M49.3245 56.349C53.0465 58.6284 54.0174 77.6773 57.7394 81.5848" stroke="#0088DC" stroke-width="0.4252" stroke-miterlimit="22.9256"/>
<path d="M54.9884 153.71C55.1502 148.012 55.1502 142.151 55.1502 136.452C55.1502 130.754 55.1502 125.055 54.9884 119.357C54.8265 116.264 54.6647 111.216 53.8556 108.286V108.123H54.0174C54.9884 111.054 54.9884 116.101 55.1502 119.194C55.312 124.893 55.4739 130.591 55.312 136.289C55.312 141.988 55.1502 147.849 55.1502 153.547C55.312 153.873 55.1502 153.873 54.9884 153.71ZM54.9884 153.71C54.9884 153.873 54.9884 153.873 54.9884 153.71Z" stroke="#0088DC" stroke-width="0.4252" stroke-miterlimit="22.9256"/>
<path d="M55.1502 153.71C55.4739 138.569 55.7975 114.147 54.0175 108.286" stroke="#0088DC" stroke-width="0.4252" stroke-miterlimit="22.9256"/>
<path d="M38.644 119.683L45.4407 115.124H45.6026V115.287L38.8059 119.846H38.644C38.644 119.846 38.644 119.846 38.644 119.683Z" stroke="#0088DC" stroke-width="0.4252" stroke-miterlimit="22.9256"/>
<path d="M38.644 119.845L45.4407 115.287" stroke="#0088DC" stroke-width="0.4252" stroke-miterlimit="22.9256"/>
<path d="M41.8805 118.055C41.8805 120.822 41.8805 123.59 41.7186 126.358C41.5568 131.242 41.5568 136.127 41.395 141.011C41.2332 145.244 41.2332 149.477 41.0713 153.71C41.0713 153.71 41.0713 153.873 40.9095 153.873C40.9095 153.873 40.7477 153.873 40.7477 153.71C40.9095 149.477 40.9095 145.244 41.0713 141.011C41.2332 136.127 41.2332 131.242 41.395 126.358C41.395 123.59 41.5568 120.822 41.5568 118.055C41.7186 117.892 41.7186 117.892 41.8805 118.055ZM41.8805 118.055C41.8805 117.892 41.8805 117.892 41.8805 118.055Z" stroke="#0088DC" stroke-width="0.4252" stroke-miterlimit="22.9256"/>
<path d="M41.8805 118.055C41.8805 120.822 41.5568 141.011 41.2332 153.71" stroke="#0088DC" stroke-width="0.4252" stroke-miterlimit="22.9256"/>
<path d="M37.673 50.8135C37.3493 51.4648 37.5112 52.4416 37.8348 53.0929V53.2557H37.673C37.5112 52.6044 37.1875 51.6276 37.5112 50.8135C37.5112 50.6507 37.673 50.6507 37.673 50.8135ZM37.673 50.8135C37.673 50.6507 37.673 50.8135 37.673 50.8135Z" stroke="#0088DC" stroke-width="0.4252" stroke-miterlimit="22.9256"/>
<path d="M37.673 50.8135C37.3493 51.3019 37.5112 52.116 37.8348 53.0928" stroke="#0088DC" stroke-width="0.4252" stroke-miterlimit="22.9256"/>
<path d="M29.5817 74.7468C30.0672 75.5609 30.5527 76.5377 31.0382 77.3518C32.8182 80.2824 34.7601 83.0502 37.0257 85.4924V85.6552H36.8639C34.5983 83.213 32.4946 80.2824 30.8763 77.3518C30.3908 76.5377 29.9054 75.7237 29.4199 74.7468C29.2581 74.7468 29.2581 74.7468 29.5817 74.7468ZM29.5817 74.7468C29.4199 74.584 29.5817 74.7468 29.5817 74.7468Z" stroke="#0088DC" stroke-width="0.4252" stroke-miterlimit="22.9256"/>
<path d="M29.4199 74.7467C29.9054 75.5608 30.3909 76.5376 30.8764 77.3517C32.6564 80.4451 34.7602 83.2129 36.8639 85.6551" stroke="#0088DC" stroke-width="0.4252" stroke-miterlimit="22.9256"/>
<path d="M56.4448 83.5386C58.5485 79.6311 61.785 75.7236 64.6979 72.3046C65.6689 71.1649 65.507 71.3277 65.9925 72.4674C67.1253 75.2352 68.9054 77.6773 70.8473 79.9567C71.6564 80.9336 71.4946 80.7708 70.8473 81.7476L62.756 92.9816C60.3286 96.5635 55.9593 96.7263 52.2373 95.4238C52.2373 95.4238 52.0755 95.261 52.2373 95.261C52.2373 95.261 52.3992 95.0982 52.3992 95.261C56.1211 96.5635 60.3286 96.4007 62.5942 92.9816L70.6855 81.7476C71.3328 80.7708 71.4946 81.0964 70.6855 80.2823C68.7436 78.003 67.1253 75.5608 65.8307 72.793C65.8307 72.6302 65.507 71.9789 65.507 71.9789L65.0216 72.6302C62.1087 76.0492 58.8722 79.7939 56.7685 83.8642C56.6066 83.7014 56.6066 83.7014 56.4448 83.5386ZM56.4448 83.5386C56.4448 83.7014 56.4448 83.7014 56.4448 83.5386Z" stroke="#0088DC" stroke-width="0.4252" stroke-miterlimit="22.9256"/>
<path d="M56.6066 83.7014C58.5485 79.9567 61.7851 76.212 64.8598 72.4674C65.6689 71.4905 65.507 71.4905 65.9925 72.6302C67.2871 75.398 68.9054 77.8402 70.8473 80.1195C71.6564 81.0964 71.4946 80.7708 70.8473 81.7476L62.756 92.9816C60.1668 96.7263 55.6357 96.5635 52.3992 95.4238" stroke="#0088DC" stroke-width="0.4252" stroke-miterlimit="22.9256"/>
<path d="M66.9635 74.2583C67.2872 73.607 67.9345 72.9558 68.5818 72.793H68.7436V72.9558C68.0963 73.1186 67.6108 73.7698 67.2872 74.2583C67.1253 74.4211 67.1253 74.5839 66.9635 74.2583ZM66.9635 74.2583C66.9635 74.4211 66.9635 74.4211 66.9635 74.2583Z" stroke="#0088DC" stroke-width="0.4252" stroke-miterlimit="22.9256"/>
<path d="M67.1252 74.4211C67.4489 73.7699 68.0962 73.2814 68.7435 72.9558" stroke="#0088DC" stroke-width="0.4252" stroke-miterlimit="22.9256"/>
<path d="M68.5818 73.607C68.5818 72.1417 68.9054 70.3508 70.2 69.3739C71.4947 68.5599 72.9511 68.8855 73.922 67.4202C74.7312 66.4433 75.8639 67.4202 75.0548 68.8855C74.7312 69.5367 73.922 69.8624 73.4366 70.188C72.9511 70.6764 72.9511 71.002 73.1129 71.6533V71.8161H72.9511C72.6274 71.1649 72.7893 70.6764 73.2747 70.188C73.7602 69.8624 74.5693 69.5367 74.893 68.8855C75.5403 67.7458 74.893 66.9318 74.2457 67.7458C73.1129 69.2111 71.6565 68.8855 70.3619 69.6996C69.2291 70.5136 68.9054 72.3045 68.9054 73.607C68.9054 73.7698 68.9054 73.7698 68.5818 73.607ZM68.5818 73.607C68.7436 73.7698 68.5818 73.7698 68.5818 73.607Z" stroke="#0088DC" stroke-width="0.4252" stroke-miterlimit="22.9256"/>
<path d="M68.7436 73.607C68.5818 71.8161 69.3909 70.188 70.2 69.5368C71.3328 68.7227 72.9511 69.0483 73.922 67.583C74.5693 66.769 75.7021 67.4202 74.7312 68.8855C74.4075 69.5368 73.4366 69.8624 73.1129 70.188C72.6274 70.6764 72.4656 71.1649 72.7892 71.8161" stroke="#0088DC" stroke-width="0.4252" stroke-miterlimit="22.9256"/>
<path d="M72.9511 70.6765C74.7312 70.8393 76.3494 70.6765 78.1295 70.3508C78.1295 70.3508 78.2913 70.3508 78.2913 70.5136C78.2913 70.5136 78.2913 70.6765 78.1295 70.6765C76.3494 71.0021 74.7312 71.1649 72.9511 71.0021C72.9511 71.0021 72.7892 70.8393 72.9511 70.6765ZM72.9511 70.6765C72.7892 70.6765 72.9511 70.6765 72.9511 70.6765Z" stroke="#0088DC" stroke-width="0.4252" stroke-miterlimit="22.9256"/>
<path d="M72.951 70.8393C74.7311 71.0021 76.3494 70.8393 78.1295 70.5137" stroke="#0088DC" stroke-width="0.4252" stroke-miterlimit="22.9256"/>
<path d="M79.7477 70.0252C80.5568 69.6996 81.2041 68.8855 82.1751 68.7227C83.1461 68.5599 83.4697 69.374 82.9842 70.188C82.4987 71.0021 81.366 71.8162 80.395 72.1418H80.2332V71.979C81.0423 71.6533 82.1751 70.8393 82.6606 70.188C82.9842 69.6996 82.8224 68.8856 82.1751 69.0484C81.2041 69.2112 80.7187 70.188 79.7477 70.3509C79.7477 70.188 79.5859 70.188 79.7477 70.0252ZM79.7477 70.0252C79.5859 70.0252 79.5859 70.0252 79.7477 70.0252Z" stroke="#0088DC" stroke-width="0.4252" stroke-miterlimit="22.9256"/>
<path d="M79.7477 70.1881C80.5568 69.8624 81.2041 69.0484 82.1751 68.8856C83.146 68.7228 83.146 69.5368 82.8224 70.1881C82.3369 71.0021 81.2041 71.8162 80.2332 72.1418" stroke="#0088DC" stroke-width="0.4252" stroke-miterlimit="22.9256"/>
<path d="M77.4821 74.0955C77.644 73.607 77.3203 72.9558 77.3203 72.6302C77.3203 71.6533 78.9386 71.4905 78.9386 72.4673C79.1004 73.4442 79.424 75.0723 78.1294 75.398C78.1294 75.398 77.9676 75.398 77.9676 75.2351C77.9676 75.2351 77.9676 75.0723 78.1294 75.0723C79.2622 74.9095 78.9386 73.2814 78.7767 72.4673C78.7767 71.8161 77.644 71.9789 77.4821 72.6302C77.4821 73.1186 77.9676 73.7698 77.644 74.2583C77.8058 74.0955 77.644 74.2583 77.4821 74.0955Z" stroke="#0088DC" stroke-width="0.4252" stroke-miterlimit="22.9256"/>
<path d="M77.644 74.0955C77.8058 73.6071 77.4822 72.793 77.4822 72.4674C77.4822 71.6534 78.7768 71.4906 78.9386 72.3046C79.1004 73.7699 79.2623 74.9096 78.1295 75.0724" stroke="#0088DC" stroke-width="0.4252" stroke-miterlimit="22.9256"/>
<path d="M70.3618 74.0955C70.8473 73.607 71.3328 73.2814 72.1419 73.1186C72.951 72.9558 73.922 73.2814 74.7311 73.2814C74.7311 73.2814 74.8929 73.2814 74.8929 73.4442C74.8929 73.4442 74.8929 73.607 74.7311 73.607C73.922 73.4442 72.951 73.2814 72.3037 73.4442C71.4946 73.607 71.1709 73.7698 70.6855 74.2583H70.5236C70.3618 74.2583 70.3618 74.0955 70.3618 74.0955Z" stroke="#0088DC" stroke-width="0.4252" stroke-miterlimit="22.9256"/>
<path d="M70.3618 74.0955C70.8473 73.7698 71.1709 73.2814 71.9801 73.1186C72.7892 72.9558 73.4365 73.2814 74.4075 73.2814" stroke="#0088DC" stroke-width="0.4252" stroke-miterlimit="22.9256"/>
<path d="M70.0382 78.4914C71.4946 77.0261 77.8058 77.5145 78.1295 74.5839C78.1295 74.0955 77.4822 73.7698 77.3204 74.4211C76.9967 75.398 76.1876 75.7236 75.3785 75.7236C75.3785 75.7236 75.2166 75.7236 75.2166 75.5608C75.2166 75.5608 75.2166 75.398 75.3785 75.398C76.1876 75.398 76.8349 75.0723 77.1585 74.2583C77.3204 73.4442 78.4531 73.7698 78.4531 74.5839C78.1295 77.6773 71.6565 77.1889 70.2 78.6542H70.0382C70.0382 78.6542 70.0382 78.6542 70.0382 78.4914Z" stroke="#0088DC" stroke-width="0.4252" stroke-miterlimit="22.9256"/>
<path d="M70.2 78.6542C71.4946 77.3518 78.1294 77.6774 78.2912 74.7468C78.2912 74.0955 77.4821 73.7699 77.1585 74.4211C76.8348 75.2352 76.1875 75.5608 75.2165 75.5608" stroke="#0088DC" stroke-width="0.4252" stroke-miterlimit="22.9256"/>
<path d="M85.8971 82.3989C86.2208 82.3989 87.1918 82.8874 87.5154 83.0502C87.6772 83.0502 87.6772 83.213 87.5154 83.3758C86.5445 86.3064 83.7934 88.2601 80.5569 88.2601C77.4822 88.2601 74.7312 86.3064 73.5984 83.3758V83.213C74.0839 83.0502 74.7312 82.7245 75.2166 82.5617C75.3785 82.5617 75.3785 82.5617 75.3785 82.7245C76.0258 85.0039 78.1295 86.4692 80.3951 86.4692C82.6606 86.4692 84.7644 85.0039 85.4117 82.8874C85.7353 82.5617 85.7353 82.3989 85.8971 82.3989Z" stroke="#0088DC" stroke-width="0.4252" stroke-miterlimit="22.9256"/>
<path d="M85.8971 82.5616C85.088 84.841 83.1461 86.3063 80.7187 86.3063C78.2913 86.3063 76.1876 84.6782 75.5403 82.5616C74.893 82.7245 74.893 82.8873 73.922 83.2129C74.893 85.9807 77.644 88.0972 80.7187 88.0972C83.9552 88.0972 86.5444 86.1435 87.5154 83.2129V83.0501C86.7062 82.8873 86.0589 82.5616 85.8971 82.5616Z" stroke="#0088DC" stroke-width="0.4252" stroke-miterlimit="22.9256"/>
<path d="M80.2332 88.0973C80.5568 88.0973 80.8805 88.0973 81.2041 88.0973C81.2041 88.0973 81.2041 88.0973 81.366 88.0973C81.366 88.0973 81.366 88.0973 81.366 88.2601V149.314C81.366 149.477 81.2041 149.477 81.0423 149.64C80.7187 149.803 80.2332 149.803 80.2332 149.314V88.0973ZM80.2332 88.0973C80.0714 88.2601 80.0714 88.2601 80.2332 88.0973ZM80.2332 88.0973C80.0714 88.0973 80.2332 88.0973 80.2332 88.0973Z" stroke="#0088DC" stroke-width="0.4252" stroke-miterlimit="22.9256"/>
<path d="M80.2332 88.2601C80.5568 88.2601 80.8805 88.2601 81.2041 88.2601V149.314C81.2041 149.477 81.2041 149.477 80.8805 149.477C80.5568 149.64 80.2332 149.477 80.2332 149.152V88.2601Z" stroke="#0088DC" stroke-width="0.4252" stroke-miterlimit="22.9256"/>
<path d="M82.9842 93.3073V96.2379C82.9842 96.2379 82.9842 96.4007 82.8223 96.4007C82.8223 96.4007 82.6605 96.4007 82.6605 96.2379V93.3073C82.8223 93.1445 82.8223 93.1445 82.9842 93.3073ZM82.9842 93.3073C82.9842 93.1445 82.9842 93.1445 82.9842 93.3073Z" stroke="#0088DC" stroke-width="0.4252" stroke-miterlimit="22.9256"/>
<path d="M82.8224 93.3073V96.2379" stroke="#0088DC" stroke-width="0.4252" stroke-miterlimit="22.9256"/>
<path fill-rule="evenodd" clip-rule="evenodd" d="M82.9842 98.8429V101.774C82.9842 101.774 82.9842 101.936 82.8223 101.936C82.8223 101.936 82.6605 101.936 82.6605 101.774V98.8429C82.8223 98.8429 82.8223 98.8429 82.9842 98.8429Z" fill="#0088DC" stroke="#0088DC" stroke-width="0.4252" stroke-miterlimit="22.9256"/>
<path d="M82.8224 98.8429V101.936" stroke="#0088DC" stroke-width="0.4252" stroke-miterlimit="22.9256"/>
<path d="M82.9842 104.541V107.472C82.9842 107.472 82.9842 107.635 82.8223 107.635C82.8223 107.635 82.6605 107.635 82.6605 107.472V104.541C82.8223 104.541 82.8223 104.541 82.9842 104.541Z" stroke="#0088DC" stroke-width="0.4252" stroke-miterlimit="22.9256"/>
<path d="M82.8224 104.541V107.635" stroke="#0088DC" stroke-width="0.4252" stroke-miterlimit="22.9256"/>
<path d="M20.5194 108.937C19.2248 112.845 19.7103 119.031 20.034 123.102C20.034 123.102 20.034 123.265 19.8721 123.265C19.8721 123.265 19.7103 123.265 19.7103 123.102C19.3866 119.031 18.9012 112.845 20.1958 108.937C20.3576 108.774 20.3576 108.774 20.5194 108.937ZM20.5194 108.937C20.5194 108.774 20.5194 108.937 20.5194 108.937Z" stroke="#0088DC" stroke-width="0.4252" stroke-miterlimit="22.9256"/>
<path d="M20.3576 108.937C19.2248 112.356 19.3867 117.566 19.8721 123.102" stroke="#0088DC" stroke-width="0.4252" stroke-miterlimit="22.9256"/>
<path d="M16.1502 100.145C17.9303 106.332 18.7394 113.822 19.5486 120.171C19.7104 121.311 19.7104 121.311 18.5776 121.474L10.9718 123.265C10.3245 123.427 10.3245 123.427 10.1627 122.776C8.86807 119.357 8.05894 115.775 7.41164 112.193C6.44068 107.146 5.63156 101.936 4.98425 96.8891C4.98425 96.8891 4.98425 96.7263 5.14608 96.7263C5.14608 96.7263 5.3079 96.7263 5.3079 96.8891C5.95521 102.099 6.76434 107.146 7.73529 112.193C8.38259 115.775 9.35355 119.357 10.4863 122.776L10.6482 123.265C10.6482 123.265 10.9718 123.102 11.1336 123.102L18.7394 121.311C19.7104 121.148 19.7104 121.148 19.5486 120.171C18.7394 113.659 17.9303 106.332 16.1502 100.145ZM16.1502 100.145C15.9884 100.145 15.9884 99.9825 16.1502 100.145ZM16.1502 100.145C15.9884 99.9825 16.1502 99.9825 16.1502 100.145Z" stroke="#0088DC" stroke-width="0.4252" stroke-miterlimit="22.9256"/>
<path d="M15.9883 100.145C17.6066 105.844 18.5775 113.984 19.3867 120.171C19.5485 121.148 19.5485 121.148 18.4157 121.474L10.8099 123.265C10.1626 123.427 10.3244 123.427 10.0008 122.776C8.05886 117.403 6.27878 108.612 4.66052 96.8892" stroke="#0088DC" stroke-width="0.4252" stroke-miterlimit="22.9256"/>
<path d="M4.66055 97.2147C4.3369 94.9354 4.66055 91.842 4.9842 89.5626C5.30785 85.9807 5.95516 82.2361 6.60246 78.6542C7.24976 75.0724 10.1626 61.7218 13.3991 59.9309H13.561V60.0937C10.3245 61.7218 7.41159 75.2352 6.76428 78.6542C6.11698 82.2361 5.46968 85.8179 5.14603 89.5626C4.82238 91.842 4.66055 94.9354 4.82238 97.2147C4.9842 97.2147 4.9842 97.3775 4.66055 97.2147ZM4.66055 97.2147C4.82238 97.3775 4.66055 97.3775 4.66055 97.2147Z" stroke="#0088DC" stroke-width="0.4252" stroke-miterlimit="22.9256"/>
<path d="M4.82242 97.2148C3.85147 90.2139 9.02989 62.3731 13.561 60.0938" stroke="#0088DC" stroke-width="0.4252" stroke-miterlimit="22.9256"/>
<path d="M24.4033 110.077C24.0796 111.868 23.9178 114.147 23.9178 116.101C23.9178 119.031 23.9178 121.962 23.9178 124.73C23.9178 124.73 23.9178 124.893 23.756 124.893C23.756 124.893 23.5941 124.893 23.5941 124.73C23.4323 121.799 23.4323 118.869 23.5941 116.101C23.5941 114.31 23.756 111.868 24.0796 110.077C24.2415 109.914 24.2415 109.914 24.4033 110.077ZM24.4033 110.077C24.4033 109.914 24.4033 109.914 24.4033 110.077Z" stroke="#0088DC" stroke-width="0.4252" stroke-miterlimit="22.9256"/>
<path d="M24.2415 110.077C23.756 112.519 23.5942 118.706 23.756 124.73" stroke="#0088DC" stroke-width="0.4252" stroke-miterlimit="22.9256"/>
<path d="M16.1501 97.866C17.6066 91.8419 19.5485 85.8179 20.3576 79.6311C20.3576 79.6311 20.3576 79.4683 20.5194 79.4683C20.5194 79.4683 20.6813 79.4683 20.6813 79.6311C19.8721 85.8179 17.9302 91.8419 16.4738 97.866C16.312 98.0288 16.312 98.0288 16.1501 97.866ZM16.1501 97.866C16.1501 98.0288 16.1501 98.0288 16.1501 97.866Z" stroke="#0088DC" stroke-width="0.4252" stroke-miterlimit="22.9256"/>
<path d="M16.312 98.0288C17.7684 92.0048 19.7104 85.9808 20.5195 79.7939" stroke="#0088DC" stroke-width="0.4252" stroke-miterlimit="22.9256"/>
<path d="M16.6357 102.913C17.1211 101.285 16.1502 97.5403 15.3411 96.075V95.9122H15.5029C16.1502 97.3775 17.283 101.285 16.7975 102.913C16.9593 103.076 16.7975 103.076 16.6357 102.913ZM16.6357 102.913C16.6357 103.076 16.6357 103.076 16.6357 102.913Z" stroke="#0088DC" stroke-width="0.4252" stroke-miterlimit="22.9256"/>
<path d="M16.7975 102.913C17.283 101.448 16.3121 97.7032 15.5029 95.9122" stroke="#0088DC" stroke-width="0.4252" stroke-miterlimit="22.9256"/>
<path d="M4.98425 99.0057C6.11703 97.3776 6.60251 95.7495 6.27886 93.7957C6.27886 93.7957 6.27886 93.6329 6.44068 93.6329C6.60251 93.6329 6.60251 93.6329 6.60251 93.7957C6.92616 95.7495 6.44068 97.5404 5.3079 99.1685C5.14608 99.1685 5.14608 99.1685 4.98425 99.0057Z" stroke="#0088DC" stroke-width="0.4252" stroke-miterlimit="22.9256"/>
<path d="M5.146 99.0056C6.27878 97.5403 6.76425 95.7494 6.4406 93.7957" stroke="#0088DC" stroke-width="0.4252" stroke-miterlimit="22.9256"/>
<path d="M12.4282 138.08V134.01C12.4282 132.545 12.9137 131.242 13.8847 130.266H14.0465V130.428C13.0755 131.405 12.59 132.708 12.59 134.01V138.08C12.7519 138.08 12.7519 138.243 12.4282 138.08ZM12.4282 138.08C12.59 138.243 12.4282 138.08 12.4282 138.08Z" stroke="#0088DC" stroke-width="0.4252" stroke-miterlimit="22.9256"/>
<path d="M12.59 138.08V134.01C12.59 132.382 13.0754 131.242 14.0464 130.266" stroke="#0088DC" stroke-width="0.4252" stroke-miterlimit="22.9256"/>
<path d="M13.7228 136.127V134.01C13.7228 132.87 14.0464 131.731 14.6937 130.917H14.8556V131.08C14.2083 131.894 14.0464 133.033 14.0464 134.173V136.29C14.0464 136.127 13.8846 136.127 13.7228 136.127Z" stroke="#0088DC" stroke-width="0.4252" stroke-miterlimit="22.9256"/>
<path d="M13.8846 136.127V134.01C13.8846 132.708 14.2083 131.731 14.8556 130.917" stroke="#0088DC" stroke-width="0.4252" stroke-miterlimit="22.9256"/>
<path d="M23.1087 138.08V134.01C23.1087 131.894 21.9759 130.103 20.1958 129.289V129.126H20.3576C22.2995 130.103 23.4323 131.894 23.4323 134.01V138.08C23.2705 138.08 23.2705 138.08 23.1087 138.08Z" stroke="#0088DC" stroke-width="0.4252" stroke-miterlimit="22.9256"/>
<path d="M23.2705 138.08V134.01C23.2705 131.568 21.9759 129.94 20.1958 129.126" stroke="#0088DC" stroke-width="0.4252" stroke-miterlimit="22.9256"/>
<path d="M24.4033 136.127V134.01C24.4033 131.405 22.6232 129.289 20.034 128.8C20.034 128.8 19.8722 128.8 19.8722 128.637C19.8722 128.637 19.8722 128.475 20.034 128.475C22.7851 128.963 24.5651 131.08 24.5651 133.847V135.964C24.5651 136.127 24.5651 136.127 24.4033 136.127Z" stroke="#0088DC" stroke-width="0.4252" stroke-miterlimit="22.9256"/>
<path d="M24.5651 136.127V134.01C24.5651 130.917 22.4614 129.126 20.1958 128.8" stroke="#0088DC" stroke-width="0.4252" stroke-miterlimit="22.9256"/>
<path d="M15.9883 131.08C15.341 131.242 14.3701 131.08 14.0464 130.428C13.561 129.777 12.7518 128.637 12.9137 127.823L12.7518 123.102C12.7518 123.102 12.7518 122.939 12.9137 122.939C12.9137 122.939 13.0755 122.939 13.0755 123.102L13.2373 127.823C13.0755 128.475 14.0464 129.614 14.3701 130.265C14.6937 130.754 15.5029 130.917 16.1502 130.754C16.1502 130.754 16.1502 130.754 15.9883 131.08ZM15.9883 131.08C16.1502 130.917 16.1502 131.08 15.9883 131.08Z" stroke="#0088DC" stroke-width="0.4252" stroke-miterlimit="22.9256"/>
<path d="M15.9883 130.917C15.341 131.08 14.5319 130.917 14.0464 130.266C13.3991 129.451 12.7518 128.475 12.9137 127.823L12.7518 123.102" stroke="#0088DC" stroke-width="0.4252" stroke-miterlimit="22.9256"/>
<path d="M17.2829 131.405C16.4738 131.568 15.9883 130.917 15.341 130.591C14.8556 130.265 14.6937 129.777 14.5319 129.289L14.2083 128.637V128.474H14.3701L14.6937 129.126C14.8556 129.614 15.0174 130.103 15.5029 130.428C16.1502 130.754 16.6356 131.405 17.2829 131.242C17.2829 131.242 17.4448 131.242 17.2829 131.405ZM17.2829 131.405C17.4448 131.405 17.2829 131.405 17.2829 131.405Z" stroke="#0088DC" stroke-width="0.4252" stroke-miterlimit="22.9256"/>
<path d="M17.2829 131.242C16.4738 131.405 16.1502 130.917 15.341 130.428C14.8556 130.103 14.6937 129.614 14.5319 129.126L14.2083 128.474" stroke="#0088DC" stroke-width="0.4252" stroke-miterlimit="22.9256"/>
<path d="M15.9883 127.335C16.312 128.637 16.9593 131.731 18.9012 131.242H19.063V131.405C16.9593 132.056 16.312 128.8 15.9883 127.335ZM15.9883 127.335C15.8265 127.335 15.8265 127.335 15.9883 127.335Z" stroke="#0088DC" stroke-width="0.4252" stroke-miterlimit="22.9256"/>
<path d="M15.8265 127.335C16.1502 128.475 16.7975 131.894 18.7394 131.242" stroke="#0088DC" stroke-width="0.4252" stroke-miterlimit="22.9256"/>
<path d="M17.6065 126.684C17.7684 127.498 18.7393 132.708 20.3576 131.079C20.6812 130.754 20.5194 130.754 20.5194 130.428L19.7103 127.335C19.5485 126.521 19.7103 125.544 20.6812 125.707C20.6812 125.707 20.8431 125.707 20.8431 125.869C20.8431 125.869 20.8431 126.032 20.6812 126.032C19.8721 125.869 19.7103 126.684 19.8721 127.335L20.6812 130.428C20.8431 130.917 20.8431 130.917 20.5194 131.242C18.5775 133.033 17.6065 127.66 17.4447 126.684C17.2829 126.684 17.4447 126.684 17.6065 126.684ZM17.6065 126.684C17.4447 126.684 17.6065 126.684 17.6065 126.684Z" stroke="#0088DC" stroke-width="0.4252" stroke-miterlimit="22.9256"/>
<path d="M17.4448 126.684C17.6066 127.66 18.7394 132.87 20.3577 131.242C20.6813 130.917 20.5195 130.917 20.5195 130.591L19.7104 127.498C19.3867 126.358 20.034 125.87 20.6813 126.032" stroke="#0088DC" stroke-width="0.4252" stroke-miterlimit="22.9256"/>
<path d="M20.0339 124.73C20.5194 125.707 21.3286 127.335 22.6232 127.335C24.0796 127.172 23.1086 126.846 22.4613 126.195C22.1377 125.87 21.9759 125.544 21.814 125.218C21.4904 124.079 21.4904 124.567 20.5194 123.916C19.5485 123.427 18.7393 122.45 18.092 121.636V121.474H18.2539C18.9012 122.288 19.7103 123.102 20.6813 123.59C21.6522 124.241 21.6522 123.753 21.9759 124.893C22.1377 125.218 22.2995 125.544 22.4613 125.87C22.9468 126.521 24.2414 127.335 22.4613 127.498C21.0049 127.66 20.1958 125.87 19.5485 124.73C19.7103 124.73 19.8721 124.567 20.0339 124.73ZM20.0339 124.73C19.8721 124.567 20.0339 124.567 20.0339 124.73Z" stroke="#0088DC" stroke-width="0.4252" stroke-miterlimit="22.9256"/>
<path d="M19.8722 124.73C20.6813 126.358 21.4905 127.498 22.6232 127.335C24.4033 127.172 23.1087 126.521 22.6232 126.032C22.4614 125.707 22.1378 125.381 22.1378 125.055C21.8141 123.916 21.9759 124.404 20.8432 123.753C20.1959 123.265 19.2249 122.451 18.4158 121.474" stroke="#0088DC" stroke-width="0.4252" stroke-miterlimit="22.9256"/>
<path d="M76.3494 73.7698V72.9558C76.3494 71.8161 76.9967 71.002 77.9676 70.8392C77.9676 70.8392 78.1294 70.8392 78.1294 71.002C78.1294 71.002 78.1294 71.1649 77.9676 71.1649C76.9967 71.3277 76.5112 72.1417 76.5112 73.1186V73.9327C76.5112 73.7698 76.5112 73.7698 76.3494 73.7698Z" stroke="#0088DC" stroke-width="0.4252" stroke-miterlimit="22.9256"/>
<path d="M76.5112 73.7699V72.9558C76.5112 71.8161 77.3204 71.0021 78.1295 71.0021" stroke="#0088DC" stroke-width="0.4252" stroke-miterlimit="22.9256"/>
<path d="M80.0714 71.3278C80.5568 71.8162 80.8805 72.3046 80.8805 72.9559V78.9799C80.8805 78.9799 80.8805 79.1427 80.7187 79.1427C80.7187 79.1427 80.5568 79.1427 80.5568 78.9799V72.9559C80.5568 72.3046 80.395 71.8162 79.9095 71.4906V71.3278C79.9095 71.3278 79.9095 71.3278 80.0714 71.3278Z" stroke="#0088DC" stroke-width="0.4252" stroke-miterlimit="22.9256"/>
<path d="M79.9095 71.3278C80.395 71.6534 80.5568 72.1418 80.5568 72.9559V78.9799" stroke="#0088DC" stroke-width="0.4252" stroke-miterlimit="22.9256"/>
<path opacity="0.2" fill-rule="evenodd" clip-rule="evenodd" d="M81.6897 81.5848C90.1046 87.4461 91.3992 102.588 92.0465 149.64C93.6648 149.966 95.1212 149.64 96.254 147.849L96.4158 97.3776C96.5777 88.7485 89.1337 81.7477 81.6897 81.5848Z" fill="#0088DC"/>
<path opacity="0.2" fill-rule="evenodd" clip-rule="evenodd" d="M29.2581 110.565C25.8598 110.402 23.4324 109.914 20.0341 108.612C19.0631 99.1685 21.6523 93.6329 19.5486 85.4923L20.6814 79.6311C21.8141 90.7023 22.9469 105.03 29.2581 110.565Z" fill="#0088DC"/>
<path opacity="0.2" fill-rule="evenodd" clip-rule="evenodd" d="M22.6233 125.87L20.034 123.102C19.3867 117.729 19.3867 113.007 20.5195 108.937L29.4199 110.402C25.8598 114.147 23.9179 119.683 23.9179 124.73L22.6233 125.87Z" fill="#0088DC"/>
<path d="M38.1585 102.425L45.4406 100.308H45.6025V100.471L38.3203 102.587C38.1585 102.587 37.9967 102.587 38.1585 102.425ZM38.1585 102.425C37.9967 102.425 37.9967 102.425 38.1585 102.425Z" stroke="#0088DC" stroke-width="0.4252" stroke-miterlimit="22.9256"/>
<path d="M38.1584 102.425L45.4406 100.471" stroke="#0088DC" stroke-width="0.4252" stroke-miterlimit="22.9256"/>
<path d="M37.6731 99.8197L44.9553 97.866C44.9553 97.866 45.1171 97.866 45.1171 98.0288C45.1171 98.0288 45.1171 98.1916 44.9553 98.1916L37.6731 100.145C37.6731 100.145 37.6731 100.145 37.6731 99.8197ZM37.6731 99.8197C37.6731 99.9825 37.6731 99.9825 37.6731 99.8197Z" stroke="#0088DC" stroke-width="0.4252" stroke-miterlimit="22.9256"/>
<path d="M37.8348 99.9825L45.117 98.0288" stroke="#0088DC" stroke-width="0.4252" stroke-miterlimit="22.9256"/>
<path opacity="0.2" fill-rule="evenodd" clip-rule="evenodd" d="M41.7187 118.055L41.0714 154.199C45.7644 153.873 42.5278 127.335 45.4407 115.287L41.7187 118.055Z" fill="#0088DC"/>
<path opacity="0.2" fill-rule="evenodd" clip-rule="evenodd" d="M60.4905 95.261C50.2955 96.075 52.7228 75.0723 50.4573 63.0243C50.7809 73.7698 50.2954 84.1898 52.2374 95.5866C55.312 96.4006 58.0631 96.2378 60.4905 95.261Z" fill="#0088DC"/>
<path d="M22.7851 23.1355C31.6855 20.2049 35.0838 19.3908 38.8058 29.1595V29.3223H38.644C34.7602 27.3686 25.2125 39.091 18.4158 36.3232C16.4739 31.9273 17.4448 25.7405 22.1378 23.6239C22.2996 23.2983 22.6233 23.1355 22.7851 23.1355Z" stroke="#0088DC" stroke-width="0.4252" stroke-miterlimit="22.9256"/>
<path d="M22.9469 23.1355C18.7395 24.438 16.1502 30.2993 18.5776 35.9977C25.3743 38.7655 34.7602 26.8802 38.8058 28.9968C35.2457 19.5537 32.0092 20.2049 22.9469 23.1355Z" stroke="#0088DC" stroke-width="0.4252" stroke-miterlimit="22.9256"/>
<path d="M25.0507 35.1836C24.8888 34.2067 24.727 33.2299 24.4034 32.253C23.756 29.8108 22.1378 24.7637 24.2415 22.8099H24.4034V22.9727C22.4614 24.9265 24.0797 29.9736 24.727 32.253C24.8888 33.2299 25.2125 34.2067 25.3743 35.3464C25.3743 35.1836 25.3743 35.1836 25.0507 35.1836ZM25.0507 35.1836C25.2125 35.3464 25.0507 35.1836 25.0507 35.1836Z" stroke="#0088DC" stroke-width="0.4252" stroke-miterlimit="22.9256"/>
<path d="M25.2125 35.1836C24.4034 30.4621 22.1378 25.0893 24.4034 22.8099" stroke="#0088DC" stroke-width="0.4252" stroke-miterlimit="22.9256"/>
<path d="M42.8515 31.4389L38.8058 29.1595V28.9967H38.9677L43.9843 31.7645V31.9273H43.8224C40.1004 30.1364 36.0548 37.3001 32.6565 36.6488C30.7145 36.3232 28.9345 35.672 27.478 34.3695V34.2067H27.6399C29.0963 35.3464 30.8764 36.1604 32.6565 36.3232C35.7311 36.9745 39.2913 31.1133 42.8515 31.4389Z" stroke="#0088DC" stroke-width="0.4252" stroke-miterlimit="22.9256"/>
<path d="M38.8058 29.1595L43.0133 31.4389L43.8224 31.9273C39.9386 30.1364 36.0548 37.3001 32.4946 36.6489C30.7145 36.3233 28.9344 35.672 27.3162 34.5323" stroke="#0088DC" stroke-width="0.4252" stroke-miterlimit="22.9256"/>
<path d="M44.146 31.9273C44.3078 31.9273 44.3078 32.0901 44.3078 32.2529C44.3078 32.7413 43.6605 32.9042 43.3369 32.9042C42.5278 33.067 41.5568 32.5785 40.7477 32.2529V32.0901H40.9095C41.5568 32.4157 42.5278 32.9042 43.3369 32.7413C43.4987 32.7413 44.146 32.5785 44.146 32.2529C44.146 32.2529 44.146 32.0901 43.9842 32.0901C43.9842 32.0901 43.8224 31.9273 44.146 31.9273ZM44.146 31.9273C43.9842 31.7645 43.9842 31.7645 44.146 31.9273Z" stroke="#0088DC" stroke-width="0.4252" stroke-miterlimit="22.9256"/>
<path d="M43.9842 31.9274C44.6315 32.253 43.3369 33.3927 40.7477 31.9274" stroke="#0088DC" stroke-width="0.4252" stroke-miterlimit="22.9256"/>
<path opacity="0.2" fill-rule="evenodd" clip-rule="evenodd" d="M22.9469 23.1355C18.7395 24.438 16.1502 30.2992 18.5776 35.9976C20.6814 36.8116 22.9469 36.3232 25.2125 35.3463C25.3743 35.3463 25.5361 35.3463 25.5361 35.1835C24.2415 30.1364 22.9469 25.252 24.2415 22.8098C24.2415 22.647 23.2706 23.1355 22.9469 23.1355Z" fill="#0088DC"/>
<path opacity="0.2" fill-rule="evenodd" clip-rule="evenodd" d="M0.61499 138.406H34.922L35.0839 163.967C33.6274 163.967 32.3328 162.991 27.6399 155.013C23.7561 148.338 20.5196 140.523 0.61499 138.406Z" fill="#0088DC"/>
<path d="M81.8515 81.5848C90.1046 82.2361 96.4158 89.237 96.4158 97.5404C96.4158 106.007 96.4158 114.31 96.4158 122.776C96.4158 130.428 96.4158 138.243 96.254 146.058C96.254 146.221 96.254 146.384 96.254 146.384C96.254 149.314 94.7975 149.966 92.0465 149.803L80.5569 149.64C80.395 149.64 80.3951 149.64 80.2332 149.64H68.4199C65.8307 149.64 64.5361 148.989 64.5361 146.221V97.3776C64.5361 89.0742 71.0092 82.0733 79.1004 81.422C79.1004 80.7708 79.7477 80.2823 80.3951 80.2823C81.366 80.2823 81.8515 80.9336 81.8515 81.5848Z" stroke="#0088DC" stroke-width="0.4252" stroke-miterlimit="22.9256"/>
<path d="M80.7186 80.4452C81.3659 80.4452 81.8514 80.9336 81.8514 81.5849C89.9427 82.2361 96.4157 89.0742 96.4157 97.3776C96.4157 100.634 96.5775 136.452 96.2539 145.733C96.2539 145.895 96.2539 146.058 96.2539 146.058C96.2539 148.5 95.4448 149.477 92.0464 149.477L80.5568 149.314C80.5568 149.314 80.395 149.314 80.2331 149.314H68.4199C65.8307 149.314 64.6979 148.663 64.6979 146.058V97.2148C64.6979 88.9114 71.1709 82.0733 79.2622 81.4221C79.5858 80.9336 80.0713 80.4452 80.7186 80.4452Z" stroke="#0088DC" stroke-width="0.4252" stroke-miterlimit="22.9256"/>
<path d="M80.7187 82.8873C81.4337 82.8873 82.0133 82.3042 82.0133 81.5848C82.0133 80.8655 81.4337 80.2823 80.7187 80.2823C80.0037 80.2823 79.4241 80.8655 79.4241 81.5848C79.4241 82.3042 80.0037 82.8873 80.7187 82.8873Z" stroke="#0088DC" stroke-width="0.4252" stroke-miterlimit="22.9256"/>
<path d="M80.7187 82.7246C81.3443 82.7246 81.8515 82.2143 81.8515 81.5849C81.8515 80.9554 81.3443 80.4452 80.7187 80.4452C80.0931 80.4452 79.5859 80.9554 79.5859 81.5849C79.5859 82.2143 80.0931 82.7246 80.7187 82.7246Z" stroke="#0088DC" stroke-width="0.4252" stroke-miterlimit="22.9256"/>
<path d="M58.0631 2.78406L68.0963 12.7156V12.8784H67.9344L57.9012 2.94687V2.78406C58.0631 2.78406 58.0631 2.78406 58.0631 2.78406Z" stroke="#0088DC" stroke-width="0.4252" stroke-miterlimit="22.9256"/>
<path d="M58.0631 2.78406L67.9345 12.8784" stroke="#0088DC" stroke-width="0.4252" stroke-miterlimit="22.9256"/>
<path d="M119.881 0.50473H60.4905C58.5486 0.50473 58.0631 0.993165 58.2249 2.9469V63.5128C58.2249 63.5128 58.2249 63.6756 58.0631 63.6756C58.0631 63.6756 57.9013 63.6756 57.9013 63.5128V2.9469C57.7394 0.993165 58.3867 0.341919 60.3286 0.341919H119.719C119.881 0.341919 119.881 0.341919 119.881 0.50473Z" stroke="#0088DC" stroke-width="0.4252" stroke-miterlimit="22.9256"/>
<path d="M119.88 0.341919H110.98H60.3283C58.3864 0.341919 57.9009 0.993165 57.9009 2.78409V63.35" stroke="#0088DC" stroke-width="0.4252" stroke-miterlimit="22.9256"/>
<path d="M132.341 22.3215V12.5528C132.341 11.2503 131.694 10.5991 130.399 10.5991H70.2C68.7436 10.5991 68.2581 11.2503 68.2581 12.7156V55.2094C68.2581 55.2094 68.2581 55.3722 68.0963 55.3722C67.9345 55.3722 67.9344 55.3722 67.9344 55.2094V12.7156C67.9344 11.2503 68.5818 10.4363 70.2 10.4363H130.399C131.694 10.4363 132.503 11.2503 132.503 12.7156V22.4843C132.503 22.3215 132.503 22.4843 132.341 22.3215ZM132.341 22.3215C132.341 22.4843 132.341 22.3215 132.341 22.3215Z" stroke="#0088DC" stroke-width="0.4252" stroke-miterlimit="22.9256"/>
<path d="M132.341 22.3215V12.5528C132.341 11.2503 131.532 10.4363 130.237 10.4363H70.0382C68.4199 10.4363 67.9344 11.2503 67.9344 12.7156V55.2094" stroke="#0088DC" stroke-width="0.4252" stroke-miterlimit="22.9256"/>
<path d="M130.237 20.0421V14.3437C130.237 13.204 129.59 12.7155 128.457 12.7155H71.9801C71.0091 12.7155 70.6855 13.204 70.6855 14.1808V50.6506C70.6855 50.6506 70.6855 50.8134 70.5236 50.8134C70.3618 50.8134 70.3618 50.8134 70.3618 50.6506V14.1808C70.3618 13.0412 70.8473 12.5527 71.9801 12.5527H128.457C129.752 12.5527 130.561 13.0412 130.561 14.3437V20.0421C130.399 20.0421 130.399 20.2049 130.237 20.0421ZM130.237 20.0421C130.237 20.2049 130.237 20.0421 130.237 20.0421Z" stroke="#0088DC" stroke-width="0.4252" stroke-miterlimit="22.9256"/>
<path d="M130.237 20.0421V14.3437C130.237 13.204 129.59 12.7156 128.295 12.7156H71.8183C70.6855 12.7156 70.3618 13.204 70.3618 14.3437V50.8135" stroke="#0088DC" stroke-width="0.4252" stroke-miterlimit="22.9256"/>
<path d="M60.3287 0.341919L70.3619 10.4362V10.599H70.2001L60.1669 0.50473V0.341919C60.1669 0.341919 60.3287 0.341919 60.3287 0.341919Z" stroke="#0088DC" stroke-width="0.4252" stroke-miterlimit="22.9256"/>
<path d="M60.1669 0.341919L70.2001 10.4362" stroke="#0088DC" stroke-width="0.4252" stroke-miterlimit="22.9256"/>
<path d="M78.1295 71.6533L77.9677 70.5136C77.8058 69.6995 79.5859 69.3739 79.7477 70.0252C79.9096 71.002 80.395 73.1186 78.9386 73.607C78.9386 73.607 78.7768 73.607 78.7768 73.4442C78.7768 73.4442 78.7768 73.2814 78.9386 73.2814C80.0714 72.9558 79.7477 70.8392 79.5859 70.0252C79.4241 69.5367 78.1295 69.6995 78.2913 70.3508L78.4531 71.4905C78.4531 71.6533 78.2913 71.8161 78.1295 71.6533ZM78.1295 71.6533C78.2913 71.8161 78.1295 71.8161 78.1295 71.6533Z" stroke="#0088DC" stroke-width="0.4252" stroke-miterlimit="22.9256"/>
<path d="M78.2914 71.6533L78.1295 70.5136C77.9677 69.6995 79.586 69.5367 79.7478 70.188C80.0714 71.9789 80.0714 73.2814 79.1005 73.607" stroke="#0088DC" stroke-width="0.4252" stroke-miterlimit="22.9256"/>
<path d="M1.26229 136.127H34.4366C34.7602 136.127 35.0839 136.452 35.0839 136.778V137.592C35.0839 137.918 34.7602 138.243 34.4366 138.243H1.26229C0.938642 138.243 0.61499 137.918 0.61499 137.592V136.778C0.61499 136.452 0.938642 136.127 1.26229 136.127Z" stroke="#0088DC" stroke-width="0.5669" stroke-miterlimit="22.9256"/>
<path d="M0.453125 153.873V136.778C0.453125 136.289 0.776776 135.964 1.26225 135.964C12.2664 135.964 23.4324 135.964 34.4365 135.964C34.922 135.964 35.2457 136.289 35.2457 136.778V163.316C35.2457 163.316 35.2457 163.479 35.0838 163.479C35.0838 163.479 34.922 163.479 34.922 163.316V136.778C34.922 136.452 34.7602 136.289 34.2747 136.289C23.2706 136.289 12.1046 136.289 1.10043 136.289C0.776776 136.289 0.614951 136.615 0.614951 136.941V154.036C0.776776 154.036 0.614951 154.036 0.453125 153.873ZM0.453125 153.873C0.614951 154.036 0.453125 154.036 0.453125 153.873Z" stroke="#0088DC" stroke-width="0.5669" stroke-miterlimit="22.9256"/>
<path d="M0.61499 153.873V136.778C0.61499 136.452 0.938642 136.127 1.26229 136.127C12.2664 136.127 23.4324 136.127 34.4366 136.127C34.922 136.127 35.0839 136.452 35.0839 136.778V163.316" stroke="#0088DC" stroke-width="0.5669" stroke-miterlimit="22.9256"/>
</svg>
