<svg width="157" height="165" viewBox="0 0 157 165" fill="none" xmlns="http://www.w3.org/2000/svg">
<path d="M43.9787 39.9107C43.9787 40.0735 43.9787 40.3992 43.9787 40.562C43.8177 42.0275 43.6567 43.0045 44.3006 44.3072C45.1055 46.0984 43.4957 54.0773 42.8518 56.0313C42.6909 56.8455 42.8518 57.0083 42.2079 57.8225C40.1152 60.7535 29.6518 58.1481 30.1347 53.5888C30.1347 53.5888 30.1347 53.4259 30.2957 53.4259C30.2957 53.4259 30.4567 53.4259 30.4567 53.5888C30.1347 57.8225 40.2762 60.4278 42.2079 57.6596C42.6909 57.0083 42.5299 56.6826 42.6909 56.0313C43.1738 54.0773 44.9445 46.0984 44.1396 44.4701C43.4957 43.1674 43.4957 42.1904 43.6567 40.7249C43.6567 40.562 43.6567 40.2364 43.6567 40.0735C43.6567 39.7479 43.6567 39.7479 43.9787 39.9107ZM43.9787 39.9107C43.8177 39.7479 43.9787 39.7479 43.9787 39.9107Z" stroke="#0088DC" stroke-width="0.4252" stroke-miterlimit="22.9256"/>
<path d="M43.8177 39.9106C43.8177 40.0735 43.8177 40.3991 43.8177 40.562C43.6567 42.8417 43.6567 43.3302 44.1397 44.3072C44.7836 45.447 43.9787 51.4719 42.6909 56.0312C42.5299 56.5197 42.6909 57.0082 42.2079 57.6596C40.2762 60.4278 29.9738 57.9853 30.2957 53.5887" stroke="#0088DC" stroke-width="0.4252" stroke-miterlimit="22.9256"/>
<path d="M35.2859 44.7957C36.0908 44.1444 37.0567 43.8187 38.0225 43.493C38.0225 43.493 38.1835 43.493 38.1835 43.6559C38.1835 43.6559 38.1835 43.8187 38.0225 43.8187C37.0567 43.9815 36.2518 44.4701 35.4469 44.9586H35.2859C35.2859 44.7957 35.2859 44.7957 35.2859 44.7957Z" stroke="#0088DC" stroke-width="0.4252" stroke-miterlimit="22.9256"/>
<path d="M35.4469 44.7957C36.2518 44.1444 37.0567 43.8187 38.0225 43.493" stroke="#0088DC" stroke-width="0.4252" stroke-miterlimit="22.9256"/>
<path d="M37.1604 44.7523C37.202 44.3046 37.164 43.9349 37.0755 43.9264C36.987 43.918 36.8815 44.2741 36.8399 44.7218C36.7982 45.1694 36.8362 45.5392 36.9247 45.5476C37.0132 45.556 37.1187 45.2 37.1604 44.7523Z" stroke="#0088DC" stroke-width="0.4252" stroke-miterlimit="22.9256"/>
<path d="M42.7746 42.9751C42.8037 42.6166 42.7554 42.32 42.6668 42.3126C42.5782 42.3053 42.4828 42.5899 42.4537 42.9484C42.4246 43.3069 42.4729 43.6035 42.5615 43.6109C42.6501 43.6182 42.7455 43.3336 42.7746 42.9751Z" stroke="#0088DC" stroke-width="0.4252" stroke-miterlimit="22.9245"/>
<path d="M41.886 45.447C42.0469 46.424 42.3689 47.401 42.8518 48.378C43.3348 49.8435 40.9201 49.1922 40.2762 49.1922C40.2762 49.1922 40.1152 49.1922 40.1152 49.0294C40.1152 49.0294 40.1152 48.8665 40.2762 48.8665C40.7591 48.8665 43.0128 49.355 42.6909 48.378C42.2079 47.401 41.886 46.424 41.725 45.447C41.725 45.447 41.725 45.2842 41.886 45.447ZM41.886 45.447C41.886 45.2842 41.886 45.447 41.886 45.447Z" stroke="#0088DC" stroke-width="0.4252" stroke-miterlimit="22.9256"/>
<path d="M41.725 45.447C41.886 46.424 42.2079 47.401 42.6909 48.378C43.1738 49.6807 40.7591 49.0294 40.2762 49.0294" stroke="#0088DC" stroke-width="0.4252" stroke-miterlimit="22.9256"/>
<path d="M38.5055 52.2861C39.9543 52.6118 41.2421 52.9375 42.5299 52.1233H42.6909V52.2861C41.2421 53.1003 40.1153 52.9375 38.5055 52.449C38.5055 52.449 38.5055 52.449 38.5055 52.2861Z" stroke="#0088DC" stroke-width="0.4252" stroke-miterlimit="22.9256"/>
<path d="M38.5055 52.449C40.5982 52.9375 41.4031 52.9375 42.6909 52.2861" stroke="#0088DC" stroke-width="0.4252" stroke-miterlimit="22.9256"/>
<path d="M39.6323 53.9144C40.1152 54.2401 40.9201 54.0772 41.564 54.0772C41.564 54.0772 41.725 54.0772 41.725 54.2401C41.725 54.2401 41.725 54.4029 41.564 54.4029C40.9201 54.5657 40.1152 54.5658 39.4713 54.2401C39.4713 54.0772 39.4713 53.9144 39.6323 53.9144ZM39.6323 53.9144C39.4713 53.9144 39.6323 53.7516 39.6323 53.9144Z" stroke="#0088DC" stroke-width="0.4252" stroke-miterlimit="22.9256"/>
<path d="M39.6323 53.9144C40.1153 54.0773 40.9201 54.2401 41.564 54.0773" stroke="#0088DC" stroke-width="0.4252" stroke-miterlimit="22.9256"/>
<path d="M38.6664 51.6347C38.6664 52.1233 38.1835 52.9374 37.7006 53.2631H37.5396V53.1003C37.8616 52.7746 38.3445 52.1233 38.3445 51.6347C38.3445 51.6347 38.5055 51.4719 38.6664 51.6347ZM38.6664 51.6347C38.5055 51.4719 38.6664 51.6347 38.6664 51.6347Z" stroke="#0088DC" stroke-width="0.4252" stroke-miterlimit="22.9256"/>
<path d="M38.5055 51.6348C38.5055 52.2861 38.0226 52.9374 37.7006 53.2631" stroke="#0088DC" stroke-width="0.4252" stroke-miterlimit="22.9256"/>
<path d="M19.5103 40.2364C18.3835 45.6099 19.5103 51.1463 24.3396 54.2401C26.9152 55.5428 28.8469 52.449 27.7201 52.6118C25.7884 52.7746 24.8225 51.7976 24.5006 49.8436C24.3396 48.7038 24.5006 47.2383 25.6274 46.7498C26.4323 46.4241 27.2372 46.7498 27.7201 47.4011C28.525 49.0294 29.1689 49.518 29.1689 47.4011C29.3299 44.7958 28.686 41.8647 29.1689 39.2594C29.1689 39.2594 29.1689 39.0966 29.3299 39.0966C29.3299 39.0966 29.4908 39.0966 29.4908 39.2594C29.0079 41.7019 29.6518 44.7958 29.4908 47.4011C29.3299 49.8436 28.525 49.3551 27.5591 47.5639C27.2372 46.9126 26.4323 46.7498 25.7884 46.9126C24.6616 47.4011 24.6616 48.7038 24.8225 49.6808C25.1445 51.472 25.9494 52.449 27.7201 52.2861C29.3299 52.1233 27.2372 55.8685 24.1786 54.403C19.1884 51.3091 18.0615 45.6099 19.1884 40.2364C19.1884 40.0736 19.3493 40.0736 19.5103 40.2364ZM19.5103 40.2364C19.3493 40.0736 19.5103 40.2364 19.5103 40.2364Z" stroke="#0088DC" stroke-width="0.4252" stroke-miterlimit="22.9256"/>
<path d="M19.3493 40.2364C17.7396 48.0524 21.1201 52.2861 24.3396 54.2401C27.0762 55.5428 29.1689 52.1233 27.7201 52.2861C26.7542 52.449 25.1445 52.449 24.6615 49.6808C24.3396 46.2613 27.0762 46.0984 27.7201 47.4011C28.6859 49.518 29.3298 49.1923 29.4908 47.2383C29.6518 44.4701 29.0079 41.5391 29.4908 39.0966" stroke="#0088DC" stroke-width="0.4252" stroke-miterlimit="22.9256"/>
<path d="M27.5591 51.472C26.2713 51.3091 26.1103 50.1693 27.2372 49.6808H27.3981V49.8436C26.5933 50.3321 26.7542 51.1463 27.7201 51.3091C27.7201 51.1463 27.7201 51.3091 27.5591 51.472ZM27.5591 51.472C27.7201 51.3091 27.7201 51.472 27.5591 51.472Z" stroke="#0088DC" stroke-width="0.4252" stroke-miterlimit="22.9256"/>
<path d="M27.5591 51.3091C26.2713 51.1463 26.5932 50.0065 27.2372 49.6808" stroke="#0088DC" stroke-width="0.4252" stroke-miterlimit="22.9256"/>
<path d="M40.1152 60.9163C41.725 71.6634 41.886 84.0388 39.4713 94.623C39.4713 94.623 39.4713 94.7858 39.3104 94.7858C39.3104 94.7858 39.1494 94.7859 39.1494 94.623C41.564 84.0388 41.403 71.6634 39.7933 60.9163C39.9543 60.7535 39.9543 60.7535 40.1152 60.9163ZM40.1152 60.9163C40.1152 60.7535 40.1152 60.7535 40.1152 60.9163Z" stroke="#0088DC" stroke-width="0.4252" stroke-miterlimit="22.9256"/>
<path d="M40.1152 60.9163C41.725 71.6633 41.886 84.0387 39.4713 94.623" stroke="#0088DC" stroke-width="0.4252" stroke-miterlimit="22.9256"/>
<path d="M13.5542 118.397C19.6713 121.165 25.9494 121.979 32.5494 121.654L32.7104 117.257C32.7104 117.257 32.7104 117.094 32.8713 117.094C32.8713 117.094 33.0323 117.094 33.0323 117.257L32.8713 121.816C32.8713 121.816 32.8713 121.979 32.7104 121.979C25.9494 122.305 19.6713 121.491 13.5542 118.56C13.5542 118.56 13.5542 118.56 13.5542 118.397ZM13.5542 118.397C13.5542 116.606 13.5542 114.977 13.7152 113.186C13.7152 113.023 13.7152 113.023 13.7152 112.86C13.7152 112.86 13.7152 112.698 13.8762 112.698C13.8762 112.698 14.0371 112.698 14.0371 112.86C14.0371 113.023 14.0371 113.023 14.0371 113.186C13.5542 114.977 13.5542 116.606 13.5542 118.397Z" stroke="#0088DC" stroke-width="0.4252" stroke-miterlimit="22.9256"/>
<path d="M32.7104 117.257L32.5494 121.816C26.1103 122.142 19.6713 121.491 13.3932 118.397C13.3932 116.606 13.3932 114.814 13.5542 113.186C13.5542 113.023 13.5542 113.023 13.5542 112.86" stroke="#0088DC" stroke-width="0.4252" stroke-miterlimit="22.9256"/>
<path d="M25.6274 59.6136C28.364 62.0562 33.6762 63.5217 36.7348 61.242H36.8957V61.4048C33.6762 63.8473 28.203 62.3818 25.4664 59.7765V59.6136C25.4664 59.6136 25.4664 59.6136 25.6274 59.6136Z" stroke="#0088DC" stroke-width="0.4252" stroke-miterlimit="22.9256"/>
<path d="M25.4664 59.6136C28.525 62.3818 33.8372 63.3588 36.7348 61.242" stroke="#0088DC" stroke-width="0.4252" stroke-miterlimit="22.9256"/>
<path d="M26.2713 62.7075C28.6859 64.6615 34.964 65.4757 37.3786 63.0332H37.5396V63.196C34.964 65.6385 28.6859 64.9872 26.1103 62.8704V62.7075H26.2713Z" stroke="#0088DC" stroke-width="0.4252" stroke-miterlimit="22.9256"/>
<path d="M26.2713 62.8704C28.525 64.6615 34.803 65.8014 37.5396 63.196" stroke="#0088DC" stroke-width="0.4252" stroke-miterlimit="22.9256"/>
<path d="M24.8225 57.9853C23.0518 58.7995 21.442 60.265 20.1542 61.7305H19.9932V61.5676C21.442 60.1021 22.8908 58.6366 24.8225 57.8225C24.6615 57.6596 24.8225 57.8225 24.8225 57.9853ZM24.8225 57.9853C24.8225 57.8225 24.8225 57.9853 24.8225 57.9853Z" stroke="#0088DC" stroke-width="0.4252" stroke-miterlimit="22.9256"/>
<path d="M24.6615 57.8225C22.8908 58.6367 21.281 60.1022 19.8322 61.5677" stroke="#0088DC" stroke-width="0.4252" stroke-miterlimit="22.9256"/>
<path d="M49.1299 65.3128C47.5201 64.173 45.7494 63.0331 43.9787 62.219C42.6909 61.7305 41.4031 61.4048 40.1152 60.9163L37.0567 58.9623V58.7994H37.2177L40.1152 60.7535C41.4031 61.0791 42.8518 61.4048 43.9787 61.8933C45.7494 62.5446 47.6811 63.8473 49.2909 64.9871C50.4177 67.9182 49.6128 72.4775 49.6128 75.5714C49.6128 75.5714 49.6128 75.7342 49.4519 75.7342C49.4519 75.7342 49.2909 75.7342 49.2909 75.5714C49.4519 72.6404 50.2567 68.081 49.1299 65.3128Z" stroke="#0088DC" stroke-width="0.4252" stroke-miterlimit="22.9256"/>
<path d="M49.4519 75.7342C49.4519 73.1289 50.2567 68.081 49.1299 65.15C44.3006 61.8933 44.1396 62.0561 39.9543 60.9163L36.8957 58.9623" stroke="#0088DC" stroke-width="0.4252" stroke-miterlimit="22.9256"/>
<path d="M19.9932 61.5676C20.4761 67.4296 23.3737 74.92 25.3054 80.4564V80.6192H25.1445C23.3737 74.92 20.3152 67.4296 19.8322 61.5676C19.8322 61.5676 19.8322 61.4048 19.9932 61.5676ZM19.9932 61.5676C19.9932 61.4048 19.9932 61.5676 19.9932 61.5676Z" stroke="#0088DC" stroke-width="0.4252" stroke-miterlimit="22.9256"/>
<path d="M19.9932 61.5676C20.4762 66.9412 23.5347 75.2457 25.3054 80.4564" stroke="#0088DC" stroke-width="0.4252" stroke-miterlimit="22.9256"/>
<path d="M11.1395 65.8013C14.3591 66.2898 15.8079 74.7572 16.1298 77.0369C16.6127 80.1307 16.9347 84.6901 16.4518 87.6211C16.4518 87.6211 16.4518 87.7839 16.2908 87.7839C16.2908 87.7839 16.1298 87.7839 16.1298 87.6211C16.6127 84.6901 16.1298 80.1307 15.8079 77.0369C15.4859 74.7572 14.0371 65.9641 10.8176 65.9641H10.6566V65.8013C13.3932 63.6845 16.4518 62.0561 19.8323 61.4048C19.8323 61.4048 19.9932 61.4048 19.9932 61.5676C19.9932 61.5676 19.9932 61.7305 19.8323 61.7305C16.6127 62.3818 13.7152 63.8473 11.1395 65.8013Z" stroke="#0088DC" stroke-width="0.4252" stroke-miterlimit="22.9256"/>
<path d="M16.4518 87.7839C17.2566 82.5732 15.4859 65.9641 10.9786 65.9641C13.5542 63.8473 16.4518 62.3818 20.1542 61.5676" stroke="#0088DC" stroke-width="0.4252" stroke-miterlimit="22.9256"/>
<path d="M49.6128 77.8511C49.6128 82.2476 49.1299 86.6441 49.1299 91.2035C49.1299 93.9716 49.1299 96.7398 49.1299 99.3452C49.1299 100.811 49.1299 103.09 48.647 104.556C48.647 104.556 48.486 104.719 48.486 104.556C48.486 104.556 48.325 104.393 48.486 104.393C48.9689 102.928 48.9689 100.811 48.9689 99.3452C48.9689 96.577 48.9689 93.8088 48.9689 91.2035C48.9689 86.8069 49.4519 82.4104 49.4519 77.8511C49.4519 77.8511 49.4519 77.6882 49.6128 77.8511ZM49.6128 77.8511C49.6128 77.6882 49.6128 77.8511 49.6128 77.8511Z" stroke="#0088DC" stroke-width="0.4252" stroke-miterlimit="22.9256"/>
<path d="M49.6128 77.8511C49.6128 82.8989 49.1299 87.1326 49.1299 91.2035C48.9689 97.3912 49.2909 102.439 48.647 104.556" stroke="#0088DC" stroke-width="0.4252" stroke-miterlimit="22.9256"/>
<path d="M42.3689 121.816C44.9445 121.816 47.6811 121.491 50.0958 120.676C49.6128 116.768 49.1299 112.86 48.647 108.952C48.325 106.347 48.0031 103.416 48.164 100.811C48.164 100.811 48.164 100.648 48.325 100.648C48.325 100.648 48.486 100.648 48.486 100.811C48.325 103.416 48.647 106.347 48.9689 108.952C49.4519 112.86 49.9348 116.931 50.4177 120.839C50.4177 120.839 50.4177 121.002 50.2567 121.002C47.6811 121.816 44.9445 122.142 42.2079 122.142C42.2079 122.142 42.047 122.142 42.047 121.979L41.403 115.629C41.403 115.629 41.403 115.466 41.564 115.466C41.564 115.466 41.725 115.466 41.725 115.629L42.3689 121.816Z" stroke="#0088DC" stroke-width="0.4252" stroke-miterlimit="22.9256"/>
<path d="M48.325 100.811C48.1641 104.719 49.1299 112.046 50.2567 120.839C47.8421 121.491 44.9445 121.979 42.3689 121.979L41.725 115.629" stroke="#0088DC" stroke-width="0.4252" stroke-miterlimit="22.9256"/>
<path d="M38.8275 106.998L40.4372 106.673" stroke="#0088DC" stroke-width="0.4252" stroke-miterlimit="22.9256"/>
<path d="M35.6079 111.395C37.3786 111.884 41.2421 111.558 43.0128 110.906H43.1738V111.069C41.403 111.721 37.5396 112.046 35.7689 111.558C35.4469 111.558 35.4469 111.558 35.6079 111.395ZM35.6079 111.395C35.4469 111.395 35.6079 111.395 35.6079 111.395Z" stroke="#0088DC" stroke-width="0.4252" stroke-miterlimit="22.9256"/>
<path d="M35.6079 111.558C37.7006 112.046 41.403 111.721 43.0128 111.069" stroke="#0088DC" stroke-width="0.4252" stroke-miterlimit="22.9256"/>
<path d="M35.286 113.675C36.7348 114.163 40.1153 113.838 41.564 113.512C41.564 113.512 41.725 113.512 41.725 113.675C41.725 113.675 41.725 113.838 41.564 113.838C40.1153 114.163 36.5738 114.489 35.125 114C35.125 114 35.125 113.838 35.286 113.675ZM35.286 113.675C35.125 113.675 35.125 113.675 35.286 113.675Z" stroke="#0088DC" stroke-width="0.4252" stroke-miterlimit="22.9256"/>
<path d="M35.2859 113.837C36.5738 114.326 40.1152 114 41.725 113.675" stroke="#0088DC" stroke-width="0.4252" stroke-miterlimit="22.9256"/>
<path d="M34.964 115.792C36.4128 116.28 38.9884 115.954 40.4372 115.792C40.4372 115.792 40.5982 115.792 40.5982 115.954C40.5982 115.954 40.5982 116.117 40.4372 116.117C38.9884 116.443 36.2518 116.769 34.803 116.117C34.803 115.954 34.803 115.954 34.964 115.792ZM34.964 115.792C34.803 115.792 34.964 115.792 34.964 115.792Z" stroke="#0088DC" stroke-width="0.4252" stroke-miterlimit="22.9256"/>
<path d="M34.964 115.792C36.0909 116.28 38.3445 116.117 40.4372 115.792" stroke="#0088DC" stroke-width="0.4252" stroke-miterlimit="22.9256"/>
<path d="M43.1738 111.069C43.9787 111.395 43.8177 113.186 41.886 113.675C42.5299 114.163 42.047 115.466 40.5982 115.791C41.2421 116.443 40.1152 117.583 38.9884 117.583C35.9299 117.745 31.2616 116.931 28.525 115.466V115.303H28.6859C31.4225 116.768 36.0908 117.42 38.9884 117.42C39.9543 117.42 41.0811 116.28 40.2762 115.954C40.2762 115.954 40.2762 115.954 40.2762 115.791C40.2762 115.791 40.2762 115.629 40.4372 115.629C41.0811 115.466 42.5299 114.814 42.047 114C41.886 113.837 41.886 113.837 41.564 113.675C41.564 113.675 41.4031 113.675 41.4031 113.512C41.4031 113.512 41.4031 113.349 41.564 113.349C43.6567 113.023 43.9787 110.906 43.0128 111.069C43.0128 111.069 42.8518 111.069 42.8518 110.906V110.744C43.1738 110.581 43.4957 110.255 43.3348 109.929C43.1738 109.115 41.4031 109.441 40.9201 109.441C38.9884 109.604 37.3787 110.092 35.286 109.441C35.286 109.441 35.125 109.441 35.125 109.278C35.125 109.278 35.125 109.115 35.286 109.115C37.2177 109.604 38.8274 109.278 40.7591 109.115C41.4031 108.952 43.3348 108.79 43.4957 109.767C43.6567 110.581 43.4957 110.906 43.1738 111.069Z" stroke="#0088DC" stroke-width="0.4252" stroke-miterlimit="22.9256"/>
<path d="M35.4469 109.767C37.3786 110.255 38.6665 109.929 41.0811 109.767C43.8177 109.115 44.1396 110.581 43.0128 111.232C44.1396 111.232 44.1396 113.349 41.564 113.837C42.5299 114 42.3689 115.629 40.2762 115.954C41.0811 116.28 40.2762 117.583 38.8274 117.745C35.7689 117.908 31.1006 117.094 28.364 115.629" stroke="#0088DC" stroke-width="0.4252" stroke-miterlimit="22.9256"/>
<path d="M30.9396 108.952C33.5152 108.79 35.4469 107.975 37.0567 105.859C38.1835 104.556 39.6323 105.859 38.3445 107.813C37.8616 108.627 36.8957 109.441 36.2518 109.929H36.0908V109.767C36.7347 109.278 37.7006 108.301 38.0226 107.65C38.9884 106.021 38.0226 104.882 37.0567 106.021C35.4469 108.138 33.3542 109.115 30.7786 109.115C30.9396 109.278 30.7786 109.115 30.9396 108.952ZM30.9396 108.952C30.7786 108.952 30.9396 108.952 30.9396 108.952Z" stroke="#0088DC" stroke-width="0.4252" stroke-miterlimit="22.9256"/>
<path d="M30.9396 109.115C33.0323 109.115 35.286 108.301 37.0567 106.021C38.0226 104.882 39.4713 105.859 38.1835 107.813C37.7006 108.627 36.7347 109.604 36.0908 109.929" stroke="#0088DC" stroke-width="0.4252" stroke-miterlimit="22.9256"/>
<path d="M10.1737 98.531C16.7737 100.485 23.8566 104.23 30.1347 107.324C31.2616 107.813 31.2616 107.813 30.7786 109.115L27.8811 117.094C27.5591 117.908 27.7201 117.745 26.9152 117.583C18.2225 115.629 10.0127 112.046 1.9639 108.138C-0.611718 106.836 0.354139 104.393 1.64195 102.439H1.80292V102.602C0.676091 104.393 -0.450742 106.673 2.12488 107.975C10.0127 111.883 18.3835 115.466 26.9152 117.42L27.3981 117.583L27.5591 117.094L30.4567 109.115C30.7786 107.975 30.9396 108.138 29.9737 107.65C23.6957 104.556 16.7737 100.974 10.0127 98.8567C10.1737 98.6938 10.0127 98.531 10.1737 98.531ZM10.1737 98.531C10.1737 98.531 10.1737 98.3682 10.1737 98.531Z" stroke="#0088DC" stroke-width="0.4252" stroke-miterlimit="22.9256"/>
<path d="M10.1737 98.531C16.2908 100.322 24.0176 104.23 30.1347 107.324C31.1006 107.813 31.1006 107.813 30.7786 108.952L27.8811 116.931C27.5591 117.583 27.7201 117.583 27.0762 117.42C21.1201 115.954 13.7152 113.512 2.28586 107.975C0.0321927 106.836 0.515121 104.882 1.96391 102.439" stroke="#0088DC" stroke-width="0.4252" stroke-miterlimit="22.9256"/>
<path d="M0.515129 105.533C0.354153 102.928 0.837081 99.8338 1.15903 97.3913C1.64196 93.4832 2.28587 89.5752 3.09075 85.83C3.89563 82.0848 7.11515 67.4297 10.8176 65.8014H10.9786V65.9642C7.4371 67.4297 4.21758 82.2477 3.4127 85.83C2.60782 89.5752 1.96391 93.4832 1.48099 97.3913C1.15903 99.9966 0.837081 102.928 0.837081 105.533C0.676105 105.696 0.676105 105.696 0.515129 105.533ZM0.515129 105.533C0.515129 105.696 0.515129 105.696 0.515129 105.533Z" stroke="#0088DC" stroke-width="0.4252" stroke-miterlimit="22.9256"/>
<path d="M0.515136 105.533C0.193183 97.8797 5.66637 68.0811 10.8176 65.8014" stroke="#0088DC" stroke-width="0.4252" stroke-miterlimit="22.9256"/>
<path d="M49.2909 65.15C51.7055 66.9411 52.9933 78.3395 53.3153 81.2706C53.7982 84.5272 54.9251 94.2973 56.8568 96.7398V96.9026H56.6958C54.7641 94.2973 53.6372 84.6901 53.1543 81.2706C52.6714 78.3395 51.3836 66.9411 49.1299 65.3128V65.15C49.1299 64.9871 49.1299 64.9871 49.2909 65.15Z" stroke="#0088DC" stroke-width="0.4252" stroke-miterlimit="22.9256"/>
<path d="M49.1299 65.15C52.9933 67.9182 53.3153 92.3434 56.6958 96.7399" stroke="#0088DC" stroke-width="0.4252" stroke-miterlimit="22.9256"/>
<path d="M70.8617 107.324C70.3787 107.813 69.8958 108.301 69.5739 108.79C68.769 109.767 68.769 110.255 67.3202 109.929L53.6372 106.836C52.1884 106.51 49.4519 105.533 48.647 104.23V104.067H48.8079C49.4519 105.37 52.1884 106.347 53.6372 106.51L67.3202 109.604C68.608 109.929 68.608 109.604 69.2519 108.627C69.7348 108.138 70.2178 107.65 70.7007 107.161H70.8617C70.8617 107.324 70.8617 107.324 70.8617 107.324Z" stroke="#0088DC" stroke-width="0.4252" stroke-miterlimit="22.9256"/>
<path d="M70.7007 107.324C70.0568 107.975 69.5739 108.464 69.4129 108.79C68.608 109.767 68.608 110.092 67.3202 109.929L53.6372 106.836C51.7055 106.347 49.4519 105.37 48.808 104.23" stroke="#0088DC" stroke-width="0.4252" stroke-miterlimit="22.9256"/>
<path d="M68.1251 99.5081C65.5495 102.276 63.1348 105.207 61.3641 108.627H61.2031V108.464C62.9739 105.044 65.2275 102.113 67.9641 99.3452H68.1251V99.5081Z" stroke="#0088DC" stroke-width="0.4252" stroke-miterlimit="22.9256"/>
<path d="M67.9641 99.5081C65.3885 102.113 63.1348 105.207 61.2031 108.627" stroke="#0088DC" stroke-width="0.4252" stroke-miterlimit="22.9256"/>
<path d="M66.6763 99.0195C64.1007 101.788 61.847 104.882 59.7543 108.138H59.5934V107.975C61.686 104.719 63.9397 101.625 66.5153 98.8567H66.6763C66.6763 99.0195 66.6763 99.0195 66.6763 99.0195Z" stroke="#0088DC" stroke-width="0.4252" stroke-miterlimit="22.9256"/>
<path d="M66.6763 99.0195C64.2617 101.788 61.847 104.882 59.7543 108.138" stroke="#0088DC" stroke-width="0.4252" stroke-miterlimit="22.9256"/>
<path d="M70.8617 110.744C70.2178 110.581 69.4129 110.255 68.769 109.929C68.769 109.929 68.608 109.767 68.769 109.767C68.769 109.767 68.93 109.604 68.93 109.767C69.5739 110.092 70.2178 110.418 71.0227 110.581C71.0227 110.418 71.0227 110.581 70.8617 110.744ZM70.8617 110.744C71.0227 110.744 71.0227 110.744 70.8617 110.744Z" stroke="#0088DC" stroke-width="0.4252" stroke-miterlimit="22.9256"/>
<path d="M71.0227 110.581C70.3787 110.418 69.5739 110.092 68.93 109.767" stroke="#0088DC" stroke-width="0.4252" stroke-miterlimit="22.9256"/>
<path d="M49.6128 121.165C50.2568 123.608 50.0958 128.655 50.0958 131.261C49.9348 136.634 49.6128 142.171 49.2909 147.544C48.9689 151.127 48.808 154.546 48.486 158.128C48.486 158.128 48.486 158.291 48.325 158.291C48.325 158.291 48.1641 158.291 48.1641 158.128C48.486 154.546 48.808 151.127 48.9689 147.544C49.2909 142.171 49.7738 136.634 49.7738 131.261C49.7738 128.655 50.0958 123.608 49.2909 121.165C49.2909 121.165 49.4519 121.165 49.6128 121.165ZM49.6128 121.165C49.4519 121.165 49.6128 121.165 49.6128 121.165Z" stroke="#0088DC" stroke-width="0.4252" stroke-miterlimit="22.9256"/>
<path d="M49.4519 121.165C50.5787 125.399 49.2909 143.962 48.1641 158.128" stroke="#0088DC" stroke-width="0.4252" stroke-miterlimit="22.9256"/>
<path d="M14.1981 118.885C11.3005 122.956 12.7493 138.914 13.0713 143.799C13.3932 147.544 13.7152 151.127 13.8762 154.872C14.0371 157.966 14.3591 160.897 14.1981 163.99C14.1981 163.99 14.1981 164.153 14.0371 164.153C14.0371 164.153 13.8762 164.153 13.8762 163.99C13.8762 160.897 13.7152 157.966 13.5542 154.872C13.2322 151.127 12.9103 147.544 12.7493 143.799C12.4274 138.751 10.9786 122.793 13.8762 118.723H14.0371C14.1981 118.723 14.3591 118.885 14.1981 118.885Z" stroke="#0088DC" stroke-width="0.4252" stroke-miterlimit="22.9256"/>
<path d="M14.1981 118.885C10.0127 124.747 14.52 152.104 14.3591 164.153" stroke="#0088DC" stroke-width="0.4252" stroke-miterlimit="22.9256"/>
<path d="M18.3835 120.351C16.9347 124.096 16.7737 134.517 16.6127 138.588C16.6127 140.217 16.6127 141.682 16.6127 143.31C16.6127 143.31 16.6127 143.473 16.4517 143.473C16.4517 143.473 16.2908 143.473 16.2908 143.31C16.2908 141.682 16.2908 140.217 16.2908 138.588C16.2908 134.355 16.4517 123.933 18.0615 120.188C18.2225 120.188 18.2225 120.188 18.3835 120.351ZM18.3835 120.351C18.3835 120.188 18.3835 120.188 18.3835 120.351Z" stroke="#0088DC" stroke-width="0.4252" stroke-miterlimit="22.9256"/>
<path d="M18.2225 120.188C16.7737 123.445 16.4518 134.029 16.4518 143.148" stroke="#0088DC" stroke-width="0.4252" stroke-miterlimit="22.9256"/>
<path d="M32.2274 132.075L39.7933 127.678H39.9543V127.841L32.3884 132.238C32.3884 132.238 32.2274 132.238 32.2274 132.075ZM32.2274 132.075C32.2274 132.238 32.2274 132.075 32.2274 132.075Z" stroke="#0088DC" stroke-width="0.4252" stroke-miterlimit="22.9256"/>
<path d="M32.3884 132.238L39.9543 127.841" stroke="#0088DC" stroke-width="0.4252" stroke-miterlimit="22.9256"/>
<path d="M35.9298 130.447C35.7689 132.726 35.6079 135.006 35.4469 137.286C35.125 141.194 34.803 145.265 34.4811 149.173C34.1591 152.755 33.8372 156.174 33.5152 159.757C33.3542 161.385 33.1933 162.851 33.0323 164.479C33.0323 164.479 33.0323 164.642 32.8713 164.642C32.8713 164.642 32.7103 164.642 32.7103 164.479C32.8713 162.851 33.0323 161.385 33.1933 159.757C33.5152 156.174 33.8372 152.755 34.1591 149.173C34.4811 145.265 34.803 141.194 35.125 137.286C35.2859 135.006 35.6079 132.726 35.6079 130.447C35.7689 130.284 35.7689 130.284 35.9298 130.447ZM35.9298 130.447C35.9298 130.284 35.9298 130.284 35.9298 130.447Z" stroke="#0088DC" stroke-width="0.4252" stroke-miterlimit="22.9256"/>
<path d="M35.7689 130.447C35.6079 132.889 34.1591 149.335 33.1933 159.757C33.0323 161.548 32.8713 163.176 32.7103 164.479" stroke="#0088DC" stroke-width="0.4252" stroke-miterlimit="22.9256"/>
<path d="M13.3932 99.508L16.2908 87.6211C16.2908 87.6211 16.2908 87.4583 16.4518 87.4583C16.4518 87.4583 16.6127 87.4583 16.6127 87.6211L13.7152 99.508C13.5542 99.6708 13.5542 99.6708 13.3932 99.508ZM13.3932 99.508C13.3932 99.6708 13.3932 99.6708 13.3932 99.508Z" stroke="#0088DC" stroke-width="0.4252" stroke-miterlimit="22.9256"/>
<path d="M13.5542 99.508L16.4518 87.7839" stroke="#0088DC" stroke-width="0.4252" stroke-miterlimit="22.9256"/>
<path d="M63.1348 2.78442L72.9544 12.7173V12.8802H72.7934L62.9738 2.94726V2.78442H63.1348V2.78442Z" stroke="#0088DC" stroke-width="0.4252" stroke-miterlimit="22.9256"/>
<path d="M62.9738 2.94727L72.9544 12.8802" stroke="#0088DC" stroke-width="0.4252" stroke-miterlimit="22.9256"/>
<path d="M37.3787 58.7994C36.7348 59.4508 36.8957 60.4278 37.0567 61.2419C37.0567 61.2419 37.0567 61.4048 36.8957 61.4048C36.8957 61.4048 36.7348 61.4048 36.7348 61.2419C36.5738 60.4278 36.5738 59.2879 37.2177 58.6366H37.3787C37.3787 58.6366 37.3787 58.6366 37.3787 58.7994Z" stroke="#0088DC" stroke-width="0.4252" stroke-miterlimit="22.9256"/>
<path d="M37.2177 58.6366C36.7347 59.1251 36.5738 59.9393 36.7347 61.2419" stroke="#0088DC" stroke-width="0.4252" stroke-miterlimit="22.9256"/>
<path d="M26.4323 83.0618C26.9152 84.0388 27.2372 85.0158 27.7201 85.9928C29.3298 89.2495 31.2616 92.5061 33.3542 95.2743V95.4372H33.1933C30.9396 92.5061 29.0079 89.4123 27.3981 86.1556C26.9152 85.1786 26.4323 84.2016 26.1103 83.2246C26.2713 83.0618 26.2713 83.0618 26.4323 83.0618ZM26.4323 83.0618C26.4323 82.8989 26.4323 83.0618 26.4323 83.0618Z" stroke="#0088DC" stroke-width="0.4252" stroke-miterlimit="22.9256"/>
<path d="M26.2713 83.0618C26.7542 84.0388 27.0762 85.0158 27.5591 85.9928C29.1689 89.4123 31.1006 92.669 33.1933 95.2743" stroke="#0088DC" stroke-width="0.4252" stroke-miterlimit="22.9256"/>
<path d="M123.984 0.504753H65.2275C63.2958 0.504753 62.8129 0.993256 62.9738 2.94727V80.9449C62.9738 80.9449 62.9738 81.1077 62.8129 81.1077C62.6519 81.1077 62.6519 81.1077 62.6519 80.9449V2.94727C62.4909 0.993256 63.1348 0.341919 65.0665 0.341919H123.823C124.145 0.341919 124.145 0.341919 123.984 0.504753ZM123.984 0.504753C124.145 0.504753 124.145 0.504753 123.984 0.504753Z" stroke="#0088DC" stroke-width="0.4252" stroke-miterlimit="22.9256"/>
<path d="M123.984 0.504761H115.613H65.2275C63.2958 0.504761 62.8129 1.1561 62.8129 2.94728V80.9449" stroke="#0088DC" stroke-width="0.4252" stroke-miterlimit="22.9256"/>
<path d="M136.862 21.6732V12.5545C136.862 11.2518 136.218 10.6005 134.93 10.6005H75.0471C73.5983 10.6005 73.1153 11.2518 73.1153 12.7173V68.7323C73.1153 68.7323 73.1153 68.8951 72.9544 68.8951C72.9544 68.8951 72.7934 68.8951 72.7934 68.7323V12.7173C72.7934 11.2518 73.4373 10.4376 75.0471 10.4376H134.93C136.218 10.4376 137.023 11.2518 137.023 12.7173V21.836C137.184 21.6732 137.023 21.836 136.862 21.6732ZM136.862 21.6732C136.862 21.836 136.862 21.6732 136.862 21.6732Z" stroke="#0088DC" stroke-width="0.4252" stroke-miterlimit="22.9256"/>
<path d="M137.023 21.6732V12.5545C137.023 11.2518 136.218 10.4376 134.93 10.4376H75.0471C73.4373 10.4376 72.9544 11.2518 72.9544 12.7173V68.7323" stroke="#0088DC" stroke-width="0.4252" stroke-miterlimit="22.9256"/>
<path d="M134.769 21.1848V14.5086C134.769 13.3687 134.125 12.8802 132.998 12.8802H76.8178C75.8519 12.8802 75.369 13.2059 75.369 14.3458V62.8704C75.369 62.8704 75.369 63.0332 75.208 63.0332C75.208 63.0332 75.0471 63.0332 75.0471 62.8704V14.3458C75.0471 13.2059 75.53 12.7174 76.6568 12.7174H132.837C134.125 12.7174 134.93 13.2059 134.93 14.5086V21.1848C134.93 21.1848 134.93 21.3476 134.769 21.1848ZM134.769 21.1848C134.769 21.3476 134.769 21.1848 134.769 21.1848Z" stroke="#0088DC" stroke-width="0.4252" stroke-miterlimit="22.9256"/>
<path d="M134.93 21.1848V14.5086C134.93 13.3688 134.286 12.8802 132.998 12.8802H76.8178C75.691 12.8802 75.208 13.3688 75.208 14.5086V63.0332" stroke="#0088DC" stroke-width="0.4252" stroke-miterlimit="22.9256"/>
<path d="M65.2275 0.341919L75.208 10.4376V10.6005H75.047L65.0665 0.504753V0.341919C65.2275 0.341919 65.2275 0.341919 65.2275 0.341919Z" stroke="#0088DC" stroke-width="0.4252" stroke-miterlimit="22.9256"/>
<path d="M65.2275 0.504761L75.2081 10.6005" stroke="#0088DC" stroke-width="0.4252" stroke-miterlimit="22.9256"/>
<path d="M118.994 43.0045C119.316 44.47 119.476 46.2612 119.476 47.7267C119.316 50.6577 120.764 55.0543 122.213 57.4968C123.179 59.1251 124.145 60.7535 126.237 60.2649C129.296 59.4508 133.803 57.6596 134.125 53.9144C134.125 53.9144 134.125 53.7516 134.286 53.7516C134.286 53.7516 134.447 53.7516 134.447 53.9144C134.125 57.8224 129.457 59.6136 126.398 60.4278C124.145 60.9163 123.018 59.2879 122.052 57.6596C120.603 55.2171 119.155 50.6577 119.316 47.7267C119.316 46.2612 119.316 44.3072 118.833 43.0045C118.833 43.0045 118.833 43.0045 118.994 43.0045Z" stroke="#0088DC" stroke-width="0.4252" stroke-miterlimit="22.9256"/>
<path d="M118.994 43.1674C119.315 44.3072 119.476 46.2612 119.476 47.8896C119.476 49.1922 119.959 54.0773 122.213 57.8224C123.179 59.288 124.145 61.0791 126.398 60.5906C129.779 59.6136 134.125 57.8224 134.447 54.0773" stroke="#0088DC" stroke-width="0.4252" stroke-miterlimit="22.9256"/>
<path d="M128.491 45.1213C127.203 44.1443 124.95 43.6558 123.823 45.1213H123.662V44.9585C124.789 43.493 127.203 43.9815 128.652 44.9585V45.1213H128.491Z" stroke="#0088DC" stroke-width="0.4252" stroke-miterlimit="22.9256"/>
<path d="M128.491 44.9586C127.042 43.8187 124.789 43.6559 123.662 44.9586" stroke="#0088DC" stroke-width="0.4252" stroke-miterlimit="22.9256"/>
<path d="M121.569 44.6329C121.247 44.4701 119.959 43.9816 119.637 44.3072H119.476V44.1444C119.959 43.4931 121.247 44.1444 121.73 44.3072C121.73 44.4701 121.73 44.4701 121.569 44.6329Z" stroke="#0088DC" stroke-width="0.4252" stroke-miterlimit="22.9256"/>
<path d="M121.569 44.47C120.603 44.1444 119.798 43.8187 119.476 44.3072" stroke="#0088DC" stroke-width="0.4252" stroke-miterlimit="22.9256"/>
<path d="M127.847 47.5639C126.881 47.0754 126.559 46.5869 125.433 46.7497C124.95 46.7497 124.467 46.7497 124.145 46.5869V46.4241H124.306C124.628 46.5869 125.111 46.5869 125.433 46.5869C126.72 46.4241 127.042 46.9126 128.008 47.5639C128.008 47.4011 128.008 47.5639 127.847 47.5639Z" stroke="#0088DC" stroke-width="0.4252" stroke-miterlimit="22.9256"/>
<path d="M127.847 47.5639C127.042 47.0754 126.559 46.5869 125.433 46.7497C125.111 46.7497 124.628 46.7497 124.306 46.5869" stroke="#0088DC" stroke-width="0.4252" stroke-miterlimit="22.9256"/>
<path d="M125.916 48.2153C126.004 48.2153 126.076 47.9237 126.076 47.5639C126.076 47.2042 126.004 46.9126 125.916 46.9126C125.827 46.9126 125.755 47.2042 125.755 47.5639C125.755 47.9237 125.827 48.2153 125.916 48.2153Z" stroke="#0088DC" stroke-width="0.4252" stroke-miterlimit="22.9256"/>
<path d="M121.569 46.5869C120.925 46.5869 120.281 46.4241 119.637 46.0984V45.9355H119.798C120.281 46.2612 120.925 46.4241 121.569 46.4241C121.569 46.4241 121.73 46.4241 121.569 46.5869ZM121.569 46.5869C121.73 46.5869 121.569 46.5869 121.569 46.5869Z" stroke="#0088DC" stroke-width="0.4252" stroke-miterlimit="22.9256"/>
<path d="M121.569 46.4241C120.925 46.4241 120.281 46.2612 119.798 45.9355" stroke="#0088DC" stroke-width="0.4252" stroke-miterlimit="22.9256"/>
<path d="M120.603 47.7267C120.692 47.7267 120.764 47.4351 120.764 47.0754C120.764 46.7157 120.692 46.4241 120.603 46.4241C120.514 46.4241 120.442 46.7157 120.442 47.0754C120.442 47.4351 120.514 47.7267 120.603 47.7267Z" stroke="#0088DC" stroke-width="0.4252" stroke-miterlimit="22.9256"/>
<path d="M125.916 54.7287C124.628 55.38 123.34 55.7057 122.052 55.2172C122.052 55.2172 121.891 55.0543 122.052 55.0543C122.052 55.0543 122.213 54.8915 122.213 55.0543C123.501 55.5428 124.789 55.2172 125.916 54.5658C125.916 54.403 126.077 54.403 125.916 54.7287ZM125.916 54.7287C126.077 54.5658 126.077 54.7287 125.916 54.7287Z" stroke="#0088DC" stroke-width="0.4252" stroke-miterlimit="22.9256"/>
<path d="M125.915 54.5658C124.467 55.2171 123.179 55.38 122.052 55.0543" stroke="#0088DC" stroke-width="0.4252" stroke-miterlimit="22.9256"/>
<path d="M125.755 56.1941C125.272 56.5198 124.789 56.8454 124.306 56.8454C124.306 56.8454 124.145 56.8454 124.145 56.6826C124.145 56.6826 124.145 56.5198 124.306 56.5198C124.789 56.5198 125.272 56.3569 125.594 56.0312H125.755C125.755 56.0312 125.755 56.1941 125.755 56.1941Z" stroke="#0088DC" stroke-width="0.4252" stroke-miterlimit="22.9256"/>
<path d="M125.594 56.1941C125.272 56.5198 124.789 56.6826 124.145 56.6826" stroke="#0088DC" stroke-width="0.4252" stroke-miterlimit="22.9256"/>
<path d="M126.398 53.5887C126.398 54.4029 126.559 55.0542 127.042 55.5427V55.7056H126.881C126.237 55.0542 126.076 54.4029 126.237 53.5887C126.237 53.5887 126.237 53.4259 126.398 53.5887ZM126.398 53.5887C126.398 53.4259 126.398 53.5887 126.398 53.5887Z" stroke="#0088DC" stroke-width="0.4252" stroke-miterlimit="22.9256"/>
<path d="M126.398 53.5887C126.398 54.5658 126.559 55.2171 127.042 55.7056" stroke="#0088DC" stroke-width="0.4252" stroke-miterlimit="22.9256"/>
<path d="M137.667 54.8915C137.989 56.6827 139.92 60.4278 141.047 61.8934V62.0562H140.886C139.759 60.5907 137.828 56.8455 137.506 54.8915C137.506 54.8915 137.506 54.8915 137.667 54.8915Z" stroke="#0088DC" stroke-width="0.4252" stroke-miterlimit="22.9256"/>
<path d="M137.667 55.0543C137.828 56.1942 139.277 59.9393 141.047 62.219" stroke="#0088DC" stroke-width="0.4252" stroke-miterlimit="22.9256"/>
<path d="M128.169 59.9393C128.652 60.265 129.457 61.242 129.296 62.0562C129.296 62.0562 129.296 62.219 129.135 62.219C129.135 62.219 128.974 62.219 128.974 62.0562C129.135 61.5677 128.33 60.5907 127.847 60.265C128.008 60.1022 128.008 59.9393 128.169 59.9393ZM128.169 59.9393C128.008 59.9393 128.169 59.9393 128.169 59.9393Z" stroke="#0088DC" stroke-width="0.4252" stroke-miterlimit="22.9256"/>
<path d="M128.169 59.9393C128.491 60.1022 129.457 61.0792 129.296 61.8933" stroke="#0088DC" stroke-width="0.4252" stroke-miterlimit="22.9256"/>
<path d="M126.398 62.5447C124.467 63.196 122.857 64.173 121.569 65.6385C115.935 71.9891 117.223 85.0158 113.842 92.9947C113.842 92.9947 113.681 93.1575 113.681 92.9947C113.681 92.9947 113.52 92.8318 113.681 92.8318C115.291 89.2495 115.774 84.6901 116.257 80.7821C117.223 73.7802 118.35 64.6615 126.237 62.219C126.398 62.3818 126.559 62.3818 126.398 62.5447ZM126.398 62.5447C126.559 62.5447 126.559 62.5447 126.398 62.5447Z" stroke="#0088DC" stroke-width="0.4252" stroke-miterlimit="22.9256"/>
<path d="M126.398 62.5447C114.969 66.127 118.028 83.2246 113.842 92.9947" stroke="#0088DC" stroke-width="0.4252" stroke-miterlimit="22.9256"/>
<path d="M114.969 93.8088C113.681 92.669 111.106 92.3433 109.496 92.1805C106.276 91.8548 102.896 91.692 99.6764 91.2035C99.6764 91.2035 99.5154 91.2035 99.5154 91.0406C99.5154 91.0406 99.5154 90.8778 99.6764 90.8778C102.896 91.3663 106.276 91.5291 109.496 91.8548C111.106 92.0176 113.842 92.3433 115.13 93.4832V93.646C115.13 93.8088 115.13 93.8088 114.969 93.8088Z" stroke="#0088DC" stroke-width="0.4252" stroke-miterlimit="22.9256"/>
<path d="M115.13 93.8088C113.037 92.0177 107.564 92.3433 99.6764 91.2035" stroke="#0088DC" stroke-width="0.4252" stroke-miterlimit="22.9256"/>
<path d="M132.033 66.7783C131.389 66.6155 130.906 66.4526 130.262 66.2898V66.127H130.423C130.906 66.4526 131.55 66.6155 132.033 66.6155C132.194 66.4526 132.194 66.6155 132.033 66.7783ZM132.033 66.7783C132.194 66.7783 132.033 66.7783 132.033 66.7783Z" stroke="#0088DC" stroke-width="0.4252" stroke-miterlimit="22.9256"/>
<path d="M132.033 66.6155C131.389 66.4526 130.906 66.2898 130.262 66.127" stroke="#0088DC" stroke-width="0.4252" stroke-miterlimit="22.9256"/>
<path d="M132.194 68.081C131.228 67.9182 130.262 67.7553 129.457 67.104V66.9412H129.618C130.423 67.4297 131.228 67.7553 132.194 67.9182C132.355 67.7553 132.355 67.9182 132.194 68.081ZM132.194 68.081C132.355 68.081 132.355 68.081 132.194 68.081Z" stroke="#0088DC" stroke-width="0.4252" stroke-miterlimit="22.9256"/>
<path d="M132.194 67.9182C131.228 67.7553 130.262 67.5925 129.457 66.9412" stroke="#0088DC" stroke-width="0.4252" stroke-miterlimit="22.9256"/>
<path d="M119.959 97.554C119.798 96.0885 119.315 93.1575 118.511 91.8548C118.511 91.692 118.35 91.692 118.35 91.5291C117.384 89.7379 116.901 87.7839 117.223 85.8299C117.545 83.0617 119.476 79.8051 120.603 77.1997C122.535 72.966 123.34 68.8952 123.018 64.173C123.018 64.173 123.018 64.0101 123.179 64.0101C123.179 64.0101 123.34 64.0101 123.34 64.173C123.501 68.8952 122.696 72.966 120.764 77.1997C119.637 79.8051 117.706 82.8989 117.384 85.6671C117.062 87.6211 117.545 89.5751 118.511 91.3663C118.511 91.5291 118.672 91.5291 118.672 91.692C119.476 92.9946 119.959 95.9257 120.12 97.554C120.12 97.7168 120.12 97.7168 119.959 97.554ZM119.959 97.554C119.959 97.7168 119.959 97.7168 119.959 97.554Z" stroke="#0088DC" stroke-width="0.4252" stroke-miterlimit="22.9256"/>
<path d="M120.12 97.554C119.798 95.4372 119.315 92.8318 118.672 91.8548C118.672 91.8548 118.511 91.692 118.511 91.5291C113.842 82.7361 123.823 79.3166 123.179 64.173" stroke="#0088DC" stroke-width="0.4252" stroke-miterlimit="22.9256"/>
<path d="M143.462 64.0101C145.877 66.127 148.13 68.8952 149.257 71.8262C151.35 77.5254 149.418 86.1556 148.13 91.8548C147.003 97.2283 144.589 105.859 145.394 111.232C145.394 111.232 145.394 111.395 145.233 111.395C145.233 111.395 145.072 111.395 145.072 111.232C144.267 105.859 146.681 97.2283 147.808 91.8548C149.096 86.1556 151.028 77.5254 148.935 71.8262C147.808 68.7323 145.555 66.2898 143.301 64.0101V63.8473C143.301 64.0101 143.301 64.0101 143.462 64.0101Z" stroke="#0088DC" stroke-width="0.4252" stroke-miterlimit="22.9256"/>
<path d="M143.301 64.173C145.716 66.2898 147.969 68.8952 149.096 71.989C152.799 82.0847 143.623 101.625 145.233 111.395" stroke="#0088DC" stroke-width="0.4252" stroke-miterlimit="22.9256"/>
<path d="M120.442 111.721C118.189 114.326 117.545 120.188 117.062 123.607C116.418 129.632 116.096 135.983 115.774 142.008C115.452 147.381 114.969 152.918 113.842 158.128C113.842 158.128 113.842 158.291 113.681 158.291C113.681 158.291 113.52 158.291 113.52 158.128C114.647 152.918 115.13 147.381 115.452 142.008C115.935 135.82 116.096 129.632 116.74 123.607C117.062 120.188 117.867 114.326 120.12 111.558H120.281C120.603 111.558 120.603 111.721 120.442 111.721Z" stroke="#0088DC" stroke-width="0.4252" stroke-miterlimit="22.9256"/>
<path d="M120.442 111.721C115.291 117.908 117.062 142.008 113.681 158.128" stroke="#0088DC" stroke-width="0.4252" stroke-miterlimit="22.9256"/>
<path d="M145.233 111.395C153.281 113.186 154.891 137.286 155.374 143.636C155.857 150.475 156.179 157.314 156.662 164.153C156.662 164.153 156.662 164.316 156.501 164.316C156.501 164.316 156.34 164.316 156.34 164.153C155.857 157.314 155.535 150.475 155.052 143.636C154.569 137.286 152.959 113.349 145.072 111.558C145.072 111.721 145.072 111.558 145.233 111.395ZM145.233 111.395C145.072 111.395 145.072 111.395 145.233 111.395Z" stroke="#0088DC" stroke-width="0.4252" stroke-miterlimit="22.9256"/>
<path d="M145.233 111.558C154.73 113.675 155.374 146.079 156.662 164.316" stroke="#0088DC" stroke-width="0.4252" stroke-miterlimit="22.9256"/>
<path d="M133.803 48.0524C133.964 47.8896 133.964 47.7268 134.286 47.4011C134.93 46.9126 135.896 46.5869 136.379 47.2383C137.345 48.3781 136.057 51.9605 134.769 51.9605C134.769 51.9605 134.608 51.9605 134.608 51.7976C134.608 51.7976 134.608 51.6348 134.769 51.6348C135.735 51.6348 137.184 48.3781 136.218 47.4011C135.735 46.7498 134.93 47.0754 134.447 47.5639C133.803 48.2153 134.125 48.8666 133.159 47.5639C131.55 45.4471 126.72 38.608 126.398 36.3284C126.398 36.3284 126.398 36.1655 126.559 36.1655C126.72 36.1655 126.72 36.1655 126.72 36.3284C127.042 38.608 132.033 45.4471 133.481 47.4011C133.481 47.4011 133.642 47.8896 133.803 48.0524Z" stroke="#0088DC" stroke-width="0.4252" stroke-miterlimit="22.9256"/>
<path d="M126.559 36.3284C126.881 38.4452 131.55 44.9586 133.32 47.4011C134.125 48.5409 133.642 48.0524 134.286 47.4011C134.93 46.9126 135.735 46.5869 136.218 47.2383C137.184 48.3781 135.735 51.6348 134.608 51.7976" stroke="#0088DC" stroke-width="0.4252" stroke-miterlimit="22.9256"/>
<path d="M117.223 52.449C117.384 46.5869 118.833 36.3284 126.559 36.1655C126.559 36.1655 126.72 36.1655 126.72 36.3284C126.72 36.3284 126.72 36.4912 126.559 36.4912C118.994 36.4912 117.706 46.7498 117.545 52.449C117.384 52.449 117.384 52.6118 117.223 52.449ZM117.223 52.449C117.223 52.6118 117.223 52.449 117.223 52.449Z" stroke="#0088DC" stroke-width="0.4252" stroke-miterlimit="22.9256"/>
<path d="M117.384 52.449C117.545 42.1904 120.925 36.3284 126.559 36.3284" stroke="#0088DC" stroke-width="0.4252" stroke-miterlimit="22.9256"/>
<path d="M130.101 28.838C129.457 28.5123 128.813 28.3495 128.169 28.3495C122.857 28.3495 118.994 36.3283 118.028 40.7249C117.545 42.8417 117.384 44.9586 117.545 47.0754C118.189 53.2631 120.764 58.9623 121.891 64.8244C121.891 64.8244 121.891 64.9872 121.73 64.9872C121.73 64.9872 121.569 64.9872 121.569 64.8244C120.442 58.7995 117.867 53.1003 117.223 46.9126C117.062 44.7957 117.223 42.516 117.706 40.3992C118.833 35.8398 122.535 27.861 128.008 27.861C128.652 27.861 129.457 28.0238 130.101 28.3495C130.262 28.6751 130.262 28.6751 130.101 28.838ZM130.101 28.838C130.262 28.838 130.262 28.838 130.101 28.838Z" stroke="#0088DC" stroke-width="0.4252" stroke-miterlimit="22.9256"/>
<path d="M130.262 28.6751C123.984 25.9069 116.579 37.631 117.545 47.0754C118.189 53.1003 120.925 59.6136 121.891 64.9872" stroke="#0088DC" stroke-width="0.4252" stroke-miterlimit="22.9256"/>
<path d="M147.486 62.8703C146.842 59.1251 147.003 54.7286 147.003 50.9834C147.164 39.7478 144.106 27.0467 130.262 29.0008L126.559 36.654C126.559 36.654 126.398 36.8168 126.398 36.654C126.398 36.654 126.237 36.4911 126.398 36.4911L130.101 28.8379C130.101 28.8379 130.101 28.8379 130.262 28.8379C144.267 26.8839 147.486 39.585 147.325 51.1462C147.325 55.0542 147.164 59.2879 147.808 63.196V63.3588L144.428 65.3128H144.267V65.15L147.486 62.8703Z" stroke="#0088DC" stroke-width="0.4252" stroke-miterlimit="22.9256"/>
<path d="M126.559 36.3283L130.262 28.6751C143.14 26.884 147.325 37.631 147.164 50.8206C147.164 56.1941 147.164 59.6136 147.647 62.8703L144.267 64.8243" stroke="#0088DC" stroke-width="0.4252" stroke-miterlimit="22.9256"/>
<path d="M122.213 49.1922C122.052 50.0064 121.73 51.4719 121.408 51.9604C121.247 52.2861 121.408 52.7746 121.891 52.7746C122.213 52.7746 122.535 52.4489 123.018 52.4489C123.501 52.4489 123.501 52.9374 123.984 52.2861H124.145V52.4489C123.662 53.1003 123.501 52.7746 123.018 52.6118C122.696 52.6118 122.374 52.9374 122.052 52.9374C121.408 52.9374 121.086 52.2861 121.408 51.6348C121.73 51.1463 122.052 49.6807 122.213 48.8666C122.052 49.1922 122.052 49.0294 122.213 49.1922ZM122.213 49.1922C122.213 49.0294 122.213 49.1922 122.213 49.1922Z" stroke="#0088DC" stroke-width="0.4252" stroke-miterlimit="22.9256"/>
<path d="M122.052 49.1923C121.891 50.1693 121.569 51.4719 121.247 51.9604C121.086 52.2861 121.247 52.9374 121.891 52.9374C122.374 52.9374 122.535 52.6118 122.857 52.6118C123.179 52.6118 123.501 53.1003 123.984 52.4489" stroke="#0088DC" stroke-width="0.4252" stroke-miterlimit="22.9256"/>
<path d="M136.057 53.9145C136.413 53.9145 136.701 53.6229 136.701 53.2631C136.701 52.9034 136.413 52.6118 136.057 52.6118C135.701 52.6118 135.413 52.9034 135.413 53.2631C135.413 53.6229 135.701 53.9145 136.057 53.9145Z" stroke="#0088DC" stroke-width="0.4252" stroke-miterlimit="22.9256"/>
<path d="M136.057 53.7517C136.324 53.7517 136.54 53.533 136.54 53.2632C136.54 52.9934 136.324 52.7747 136.057 52.7747C135.79 52.7747 135.574 52.9934 135.574 53.2632C135.574 53.533 135.79 53.7517 136.057 53.7517Z" stroke="#0088DC" stroke-width="0.4252" stroke-miterlimit="22.9256"/>
<path d="M120.442 111.558C126.72 114.326 138.794 114 145.233 111.395H145.394V111.558C138.955 114.163 126.881 114.489 120.442 111.721C120.281 111.721 120.281 111.721 120.442 111.558ZM120.442 111.558C120.281 111.558 120.442 111.558 120.442 111.558Z" stroke="#0088DC" stroke-width="0.4252" stroke-miterlimit="22.9256"/>
<path d="M120.442 111.721C127.847 114.977 140.242 113.512 145.233 111.558" stroke="#0088DC" stroke-width="0.4252" stroke-miterlimit="22.9256"/>
<path d="M141.047 62.2189C141.852 61.5676 142.818 63.6844 143.301 64.1729V64.3358C141.208 67.104 137.506 69.2208 134.125 70.5235C132.516 71.1748 132.516 71.5005 132.355 69.7093L132.033 66.9411C131.872 66.127 132.194 66.4526 132.677 66.4526C135.574 66.127 139.116 64.0101 141.047 62.2189Z" stroke="#0088DC" stroke-width="0.4252" stroke-miterlimit="22.9256"/>
<path d="M143.301 64.173C142.657 63.5216 141.852 61.7304 141.208 62.2189C138.955 64.3358 135.413 66.127 132.837 66.127C132.194 66.127 132.194 65.9641 132.194 66.4526L132.516 69.2208C132.676 70.8492 132.516 70.6863 134.125 70.035C137.828 68.8951 141.369 66.7783 143.301 64.173Z" stroke="#0088DC" stroke-width="0.4252" stroke-miterlimit="22.9256"/>
<path d="M126.559 62.3818C127.364 61.7305 128.491 61.5676 129.296 61.8933C129.296 61.8933 129.457 61.8933 129.296 62.0561C129.135 63.0331 129.296 64.4987 129.94 65.3128C130.423 65.8013 130.584 65.6385 129.94 66.2898C129.457 66.9412 128.974 67.5925 128.491 68.2438C127.847 69.5465 127.847 70.3607 126.881 68.2438C126.398 66.4527 126.559 64.3358 126.559 62.3818ZM126.559 62.3818C126.398 62.3818 126.398 62.3818 126.559 62.3818Z" stroke="#0088DC" stroke-width="0.4252" stroke-miterlimit="22.9256"/>
<path d="M126.559 62.3818C127.364 61.8933 128.33 61.5676 129.296 61.8933C129.135 62.8703 129.135 64.3358 129.94 65.3128C130.423 65.8013 130.584 65.4757 129.94 66.127C129.296 66.7783 128.974 67.4297 128.491 68.081C127.847 69.2208 128.008 70.1979 127.042 68.081C126.559 66.4527 126.559 64.3358 126.559 62.3818Z" stroke="#0088DC" stroke-width="0.4252" stroke-miterlimit="22.9256"/>
<path d="M130.906 67.9182C130.584 70.5235 129.94 73.1289 129.135 75.4086C128.652 76.8741 127.847 78.1768 127.203 79.6423C126.559 80.9449 126.076 82.0848 125.755 83.3875C124.145 88.9238 125.433 91.5292 126.237 96.7399C126.237 96.7399 126.237 96.9027 126.076 96.9027C126.076 96.9027 125.916 96.9027 125.916 96.7399C125.111 91.5292 123.823 88.9238 125.433 83.3875C125.755 82.0848 126.398 80.9449 127.042 79.6423C127.847 78.1768 128.491 77.0369 128.974 75.4086C129.94 72.9661 130.423 70.3607 130.745 67.9182C130.745 67.9182 130.745 67.7554 130.906 67.9182ZM130.906 67.9182C130.906 67.7554 130.906 67.9182 130.906 67.9182Z" stroke="#0088DC" stroke-width="0.4252" stroke-miterlimit="22.9256"/>
<path d="M130.745 67.9182C129.296 78.0139 126.881 78.3396 125.433 83.3875C123.823 89.2495 125.272 92.5062 125.916 96.7399" stroke="#0088DC" stroke-width="0.4252" stroke-miterlimit="22.9256"/>
<path d="M120.442 109.278C126.72 112.046 138.311 111.558 144.911 109.278H145.072V109.441C138.633 111.883 126.881 112.209 120.442 109.441C120.281 109.441 120.281 109.278 120.442 109.278ZM120.442 109.278C120.281 109.278 120.442 109.278 120.442 109.278Z" stroke="#0088DC" stroke-width="0.4252" stroke-miterlimit="22.9256"/>
<path d="M120.442 109.278C127.686 112.535 139.759 111.232 144.911 109.278" stroke="#0088DC" stroke-width="0.4252" stroke-miterlimit="22.9256"/>
<path d="M120.442 105.696V111.395C120.442 111.395 120.442 111.558 120.281 111.558C120.281 111.558 120.12 111.558 120.12 111.395V105.696C120.281 105.696 120.281 105.696 120.442 105.696Z" stroke="#0088DC" stroke-width="0.4252" stroke-miterlimit="22.9256"/>
<path d="M120.442 105.696V111.558" stroke="#0088DC" stroke-width="0.4252" stroke-miterlimit="22.9256"/>
<path d="M98.5496 96.4142L95.491 99.6709H95.33V99.508L98.3886 96.2513H98.5496C98.5496 96.4142 98.5496 96.4142 98.5496 96.4142Z" stroke="#0088DC" stroke-width="0.4252" stroke-miterlimit="22.9256"/>
<path d="M98.3886 96.4142L95.33 99.6709" stroke="#0088DC" stroke-width="0.4252" stroke-miterlimit="22.9256"/>
<path d="M81.9691 93.8088L86.6374 91.3663" stroke="#0088DC" stroke-width="0.4252" stroke-miterlimit="22.9256"/>
<path d="M83.0959 95.6L88.2471 92.6689" stroke="#0088DC" stroke-width="0.4252" stroke-miterlimit="22.9256"/>
<path d="M95.3301 91.5291L94.2032 90.3893C93.7203 89.9008 93.2374 89.4123 93.5593 88.7609C93.7203 88.4353 94.2032 87.9468 94.5252 88.2724C95.813 89.9008 97.2618 90.3893 99.1935 91.0406C101.447 91.692 103.218 92.669 105.311 93.8088C107.242 94.9486 108.852 95.7628 111.106 96.2513C114.486 97.0655 117.706 97.7168 121.247 98.0425C123.34 98.2053 125.433 98.2053 127.364 98.6938C128.169 98.8567 129.135 99.0195 129.94 99.3452C129.94 99.3452 130.101 99.508 129.94 99.508C129.94 99.508 129.779 99.6708 129.779 99.508C128.974 99.1823 128.169 99.0195 127.364 98.8567C125.433 98.531 123.179 98.531 121.247 98.2053C117.867 97.8797 114.486 97.2283 111.106 96.4142C108.852 95.9257 107.242 95.1115 105.311 93.9716C103.218 92.8318 101.608 91.8548 99.3545 91.2035C97.4228 90.5521 95.974 90.0636 94.5252 88.4353C94.3642 88.2724 94.0422 88.7609 94.0422 88.9238C93.8813 89.4123 94.3642 90.0636 94.6862 90.3893L95.813 91.5291V91.692C95.491 91.5291 95.3301 91.5291 95.3301 91.5291Z" stroke="#0088DC" stroke-width="0.4252" stroke-miterlimit="22.9256"/>
<path d="M95.491 91.3663L94.3642 90.2264C93.7203 89.5751 93.5593 89.0866 93.7203 88.5981C93.8813 88.2724 94.2032 87.9468 94.5252 88.1096C95.974 89.9008 97.4227 90.2264 99.1935 90.8778C104.667 92.5061 105.633 94.7858 111.106 96.0885C121.891 98.6938 125.272 97.3912 129.94 99.0195" stroke="#0088DC" stroke-width="0.4252" stroke-miterlimit="22.9256"/>
<path d="M94.2032 90.3893C92.9154 90.0637 91.7886 89.9008 90.5008 89.5752C90.5008 89.5752 90.3398 89.5752 90.3398 89.4123C90.3398 89.4123 90.3398 89.2495 90.5008 89.2495C91.6276 89.5752 92.9154 89.738 94.2032 90.0637C94.3642 90.2265 94.3642 90.2265 94.2032 90.3893ZM94.2032 90.3893C94.3642 90.3893 94.3642 90.3893 94.2032 90.3893Z" stroke="#0088DC" stroke-width="0.4252" stroke-miterlimit="22.9256"/>
<path d="M94.2032 90.2265C93.0764 90.0637 91.6276 89.738 90.5008 89.4124" stroke="#0088DC" stroke-width="0.4252" stroke-miterlimit="22.9256"/>
<path d="M90.5008 106.836V96.4142C90.5008 95.9257 90.9837 95.1116 91.3057 94.7859H91.4666V94.9487C91.1447 95.2744 90.6618 95.9257 90.6618 96.4142V106.836C90.6618 106.836 90.6618 106.836 90.5008 106.836Z" stroke="#0088DC" stroke-width="0.4252" stroke-miterlimit="22.9256"/>
<path d="M90.6617 106.836V96.4142C90.6617 95.9257 91.1447 95.1116 91.4666 94.9487" stroke="#0088DC" stroke-width="0.4252" stroke-miterlimit="22.9256"/>
<path d="M92.2715 106.836V96.7398C92.2715 96.0885 93.0764 95.7628 93.7203 95.6C93.7203 95.6 93.8812 95.6 93.8812 95.7628C93.8812 95.7628 93.8812 95.9256 93.7203 95.9256C93.2373 95.9256 92.5934 96.2513 92.5934 96.7398V106.836C92.4325 106.836 92.4325 106.998 92.2715 106.836ZM92.2715 106.836C92.2715 106.998 92.2715 106.836 92.2715 106.836Z" stroke="#0088DC" stroke-width="0.4252" stroke-miterlimit="22.9256"/>
<path d="M92.4325 106.836V96.7398C92.4325 96.2513 93.0764 95.9257 93.7203 95.7628" stroke="#0088DC" stroke-width="0.4252" stroke-miterlimit="22.9256"/>
<path d="M98.7106 106.836V98.2053C98.7106 98.2053 98.7106 98.0425 98.8715 98.0425C98.8715 98.0425 99.0325 98.0425 99.0325 98.2053V106.836C99.0325 106.998 98.8715 106.998 98.7106 106.836ZM98.7106 106.836C98.8715 106.998 98.7106 106.998 98.7106 106.836Z" stroke="#0088DC" stroke-width="0.4252" stroke-miterlimit="22.9256"/>
<path d="M98.8715 106.836V98.3682" stroke="#0088DC" stroke-width="0.4252" stroke-miterlimit="22.9256"/>
<path d="M100.642 106.998V98.0426C100.642 98.0426 100.642 97.8798 100.803 97.8798C100.803 97.8798 100.964 97.8798 100.964 98.0426V106.998C100.803 107.161 100.803 107.161 100.642 106.998ZM100.642 106.998C100.642 107.161 100.642 107.161 100.642 106.998Z" stroke="#0088DC" stroke-width="0.4252" stroke-miterlimit="22.9256"/>
<path d="M100.642 106.998V98.0425" stroke="#0088DC" stroke-width="0.4252" stroke-miterlimit="22.9256"/>
<path d="M54.4421 96.577C59.7543 96.4142 65.7104 98.3682 70.7007 99.9966C70.7007 99.9966 70.8617 100.159 70.7007 100.159C70.7007 100.159 70.5397 100.322 70.5397 100.159C65.5495 98.531 59.7543 96.577 54.4421 96.7399C54.2811 96.9027 54.2811 96.7399 54.4421 96.577ZM54.4421 96.577C54.2811 96.7399 54.2811 96.577 54.4421 96.577Z" stroke="#0088DC" stroke-width="0.4252" stroke-miterlimit="22.9256"/>
<path d="M54.4421 96.7399C58.6275 96.577 62.9739 97.7169 70.5398 100.159" stroke="#0088DC" stroke-width="0.4252" stroke-miterlimit="22.9256"/>
<path d="M90.6618 97.8797H75.369C72.3105 97.8797 69.7349 100.322 69.7349 103.579C69.7349 106.673 72.3105 109.278 75.369 109.278H103.379C106.598 109.115 109.013 106.836 109.013 103.579C109.013 102.765 108.852 102.113 108.53 101.299V101.136H108.691C108.852 101.951 109.174 102.602 109.174 103.416C109.174 106.673 106.598 109.278 103.379 109.441H75.369C72.1495 109.441 69.5739 106.673 69.5739 103.579C69.5739 100.322 72.1495 97.7169 75.369 97.7169H90.6618C90.6618 97.554 90.6618 97.7169 90.6618 97.8797Z" stroke="#0088DC" stroke-width="0.4252" stroke-miterlimit="22.9256"/>
<path d="M90.6618 97.7168H75.369C72.1495 97.7168 69.7349 100.322 69.7349 103.416C69.7349 106.347 72.1495 109.115 75.369 109.115H103.379C106.598 108.952 109.013 106.51 109.013 103.253C109.013 102.439 108.852 101.625 108.53 100.973" stroke="#0088DC" stroke-width="0.4252" stroke-miterlimit="22.9256"/>
<path d="M90.6617 99.1824H75.53C73.2763 99.1824 71.6666 100.974 71.6666 103.09C71.6666 105.207 73.4373 106.998 75.53 106.998H103.218C105.311 106.998 107.081 105.207 107.081 103.09C107.081 101.462 105.954 100.159 104.667 99.3452V99.1824H104.828C106.276 99.9966 107.403 101.462 107.403 103.09C107.403 105.37 105.633 107.161 103.379 107.161H75.691C73.4373 107.161 71.5056 105.207 71.6666 103.09C71.6666 100.811 73.4373 99.0196 75.691 99.0196H90.8227C90.6617 98.8567 90.6617 98.8567 90.6617 99.1824ZM90.6617 99.1824C90.6617 99.0196 90.6617 99.1824 90.6617 99.1824Z" stroke="#0088DC" stroke-width="0.4252" stroke-miterlimit="22.9256"/>
<path d="M90.6617 99.0195H75.53C73.1153 99.0195 71.5056 100.974 71.5056 103.09C71.5056 104.882 72.9544 107.161 75.53 107.161H103.218C105.633 107.161 107.081 105.044 107.242 103.09C107.242 101.462 106.115 99.9965 104.828 99.1824" stroke="#0088DC" stroke-width="0.4252" stroke-miterlimit="22.9256"/>
<path d="M92.4325 98.8567H94.2032C94.2032 98.8567 94.3642 98.8567 94.3642 99.0195C94.3642 99.1824 94.3642 99.1824 94.2032 99.1824H92.4325C92.2715 99.1824 92.2715 99.0195 92.4325 98.8567ZM92.4325 98.8567C92.2715 98.8567 92.2715 98.8567 92.4325 98.8567Z" stroke="#0088DC" stroke-width="0.4252" stroke-miterlimit="22.9256"/>
<path d="M92.4325 99.0195H94.0422" stroke="#0088DC" stroke-width="0.4252" stroke-miterlimit="22.9256"/>
<path d="M97.9057 99.0195H98.8715" stroke="#0088DC" stroke-width="0.4252" stroke-miterlimit="22.9256"/>
<path d="M24.9835 54.7286C24.8225 62.3818 30.1347 73.2917 33.0323 80.4565C33.8372 82.5733 34.1591 82.899 33.9982 85.1786L33.3542 108.464C33.3542 108.464 33.3542 108.627 33.1933 108.627C33.1933 108.627 33.0323 108.627 33.0323 108.464L33.6762 85.1786C33.6762 82.899 33.5152 82.5733 32.7103 80.4565C29.8128 73.2917 24.5006 62.3818 24.6615 54.5658C24.8225 54.7286 24.8225 54.5658 24.9835 54.7286ZM24.9835 54.7286C24.9835 54.5658 24.9835 54.7286 24.9835 54.7286Z" stroke="#0088DC" stroke-width="0.4252" stroke-miterlimit="22.9256"/>
<path d="M24.8225 54.7286C24.6615 62.0562 29.3298 71.8262 32.8713 80.4565C33.8372 82.7361 33.9981 82.7361 33.8372 85.1787L33.1933 108.464" stroke="#0088DC" stroke-width="0.4252" stroke-miterlimit="22.9256"/>
<path d="M15.3249 100.159C15.4859 98.0425 15.3249 95.7628 14.842 93.646C14.842 93.646 14.842 93.4832 15.003 93.4832C15.003 93.4832 15.164 93.4832 15.164 93.646C15.6469 95.7628 15.8079 98.0425 15.6469 100.159C15.6469 100.159 15.6469 100.159 15.3249 100.159ZM15.3249 100.159C15.4859 100.159 15.3249 100.159 15.3249 100.159Z" stroke="#0088DC" stroke-width="0.4252" stroke-miterlimit="22.9256"/>
<path d="M15.4859 100.159C15.6469 98.2054 15.4859 96.0885 15.003 93.646" stroke="#0088DC" stroke-width="0.4252" stroke-miterlimit="22.9256"/>
<path d="M33.1933 107.813L35.9299 107.324" stroke="#0088DC" stroke-width="0.4252" stroke-miterlimit="22.9256"/>
<path d="M40.9201 109.604L38.5055 87.1326C38.3445 85.0157 38.1835 83.2246 38.1835 81.1077C38.3445 77.0369 38.5055 64.4986 36.5738 61.2419V61.0791H36.7347C38.6665 64.173 38.5055 76.874 38.3445 80.9449C38.1835 83.0617 38.3445 84.8529 38.6665 86.9698L41.0811 109.441C41.0811 109.604 41.0811 109.604 40.9201 109.604Z" stroke="#0088DC" stroke-width="0.4252" stroke-miterlimit="22.9256"/>
<path d="M41.0811 109.604L38.6665 87.1326C38.3445 84.8529 38.3445 83.5502 38.3445 81.1077C38.6665 74.2687 38.1835 63.8473 36.7347 61.2419" stroke="#0088DC" stroke-width="0.4252" stroke-miterlimit="22.9256"/>
<path fill-rule="evenodd" clip-rule="evenodd" d="M71.5056 107.65V142.171C71.5056 148.684 76.8178 153.732 83.2568 153.732H95.3301C101.608 153.732 107.081 148.684 107.081 142.171V107.813C107.081 107.813 107.081 107.65 107.242 107.65C107.403 107.65 107.403 107.65 107.403 107.813V142.333C107.403 148.847 101.93 154.22 95.491 154.22H83.4178C76.9788 154.22 71.5056 149.01 71.5056 142.333V107.65C71.3446 107.487 71.1836 107.65 71.5056 107.65C71.3446 107.487 71.5056 107.65 71.5056 107.65Z" fill="#0088DC"/>
<path d="M71.5056 107.65V142.171C71.5056 148.684 76.8178 153.732 83.2568 153.732H95.3301C101.608 153.732 107.081 148.684 107.081 142.171V107.813C107.081 107.813 107.081 107.65 107.242 107.65C107.403 107.65 107.403 107.65 107.403 107.813V142.333C107.403 148.847 101.93 154.22 95.491 154.22H83.4178C76.9788 154.22 71.5056 149.01 71.5056 142.333V107.65C71.1836 107.65 71.3446 107.487 71.5056 107.65ZM71.5056 107.65C71.3446 107.487 71.5056 107.65 71.5056 107.65Z" stroke="#0088DC" stroke-width="0.4252" stroke-miterlimit="22.9256"/>
<path d="M71.3446 107.65V142.171C71.3446 149.01 77.1397 153.895 83.0959 153.895H95.1691C101.286 153.895 106.92 148.847 106.92 142.171V107.813" stroke="#0088DC" stroke-width="0.4252" stroke-miterlimit="22.9256"/>
<path d="M76.4958 97.554V88.4353C76.4958 86.1556 79.8763 85.3414 81.6471 85.1786C83.5788 85.1786 86.7983 86.1556 86.7983 88.5981V90.2265C86.7983 90.2265 86.7983 90.3893 86.6373 90.3893C86.6373 90.3893 86.4764 90.3893 86.4764 90.2265V88.5981C86.4764 86.3184 83.4178 85.5043 81.4861 85.5043C79.8763 85.5043 76.4958 86.3184 76.4958 88.4353V97.554ZM76.4958 97.554C76.6568 97.554 76.6568 97.7168 76.4958 97.554ZM76.4958 97.554C76.4958 97.7168 76.4958 97.554 76.4958 97.554Z" stroke="#0088DC" stroke-width="0.4252" stroke-miterlimit="22.9256"/>
<path d="M76.4958 97.554V88.4353C76.4958 86.4813 79.2324 85.3414 81.4861 85.3414C84.3837 85.3414 86.4764 86.8069 86.4764 88.5981V90.2265" stroke="#0088DC" stroke-width="0.4252" stroke-miterlimit="22.9256"/>
<path d="M78.2666 97.3911V88.5981C78.2666 87.4582 80.8422 87.2954 81.6471 87.2954C82.291 87.2954 85.0276 87.4582 85.0276 88.5981V90.0636C85.0276 90.0636 85.0276 90.2264 84.8666 90.2264C84.8666 90.2264 84.7056 90.2264 84.7056 90.0636V88.5981C84.7056 87.7839 82.13 87.4582 81.6471 87.4582C81.0032 87.4582 78.5886 87.6211 78.5886 88.5981V97.3911C78.4276 97.554 78.4276 97.554 78.2666 97.3911ZM78.2666 97.3911C78.2666 97.554 78.2666 97.554 78.2666 97.3911Z" stroke="#0088DC" stroke-width="0.4252" stroke-miterlimit="22.9256"/>
<path d="M78.4276 97.3911V88.5981C78.4276 87.7839 80.3593 87.4583 81.6471 87.4583C83.4178 87.4583 84.8666 87.9468 84.8666 88.5981V90.0636" stroke="#0088DC" stroke-width="0.4252" stroke-miterlimit="22.9256"/>
<path d="M86.6373 95.6V98.0425" stroke="#0088DC" stroke-width="0.4252" stroke-miterlimit="22.9256"/>
<path opacity="0.2" fill-rule="evenodd" clip-rule="evenodd" d="M100.642 102.276C100.642 102.439 100.964 102.439 101.125 102.439C104.506 103.579 106.115 104.719 104.667 106.836C105.954 106.021 107.081 105.207 107.081 103.579C107.081 101.625 105.472 99.5081 103.057 99.5081H100.803L100.642 102.276Z" fill="#0088DC" stroke="#0088DC" stroke-width="0.216" stroke-miterlimit="22.9256"/>
<path opacity="0.2" fill-rule="evenodd" clip-rule="evenodd" d="M75.369 99.3452C80.1983 99.3452 85.5105 99.6709 90.1788 100.159C90.3398 100.159 90.5008 100.322 90.5008 100.159V99.3452H75.369Z" fill="#0088DC" stroke="#0088DC" stroke-width="0.216" stroke-miterlimit="22.9256"/>
<path opacity="0.2" fill-rule="evenodd" clip-rule="evenodd" d="M156.662 164.479C154.891 130.935 152.155 112.535 145.233 111.558L137.184 113.349C146.842 126.376 137.184 158.291 156.662 164.479Z" fill="#0088DC"/>
<path opacity="0.2" fill-rule="evenodd" clip-rule="evenodd" d="M146.038 71.989C145.072 69.5465 143.784 67.4297 142.013 65.8013L143.462 64.173C145.877 66.2898 148.13 68.8952 149.257 71.989C152.96 82.2476 143.623 101.951 145.394 111.721L137.506 113.512L142.013 95.9257C146.038 89.9008 149.257 80.7821 148.452 74.7572C147.647 73.4545 147.003 72.4775 146.038 71.989Z" fill="#0088DC" stroke="#0088DC" stroke-width="0.4252" stroke-miterlimit="22.9256"/>
<path opacity="0.2" fill-rule="evenodd" clip-rule="evenodd" d="M16.6127 86.4813L15.003 93.4832C15.6469 96.0885 15.8078 98.2054 15.4859 100.322C15.4859 100.322 15.3249 100.485 15.4859 100.485L18.2225 101.625C18.3835 101.625 18.2225 101.299 18.2225 101.136C17.4176 94.4602 16.7737 88.1097 16.6127 86.4813Z" fill="#0088DC"/>
<path opacity="0.2" fill-rule="evenodd" clip-rule="evenodd" d="M13.5542 112.698C13.3932 112.698 13.5542 113.023 13.5542 113.186C13.3932 114.652 13.3932 116.443 13.5542 118.234C15.4859 119.374 21.442 120.839 23.8567 121.491C23.8567 121.491 24.0177 121.654 24.0177 121.491C23.0518 120.677 19.1884 118.722 19.5103 115.303C19.5103 115.14 19.6713 114.814 19.5103 114.652L13.5542 112.698Z" fill="#0088DC"/>
<path opacity="0.2" fill-rule="evenodd" clip-rule="evenodd" d="M57.3397 107.813C51.5445 101.951 49.7738 85.83 49.4519 65.6385L48.808 104.23C51.5445 106.51 54.4421 107.324 57.3397 107.813Z" fill="#0088DC"/>
<g opacity="0.2">
<path fill-rule="evenodd" clip-rule="evenodd" d="M83.5788 153.895C100.32 151.778 100.803 146.567 100.481 109.441C108.047 109.278 104.828 109.278 106.92 107.813V142.334C106.92 149.01 101.286 154.058 95.1691 154.058L83.5788 153.895C83.0959 153.895 83.0959 153.895 83.5788 153.895Z" fill="#0088DC"/>
<path d="M83.5788 153.895C100.32 151.778 100.803 146.567 100.481 109.441C108.047 109.278 104.828 109.278 106.92 107.813V142.334C106.92 149.01 101.286 154.058 95.1691 154.058L83.5788 153.895ZM83.5788 153.895C83.0959 153.895 83.0959 153.895 83.5788 153.895Z" stroke="#0088DC" stroke-width="0.4252" stroke-miterlimit="22.9256"/>
</g>
<path d="M83.0959 95.6C83.0959 96.2514 83.9007 97.2284 84.7056 96.9027C86.1544 96.2514 87.7642 94.7859 88.5691 94.2974C89.3739 93.8089 88.891 92.8319 88.0861 92.8319C88.5691 92.0177 87.7642 91.2035 86.7983 91.3664C87.2812 90.715 86.6373 89.738 85.3495 90.2265C84.7056 90.3893 82.7739 91.3663 81.8081 92.0177C80.6812 92.669 81.3251 93.8089 82.291 93.9717C81.969 94.623 82.291 95.2744 83.0959 95.6Z" stroke="#0088DC" stroke-width="0.4252" stroke-miterlimit="22.9256"/>
<path d="M91.7886 89.738C90.6617 85.83 87.4422 86.9699 85.3495 84.2017C85.1886 84.0388 85.0276 84.3645 85.0276 84.5273C84.8666 84.853 85.1886 85.3415 85.5105 85.6672L86.9593 87.2955C87.6032 87.9469 87.4422 89.4124 88.0861 90.2265V90.3894H87.9252C87.2812 89.5752 87.2812 88.1097 86.7983 87.4584L85.3495 85.83C85.0276 85.5043 84.7056 85.0158 84.8666 84.5273C85.0276 84.2017 85.3495 83.876 85.6715 84.2017C87.7642 86.9699 90.8227 85.83 92.1105 89.9009C92.1105 89.738 92.1105 89.738 91.7886 89.738ZM91.7886 89.738C91.9496 89.738 91.7886 89.738 91.7886 89.738Z" stroke="#0088DC" stroke-width="0.4252" stroke-miterlimit="22.9256"/>
<path d="M91.9496 89.5751C90.6617 85.5042 87.6032 86.8069 85.5105 83.8759C85.3495 83.7131 85.0276 83.8759 84.8666 84.2016C84.7056 84.5272 84.8666 84.8529 85.3495 85.5042L86.7983 87.1326C87.2812 87.7839 87.2812 89.2494 87.9252 90.0636" stroke="#0088DC" stroke-width="0.4252" stroke-miterlimit="22.9256"/>
<path d="M95.1691 99.8336C94.3642 99.9965 93.7203 99.0195 94.0423 98.2053C93.0764 98.3681 92.7544 97.2283 93.2374 96.2513C93.5593 95.4371 95.491 93.3203 96.135 92.5061H96.2959V92.6689C95.652 93.4831 93.7203 95.4371 93.3984 96.2513C92.9154 97.0655 93.2374 98.2053 94.0423 97.8796H94.2032V98.0425C93.8813 98.6938 94.3642 99.8336 95.1691 99.508H95.3301C95.3301 99.508 95.3301 99.508 95.3301 99.6708C95.1691 100.322 95.974 100.973 96.4569 100.322C97.4228 99.0195 99.0325 97.554 100.32 96.577H100.481V96.7398C99.1935 97.7168 97.7447 99.1823 96.6179 100.485C96.1349 101.299 95.1691 100.648 95.1691 99.8336Z" stroke="#0088DC" stroke-width="0.4252" stroke-miterlimit="22.9256"/>
<path d="M96.2959 92.5061C95.813 93.1574 93.7203 95.4371 93.3983 96.2513C92.7544 97.3911 93.3983 98.3681 94.2032 98.0425C93.7203 99.0195 94.3642 99.9965 95.3301 99.6708C95.1691 100.485 95.974 101.136 96.6179 100.485C97.4227 99.508 99.1935 97.7168 100.481 96.7398" stroke="#0088DC" stroke-width="0.4252" stroke-miterlimit="22.9256"/>
<path d="M97.1008 94.9487L94.3642 98.0426H94.2032V97.8797L96.9398 94.7859H97.1008C97.2618 94.7859 97.2618 94.9487 97.1008 94.9487Z" stroke="#0088DC" stroke-width="0.4252" stroke-miterlimit="22.9256"/>
<path d="M97.1008 94.9487L94.2032 98.0426" stroke="#0088DC" stroke-width="0.4252" stroke-miterlimit="22.9256"/>
<path d="M97.4228 91.2035C95.1691 91.2035 93.5593 92.669 91.6276 93.4832C90.5008 93.8088 91.3057 95.1115 92.2715 94.7858L95.491 93.4832H95.652V93.646L92.4325 94.9487C91.3057 95.2743 90.3398 93.646 91.6276 93.1575C93.7203 92.5061 95.1691 90.8778 97.5837 90.8778C97.5837 90.8778 97.5837 91.0406 97.4228 91.2035ZM97.4228 91.2035C97.5837 91.0406 97.5837 91.2035 97.4228 91.2035Z" stroke="#0088DC" stroke-width="0.4252" stroke-miterlimit="22.9256"/>
<path d="M97.4227 91.0406C95.1691 91.0406 93.3983 92.669 91.4666 93.3203C90.3398 93.8088 91.1447 95.1115 92.1105 94.9487L95.33 93.646" stroke="#0088DC" stroke-width="0.4252" stroke-miterlimit="22.9256"/>
<path opacity="0.2" fill-rule="evenodd" clip-rule="evenodd" d="M92.2715 100.322C92.2715 100.485 92.4325 100.322 92.5934 100.322C94.6861 100.648 96.7788 100.974 98.5496 101.462C98.5496 101.462 98.7105 101.625 98.7105 101.462L98.8715 99.3452H97.5837L95.9739 100.648L95.491 99.9966V99.3452H92.2715V100.322Z" fill="#0088DC" stroke="#0088DC" stroke-width="0.216" stroke-miterlimit="22.9256"/>
<path d="M107.081 99.0196C104.345 99.6709 101.93 98.8567 99.5154 97.3912V97.2284H99.6764C101.93 98.6939 104.345 99.5081 107.081 98.8567C107.081 98.8567 107.242 98.8567 107.081 99.0196ZM107.081 99.0196C107.242 99.0196 107.242 99.0196 107.081 99.0196Z" stroke="#0088DC" stroke-width="0.4252" stroke-miterlimit="22.9256"/>
<path d="M107.081 98.8567C104.184 99.6709 101.769 98.5311 99.6764 97.2284" stroke="#0088DC" stroke-width="0.4252" stroke-miterlimit="22.9256"/>
<path d="M105.633 99.0195C108.691 101.299 114.164 103.09 117.867 104.23C121.73 105.533 125.755 106.51 129.779 107.813C131.711 108.301 133.32 107.975 134.608 106.347C138.633 100.648 142.818 94.4602 145.716 88.2725C147.647 84.2016 149.257 79.1537 148.13 74.5944C147.808 73.4545 147.164 72.3147 146.038 71.8262C143.14 70.5235 139.759 73.6174 138.311 75.8971C133.964 82.7361 131.228 91.0406 128.169 98.6939C128.169 98.6939 128.008 98.8567 128.008 98.6939C128.008 98.6939 127.847 98.531 128.008 98.531C131.067 91.0406 133.803 82.5733 138.15 75.7342C139.598 73.2917 142.979 70.035 146.038 71.5005C147.164 71.989 147.969 73.1289 148.13 74.4315C149.257 78.9909 147.486 84.0388 145.555 88.2725C142.657 94.623 138.472 100.811 134.447 106.51C132.998 108.138 131.389 108.627 129.457 107.975C125.594 106.673 121.569 105.696 117.545 104.393C113.842 103.253 108.369 101.462 105.311 99.0195V98.8567C105.472 99.0195 105.472 99.0195 105.633 99.0195Z" stroke="#0088DC" stroke-width="0.4252" stroke-miterlimit="22.9256"/>
<path d="M105.472 99.1824C110.462 102.928 123.34 106.021 129.618 107.975C131.55 108.464 133.159 108.138 134.608 106.51C144.267 92.6691 150.062 82.5733 148.291 74.5945C147.164 69.7094 141.369 70.5236 138.472 75.8971C134.447 82.4105 132.516 88.4354 128.33 98.6939" stroke="#0088DC" stroke-width="0.4252" stroke-miterlimit="22.9256"/>
<path d="M41.2421 42.8417C41.886 42.3532 42.6908 42.0276 43.3348 41.7019H43.4957V41.8647C42.6908 42.0276 42.0469 42.5161 41.403 43.0046H41.2421C41.2421 43.0046 41.2421 43.0046 41.2421 42.8417Z" stroke="#0088DC" stroke-width="0.4252" stroke-miterlimit="22.9256"/>
<path d="M41.403 43.0046C42.047 42.5161 42.6909 42.1904 43.4957 41.8647" stroke="#0088DC" stroke-width="0.4252" stroke-miterlimit="22.9256"/>
<path d="M41.4031 42.6789C41.886 42.3533 42.3689 42.1904 43.0128 42.1904C43.0128 42.1904 43.1738 42.1904 43.1738 42.3533C43.1738 42.3533 43.1738 42.5161 43.0128 42.5161C42.5299 42.5161 42.047 42.6789 41.564 43.0046H41.4031C41.2421 42.8418 41.4031 42.6789 41.4031 42.6789Z" stroke="#0088DC" stroke-width="0.4252" stroke-miterlimit="22.9256"/>
<path d="M41.403 42.8417C41.886 42.516 42.3689 42.3531 42.8518 42.3531" stroke="#0088DC" stroke-width="0.4252" stroke-miterlimit="22.9256"/>
<path d="M42.4091 43.0747C42.4383 42.7162 42.3901 42.4196 42.3015 42.4123C42.2129 42.4049 42.1174 42.6895 42.0882 43.048C42.0591 43.4065 42.1073 43.7031 42.1959 43.7105C42.2845 43.7179 42.3799 43.4332 42.4091 43.0747Z" stroke="#0088DC" stroke-width="0.4252" stroke-miterlimit="22.9248"/>
<path d="M25.9494 25.4185C36.5738 23.7901 40.7592 23.3016 43.1738 35.1886V35.3514H43.0128C41.725 34.3744 39.3104 35.0257 38.0226 35.5142C35.6079 36.3284 33.1933 37.6311 30.7786 38.6081C27.2372 40.0736 22.2469 41.8648 18.5445 39.7479C17.2566 34.3744 19.3493 27.5353 24.9835 25.7442C25.3054 25.5813 25.6274 25.4185 25.9494 25.4185Z" stroke="#0088DC" stroke-width="0.4252" stroke-miterlimit="22.9256"/>
<path d="M25.9493 25.5813C20.7981 26.3955 16.7737 32.5832 18.5444 39.5851C25.7884 43.9816 38.8274 32.0947 43.0128 35.1885C40.7591 23.6273 37.0567 23.7901 25.9493 25.5813Z" stroke="#0088DC" stroke-width="0.4252" stroke-miterlimit="22.9256"/>
<path d="M26.4323 39.7479C26.4323 38.608 26.2713 37.3054 26.2713 36.1655C26.1103 33.2345 25.1445 27.2096 27.7201 25.2556H27.8811V25.4184C25.3054 27.3725 26.2713 33.3973 26.4323 36.1655C26.5933 37.3054 26.5933 38.608 26.5933 39.7479C26.5933 39.7479 26.5933 39.9107 26.4323 39.7479ZM26.4323 39.7479C26.4323 39.9107 26.4323 39.7479 26.4323 39.7479Z" stroke="#0088DC" stroke-width="0.4252" stroke-miterlimit="22.9256"/>
<path d="M26.5932 39.7479C26.5932 34.2115 24.8225 27.5353 27.8811 25.2556" stroke="#0088DC" stroke-width="0.4252" stroke-miterlimit="22.9256"/>
<path d="M47.5201 38.7708L43.1738 35.3513V35.1885H43.3348L48.647 39.2593V39.4222H48.486C44.4616 36.654 38.6665 44.1444 34.803 42.8417C32.7103 42.1903 30.7786 40.8877 29.3298 39.4222V39.2593H29.4908C31.1006 40.8877 32.8713 42.0275 34.964 42.6789C38.1835 43.8187 43.4957 37.4682 47.5201 38.7708Z" stroke="#0088DC" stroke-width="0.4252" stroke-miterlimit="22.9256"/>
<path d="M43.1738 35.1885L47.6811 38.608L48.486 39.2593C44.4616 36.4912 38.5055 43.9815 34.6421 42.6789C32.7104 42.0275 30.7786 40.8877 29.1689 39.2593" stroke="#0088DC" stroke-width="0.4252" stroke-miterlimit="22.9256"/>
<path d="M48.647 39.4222C48.8079 39.5851 48.8079 39.5851 48.8079 39.7479C48.8079 40.2364 48.0031 40.3992 47.6811 40.3992C46.7153 40.3992 45.5884 39.7479 44.9445 39.0966V38.9337H45.1055C45.7494 39.5851 46.7153 40.0736 47.6811 40.2364C47.8421 40.2364 48.647 40.2364 48.647 39.9107C48.647 39.9107 48.647 39.7479 48.486 39.7479V39.5851C48.647 39.4222 48.647 39.2594 48.647 39.4222Z" stroke="#0088DC" stroke-width="0.4252" stroke-miterlimit="22.9256"/>
<path d="M48.647 39.4222C49.2909 39.9107 47.5201 41.0506 44.9445 38.9337" stroke="#0088DC" stroke-width="0.4252" stroke-miterlimit="22.9256"/>
<path opacity="0.2" fill-rule="evenodd" clip-rule="evenodd" d="M25.9493 25.5812C20.7981 26.3954 16.7737 32.5831 18.5444 39.585C20.7981 40.8877 23.3737 40.7248 26.2713 40.0735C26.4323 40.0735 26.5932 40.0735 26.5932 39.9107C25.9493 33.8858 25.3054 28.0237 27.3981 25.4184C27.5591 25.2556 26.4323 25.4184 25.9493 25.5812Z" fill="#0088DC" stroke="#0088DC" stroke-width="0.216" stroke-miterlimit="22.9256"/>
<path opacity="0.2" fill-rule="evenodd" clip-rule="evenodd" d="M14.1981 164.479C13.7152 154.709 10.9786 127.678 14.0371 118.885C17.9005 120.351 18.8664 120.839 23.3737 121.328C19.3493 132.238 24.9835 164.479 14.1981 164.479Z" fill="#0088DC"/>
</svg>
