<?xml version="1.0" encoding="UTF-8"?>
<!DOCTYPE svg PUBLIC "-//W3C//DTD SVG 1.1//EN" "http://www.w3.org/Graphics/SVG/1.1/DTD/svg11.dtd">
<svg xmlns="http://www.w3.org/2000/svg" xmlns:xlink="http://www.w3.org/1999/xlink">
	<defs>
		<linearGradient id="whatsapp-a" x1="12.398" x2="12.398" y1="24.226" y2="0" gradientUnits="userSpaceOnUse">
			<stop stop-color="#F9F9F9"/>
			<stop offset="1" stop-color="#fff"/>
		</linearGradient>
	</defs>
<symbol id="arrow-down" viewBox="0 0 15 9">
	<path fill="#fff" fill-rule="evenodd" d="M13.863.768c.42.425.42 1.113 0 1.538l-5.73 5.798c-.42.424-1.1.424-1.519 0L.884 2.306a1.096 1.096 0 0 1 0-1.538c.42-.424 1.1-.424 1.52 0l4.97 5.03 4.97-5.03c.419-.424 1.1-.424 1.519 0Z" clip-rule="evenodd"/>
</symbol>
<symbol id="bag" viewBox="0 0 33 29">
	<path stroke="#fff" stroke-linecap="round" stroke-linejoin="round" stroke-miterlimit="10" stroke-width="2" d="M11.888 2.417 7.051 6.803M20.413 2.417l4.837 4.386"/>
	<path stroke="#fff" stroke-width="2" d="M2.789 9.485c0-2.235 1.323-2.416 2.966-2.416h20.791c1.644 0 2.967.181 2.967 2.416 0 2.598-1.323 2.417-2.966 2.417H5.755c-1.643 0-2.966.181-2.966-2.417Z"/>
	<path stroke="#fff" stroke-linecap="round" stroke-width="2" d="M13.158 16.917v4.29M19.304 16.917v4.29M4.793 12.083l1.884 10.44c.428 2.345 1.457 4.06 5.278 4.06h8.057c4.156 0 4.77-1.643 5.252-3.915l2.245-10.585"/>
</symbol>
<symbol id="calendar" viewBox="0 0 24 24">
	<path stroke="#fff" stroke-linecap="round" stroke-linejoin="round" stroke-miterlimit="10" stroke-width="1.5" d="M8 2v3M16 2v3M3.5 9.09h17M21 8.5V17c0 3-1.5 5-5 5H8c-3.5 0-5-2-5-5V8.5c0-3 1.5-5 5-5h8c3.5 0 5 2 5 5Z"/>
	<path stroke="#fff" stroke-linecap="round" stroke-linejoin="round" stroke-width="2" d="M15.695 13.7h.009M15.695 16.7h.009M11.995 13.7h.01M11.995 16.7h.01M8.294 13.7h.01M8.294 16.7h.01"/>
</symbol>
<symbol id="call" viewBox="0 0 22 22">
	<path fill="#fff" d="M21.71 17.51a2.7 2.7 0 0 1-.265 1.158c-.181.382-.415.743-.723 1.083-.521.573-1.095.987-1.744 1.253a5.346 5.346 0 0 1-2.073.403c-1.085 0-2.244-.255-3.466-.775-1.223-.52-2.446-1.22-3.658-2.102a30.546 30.546 0 0 1-3.487-2.973 30.18 30.18 0 0 1-2.966-3.47c-.872-1.211-1.574-2.421-2.084-3.621-.51-1.21-.766-2.367-.766-3.471 0-.722.128-1.412.383-2.05a4.886 4.886 0 0 1 1.223-1.772c.68-.67 1.424-.998 2.211-.998a2 2 0 0 1 .861.19c.277.128.521.32.713.595l2.466 3.472c.192.265.33.51.426.743.095.223.149.446.149.648 0 .254-.075.51-.224.753-.138.244-.34.5-.595.754l-.808.839a.568.568 0 0 0-.17.424c0 .085.01.16.032.245.031.084.063.148.085.212.191.35.52.807.988 1.359.479.552.99 1.114 1.542 1.677a31.973 31.973 0 0 0 1.69 1.56c.553.468 1.01.786 1.372.977.053.022.117.053.192.085.085.032.17.043.265.043.181 0 .32-.064.436-.18l.808-.797c.266-.265.521-.467.766-.594.244-.15.489-.223.755-.223.202 0 .414.042.648.138.234.095.479.233.744.414l3.52 2.494c.276.192.467.414.584.68.107.265.17.53.17.828Z"/>
</symbol>
<symbol id="clock" viewBox="0 0 16 16">
	<path stroke="#fff" stroke-linecap="round" stroke-linejoin="round" stroke-width="1.5" d="M14.666 8A6.67 6.67 0 0 1 8 14.667 6.67 6.67 0 0 1 1.333 8 6.67 6.67 0 0 1 8 1.333 6.67 6.67 0 0 1 14.666 8Z"/>
	<path stroke="#fff" stroke-linecap="round" stroke-linejoin="round" stroke-width="1.5" d="M10.473 10.12 8.406 8.887c-.36-.214-.653-.727-.653-1.147V5.007"/>
</symbol>
<symbol id="deliver" viewBox="0 0 24 24">
	<path stroke="#0088DC" stroke-linecap="round" stroke-linejoin="round" stroke-width="1.5" d="M15 2v10c0 1.1-.9 2-2 2H2V6c0-2.21 1.79-4 4-4h9Z"/>
	<path stroke="#0088DC" stroke-linecap="round" stroke-linejoin="round" stroke-width="1.5" d="M22 14v3c0 1.66-1.34 3-3 3h-1c0-1.1-.9-2-2-2s-2 .9-2 2h-4c0-1.1-.9-2-2-2s-2 .9-2 2H5c-1.66 0-3-1.34-3-3v-3h11c1.1 0 2-.9 2-2V5h1.84c.72 0 1.38.39 1.74 1.01L20.29 9H19c-.55 0-1 .45-1 1v3c0 .55.45 1 1 1h3Z"/>
	<path stroke="#0088DC" stroke-linecap="round" stroke-linejoin="round" stroke-width="1.5" d="M8 22a2 2 0 1 0 0-4 2 2 0 0 0 0 4ZM16 22a2 2 0 1 0 0-4 2 2 0 0 0 0 4ZM22 12v2h-3c-.55 0-1-.45-1-1v-3c0-.55.45-1 1-1h1.29L22 12Z"/>
</symbol>
<symbol id="dry" viewBox="0 0 22 27">
	<path fill="#0088DC" stroke="#0088DC" stroke-width=".4" d="M2.443 26c-.029-.015-.056-.035-.087-.043-.869-.233-1.347-.827-1.348-1.697-.004-1.929-.002-3.856-.001-5.785 0-2.416-.022-4.833.01-7.248.043-3.265 2.724-6.081 6.12-6.41 1.026-.099 2.068-.045 3.104-.061h.327c0-.271-.004-.514 0-.756.008-.334.14-.469.486-.503.5-.05.832-.403.816-.863-.016-.43-.388-.783-.838-.798a.859.859 0 0 0-.896.79c-.031.294-.202.468-.453.459-.263-.01-.424-.21-.414-.512.026-.78.68-1.45 1.522-1.559.825-.107 1.643.408 1.88 1.184.241.79-.154 1.63-.933 1.98-.343.154-.345.156-.266.578h.268c.798 0 1.596-.008 2.393.003 3.419.048 6.274 2.429 6.789 5.667.06.375.073.761.073 1.143.005 4.197.004 8.395.003 12.593 0 .983-.41 1.514-1.398 1.808-.015.004-.025.02-.038.03H2.442Zm8.566-.831h8.101c.691 0 1.02-.311 1.02-.967 0-4.23.002-8.462-.003-12.693 0-.34-.014-.686-.075-1.02-.53-2.9-3.007-4.894-6.075-4.9-1.987-.004-3.974-.008-5.961.006a6.664 6.664 0 0 0-1.338.131c-2.863.61-4.796 2.926-4.8 5.746-.007 4.24-.002 8.479-.001 12.718 0 .672.323.978 1.031.979h8.101Z"/>
	<path fill="#0088DC" stroke="#0088DC" stroke-width=".4" d="M5.871 22H4.457c-.654 0-.963-.283-.948-.902.059-2.326.092-4.653.204-6.975.059-1.206.253-2.407.403-3.608.07-.56.394-.966.926-1.214.146-.068.288-.142.435-.206a11.192 11.192 0 0 0 2.549-1.502c.308-.245.669-.348 1.07-.347 1.273.004 2.544.004 3.816 0 .393-.001.753.093 1.052.334.839.676 1.779 1.192 2.778 1.607.733.304 1.122.816 1.201 1.568.118 1.123.301 2.243.353 3.369.105 2.279.128 4.562.212 6.842.03.804-.415 1.082-1.097 1.04-.413-.027-.83-.005-1.274-.005 0 .242.002.469 0 .695-.006.5-.331.814-.857.815-1.04.004-2.081-.008-3.122.006-.366.004-.667-.09-.898-.363-.072-.085-.137-.176-.224-.29-.17.17-.286.288-.404.402a.861.861 0 0 1-.623.246c-1.103 0-2.205.003-3.308-.001-.497-.002-.823-.32-.83-.795-.003-.228 0-.456 0-.716Zm.788.756h.273c.856 0 1.712-.02 2.566.01.396.014.692-.074.942-.372.108-.129.173-.24.172-.409-.006-1.395 0-2.791-.01-4.187a.594.594 0 0 0-.13-.356c-1.006-1.195-2.022-2.383-3.037-3.572-.363-.426-.376-.692-.051-1.157l.348-.504c-.26-.249-.505-.494-.762-.726a.896.896 0 0 1-.314-.73c.01-.447.003-.895.003-1.384-.5.244-.966.466-1.425.701-.177.09-.22.22-.136.423.431 1.033.838 2.077 1.263 3.113.205.502.302 1.015.301 1.555-.007 2.437-.003 4.875-.003 7.312v.283Zm8.69-.01v-.293c0-2.444.003-4.889-.003-7.333a3.863 3.863 0 0 1 .292-1.49c.419-1.03.83-2.063 1.246-3.095.117-.291.094-.371-.204-.522-.408-.206-.825-.398-1.238-.594-.024-.011-.053-.008-.092-.013 0 .458-.008.9.002 1.342a.918.918 0 0 1-.326.748c-.257.23-.499.476-.748.714l.359.518c.31.446.294.726-.06 1.14-1.014 1.19-2.03 2.377-3.038 3.572a.6.6 0 0 0-.132.355c-.01 1.293.01 2.585-.015 3.877-.007.393.078.695.407.94.123.091.226.15.385.148.971-.007 1.942-.003 2.913-.004.074 0 .15-.006.252-.01ZM9.136 8.01l1.84 7.642h.058l1.84-7.641H9.136Zm8.123 3.722c-.028.059-.058.116-.082.175-.271.675-.538 1.35-.813 2.023-.157.382-.23.776-.228 1.188.004 1.957.002 3.914.002 5.87v.238h1.58c-.027-3.178-.062-6.336-.46-9.494Zm-11.397 9.5c.004-.07.009-.114.009-.158 0-2.023.01-4.046-.01-6.069-.003-.345-.096-.701-.21-1.032-.186-.546-.423-1.076-.64-1.612l-.255-.631c-.404 3.16-.443 6.324-.463 9.503h1.569ZM8.39 8.28c-.102.072-.175.12-.247.173-.226.165-.541.29-.654.508-.116.228-.04.547-.04.827 0 .36-.09.759.04 1.072.124.296.48.504.734.752.362.353.393.693.103 1.112l-.383.552 2.233 2.613.04-.026L8.39 8.28Zm3.4 7.593.038.02 2.236-2.618c-.144-.207-.282-.4-.415-.598-.25-.373-.214-.722.113-1.042.225-.222.462-.434.682-.661a.4.4 0 0 0 .112-.246c.01-.546.006-1.092.003-1.639 0-.055-.006-.133-.042-.16-.287-.218-.58-.425-.896-.652-.618 2.56-1.225 5.078-1.83 7.596Z"/>
</symbol>
<symbol id="location" viewBox="0 0 19 21">
	<path fill="#7D7" d="M10.804 8.366c0 .674-.636 1.355-1.595 1.355v1.5c1.63 0 3.095-1.204 3.095-2.855h-1.5ZM9.21 9.721c-.96 0-1.596-.681-1.596-1.355h-1.5c0 1.65 1.465 2.854 3.096 2.854v-1.5ZM7.613 8.366c0-.674.636-1.355 1.596-1.355v-1.5c-1.631 0-3.096 1.204-3.096 2.855h1.5ZM9.21 7.011c.96 0 1.595.681 1.595 1.355h1.5c0-1.65-1.464-2.855-3.095-2.855v1.5ZM9.21 19.94l-.397.638c.243.15.55.15.792 0l-.396-.637ZM3.403 3.135l-.497-.561.497.56Zm11.61 0 .498-.561-.498.56Zm1.654 5.15c0 2.976-1.876 5.707-3.89 7.763a24.758 24.758 0 0 1-3.637 3.041 13.953 13.953 0 0 1-.31.204l-.015.01-.003.002.396.637.396.637h.001l.002-.002a.217.217 0 0 0 .006-.004l.02-.013a9.252 9.252 0 0 0 .349-.23 26.248 26.248 0 0 0 3.867-3.233c2.09-2.133 4.318-5.23 4.318-8.811h-1.5ZM9.21 19.942a167.51 167.51 0 0 1 .396-.637l-.003-.002-.015-.01a22.173 22.173 0 0 1-1.21-.85 24.763 24.763 0 0 1-2.737-2.395C3.626 13.99 1.75 11.26 1.75 8.285H.25c0 3.58 2.228 6.678 4.319 8.811a26.25 26.25 0 0 0 3.866 3.233 16.164 16.164 0 0 0 .349.23l.02.013a.217.217 0 0 0 .009.006l.396-.637ZM1.75 8.285c0-1.702.761-3.356 2.152-4.59l-.995-1.122C1.219 4.07.25 6.123.25 8.285h1.5Zm2.152-4.59C5.296 2.458 7.204 1.75 9.21 1.75V.25c-2.349 0-4.617.827-6.302 2.323l.995 1.122ZM9.21 1.75c2.005 0 3.913.708 5.307 1.945l.996-1.122C13.827 1.077 11.558.25 9.209.25v1.5Zm5.307 1.945c1.391 1.234 2.152 2.888 2.152 4.59h1.5c0-2.162-.968-4.214-2.656-5.712l-.996 1.122Z"/>
</symbol>
<symbol id="location2" viewBox="0 0 21 26">
	<path fill="#0088DC" d="M12.408 10.333c0 .986-.822 1.816-1.874 1.816v1.7c1.956 0 3.574-1.557 3.574-3.516h-1.7Zm-1.874 1.816c-1.053 0-1.874-.83-1.874-1.816h-1.7c0 1.959 1.617 3.516 3.574 3.516v-1.7ZM8.66 10.333c0-.987.821-1.817 1.874-1.817v-1.7c-1.957 0-3.574 1.558-3.574 3.517h1.7Zm1.874-1.817c1.052 0 1.874.83 1.874 1.817h1.7c0-1.96-1.618-3.517-3.574-3.517v1.7ZM10.534 25l-.477.704a.85.85 0 0 0 .954 0L10.534 25ZM3.793 3.704 3.2 3.093l.592.61Zm13.483 0 .591-.611-.591.61Zm1.942 6.527c0 3.838-2.213 7.331-4.549 9.932a29.701 29.701 0 0 1-4.23 3.86 16.737 16.737 0 0 1-.361.26l-.017.01-.004.003.477.704a122.503 122.503 0 0 0 .478.703l.002-.002.007-.004.024-.017a11.798 11.798 0 0 0 .405-.29 31.418 31.418 0 0 0 4.484-4.09c2.431-2.708 4.985-6.6 4.985-11.07h-1.7ZM10.534 25l.477-.703-.003-.003A29.7 29.7 0 0 1 6.4 20.163c-2.336-2.6-4.55-6.094-4.55-9.932H.15c0 4.47 2.553 8.36 4.985 11.068a31.407 31.407 0 0 0 4.484 4.09 18.1 18.1 0 0 0 .404.291l.024.017.007.004a.031.031 0 0 1 .003.002l.477-.703ZM1.85 10.23c0-2.213.908-4.342 2.534-5.916L3.2 3.093C1.251 4.98.15 7.548.15 10.23h1.7Zm2.534-5.916C6.01 2.74 8.222 1.85 10.534 1.85V.15C7.79.15 5.151 1.206 3.201 3.093l1.183 1.221Zm6.15-2.464c2.312 0 4.524.89 6.15 2.464l1.183-1.221C15.917 1.206 13.28.15 10.534.15v1.7Zm6.15 2.464c1.627 1.574 2.534 3.703 2.534 5.917h1.7c0-2.683-1.1-5.25-3.05-7.138l-1.183 1.221Z"/>
</symbol>
<symbol id="metro" viewBox="0 0 17 11">
	<path fill="#fff" d="m8.544 11 2.654-4.411 1.1 2.987h-.888v1.314h5.3V9.576H15.7L11.89 0 8.544 5.896 5.194 0 1.388 9.576H.376v1.314h5.3V9.576h-.889L5.888 6.59 8.544 11Z"/>
</symbol>
<symbol id="phone" viewBox="0 0 24 27">
	<path stroke="#fff" stroke-miterlimit="10" stroke-width="2" d="M22.801 20.706c0 .426-.087.865-.27 1.29a4.942 4.942 0 0 1-.737 1.209c-.531.64-1.116 1.101-1.777 1.397a5.04 5.04 0 0 1-2.113.45c-1.105 0-2.285-.284-3.531-.864-1.246-.58-2.492-1.362-3.727-2.345a32.074 32.074 0 0 1-3.553-3.316 33.048 33.048 0 0 1-3.023-3.872c-.888-1.35-1.603-2.7-2.123-4.038-.52-1.35-.78-2.64-.78-3.872 0-.806.13-1.575.39-2.286a5.493 5.493 0 0 1 1.246-1.977c.693-.747 1.451-1.114 2.253-1.114.303 0 .607.071.878.214.281.142.53.355.725.663l2.514 3.872c.195.296.336.568.433.829.098.249.152.497.152.722 0 .284-.076.569-.228.841-.14.272-.346.557-.606.84l-.824.936a.666.666 0 0 0-.173.474c0 .095.01.178.032.272.033.095.065.166.087.237.195.391.531.9 1.008 1.516a39.416 39.416 0 0 0 1.57 1.87 33.917 33.917 0 0 0 1.723 1.742c.563.52 1.03.876 1.397 1.09.055.023.12.058.195.094a.69.69 0 0 0 .271.047.572.572 0 0 0 .444-.201l.824-.888c.27-.296.53-.521.78-.663.249-.166.498-.249.769-.249.206 0 .422.047.66.154.24.107.488.26.76.462l3.585 2.783c.282.213.477.461.596.757.108.296.173.593.173.924Z"/>
</symbol>
<symbol id="search" viewBox="0 0 20 19">
	<path fill="#0088DC" fill-rule="evenodd" d="M0 8.635C0 3.866 4.07 0 9.09 0s9.089 3.866 9.089 8.635-4.07 8.635-9.09 8.635S0 13.404 0 8.635ZM9.09 1.4c-4.207 0-7.616 3.24-7.616 7.235s3.41 7.235 7.615 7.235c4.206 0 7.616-3.24 7.616-7.235 0-3.996-3.41-7.235-7.616-7.235Z" clip-rule="evenodd"/>
	<path fill="#0088DC" fill-rule="evenodd" d="M14.573 13.844a.765.765 0 0 1 1.042 0l4.17 3.96a.675.675 0 0 1 0 .99.764.764 0 0 1-1.043 0l-4.169-3.96a.676.676 0 0 1 0-.99Z" clip-rule="evenodd"/>
</symbol>
<symbol id="tg" viewBox="0 0 24 20">
	<path fill="#fff" fill-rule="evenodd" d="M1.65 8.415c6.442-2.759 10.738-4.577 12.888-5.456C20.675.45 21.95.015 22.782 0c.182-.003.591.042.856.253.223.178.285.419.314.588.03.169.066.554.037.855-.332 3.434-1.771 11.768-2.503 15.614-.31 1.628-.92 2.173-1.51 2.227-1.284.116-2.259-.834-3.502-1.634-1.945-1.253-3.043-2.033-4.931-3.256-2.182-1.413-.768-2.19.476-3.46.325-.331 5.98-5.386 6.089-5.844.014-.058.026-.271-.103-.384-.13-.113-.32-.075-.457-.044-.196.044-3.303 2.062-9.322 6.055-.882.595-1.681.885-2.397.87-.789-.017-2.307-.438-3.435-.799C1.01 10.6-.09 10.365.006 9.614c.05-.39.598-.79 1.644-1.2Z" clip-rule="evenodd"/>
</symbol>
<symbol id="vk" viewBox="0 0 25 15">
	<path fill="#fff" fill-rule="evenodd" d="M24.426.993C24.6.42 24.426 0 23.6 0h-2.735c-.695 0-1.016.363-1.19.764 0 0-1.39 3.347-3.36 5.521-.638.63-.928.83-1.276.83-.174 0-.434-.2-.434-.772V.993c0-.687-.193-.993-.773-.993H9.533c-.434 0-.695.319-.695.62 0 .652.985.802 1.086 2.633V7.23c0 .872-.16 1.03-.507 1.03-.927 0-3.183-3.363-4.52-7.21C4.635.302 4.372 0 3.673 0H.938C.156 0 0 .363 0 .764c0 .715.927 4.263 4.317 8.955 2.26 3.204 5.445 4.94 8.342 4.94 1.739 0 1.954-.385 1.954-1.05v-2.421c0-.772.165-.926.715-.926.406 0 1.101.2 2.724 1.745 1.854 1.832 2.16 2.653 3.203 2.653h2.735c.781 0 1.172-.386.947-1.147-.247-.759-1.132-1.86-2.307-3.165-.638-.744-1.594-1.545-1.884-1.945-.405-.515-.29-.744 0-1.202 0 0 3.333-4.635 3.68-6.208Z" clip-rule="evenodd"/>
</symbol>
<symbol id="wash" viewBox="0 0 23 23">
	<path fill="#0088DC" stroke="#0088DC" stroke-width=".5" d="M21.54 1H1.46a.46.46 0 0 0-.46.46v20.08c0 .254.206.46.46.46h20.08a.46.46 0 0 0 .46-.46V1.46a.46.46 0 0 0-.46-.46Zm-.459.919V5.03H1.92V1.92H21.08ZM1.92 21.08V5.951H21.08v15.13H1.92Z"/>
	<path fill="#0088DC" stroke="#0088DC" stroke-width=".5" d="M11.5 7.438a6.124 6.124 0 0 0-6.117 6.118 6.124 6.124 0 0 0 6.117 6.117 6.124 6.124 0 0 0 6.117-6.117A6.124 6.124 0 0 0 11.5 7.438Zm0 .92a5.207 5.207 0 0 1 4.878 3.399c-1.198.095-1.883.562-2.494.98-.657.451-1.224.84-2.424.84s-1.767-.389-2.424-.84c-.598-.408-1.266-.865-2.415-.974a5.207 5.207 0 0 1 4.88-3.406Zm0 10.396a5.204 5.204 0 0 1-5.12-6.087c1.007.057 1.534.418 2.136.83.684.468 1.46.999 2.944.999 1.485 0 2.26-.531 2.943-1 .618-.423 1.157-.791 2.218-.834a5.205 5.205 0 0 1-5.12 6.092ZM17.733 3.866h1.554a.46.46 0 0 0 0-.918h-1.554a.46.46 0 0 0 0 .918ZM13.751 3.866h1.554a.46.46 0 0 0 0-.918h-1.554a.46.46 0 0 0 0 .918Z"/>
</symbol>
<symbol id="whatsapp" viewBox="0 0 25 25">
	<path fill="#fff" d="m0 24.228 1.752-6.218a11.683 11.683 0 0 1-1.645-6.005C.107 5.383 5.647 0 12.448 0c3.303 0 6.405 1.25 8.731 3.518 2.333 2.268 3.617 5.285 3.611 8.492 0 6.622-5.54 12.005-12.348 12.005h-.005c-2.066 0-4.097-.507-5.902-1.462L0 24.228Zm6.849-3.846.373.219c1.574.91 3.38 1.387 5.22 1.393h.006c5.653 0 10.258-4.474 10.258-9.978 0-2.666-1.065-5.17-3-7.059-1.936-1.888-4.517-2.925-7.258-2.925C6.795 2.027 2.19 6.5 2.19 12.005c0 1.882.539 3.719 1.569 5.308l.242.38-1.035 3.68 3.883-.991Z"/>
	<path fill="url(#whatsapp-a)" d="m0 24.228 1.752-6.218a11.683 11.683 0 0 1-1.645-6.005C.107 5.383 5.647 0 12.448 0c3.303 0 6.405 1.25 8.731 3.518 2.333 2.268 3.617 5.285 3.611 8.492 0 6.622-5.54 12.005-12.348 12.005h-.005c-2.066 0-4.097-.507-5.902-1.462L0 24.228Zm6.849-3.846.373.219c1.574.91 3.38 1.387 5.22 1.393h.006c5.653 0 10.258-4.474 10.258-9.978 0-2.666-1.065-5.17-3-7.059-1.936-1.888-4.517-2.925-7.258-2.925C6.795 2.027 2.19 6.5 2.19 12.005c0 1.882.539 3.719 1.569 5.308l.242.38-1.035 3.68 3.883-.991Z"/>
	<path fill="#fff" fill-rule="evenodd" d="M9.364 6.984c-.23-.5-.473-.512-.692-.518-.178-.006-.385-.006-.592-.006a1.15 1.15 0 0 0-.823.375c-.284.3-1.077 1.025-1.077 2.504 0 1.474 1.107 2.902 1.26 3.104.154.201 2.137 3.328 5.269 4.53 2.604 1.003 3.137.801 3.7.75.562-.052 1.822-.726 2.083-1.429.254-.702.254-1.3.177-1.428-.076-.126-.284-.201-.591-.35-.308-.15-1.824-.876-2.108-.98-.284-.097-.491-.15-.692.15-.208.3-.8.973-.977 1.175-.178.201-.361.224-.669.075-.308-.15-1.302-.467-2.48-1.492-.918-.794-1.54-1.779-1.717-2.078-.177-.3-.017-.46.136-.61.137-.133.308-.352.462-.524.154-.173.207-.3.308-.501.1-.202.053-.374-.024-.524-.077-.144-.68-1.63-.953-2.223Z" clip-rule="evenodd"/>

</symbol>
</svg>