<svg width="36" height="36" viewBox="0 0 36 36" fill="none" xmlns="http://www.w3.org/2000/svg">
<g clip-path="url(#clip0_1_489)">
<path d="M26.7156 21.4398C20.4599 21.4716 19.448 25.3867 19.1107 28.697L18.9574 30.1612H17.7001L17.5468 28.697C17.2095 25.3867 16.1669 21.4716 10.1259 21.4398C9.11398 19.2752 8.68467 17.5246 8.68467 15.5511C8.68467 10.6175 12.5791 6.00202 18.344 6.00202C24.109 6.00202 27.9421 10.5855 27.9421 15.5831C27.9422 17.5246 27.7582 19.2752 26.7156 21.4398ZM18.2828 0.0179443C8.77675 0.0179443 0.987793 8.10288 0.987793 18.0019C0.987793 27.9331 8.77675 36.0179 18.2828 36.0179C27.8808 36.0179 35.639 27.9331 35.639 18.0019C35.639 8.10291 27.8808 0.0179443 18.2828 0.0179443Z" fill="#29B24A"/>
</g>
<defs>
<clipPath id="clip0_1_489">
<rect width="36" height="36" fill="white"/>
</clipPath>
</defs>
</svg>
