<svg width="22" height="27" viewBox="0 0 22 27" fill="none" xmlns="http://www.w3.org/2000/svg">
<path d="M2.44284 26.0003C2.41426 25.9853 2.38704 25.9651 2.35574 25.9567C1.48745 25.7245 1.00907 25.1298 1.00771 24.2598C1.00431 22.3315 1.00635 20.4038 1.00703 18.4754C1.00771 16.0593 0.985254 13.6425 1.01724 11.227C1.06011 7.96246 3.7412 5.14592 7.1368 4.81724C8.16296 4.71812 9.20545 4.77225 10.2405 4.75594C10.3398 4.75464 10.4392 4.75594 10.5678 4.75594C10.5678 4.48466 10.5637 4.24207 10.5685 4.00013C10.5759 3.66558 10.7086 3.53125 11.0543 3.49668C11.5531 3.44647 11.8865 3.09367 11.8695 2.63392C11.8539 2.20482 11.4823 1.85071 11.0319 1.83571C10.5623 1.82006 10.1847 2.15265 10.1357 2.62609C10.105 2.9202 9.93357 3.09432 9.68315 3.08454C9.41981 3.0741 9.25921 2.87586 9.26942 2.57262C9.2946 1.79332 9.94922 1.12293 10.791 1.01403C11.6157 0.907079 12.4337 1.42226 12.6705 2.19764C12.912 2.98802 12.5174 3.82796 11.7382 4.17751C11.3946 4.33206 11.3932 4.33402 11.4721 4.75594C11.5572 4.75594 11.6484 4.75594 11.7396 4.75594C12.5378 4.7566 13.336 4.74812 14.1335 4.7592C17.5515 4.80681 20.4068 7.18773 20.922 10.4256C20.9818 10.8012 20.9948 11.1872 20.9955 11.5687C21.0002 15.7665 20.9989 19.9642 20.9982 24.162C20.9982 25.1454 20.5872 25.6756 19.5998 25.9697C19.5855 25.9743 19.5746 25.9899 19.5624 26.0003C13.8565 26.0003 8.15003 26.0003 2.44284 26.0003ZM11.0094 25.1689C13.7096 25.1689 16.4104 25.1689 19.1105 25.1689C19.8012 25.1689 20.1299 24.8578 20.1299 24.2024C20.1306 19.9714 20.1319 15.7404 20.1272 11.5087C20.1265 11.1683 20.1129 10.8227 20.0523 10.4882C19.5222 7.58944 17.0453 5.59523 13.977 5.58937C11.99 5.58545 10.003 5.58089 8.01597 5.59458C7.56958 5.59784 7.11366 5.63306 6.67815 5.72631C3.81537 6.33605 1.88213 8.65241 1.87804 11.4722C1.87124 15.7117 1.876 19.9505 1.87668 24.19C1.87668 24.8624 2.19991 25.1682 2.90829 25.1689C5.60844 25.1689 8.30926 25.1689 11.0094 25.1689Z" fill="#0088DC" stroke="#0088DC" stroke-width="0.4"/>
<path d="M5.8713 22.0003C5.37932 22.0003 4.91795 22.0009 4.45658 22.0003C3.80264 21.9996 3.4937 21.7166 3.50935 21.0977C3.56788 18.7722 3.60122 16.4454 3.7135 14.1226C3.77202 12.9168 3.96596 11.7155 4.11634 10.515C4.18643 9.9548 4.50966 9.54853 5.04248 9.30072C5.1881 9.2329 5.33032 9.15855 5.47731 9.0953C6.39391 8.6988 7.25064 8.21036 8.02571 7.59345C8.33396 7.34825 8.69462 7.24456 9.09678 7.24586C10.3686 7.25043 11.6404 7.24978 12.9122 7.24586C13.3049 7.24456 13.6648 7.33912 13.9643 7.5804C14.8026 8.25601 15.743 8.77184 16.742 9.1866C17.4755 9.49114 17.8641 10.0031 17.943 10.755C18.0608 11.8779 18.2445 12.9983 18.2962 14.1239C18.401 16.403 18.4235 18.6855 18.5078 20.966C18.5378 21.7701 18.0934 22.0485 17.4109 22.0055C16.9978 21.9794 16.5814 22.0009 16.137 22.0009C16.137 22.2435 16.1391 22.4698 16.1364 22.6961C16.1309 23.1969 15.8056 23.5099 15.2803 23.5112C14.2399 23.5145 13.1987 23.5034 12.1583 23.5165C11.7922 23.521 11.4914 23.4278 11.26 23.1545C11.1879 23.0691 11.1233 22.9778 11.0362 22.8643C10.8654 23.0345 10.7503 23.1519 10.6319 23.266C10.4611 23.4317 10.2522 23.5119 10.0086 23.5119C8.90625 23.5112 7.80387 23.5145 6.70149 23.5106C6.20406 23.5086 5.87811 23.191 5.87062 22.7163C5.8679 22.4881 5.8713 22.2605 5.8713 22.0003ZM6.6593 22.7561C6.76614 22.7561 6.84915 22.7561 6.93217 22.7561C7.78754 22.7561 8.64426 22.7352 9.49827 22.7652C9.89362 22.7796 10.1903 22.6915 10.4401 22.3935C10.5476 22.265 10.6129 22.1535 10.6122 21.9853C10.6061 20.5897 10.6115 19.1935 10.6027 17.7979C10.602 17.678 10.5517 17.5351 10.4727 17.4419C9.4656 16.2472 8.44965 15.059 7.43505 13.8702C7.07167 13.4437 7.05942 13.1776 7.38401 12.7127C7.49901 12.5483 7.61197 12.3827 7.73174 12.2092C7.47179 11.9601 7.2275 11.7149 6.9696 11.4834C6.74572 11.2825 6.64909 11.0452 6.6559 10.753C6.66611 10.3056 6.65862 9.85764 6.65862 9.36854C6.15983 9.61309 5.69302 9.83481 5.23369 10.0702C5.05745 10.1602 5.0139 10.29 5.09828 10.4928C5.52902 11.5264 5.93595 12.5698 6.36057 13.6061C6.56607 14.1076 6.66338 14.6214 6.66202 15.1614C6.65454 17.5984 6.65862 20.0361 6.65862 22.4731C6.6593 22.5585 6.6593 22.6452 6.6593 22.7561ZM15.349 22.7456C15.349 22.6296 15.349 22.5415 15.349 22.4535C15.349 20.0093 15.3524 17.5645 15.3463 15.1203C15.345 14.6025 15.4416 14.1102 15.6376 13.6302C16.0567 12.5998 16.4684 11.5669 16.8835 10.5352C17.0006 10.2437 16.9781 10.1635 16.6801 10.0128C16.2718 9.80677 15.8553 9.61504 15.4416 9.41875C15.4184 9.40767 15.3885 9.41093 15.3497 9.40571C15.3497 9.86351 15.3416 10.3063 15.3524 10.7484C15.3599 11.0497 15.2551 11.2904 15.0258 11.4964C14.7693 11.7266 14.527 11.9718 14.278 12.2105C14.4066 12.3964 14.5216 12.562 14.6366 12.7277C14.9462 13.1737 14.9312 13.4541 14.5774 13.8689C13.5628 15.0577 12.5468 16.2452 11.539 17.4399C11.4608 17.5332 11.4077 17.6753 11.407 17.7953C11.3975 19.0879 11.4165 20.3804 11.392 21.6722C11.3846 22.0648 11.4703 22.3668 11.799 22.612C11.9215 22.7033 12.0249 22.7613 12.1841 22.76C13.1552 22.7535 14.1262 22.7567 15.0973 22.7561C15.1714 22.7554 15.2463 22.7496 15.349 22.7456ZM9.13625 8.01016C9.7514 10.5672 10.3632 13.1098 10.9756 15.6524C10.9953 15.6518 11.0144 15.6511 11.0341 15.6511C11.6459 13.1085 12.2583 10.5658 12.8735 8.01081C11.6125 8.01016 10.389 8.01016 9.13625 8.01016ZM17.2585 11.7319C17.2312 11.7905 17.2013 11.8479 17.1775 11.9073C16.906 12.5816 16.6392 13.2565 16.3636 13.9295C16.2071 14.3123 16.1343 14.7056 16.1357 15.1177C16.1404 17.0747 16.1377 19.0318 16.1377 20.9888C16.1377 21.0671 16.1377 21.1453 16.1377 21.2262C16.6787 21.2262 17.1897 21.2262 17.7171 21.2262C17.6913 18.0484 17.6559 14.8895 17.2585 11.7319ZM5.86178 21.2321C5.86586 21.1623 5.87062 21.1179 5.87062 21.0742C5.87062 19.0513 5.88083 17.0284 5.8611 15.0055C5.85769 14.6599 5.76515 14.3038 5.65151 13.9726C5.46506 13.4267 5.22757 12.8972 5.01186 12.3612C4.9268 12.1505 4.84174 11.9399 4.756 11.7299C4.35179 14.8895 4.313 18.0542 4.29259 21.2327C4.83221 21.2321 5.33781 21.2321 5.86178 21.2321ZM8.39044 8.27949C8.28837 8.35057 8.21488 8.39948 8.14343 8.45165C7.91683 8.61664 7.60177 8.74119 7.48949 8.96031C7.37312 9.1879 7.44934 9.50744 7.44866 9.78655C7.44866 10.1472 7.35951 10.5456 7.48949 10.8587C7.61265 11.1554 7.96923 11.3634 8.22304 11.6106C8.58506 11.964 8.61636 12.3038 8.3258 12.7231C8.19923 12.9057 8.07266 13.0889 7.94337 13.2754C8.69462 14.1545 9.43566 15.0212 10.176 15.8879C10.189 15.8794 10.2019 15.8709 10.2155 15.8624C9.61055 13.3504 9.0056 10.8378 8.39044 8.27949ZM11.7901 15.8716C11.8031 15.8787 11.8153 15.8853 11.8282 15.8924C12.572 15.0218 13.3151 14.1506 14.0636 13.2741C13.92 13.0674 13.7819 12.8737 13.6492 12.6761C13.3981 12.3031 13.4348 11.9542 13.7615 11.634C13.9874 11.4123 14.2242 11.1997 14.444 10.9728C14.5046 10.9102 14.5542 10.8104 14.5556 10.7269C14.5651 10.1811 14.5617 9.63461 14.559 9.08812C14.559 9.03335 14.5529 8.95509 14.5168 8.92705C14.2303 8.70989 13.9364 8.50251 13.6206 8.27557C13.0027 10.8365 12.3964 13.3537 11.7901 15.8716Z" fill="#0088DC" stroke="#0088DC" stroke-width="0.4"/>
</svg>
