<svg width="36" height="36" viewBox="0 0 36 36" fill="none" xmlns="http://www.w3.org/2000/svg">
<path d="M11.9004 26.6622C13.0097 28.0496 14.1394 29.7939 14.7306 30.8476C15.4506 32.2174 15.7492 33.1422 16.2848 34.7988C16.598 35.7061 16.8965 35.9813 17.5228 35.9813C18.2077 35.9813 18.5209 35.5188 18.7609 34.7988C19.2614 33.2447 19.6477 32.0622 20.2594 30.9354C22.6184 26.4866 26.4643 23.3256 28.6301 18.9939C28.6301 18.9939 30.0555 16.3481 30.0555 12.6427C30.0555 9.18906 28.6506 6.78906 28.6506 6.78906L11.9092 26.6915L11.9004 26.6622Z" fill="#34A853"/>
<path d="M6.22166 18.5224C7.57093 21.5956 10.1436 24.2883 11.8997 26.659L21.207 15.6249C21.207 15.6249 19.8929 17.3458 17.5192 17.3458C14.8734 17.3458 12.7192 15.2385 12.7192 12.5751C12.7192 10.7429 13.8109 9.47266 13.8109 9.47266C6.96215 10.4912 7.34264 12.1507 6.20117 18.5166L6.22166 18.5224Z" fill="#FBBC04"/>
<path d="M21.3237 0.601562C24.4262 1.59961 27.0603 3.704 28.6408 6.77717L21.2067 15.6455C21.2067 15.6455 22.2984 14.3694 22.2984 12.543C22.2984 9.824 20.0037 7.77229 17.5276 7.77229C15.1774 7.77229 13.8398 9.47278 13.8398 9.47278C14.4106 8.17327 20.3081 1.04351 21.3325 0.604489L21.3237 0.601562Z" fill="#4285F4"/>
<path d="M7.91992 4.50539C9.76968 2.30442 13.0126 0.0273438 17.4907 0.0273438C19.6536 0.0273438 21.2955 0.601002 21.2955 0.601002L13.8321 9.4693C13.3287 9.19622 8.41748 5.37173 7.91992 4.49369V4.50539Z" fill="#1A73E8"/>
<path d="M6.22049 18.5254C6.22049 18.5254 5 16.102 5 12.6132C5 9.30589 6.29366 6.40833 7.92683 4.53516L13.839 9.51077L6.22927 18.5254H6.22049Z" fill="#EA4335"/>
</svg>
