<svg width="19" height="21" viewBox="0 0 19 21" fill="none" xmlns="http://www.w3.org/2000/svg">
<path d="M10.8042 8.36599C10.8042 9.03968 10.1684 9.72051 9.20876 9.72051V11.2205C10.8398 11.2205 12.3042 10.0169 12.3042 8.36599H10.8042ZM9.20876 9.72051C8.24907 9.72051 7.61328 9.03968 7.61328 8.36599H6.11328C6.11328 10.0169 7.57771 11.2205 9.20876 11.2205V9.72051ZM7.61328 8.36599C7.61328 7.69231 8.24907 7.01147 9.20876 7.01147V5.51147C7.57771 5.51147 6.11328 6.71509 6.11328 8.36599H7.61328ZM9.20876 7.01147C10.1684 7.01147 10.8042 7.69231 10.8042 8.36599H12.3042C12.3042 6.71509 10.8398 5.51147 9.20876 5.51147V7.01147Z" fill="#77DD77"/>
<path d="M9.20915 19.9407L8.8134 20.5778C9.05576 20.7283 9.36254 20.7283 9.6049 20.5778L9.20915 19.9407ZM3.4044 3.13369L2.9066 2.57272L3.4044 3.13369ZM15.0139 3.13369L15.5117 2.57272L15.0139 3.13369ZM16.6683 8.28487C16.6683 11.2603 14.7919 13.9913 12.778 16.0465C11.7847 17.0602 10.7887 17.8781 10.0402 18.4427C9.66657 18.7245 9.35624 18.942 9.14091 19.088C9.03328 19.161 8.94951 19.2161 8.89357 19.2523C8.86561 19.2705 8.84461 19.2839 8.83108 19.2924C8.82431 19.2967 8.81942 19.2998 8.81645 19.3017C8.81496 19.3026 8.81396 19.3032 8.81345 19.3036C8.8132 19.3037 8.81307 19.3038 8.81306 19.3038C8.81305 19.3038 8.81314 19.3037 8.81314 19.3038C8.81325 19.3037 8.8134 19.3036 9.20915 19.9407C9.6049 20.5778 9.60511 20.5776 9.60535 20.5775C9.60548 20.5774 9.60575 20.5772 9.606 20.5771C9.60649 20.5768 9.6071 20.5764 9.60784 20.5759C9.60932 20.575 9.61129 20.5738 9.61375 20.5722C9.61868 20.5691 9.62555 20.5648 9.63432 20.5592C9.65185 20.5481 9.67695 20.5321 9.70911 20.5113C9.77343 20.4696 9.86603 20.4087 9.98287 20.3295C10.2165 20.171 10.5475 19.9389 10.9435 19.6402C11.7342 19.0438 12.7905 18.177 13.8494 17.0963C15.9401 14.9627 18.1683 11.8658 18.1683 8.28487H16.6683ZM9.20915 19.9407C9.6049 19.3036 9.60505 19.3037 9.60517 19.3038C9.60516 19.3037 9.60525 19.3038 9.60525 19.3038C9.60524 19.3038 9.6051 19.3037 9.60485 19.3036C9.60434 19.3032 9.60334 19.3026 9.60185 19.3017C9.59889 19.2998 9.59399 19.2967 9.58722 19.2924C9.57369 19.2839 9.55269 19.2705 9.52473 19.2523C9.46879 19.2161 9.38502 19.161 9.2774 19.088C9.06207 18.942 8.75173 18.7245 8.37812 18.4427C7.62962 17.8781 6.63361 17.0602 5.64026 16.0465C3.62638 13.9913 1.75 11.2603 1.75 8.28487H0.25C0.25 11.8658 2.47819 14.9627 4.56889 17.0963C5.62782 18.177 6.68411 19.0438 7.47483 19.6402C7.87081 19.9389 8.20182 20.171 8.43543 20.3295C8.55228 20.4087 8.64487 20.4696 8.70919 20.5113C8.74135 20.5321 8.76645 20.5481 8.78398 20.5592C8.79275 20.5648 8.79962 20.5691 8.80455 20.5722C8.80701 20.5738 8.80898 20.575 8.81046 20.5759C8.8112 20.5764 8.81182 20.5768 8.81231 20.5771C8.81255 20.5772 8.81282 20.5774 8.81295 20.5775C8.81319 20.5776 8.8134 20.5778 9.20915 19.9407ZM1.75 8.28487C1.75 6.58259 2.51125 4.92901 3.90221 3.69466L2.9066 2.57272C1.21853 4.07073 0.25 6.12302 0.25 8.28487H1.75ZM3.90221 3.69466C5.29609 2.45772 7.20386 1.75 9.20915 1.75V0.25C6.86004 0.25 4.59175 1.0773 2.9066 2.57272L3.90221 3.69466ZM9.20915 1.75C11.2144 1.75 13.1222 2.45772 14.5161 3.69466L15.5117 2.57272C13.8266 1.0773 11.5583 0.25 9.20915 0.25V1.75ZM14.5161 3.69466C15.9071 4.92901 16.6683 6.58259 16.6683 8.28487H18.1683C18.1683 6.12302 17.1998 4.07073 15.5117 2.57272L14.5161 3.69466Z" fill="#77DD77"/>
</svg>
