<svg width="24" height="27" viewBox="0 0 24 27" fill="none" xmlns="http://www.w3.org/2000/svg">
<path d="M22.801 20.7061C22.801 21.1324 22.7144 21.5706 22.5302 21.9969C22.346 22.4232 22.1077 22.8258 21.7935 23.2047C21.2627 23.8442 20.6777 24.306 20.0169 24.6021C19.3669 24.8981 18.6627 25.0521 17.9044 25.0521C16.7994 25.0521 15.6186 24.7679 14.3727 24.1876C13.1269 23.6074 11.8811 22.8258 10.6461 21.8429C9.40028 20.8482 8.21945 19.7469 7.09279 18.5272C5.97696 17.2957 4.96947 16.0049 4.07031 14.6549C3.18198 13.305 2.46698 11.955 1.94699 10.6169C1.42699 9.26691 1.16699 7.97615 1.16699 6.7446C1.16699 5.93935 1.29699 5.16964 1.55699 4.45913C1.81699 3.73677 2.22865 3.07363 2.80282 2.48154C3.49614 1.7355 4.25447 1.36841 5.05614 1.36841C5.35947 1.36841 5.6628 1.43946 5.93363 1.58156C6.21529 1.72366 6.46446 1.93682 6.65946 2.2447L9.17278 6.11698C9.36778 6.41303 9.50861 6.68539 9.60611 6.94591C9.70361 7.19459 9.75777 7.44327 9.75777 7.66826C9.75777 7.95246 9.68194 8.23667 9.53027 8.50903C9.38944 8.78139 9.18361 9.0656 8.92361 9.3498L8.10028 10.2853C7.98112 10.4156 7.92695 10.5695 7.92695 10.759C7.92695 10.8537 7.93778 10.9366 7.95945 11.0313C7.99195 11.1261 8.02445 11.1971 8.04612 11.2682C8.24112 11.659 8.57695 12.1682 9.05361 12.7839C9.54111 13.3997 10.0611 14.0273 10.6244 14.6549C11.2094 15.2826 11.7728 15.8628 12.3469 16.3957C12.9103 16.9167 13.3761 17.272 13.7444 17.4851C13.7986 17.5088 13.8636 17.5443 13.9394 17.5799C14.0261 17.6154 14.1127 17.6272 14.2102 17.6272C14.3944 17.6272 14.5352 17.5562 14.6544 17.4259L15.4777 16.5378C15.7486 16.2417 16.0086 16.0167 16.2577 15.8746C16.5069 15.7089 16.7561 15.626 17.0269 15.626C17.2327 15.626 17.4494 15.6733 17.6877 15.7799C17.9261 15.8865 18.1752 16.0404 18.4461 16.2417L22.0319 19.0246C22.3135 19.2377 22.5085 19.4864 22.6277 19.7824C22.736 20.0785 22.801 20.3745 22.801 20.7061Z" stroke="white" stroke-width="2" stroke-miterlimit="10"/>
</svg>
