<svg width="24" height="20" viewBox="0 0 24 20" fill="none" xmlns="http://www.w3.org/2000/svg">
<path fill-rule="evenodd" clip-rule="evenodd" d="M1.64987 8.41459C8.09231 5.65615 12.3883 3.83761 14.5378 2.95898C20.675 0.450324 21.9503 0.0145432 22.7815 0.000153427C22.9643 -0.00301144 23.3731 0.0415139 23.6379 0.252657C23.8614 0.430942 23.9229 0.671779 23.9524 0.840813C23.9818 1.00985 24.0185 1.39491 23.9893 1.69579C23.6568 5.12995 22.2177 13.4638 21.4856 17.3101C21.1758 18.9376 20.5658 19.4833 19.9753 19.5367C18.6919 19.6528 17.7174 18.7032 16.4744 17.9025C14.5294 16.6495 13.4305 15.8695 11.5425 14.6468C9.36064 13.2337 10.7751 12.4571 12.0185 11.1879C12.344 10.8557 17.9985 5.80121 18.1079 5.34269C18.1216 5.28535 18.1343 5.07159 18.0051 4.95872C17.8759 4.84585 17.6851 4.88445 17.5475 4.91514C17.3524 4.95865 14.2452 6.97699 8.22584 10.9701C7.34386 11.5653 6.545 11.8553 5.82924 11.8401C5.04017 11.8234 3.52233 11.4017 2.39397 11.0412C1.00999 10.5991 -0.0899676 10.3653 0.00581422 9.61449C0.0557033 9.2234 0.603723 8.82343 1.64987 8.41459Z" fill="white"/>
</svg>
