<svg width="25" height="15" viewBox="0 0 25 15" fill="none" xmlns="http://www.w3.org/2000/svg">
<path fill-rule="evenodd" clip-rule="evenodd" d="M24.4263 0.992673C24.6001 0.420464 24.4263 0 23.5992 0H20.8642C20.1688 0 19.8482 0.363219 19.6743 0.763742C19.6743 0.763742 18.2835 4.11113 16.3132 6.28548C15.6757 6.91488 15.3859 7.11514 15.0382 7.11514C14.8644 7.11514 14.6036 6.91488 14.6036 6.34272V0.992673C14.6036 0.306022 14.4109 0 13.8313 0H9.53347C9.09889 0 8.83753 0.31869 8.83753 0.620725C8.83753 1.27166 9.82264 1.42177 9.92419 3.25284V7.22963C9.92419 8.10153 9.76472 8.25961 9.417 8.25961C8.48982 8.25961 6.23445 4.89727 4.8968 1.04987C4.63466 0.302069 4.37173 0 3.67274 0H0.937727C0.156296 0 0 0.363219 0 0.763742C0 1.47901 0.92723 5.02666 4.31733 9.71868C6.57738 12.923 9.76165 14.6599 12.6592 14.6599C14.3977 14.6599 14.6128 14.2741 14.6128 13.6096V11.1878C14.6128 10.4163 14.7775 10.2623 15.328 10.2623C15.7336 10.2623 16.4291 10.4625 18.0517 12.0075C19.9061 13.8385 20.2119 14.6599 21.2549 14.6599H23.99C24.7714 14.6599 25.1621 14.2741 24.9367 13.5128C24.69 12.754 23.8047 11.6531 22.6298 10.3481C21.9924 9.60424 21.0362 8.80319 20.7464 8.40258C20.3408 7.88766 20.4567 7.65873 20.7464 7.20101C20.7464 7.20101 24.0786 2.56619 24.4263 0.992673Z" fill="white"/>
</svg>
