<svg width="25" height="25" viewBox="0 0 25 25" fill="none" xmlns="http://www.w3.org/2000/svg">
<path d="M0 24.228L1.75212 18.0098C0.668884 16.1846 0.100629 14.1177 0.106548 12.0046C0.106548 5.38337 5.64704 0 12.4483 0C15.7513 0 18.8531 1.2494 21.1794 3.5179C23.5116 5.7864 24.7961 8.80339 24.7901 12.0104C24.7901 18.6316 19.2497 24.015 12.4424 24.015H12.4365C10.3707 24.015 8.34033 23.5083 6.53494 22.5526L0 24.228ZM6.84866 20.3819L7.22158 20.6007C8.79612 21.5104 10.6015 21.9883 12.4424 21.9941H12.4483C18.1013 21.9941 22.7065 17.5204 22.7065 12.0161C22.7065 9.35036 21.6411 6.8458 19.7054 4.9573C17.7698 3.06881 15.189 2.03244 12.4483 2.03244C6.79539 2.02668 2.19015 6.50034 2.19015 12.0046C2.19015 13.8874 2.72881 15.724 3.75877 17.3131L4.00147 17.6931L2.96558 21.3723L6.84866 20.3819Z" fill="white"/>
<path d="M0 24.228L1.75212 18.0098C0.668884 16.1846 0.100629 14.1177 0.106548 12.0046C0.106548 5.38337 5.64704 0 12.4483 0C15.7513 0 18.8531 1.2494 21.1794 3.5179C23.5116 5.7864 24.7961 8.80339 24.7901 12.0104C24.7901 18.6316 19.2497 24.015 12.4424 24.015H12.4365C10.3707 24.015 8.34033 23.5083 6.53494 22.5526L0 24.228ZM6.84866 20.3819L7.22158 20.6007C8.79612 21.5104 10.6015 21.9883 12.4424 21.9941H12.4483C18.1013 21.9941 22.7065 17.5204 22.7065 12.0161C22.7065 9.35036 21.6411 6.8458 19.7054 4.9573C17.7698 3.06881 15.189 2.03244 12.4483 2.03244C6.79539 2.02668 2.19015 6.50034 2.19015 12.0046C2.19015 13.8874 2.72881 15.724 3.75877 17.3131L4.00147 17.6931L2.96558 21.3723L6.84866 20.3819Z" fill="url(#paint0_linear_1756_1369)"/>
<path fill-rule="evenodd" clip-rule="evenodd" d="M9.36428 6.98439C9.13343 6.48348 8.89073 6.47196 8.67172 6.46621C8.49414 6.46045 8.28696 6.46045 8.07979 6.46045C7.87261 6.46045 7.54113 6.5353 7.257 6.83469C6.97288 7.13409 6.17969 7.85955 6.17969 9.33925C6.17969 10.8132 7.2866 12.2411 7.4405 12.4426C7.5944 12.6441 9.57737 15.7705 12.7087 16.9738C15.3132 17.9757 15.8459 17.7741 16.4083 17.7223C16.9706 17.6705 18.2314 16.9969 18.4919 16.2944C18.7464 15.592 18.7464 14.9932 18.6694 14.8665C18.5925 14.7399 18.3853 14.665 18.0775 14.5153C17.7697 14.3656 16.2544 13.6402 15.9702 13.5365C15.6861 13.4387 15.4789 13.3868 15.2777 13.6862C15.0705 13.9856 14.4786 14.6593 14.301 14.8608C14.1234 15.0623 13.9399 15.0853 13.6321 14.9356C13.3243 14.7859 12.3299 14.4693 11.1519 13.4444C10.2344 12.6499 9.61289 11.6653 9.43531 11.3659C9.25773 11.0665 9.41755 10.9053 9.57145 10.7556C9.7076 10.6232 9.87926 10.4044 10.0332 10.2317C10.1871 10.0589 10.2403 9.93228 10.341 9.73077C10.4416 9.52925 10.3942 9.35652 10.3173 9.20682C10.2403 9.06288 9.63657 7.57742 9.36428 6.98439Z" fill="white"/>
<defs>
<linearGradient id="paint0_linear_1756_1369" x1="12.3975" y1="24.2257" x2="12.3975" y2="0" gradientUnits="userSpaceOnUse">
<stop stop-color="#F9F9F9"/>
<stop offset="1" stop-color="white"/>
</linearGradient>
</defs>
</svg>
