<svg width="36" height="36" viewBox="0 0 36 36" fill="none" xmlns="http://www.w3.org/2000/svg">
<g clip-path="url(#clip0_1_560)">
<path d="M18.2941 0.265625C10.3995 0.265625 4 6.6651 4 14.5597C4 18.5056 5.5988 22.0784 8.1846 24.665C10.7711 27.2529 16.8647 30.998 17.2221 34.9289C17.2756 35.5183 17.7023 36.0009 18.2941 36.0009C18.8859 36.0009 19.3126 35.5183 19.3662 34.9289C19.7235 30.998 25.8171 27.2529 28.4036 24.665C30.9894 22.0784 32.5882 18.5056 32.5882 14.5597C32.5882 6.6651 26.1888 0.265625 18.2941 0.265625Z" fill="#FF4433"/>
<path d="M18.0029 19.5606C20.766 19.5606 23.0058 17.3207 23.0058 14.5576C23.0058 11.7946 20.766 9.55469 18.0029 9.55469C15.2399 9.55469 13 11.7946 13 14.5576C13 17.3207 15.2399 19.5606 18.0029 19.5606Z" fill="white"/>
</g>
<defs>
<clipPath id="clip0_1_560">
<rect width="36" height="36" fill="white"/>
</clipPath>
</defs>
</svg>
