<svg width="33" height="29" viewBox="0 0 33 29" fill="none" xmlns="http://www.w3.org/2000/svg">
<path d="M11.8884 2.41669L7.05133 6.80294" stroke="white" stroke-width="2" stroke-miterlimit="10" stroke-linecap="round" stroke-linejoin="round"/>
<path d="M20.4133 2.41669L25.2504 6.80294" stroke="white" stroke-width="2" stroke-miterlimit="10" stroke-linecap="round" stroke-linejoin="round"/>
<path d="M2.78888 9.48539C2.78888 7.24998 4.11172 7.06873 5.75524 7.06873H26.5465C28.19 7.06873 29.5129 7.24998 29.5129 9.48539C29.5129 12.0833 28.19 11.9021 26.5465 11.9021H5.75524C4.11172 11.9021 2.78888 12.0833 2.78888 9.48539Z" stroke="white" stroke-width="2"/>
<path d="M13.1578 16.9167V21.2063" stroke="white" stroke-width="2" stroke-linecap="round"/>
<path d="M19.3043 16.9167V21.2063" stroke="white" stroke-width="2" stroke-linecap="round"/>
<path d="M4.79315 12.0833L6.67719 22.5233C7.10478 24.8675 8.13365 26.5833 11.9552 26.5833H20.0125C24.168 26.5833 24.7827 24.94 25.2637 22.6683L27.5085 12.0833" stroke="white" stroke-width="2" stroke-linecap="round"/>
</svg>
