<svg width="22" height="22" viewBox="0 0 22 22" fill="none" xmlns="http://www.w3.org/2000/svg">
<path d="M21.7105 17.5109C21.7105 17.893 21.6254 18.2858 21.4447 18.668C21.2639 19.0502 21.03 19.4111 20.7217 19.7509C20.2007 20.3241 19.6266 20.7382 18.978 21.0036C18.3401 21.269 17.649 21.407 16.9048 21.407C15.8203 21.407 14.6614 21.1522 13.4387 20.632C12.2161 20.1118 10.9934 19.4111 9.78133 18.53C8.55865 17.6383 7.39975 16.651 6.29402 15.5575C5.19892 14.4534 4.21014 13.2963 3.32769 12.0861C2.45586 10.8758 1.75415 9.66558 1.24381 8.46597C0.733471 7.25573 0.478302 6.09858 0.478302 4.99451C0.478302 4.27261 0.605886 3.58257 0.861055 2.9456C1.11622 2.29802 1.52024 1.70352 2.08374 1.17272C2.76419 0.503903 3.50843 0.174805 4.2952 0.174805C4.5929 0.174805 4.8906 0.238501 5.1564 0.365894C5.43283 0.493287 5.67737 0.684377 5.86874 0.960395L8.33537 4.43185C8.52675 4.69726 8.66497 4.94143 8.76066 5.17498C8.85634 5.39792 8.9095 5.62086 8.9095 5.82256C8.9095 6.07735 8.83508 6.33213 8.68623 6.5763C8.54801 6.82047 8.34601 7.07526 8.09084 7.33005L7.2828 8.16872C7.16585 8.28549 7.11269 8.4235 7.11269 8.59336C7.11269 8.67829 7.12332 8.7526 7.14459 8.83753C7.17648 8.92246 7.20838 8.98615 7.22964 9.04985C7.42102 9.40018 7.75061 9.85667 8.21842 10.4087C8.69686 10.9607 9.2072 11.5234 9.76007 12.0861C10.3342 12.6487 10.8871 13.1689 11.4506 13.6466C12.0034 14.1137 12.4606 14.4322 12.8221 14.6233C12.8753 14.6445 12.939 14.6764 13.0135 14.7082C13.0985 14.7401 13.1836 14.7507 13.2793 14.7507C13.46 14.7507 13.5982 14.687 13.7152 14.5702L14.5232 13.774C14.789 13.5086 15.0442 13.3069 15.2887 13.1795C15.5333 13.0309 15.7778 12.9566 16.0436 12.9566C16.2456 12.9566 16.4582 12.999 16.6922 13.0946C16.9261 13.1901 17.1706 13.3281 17.4364 13.5086L20.9556 16.0034C21.232 16.1945 21.4234 16.4174 21.5404 16.6828C21.6467 16.9482 21.7105 17.2136 21.7105 17.5109Z" fill="white"/>
</svg>
