<svg width="21" height="26" viewBox="0 0 21 26" fill="none" xmlns="http://www.w3.org/2000/svg">
<path d="M12.4077 10.3327C12.4077 11.319 11.5858 12.1494 10.5336 12.1494V13.8493C12.4904 13.8493 14.1077 12.2919 14.1077 10.3327H12.4077ZM10.5336 12.1494C9.48146 12.1494 8.65957 11.319 8.65957 10.3327H6.95957C6.95957 12.2919 8.5769 13.8493 10.5336 13.8493V12.1494ZM8.65957 10.3327C8.65957 9.34634 9.48146 8.51602 10.5336 8.51602V6.81602C8.5769 6.81602 6.95957 8.3735 6.95957 10.3327H8.65957ZM10.5336 8.51602C11.5858 8.51602 12.4077 9.34634 12.4077 10.3327H14.1077C14.1077 8.3735 12.4904 6.81602 10.5336 6.81602V8.51602Z" fill="#0088DC"/>
<path d="M10.5343 25L10.0574 25.7036C10.3453 25.8988 10.7232 25.8988 11.0111 25.7036L10.5343 25ZM3.79252 3.70363L3.20128 3.09295L3.79252 3.70363ZM17.276 3.70363L17.8672 3.09295L17.276 3.70363ZM19.2185 10.2308C19.2185 14.0689 17.0048 17.5621 14.669 20.1628C13.5127 21.4503 12.3539 22.4883 11.4839 23.2042C11.0495 23.5617 10.6887 23.8376 10.4383 24.0229C10.3132 24.1154 10.2158 24.1853 10.1507 24.2313C10.1182 24.2543 10.0938 24.2713 10.078 24.2822C10.0702 24.2876 10.0644 24.2915 10.061 24.2939C10.0592 24.2951 10.0581 24.2959 10.0575 24.2963C10.0572 24.2965 10.057 24.2966 10.057 24.2966C10.057 24.2966 10.0571 24.2966 10.0571 24.2966C10.0572 24.2965 10.0574 24.2964 10.5343 25C11.0111 25.7036 11.0114 25.7035 11.0116 25.7033C11.0118 25.7032 11.0121 25.703 11.0124 25.7028C11.0129 25.7024 11.0137 25.7019 11.0145 25.7013C11.0162 25.7002 11.0185 25.6986 11.0213 25.6967C11.027 25.6928 11.035 25.6873 11.0452 25.6803C11.0655 25.6662 11.0946 25.6459 11.1319 25.6195C11.2065 25.5668 11.314 25.4897 11.4495 25.3894C11.7206 25.1888 12.1047 24.895 12.5641 24.5169C13.4817 23.7618 14.7065 22.6651 15.9338 21.2987C18.3651 18.5917 20.9185 14.7004 20.9185 10.2308H19.2185ZM10.5343 25C11.0111 24.2964 11.0113 24.2965 11.0114 24.2966C11.0114 24.2966 11.0115 24.2966 11.0115 24.2966C11.0115 24.2966 11.0113 24.2965 11.011 24.2963C11.0104 24.2959 11.0093 24.2951 11.0075 24.2939C11.0041 24.2915 10.9984 24.2876 10.9905 24.2822C10.9747 24.2713 10.9503 24.2543 10.9178 24.2313C10.8527 24.1853 10.7553 24.1154 10.6302 24.0229C10.3798 23.8376 10.019 23.5617 9.58465 23.2042C8.7146 22.4883 7.55585 21.4503 6.39951 20.1628C4.06368 17.5621 1.85 14.0689 1.85 10.2308H0.15C0.15 14.7004 2.70344 18.5917 5.13475 21.2987C6.36196 22.6651 7.58678 23.7618 8.50441 24.5169C8.96385 24.895 9.34792 25.1888 9.61898 25.3894C9.75456 25.4897 9.86199 25.5668 9.93659 25.6195C9.9739 25.6459 10.003 25.6662 10.0233 25.6803C10.0335 25.6873 10.0415 25.6928 10.0472 25.6967C10.05 25.6986 10.0523 25.7002 10.054 25.7013C10.0549 25.7019 10.0556 25.7024 10.0561 25.7028C10.0564 25.703 10.0567 25.7032 10.0569 25.7033C10.0571 25.7035 10.0574 25.7036 10.5343 25ZM1.85 10.2308C1.85 8.01709 2.75804 5.88829 4.38376 4.31431L3.20128 3.09295C1.25096 4.98118 0.15 7.54815 0.15 10.2308H1.85ZM4.38376 4.31431C6.01042 2.73943 8.22233 1.85 10.5343 1.85V0.15C7.78889 0.15 5.15066 1.20562 3.20128 3.09295L4.38376 4.31431ZM10.5343 1.85C12.8462 1.85 15.0581 2.73943 16.6847 4.31431L17.8672 3.09295C15.9179 1.20562 13.2796 0.15 10.5343 0.15V1.85ZM16.6847 4.31431C18.3105 5.88829 19.2185 8.01709 19.2185 10.2308H20.9185C20.9185 7.54815 19.8175 4.98118 17.8672 3.09295L16.6847 4.31431Z" fill="#0088DC"/>
</svg>
