<svg width="20" height="19" viewBox="0 0 20 19" fill="none" xmlns="http://www.w3.org/2000/svg">
<path fill-rule="evenodd" clip-rule="evenodd" d="M0 8.63486C0 3.86598 4.06945 0 9.08932 0C14.1092 0 18.1786 3.86598 18.1786 8.63486C18.1786 13.4037 14.1092 17.2697 9.08932 17.2697C4.06945 17.2697 0 13.4037 0 8.63486ZM9.08932 1.40025C4.88349 1.40025 1.47394 4.63931 1.47394 8.63486C1.47394 12.6304 4.88349 15.8695 9.08932 15.8695C13.2952 15.8695 16.7047 12.6304 16.7047 8.63486C16.7047 4.63931 13.2952 1.40025 9.08932 1.40025Z" fill="#0088DC"/>
<path fill-rule="evenodd" clip-rule="evenodd" d="M14.573 13.8443C14.8608 13.5709 15.3274 13.5709 15.6152 13.8443L19.7841 17.8048C20.072 18.0782 20.072 18.5215 19.7841 18.7949C19.4963 19.0684 19.0297 19.0684 18.7419 18.7949L14.573 14.8344C14.2852 14.561 14.2852 14.1177 14.573 13.8443Z" fill="#0088DC"/>
</svg>
