<svg width="23" height="23" viewBox="0 0 23 23" fill="none" xmlns="http://www.w3.org/2000/svg">
<path d="M21.5406 1H1.45937C1.2058 1 1 1.2058 1 1.45937V21.5406C1 21.7942 1.2058 22 1.45937 22H21.5406C21.7942 22 22 21.7942 22 21.5406V1.45937C22 1.2058 21.7948 1 21.5406 1ZM21.0813 1.91874V5.03144H1.91874V1.91874H21.0813ZM1.91874 21.0813V5.95018H21.0813V21.0813H1.91874Z" fill="#0088DC" stroke="#0088DC" stroke-width="0.5"/>
<path d="M11.5003 7.43848C8.12728 7.43848 5.3833 10.1825 5.3833 13.5555C5.3833 16.9285 8.12728 19.6725 11.5003 19.6725C14.8733 19.6725 17.6173 16.9285 17.6173 13.5555C17.6173 10.1825 14.8733 7.43848 11.5003 7.43848ZM11.5003 8.35722C13.7347 8.35722 15.6438 9.77392 16.3776 11.7566C15.1795 11.8515 14.4954 12.3194 13.8841 12.7378C13.2269 13.188 12.6597 13.5763 11.4599 13.5763C10.26 13.5763 9.69282 13.188 9.03561 12.7378C8.43781 12.3286 7.77019 11.8717 6.62115 11.7627C7.35247 9.77759 9.26346 8.35722 11.5003 8.35722ZM11.5003 18.7543C8.63381 18.7543 6.30204 16.4226 6.30204 13.5561C6.30204 13.2529 6.32961 12.9558 6.37983 12.6667C7.38677 12.7243 7.91413 13.0845 8.51621 13.4967C9.20037 13.9652 9.97518 14.4956 11.4599 14.4956C12.9446 14.4956 13.7194 13.9646 14.4035 13.4967C15.0215 13.0734 15.5605 12.7047 16.6207 12.6624C16.6716 12.9528 16.6991 13.2511 16.6991 13.5561C16.6985 16.4226 14.3668 18.7543 11.5003 18.7543Z" fill="#0088DC" stroke="#0088DC" stroke-width="0.5"/>
<path d="M17.7328 3.8665H19.2867C19.5403 3.8665 19.7461 3.6607 19.7461 3.40713C19.7461 3.15355 19.5403 2.94775 19.2867 2.94775H17.7328C17.4792 2.94775 17.2734 3.15355 17.2734 3.40713C17.2734 3.6607 17.4792 3.8665 17.7328 3.8665Z" fill="#0088DC" stroke="#0088DC" stroke-width="0.5"/>
<path d="M13.7514 3.8665H15.3053C15.5588 3.8665 15.7646 3.6607 15.7646 3.40713C15.7646 3.15355 15.5588 2.94775 15.3053 2.94775H13.7514C13.4978 2.94775 13.292 3.15355 13.292 3.40713C13.292 3.6607 13.4978 3.8665 13.7514 3.8665Z" fill="#0088DC" stroke="#0088DC" stroke-width="0.5"/>
</svg>
