<svg width="172" height="27" viewBox="0 0 172 27" fill="none" xmlns="http://www.w3.org/2000/svg">
<g clip-path="url(#clip0_308_2882)">
<path d="M28.6153 13.5547C28.6168 13.9202 28.5969 14.2856 28.5557 14.6487C28.4444 16.1781 27.9665 17.6574 27.1632 18.959C26.3599 20.2606 25.2554 21.3457 23.9445 22.1208C23.6736 22.2739 23.4027 22.4161 23.1317 22.5529C19.7018 24.1556 15.8059 23.4718 12.6252 20.7314C12.997 20.7984 13.375 20.8241 13.7523 20.808C14.3158 20.8896 14.8844 20.9298 15.4537 20.9283C17.2085 20.9424 18.948 20.5978 20.5674 19.9153C22.1868 19.2329 23.6526 18.2266 24.8765 16.9571C25.8571 15.8963 26.6188 14.6493 27.1174 13.2886C27.616 11.9278 27.8415 10.4806 27.7808 9.03101C28.3312 10.4746 28.614 12.0079 28.6153 13.5547Z" fill="#0D66B0"/>
<path d="M27.0439 9.34276C27.0819 11.9688 26.1109 14.5076 24.3346 16.4264C22.3847 18.4602 19.7948 19.7462 17.0088 20.064C17.2418 19.9491 17.4694 19.8288 17.7024 19.692C18.4045 19.2751 19.0267 18.7341 19.5392 18.0948C20.8734 16.6277 21.8594 14.8734 22.4227 12.9648C22.986 11.0561 23.1117 9.04313 22.7903 7.07817C22.4414 4.78157 21.3987 2.64967 19.8047 0.973633C21.3909 1.60054 22.8575 2.49997 24.1396 3.63206C25.185 4.56484 26.0743 5.66205 26.773 6.88125C26.9392 7.69141 27.0299 8.51551 27.0439 9.34276Z" fill="#0D66B0"/>
<path d="M20.9588 14.7689C21.0077 14.2486 21.0077 13.7248 20.9588 13.2045C20.9135 12.5932 20.7555 11.9959 20.4928 11.4432C18.889 6.60766 15.4753 3.65386 11.1134 3.32566C10.8804 3.32566 10.6311 3.32566 10.3765 3.32566C7.45554 3.35959 4.65138 4.48841 2.50879 6.4928C3.17514 5.49736 3.94935 4.58002 4.81708 3.75779C7.43832 1.30165 10.8912 -0.0488002 14.4675 -0.0165244C15.5827 -0.00993817 16.6941 0.114731 17.7836 0.355437H17.8215C19.951 1.53149 21.582 4.15163 22.0859 7.2039C22.5219 9.78235 22.1269 12.434 20.9588 14.7689Z" fill="#0D66B0"/>
<path d="M8.59383 26.9945C6.6959 26.088 4.97587 24.8427 3.51667 23.3187C2.66597 22.066 1.95072 18.7621 3.13196 15.6114C3.97987 13.424 5.5466 11.5971 7.56973 10.4368C7.15117 10.8654 6.78714 11.345 6.48602 11.8644C4.99593 14.3861 4.62747 17.7174 5.49985 20.9994C5.87415 22.3635 6.43398 23.6687 7.16334 24.8776C7.49387 25.4246 7.86232 25.9716 8.30664 26.6171C8.3825 26.7046 8.48004 26.8468 8.59383 26.9945Z" fill="#0D66B0"/>
<path d="M18.6341 9.07483C17.2522 7.93628 15.4939 7.36937 13.7141 7.48852C13.3297 7.51411 12.9477 7.56712 12.5708 7.64715H12.5274C12.127 7.72347 11.7323 7.82765 11.3462 7.95895C5.61338 9.66559 3.32135 12.882 2.41103 15.338C1.71452 17.2636 1.56071 19.3465 1.96672 21.355C0.929163 19.6936 0.280139 17.8154 0.0688954 15.8629C-0.142348 13.9105 0.0897407 11.9352 0.74755 10.0868L0.785479 10.0047C1.75733 8.1251 3.24534 6.56816 5.07128 5.5204C6.89722 4.47263 8.98365 3.97847 11.0807 4.09712C14.2342 4.32139 16.911 6.06085 18.6341 9.07483Z" fill="#0D66B0"/>
<path fill-rule="evenodd" clip-rule="evenodd" d="M118.102 12.8818C118.134 12.1787 117.906 11.4888 117.463 10.9454C117.231 10.6955 116.947 10.5001 116.632 10.373C116.317 10.246 115.979 10.1904 115.64 10.2102C115.301 10.23 114.971 10.3248 114.673 10.4878C114.374 10.6507 114.115 10.8779 113.914 11.1533C113.464 11.9826 113.228 12.9128 113.228 13.8582C113.228 14.8036 113.464 15.7338 113.914 16.5631C114.12 16.866 114.399 17.1105 114.726 17.2733C115.052 17.4361 115.414 17.5118 115.778 17.493C116.099 17.5083 116.419 17.4474 116.712 17.3154C117.006 17.1834 117.265 16.9838 117.468 16.7327C117.902 16.1842 118.129 15.4979 118.108 14.7963V12.8818H118.102ZM67.4932 12.8818C67.5247 12.1787 67.2969 11.4888 66.8538 10.9454C66.6219 10.6955 66.3384 10.5001 66.0234 10.373C65.7084 10.246 65.3696 10.1904 65.031 10.2102C64.6923 10.23 64.3622 10.3248 64.0638 10.4878C63.7655 10.6507 63.5063 10.8779 63.3046 11.1533C62.855 11.9826 62.6194 12.9128 62.6194 13.8582C62.6194 14.8036 62.855 15.7338 63.3046 16.5631C63.5107 16.866 63.7902 17.1105 64.1166 17.2733C64.4429 17.4361 64.8051 17.5118 65.1686 17.493C65.4896 17.5083 65.8097 17.4474 66.1033 17.3154C66.3969 17.1834 66.6557 16.9838 66.8592 16.7327C67.2931 16.1842 67.5197 15.4979 67.4986 14.7963V12.8818H67.4932ZM40.4331 14.8127C40.405 15.5137 40.6325 16.2007 41.0725 16.7436C41.277 16.9935 41.5361 17.1921 41.8294 17.324C42.1227 17.4559 42.4422 17.5175 42.763 17.504C43.1272 17.52 43.4892 17.4414 43.8147 17.2757C44.1401 17.11 44.4179 16.8628 44.6216 16.5577C45.1234 15.7384 45.3671 14.7847 45.3206 13.8227C45.3671 12.8795 45.1229 11.945 44.6216 11.1478C44.4199 10.8725 44.1607 10.6453 43.8624 10.4823C43.5641 10.3193 43.2339 10.2246 42.8953 10.2047C42.5566 10.1849 42.2178 10.2405 41.9028 10.3675C41.5878 10.4946 41.3043 10.69 41.0725 10.94C40.6296 11.4899 40.4021 12.1847 40.4331 12.8927V14.8127ZM118.102 19.0028C117.736 19.4279 117.277 19.7621 116.762 19.9794C116.247 20.1966 115.69 20.2911 115.133 20.2554C114.441 20.2699 113.756 20.1171 113.135 19.8097C112.514 19.5024 111.974 19.0494 111.562 18.4886C110.619 17.1248 110.15 15.484 110.229 13.8227C110.155 12.1646 110.646 10.5311 111.622 9.19502C112.065 8.62621 112.634 8.17011 113.283 7.8633C113.932 7.55648 114.644 7.40747 115.36 7.4282C115.872 7.40523 116.383 7.49567 116.857 7.69316C117.33 7.89066 117.755 8.19044 118.102 8.57143C118.178 7.77281 118.817 7.47743 119.608 7.47743C119.993 7.45672 120.374 7.56437 120.692 7.78375C120.818 7.90888 120.916 8.06044 120.978 8.22773C121.039 8.39503 121.064 8.57398 121.05 8.75195V18.8988C121.062 19.0752 121.038 19.2523 120.979 19.4189C120.92 19.5855 120.828 19.738 120.708 19.867C120.368 20.1037 119.955 20.2121 119.543 20.1733C118.763 20.2062 118.124 19.8834 118.102 19.0082V19.0028ZM102.09 11.7058C102.647 11.239 103.176 10.7384 103.673 10.207C104.282 9.54971 104.847 8.8516 105.363 8.11742C105.496 7.92088 105.661 7.7488 105.851 7.60871C106.039 7.5008 106.253 7.44778 106.469 7.45555C106.866 7.45043 107.252 7.59248 107.552 7.85486C107.698 7.95788 107.817 8.09349 107.902 8.25104C107.986 8.40858 108.034 8.58379 108.04 8.76289C108.029 9.0844 107.94 9.39824 107.78 9.67638C107.46 10.1742 107.097 10.6428 106.696 11.0767C106.137 11.7079 105.534 12.2983 104.892 12.8435C105.485 13.4571 106.028 14.1174 106.517 14.8182C107.021 15.5184 107.552 16.2404 108.002 16.9788C108.239 17.3626 108.453 17.7609 108.641 18.1713C108.722 18.3712 108.766 18.5844 108.771 18.8004C108.773 18.9901 108.732 19.1776 108.65 19.3484C108.568 19.5192 108.448 19.6686 108.3 19.785C107.999 20.0473 107.614 20.1894 107.216 20.1843C106.973 20.1866 106.733 20.1284 106.517 20.0147C106.263 19.8483 106.061 19.6108 105.938 19.331C105.45 18.3873 104.908 17.474 104.312 16.5959C103.81 15.8909 103.25 15.2303 102.638 14.6213C102.467 14.7633 102.286 14.8914 102.096 15.0042V18.8332C102.096 19.7795 101.44 20.1241 100.595 20.1241C99.7496 20.1241 99.1265 19.7631 99.1265 18.8332V3.32569C99.1087 3.14871 99.134 2.97003 99.2001 2.80513C99.2662 2.64024 99.3711 2.49409 99.5058 2.37938C99.8442 2.18771 100.226 2.08706 100.614 2.08706C101.002 2.08706 101.383 2.18771 101.722 2.37938C101.851 2.49931 101.952 2.64722 102.017 2.81204C102.082 2.97686 102.109 3.15432 102.096 3.33116V11.7058H102.09ZM88.4845 8.86135C88.8774 8.39822 89.3692 8.03109 89.9229 7.78758C90.4767 7.54408 91.0779 7.43056 91.6814 7.45555C92.2421 7.43611 92.8005 7.53781 93.3191 7.75384C93.8378 7.96987 94.3047 8.29524 94.6887 8.70818C95.4672 9.65035 95.8691 10.852 95.8158 12.0777V18.9152C95.8158 19.8451 95.2143 20.2226 94.3473 20.2226C93.9455 20.2545 93.5456 20.14 93.2203 19.8998C93.0902 19.7735 92.9893 19.6198 92.9247 19.4496C92.86 19.2794 92.8333 19.097 92.8464 18.9152V12.4059C92.8804 11.8346 92.6984 11.2716 92.3371 10.8306C92.1584 10.6441 91.942 10.4987 91.7026 10.4043C91.4632 10.3099 91.2065 10.2687 90.9499 10.2836C90.6107 10.2659 90.2722 10.329 89.9616 10.4677C89.651 10.6065 89.377 10.8169 89.1618 11.0822C88.6826 11.7536 88.4438 12.5695 88.4845 13.396V18.8988C88.4845 19.8451 87.8451 20.2062 86.9836 20.2062C86.122 20.2062 85.5151 19.8287 85.5151 18.8988V3.35851C85.5048 3.17899 85.5334 2.99936 85.5989 2.83214C85.6644 2.66492 85.7653 2.51414 85.8944 2.39032C86.2204 2.15145 86.6198 2.03708 87.0215 2.06758C87.4093 2.04089 87.7938 2.15539 88.1052 2.39032C88.2329 2.51429 88.3314 2.66568 88.3933 2.83328C88.4552 3.00088 88.479 3.18038 88.4628 3.35851V8.86135H88.4845ZM83.2448 9.95535C83.225 10.3278 83.0708 10.68 82.8113 10.9454C82.6868 11.0827 82.5364 11.1936 82.3689 11.2716C82.2015 11.3495 82.0203 11.393 81.836 11.3994C81.422 11.3769 81.0289 11.2085 80.7252 10.9235C80.1597 10.4523 79.4481 10.1968 78.7149 10.2015C78.3385 10.184 77.9636 10.2595 77.6227 10.4216C77.2817 10.5837 76.9852 10.8273 76.7588 11.1314C76.2294 11.9254 75.9725 12.8726 76.0273 13.8281C75.9735 14.7874 76.2448 15.7366 76.7967 16.5194C77.0166 16.8277 77.3078 17.0771 77.6449 17.2459C77.9821 17.4146 78.355 17.4976 78.7312 17.4876C79.4747 17.4762 80.1919 17.2078 80.7631 16.7272C81.0641 16.485 81.4304 16.3402 81.8143 16.3115C82.0049 16.3138 82.193 16.3552 82.3672 16.4332C82.5414 16.5113 82.6981 16.6243 82.8276 16.7655C83.0882 17.0054 83.2441 17.3398 83.261 17.6954C83.261 18.494 82.5079 19.0793 81.8902 19.4404C80.9101 19.9927 79.7987 20.2633 78.677 20.2226C77.9068 20.2463 77.1411 20.0965 76.4353 19.7843C75.7296 19.4721 75.1016 19.0052 74.5968 18.4175C73.5268 17.1233 72.9707 15.4743 73.0363 13.7898C72.9492 12.0869 73.5159 10.4157 74.6185 9.12391C75.1502 8.55022 75.7981 8.09889 76.518 7.80062C77.238 7.50235 78.0132 7.36413 78.7908 7.39538C79.8598 7.37213 80.9159 7.63443 81.8522 8.15571C82.4916 8.57691 83.2448 9.1622 83.2448 9.93894V9.95535ZM67.4932 19.0082C67.1279 19.4389 66.6687 19.7781 66.1515 19.9993C65.6344 20.2205 65.0735 20.3175 64.513 20.2827C63.8213 20.2973 63.1362 20.1444 62.515 19.8371C61.8938 19.5297 61.3545 19.0767 60.9422 18.5159C60.004 17.1427 59.5446 15.4937 59.6363 13.8281C59.5593 12.1698 60.0511 10.5354 61.0289 9.20049C61.4721 8.63167 62.0411 8.17559 62.6904 7.86877C63.3396 7.56195 64.0511 7.41294 64.7676 7.43367C65.2795 7.41145 65.79 7.50223 66.2636 7.69968C66.7371 7.89713 67.1623 8.1965 67.5094 8.5769C67.5853 7.77828 68.2247 7.4829 69.0158 7.4829C69.4005 7.46219 69.7813 7.56984 70.0995 7.78923C70.2256 7.91435 70.3231 8.06591 70.3848 8.2332C70.4466 8.4005 70.4713 8.57945 70.4571 8.75742V18.9043C70.4692 19.0807 70.4452 19.2577 70.3864 19.4243C70.3277 19.5909 70.2355 19.7435 70.1157 19.8725C69.7749 20.1091 69.3626 20.2176 68.9507 20.1788C68.1542 20.2062 67.5148 19.8834 67.4932 19.0082ZM53.8331 8.68631C54.3111 8.09822 54.9695 7.68757 55.7044 7.51919C56.4393 7.3508 57.2089 7.43427 57.8915 7.7564C58.0929 7.85657 58.2616 8.01281 58.3778 8.20667C58.4939 8.40052 58.5527 8.6239 58.5472 8.85041C58.5598 9.26313 58.4422 9.66924 58.2112 10.0101C58.1191 10.1522 57.994 10.2694 57.8466 10.3515C57.6992 10.4335 57.5342 10.4778 57.3659 10.4805C57.1616 10.4706 56.9594 10.4339 56.7645 10.3711C56.5312 10.3077 56.2908 10.2746 56.0492 10.2726C55.7308 10.2649 55.4154 10.3373 55.1316 10.4834C54.8478 10.6295 54.6045 10.8447 54.4237 11.1095C53.9769 11.8285 53.7594 12.6686 53.8006 13.5163V18.8879C53.8137 19.0664 53.7907 19.2458 53.733 19.4151C53.6752 19.5844 53.5839 19.74 53.4646 19.8725C53.136 20.1231 52.7255 20.2384 52.3159 20.1952C51.4543 20.1952 50.8312 19.8342 50.8312 18.8879V8.74648C50.8219 8.57143 50.8488 8.39635 50.9104 8.23244C50.972 8.06854 51.0668 7.91943 51.1888 7.79469C51.5265 7.56491 51.9319 7.45874 52.3376 7.49384C53.172 7.49384 53.8114 7.81657 53.8331 8.68631ZM40.4114 8.5769C40.6747 8.29546 40.98 8.05736 41.3163 7.87127C41.8858 7.57581 42.5183 7.42557 43.1586 7.43367C43.8757 7.409 44.5885 7.55625 45.2384 7.86336C45.8883 8.17048 46.4568 8.62871 46.8974 9.20049C47.866 10.5337 48.3571 12.1597 48.2899 13.8117C48.3689 15.4738 47.8981 17.1153 46.9516 18.4776C46.5376 19.0407 45.9957 19.4951 45.3714 19.8026C44.7472 20.1101 44.0589 20.2616 43.3645 20.2444C42.8133 20.2806 42.2612 20.1902 41.7497 19.9798C41.2382 19.7695 40.7806 19.4448 40.4114 19.0301V23.7124C40.4207 23.8909 40.3866 24.069 40.312 24.2312C40.2374 24.3933 40.1245 24.5344 39.9833 24.6423C39.6446 24.8496 39.2518 24.9487 38.8563 24.9268C38.4597 24.9567 38.0656 24.8422 37.7455 24.6041C37.522 24.3421 37.4075 24.003 37.4258 23.6577V8.76289C37.4136 8.58167 37.4429 8.40004 37.5115 8.23213C37.5801 8.06421 37.6861 7.91452 37.8214 7.79469C38.1499 7.59994 38.524 7.49726 38.9051 7.49726C39.2861 7.49726 39.6602 7.59994 39.9888 7.79469C40.1096 7.88784 40.2097 8.00563 40.2825 8.1404C40.3554 8.27516 40.3993 8.42389 40.4114 8.5769Z" fill="#0D66B0"/>
<path fill-rule="evenodd" clip-rule="evenodd" d="M146.874 10.2071C146.488 10.1855 146.103 10.2629 145.754 10.4322C145.405 10.6015 145.105 10.8571 144.88 11.1753C144.376 11.9637 144.126 12.8905 144.165 13.8282C144.12 14.7765 144.379 15.7142 144.902 16.5031C145.12 16.8254 145.415 17.0868 145.76 17.2628C146.105 17.4388 146.488 17.5237 146.874 17.5096C147.263 17.5332 147.652 17.4592 148.006 17.294C148.359 17.1289 148.667 16.8778 148.901 16.5632C149.36 15.7262 149.601 14.7851 149.601 13.8282C149.601 12.8714 149.36 11.9303 148.901 11.0932C148.654 10.7966 148.343 10.5621 147.991 10.4083C147.639 10.2544 147.257 10.1856 146.874 10.2071ZM164.349 9.29359C164.748 8.69289 165.295 8.20748 165.936 7.8852C166.578 7.56291 167.291 7.41488 168.006 7.45567C168.553 7.43518 169.097 7.53685 169.6 7.75339C170.103 7.96994 170.553 8.29601 170.916 8.7083C171.68 9.65822 172.067 10.8614 172 12.0833V18.9318C172 19.8452 171.398 20.2227 170.553 20.2227C170.146 20.2524 169.742 20.1383 169.41 19.9C169.287 19.7727 169.191 19.6208 169.129 19.4541C169.068 19.2873 169.042 19.1094 169.052 18.9318V12.4443C169.094 11.8581 168.927 11.2762 168.581 10.8033C168.425 10.618 168.228 10.4721 168.006 10.3771C167.784 10.2821 167.543 10.2408 167.302 10.2563C166.993 10.241 166.684 10.3 166.401 10.4284C166.119 10.5567 165.87 10.7508 165.676 10.9948C165.237 11.6609 165.027 12.4551 165.08 13.2539V18.9044C165.08 19.8179 164.457 20.1953 163.612 20.1953C163.214 20.2221 162.818 20.1164 162.485 19.8945C162.359 19.7691 162.262 19.6175 162.2 19.4503C162.138 19.2831 162.114 19.1042 162.127 18.9263V12.4443C162.161 11.859 161.995 11.2797 161.656 10.8033C161.504 10.6184 161.311 10.4724 161.093 10.3773C160.874 10.2823 160.636 10.2408 160.399 10.2563C160.089 10.2406 159.781 10.2994 159.498 10.4277C159.215 10.5561 158.967 10.7505 158.773 10.9948C158.332 11.6604 158.12 12.4545 158.172 13.2539V18.9044C158.172 19.8562 157.516 20.1953 156.671 20.1953C155.826 20.1953 155.202 19.8343 155.202 18.9044V8.72471C155.193 8.5505 155.22 8.37626 155.282 8.21325C155.343 8.05025 155.438 7.9021 155.56 7.77839C155.892 7.55267 156.288 7.44489 156.687 7.47207C157.086 7.44614 157.482 7.55382 157.814 7.77839C157.943 7.89421 158.044 8.03811 158.11 8.19922C158.176 8.36032 158.204 8.53441 158.194 8.7083V8.79582C158.555 8.34695 159.015 7.98852 159.537 7.74847C160.058 7.50842 160.628 7.39324 161.201 7.4119C161.845 7.39545 162.482 7.5634 163.036 7.89636C163.59 8.22931 164.04 8.7137 164.333 9.29359H164.349ZM146.874 20.2336C146.089 20.2658 145.307 20.1204 144.586 19.8081C143.864 19.4958 143.22 19.0244 142.702 18.4285C141.655 17.1301 141.113 15.4903 141.179 13.8173C141.104 12.1429 141.646 10.4997 142.702 9.20607C143.251 8.64789 143.904 8.20488 144.623 7.90257C145.343 7.60027 146.114 7.44463 146.893 7.44463C147.672 7.44463 148.444 7.60027 149.163 7.90257C149.882 8.20488 150.535 8.64789 151.084 9.20607C152.141 10.5077 152.684 12.158 152.607 13.8392C152.676 15.5176 152.134 17.1636 151.084 18.4668C150.553 19.0544 149.901 19.5179 149.174 19.825C148.447 20.132 147.662 20.2752 146.874 20.2446V20.2336ZM139.678 9.93905C139.659 10.3115 139.504 10.6637 139.245 10.9291C139.121 11.0674 138.971 11.179 138.803 11.257C138.636 11.335 138.454 11.3779 138.27 11.3831C137.856 11.3606 137.463 11.1922 137.159 10.9072C136.594 10.4352 135.882 10.1795 135.149 10.1852C134.772 10.1677 134.397 10.2432 134.056 10.4053C133.715 10.5674 133.419 10.811 133.192 11.1151C132.657 11.9071 132.395 12.8545 132.445 13.8118C132.391 14.7711 132.662 15.7203 133.214 16.5031C133.434 16.8114 133.725 17.0608 134.062 17.2296C134.399 17.3983 134.772 17.4813 135.149 17.4713C135.892 17.4599 136.609 17.1915 137.18 16.7109C137.481 16.4687 137.848 16.3239 138.232 16.2952C138.422 16.2975 138.61 16.3389 138.785 16.4169C138.959 16.495 139.115 16.6081 139.245 16.7492C139.506 16.9891 139.662 17.3235 139.678 17.6791C139.678 18.4777 138.925 19.063 138.308 19.4241C137.327 19.9759 136.216 20.2464 135.094 20.2063C134.324 20.2303 133.558 20.0808 132.853 19.7686C132.147 19.4563 131.519 18.9892 131.014 18.4012C129.944 17.107 129.388 15.458 129.454 13.7735C129.367 12.0717 129.932 10.4013 131.03 9.10761C131.562 8.53392 132.21 8.08259 132.93 7.78432C133.65 7.48605 134.425 7.34784 135.203 7.37909C136.281 7.35723 137.345 7.62531 138.286 8.15583C138.909 8.57702 139.678 9.16231 139.678 9.93905Z" fill="#0D66B0"/>
<path d="M125.731 20.2444C126.644 20.2444 127.384 19.4975 127.384 18.5761C127.384 17.6547 126.644 16.9077 125.731 16.9077C124.819 16.9077 124.079 17.6547 124.079 18.5761C124.079 19.4975 124.819 20.2444 125.731 20.2444Z" fill="#0D66B0"/>
</g>
<defs>
<clipPath id="clip0_308_2882">
<rect width="172" height="27" fill="white"/>
</clipPath>
</defs>
</svg>
