<svg width="35" height="35" viewBox="0 0 35 35" fill="none" xmlns="http://www.w3.org/2000/svg">
<path fill-rule="evenodd" clip-rule="evenodd" d="M6.85617 3.71212L3.1513 7.42424L5.83099 10.1473C7.30488 11.6449 8.5415 12.8699 8.5791 12.8695C8.6167 12.869 8.93102 12.5674 9.27767 12.1992L9.9078 11.5298L9.90999 12.5556L9.91211 13.5814L9.67333 14.0651C9.54201 14.3311 9.38513 14.7625 9.32463 15.0237C9.26413 15.2848 9.20384 15.5358 9.19064 15.5813C9.17738 15.6268 9.0151 15.7409 8.82998 15.8348C7.89558 16.3088 6.99193 17.295 6.4575 18.4242C6.06491 19.2536 5.93004 19.8855 5.92812 20.9042C5.92587 22.1056 6.04639 22.5529 6.75329 23.9663C6.76744 23.9945 6.34573 24.0176 5.81622 24.0176H4.85352V27.0968V30.176H6.257C7.31712 30.176 7.66842 30.1969 7.69275 30.2615C7.71046 30.3086 7.96394 31.3939 8.25603 32.6735L8.78712 35H17.5H26.2129L26.744 32.6735C27.0361 31.3939 27.2895 30.3086 27.3072 30.2615C27.3316 30.1969 27.6829 30.176 28.743 30.176H30.1465V27.0968V24.0176L29.104 24.0177L28.0615 24.0178L28.0835 23.6584C28.1627 22.3659 27.2992 20.8265 26.1319 20.1792C25.8364 20.0154 25.6985 19.892 25.6446 19.7432C25.6032 19.6291 25.461 19.3713 25.3286 19.1705L25.0879 18.8052L25.09 15.1676L25.0922 11.5298L25.7223 12.1992C26.069 12.5674 26.3833 12.869 26.4209 12.8693C26.4585 12.8697 27.695 11.6447 29.1687 10.1471L31.8482 7.42424L28.1436 3.71212L24.439 0H21.7214H19.0039V0.877087C19.0039 1.99729 18.9088 2.34442 18.4983 2.72323C17.8899 3.28453 17.1101 3.28453 16.5017 2.72323C16.0912 2.34442 15.9961 1.99729 15.9961 0.877087V0H13.2786H10.561L6.85617 3.71212ZM14.0691 2.45383C14.3119 3.63056 15.2259 4.62958 16.4013 5.00305C17.02 5.19957 17.9799 5.19957 18.5987 5.00305C19.773 4.62992 20.6851 3.62529 20.9358 2.42872L21.0146 2.05279H22.2825H23.5504L26.2501 4.75569L28.9496 7.45852L27.6836 8.72578L26.4176 9.99303L24.7274 8.29237L23.0371 6.5917V11.9518C23.0371 14.8998 23.0294 17.3115 23.02 17.311C23.0107 17.3106 22.8337 17.2602 22.627 17.1989C22.335 17.1126 21.8385 17.0808 20.4053 17.0566L18.5596 17.0255V16.1936C18.5596 15.5146 18.5302 15.2673 18.4002 14.8485C18.1528 14.0519 17.8184 13.5128 17.1644 12.8561C16.6666 12.3563 16.4782 12.2192 15.9277 11.956C15.0823 11.5519 14.6828 11.4606 13.8086 11.4718C13.1518 11.4801 12.5828 11.5889 12.0825 11.8015C11.9698 11.8494 11.9629 11.7007 11.9629 9.21954V6.58671L10.2732 8.29045L8.58354 9.99419L7.31691 8.72639L6.05035 7.45852L8.74993 4.75569L11.4496 2.05279H12.7179H13.9863L14.0691 2.45383ZM18.7305 9.9218V10.9482H19.7559H20.7812V9.9218V8.89541H19.7559H18.7305V9.9218ZM32.9492 12.043V13.0694H33.9746H35V12.043V11.0166H33.9746H32.9492V12.043ZM2.64981 11.5643C1.06511 11.841 0.0645996 13.0089 0.0611133 14.5861C0.0591992 15.4644 0.311309 16.1127 0.894893 16.7304C1.80024 17.6886 3.30142 17.9315 4.50673 17.3147C4.8946 17.1162 5.50122 16.5422 5.7225 16.1642C6.43255 14.9515 6.24784 13.4584 5.26292 12.4482C4.5781 11.7459 3.56761 11.404 2.64981 11.5643ZM14.8683 13.6912C16.0213 14.123 16.7743 15.5789 16.4702 16.788L16.3973 17.0775L15.822 17.1961C15.0886 17.3472 14.5316 17.5835 13.8369 18.0384C12.9173 18.6406 12.0094 19.7375 11.6324 20.7019L11.4975 21.0471L12.4419 21.4302L13.3863 21.8133L13.5284 21.471C13.7348 20.9738 14.2447 20.2912 14.6513 19.9676C15.1493 19.5713 15.8735 19.2453 16.4527 19.1569C16.7638 19.1093 17.8775 19.0898 19.4947 19.1035L22.0459 19.1251L22.4448 19.3122C23.3482 19.7358 23.7901 20.3268 24.0211 21.4201C24.0528 21.5697 24.132 21.6156 24.59 21.7501C25.0537 21.8863 25.1676 21.9532 25.4765 22.2716C25.8449 22.6513 26.0449 23.1116 26.0449 23.5797C26.0449 24.053 26.3527 24.0176 22.2437 24.0176H18.5254L18.5243 25.6769C18.5232 27.2678 18.5168 27.3473 18.3705 27.6029C17.9688 28.3041 16.9285 28.2731 16.5856 27.5497C16.4927 27.3538 16.4746 27.0463 16.4746 25.6666V24.0176H13.0147H9.55486L9.06131 23.5215C8.3395 22.796 7.93208 21.8393 7.93208 20.87C7.93208 19.9539 8.37963 18.9055 9.05673 18.2356C9.5226 17.7747 9.932 17.5317 10.7032 17.2585L11.2299 17.0719L11.24 16.3194C11.2481 15.7124 11.2803 15.4909 11.4062 15.1737C11.6992 14.4359 12.561 13.7139 13.3459 13.5487C13.7513 13.4633 14.4295 13.5268 14.8683 13.6912ZM3.66707 13.7622C4.08276 14.0146 4.22885 14.6729 3.96519 15.1057C3.54286 15.7991 2.56307 15.7593 2.19823 15.0339C1.72498 14.0928 2.75017 13.2051 3.66707 13.7622ZM31.2247 15.776C29.5239 16.1887 28.5159 17.8555 28.9524 19.5333C29.2656 20.7367 30.2081 21.5864 31.442 21.7776C33.1522 22.0426 34.6674 20.9167 34.9333 19.1831C35.1791 17.5812 34.0625 16.0402 32.441 15.7438C31.933 15.6509 31.7168 15.6566 31.2247 15.776ZM32.2088 17.7929C32.5378 17.8843 32.8541 18.2509 32.9149 18.6111C33.0544 19.4377 32.0643 20.0842 31.37 19.6198C30.6331 19.1272 30.7952 18.0454 31.6445 17.7878C31.8893 17.7135 31.9245 17.7138 32.2088 17.7929ZM0 21.5543V22.5806H1.02539H2.05078V21.5543V20.5279H1.02539H0V21.5543ZM14.4454 26.9086C14.4663 27.3697 14.5044 27.8315 14.53 27.935L14.5765 28.1232H10.7404H6.9043V27.0968V26.0704H10.6558H14.4074L14.4454 26.9086ZM28.0957 27.0968V28.1232H24.2596H20.4235L20.47 27.935C20.4956 27.8315 20.5337 27.3697 20.5546 26.9086L20.5926 26.0704H24.3442H28.0957V27.0968ZM25.0904 30.7063C25.0247 30.9979 24.882 31.6292 24.7733 32.109L24.5757 32.9814H17.5H10.4243L10.2267 32.109C10.118 31.6292 9.97534 30.9979 9.90965 30.7063L9.79022 30.176H17.5H25.2098L25.0904 30.7063Z" fill="#38B189"/>
</svg>
