<svg width="33" height="40" viewBox="0 0 33 40" fill="none" xmlns="http://www.w3.org/2000/svg">
<path d="M15.0533 0.0848007C12.16 0.733265 10.0408 3.12641 9.77488 6.02134C9.73578 6.45365 9.7045 6.83192 9.69668 6.8628C9.69668 6.9014 7.51493 6.92456 4.84834 6.92456H0V23.2134V39.5022H16.5H33V23.2134V6.92456H28.1517C25.4851 6.92456 23.3033 6.9014 23.3033 6.8628C23.2017 4.70125 22.5917 3.21133 21.2701 1.90668C20.4803 1.12698 19.6671 0.625191 18.6114 0.277798C17.931 0.0462036 17.7746 0.0230446 16.6955 0.00760269C15.9057 -0.0155563 15.3739 0.0153236 15.0533 0.0848007ZM17.9467 2.58602C18.6036 2.82534 19.409 3.38889 19.8235 3.90611C20.4334 4.65493 20.7227 5.39604 20.8322 6.47681L20.8791 6.92456H16.5H12.1209L12.1678 6.47681C12.2694 5.4192 12.5118 4.77845 13.0827 4.02191C13.6145 3.31169 14.459 2.74814 15.4052 2.47795C15.9526 2.31583 17.368 2.37759 17.9467 2.58602ZM9.69668 10.6687V12.0196H10.9088H12.1209V10.6687V9.31771H16.5H20.8791V10.6687V12.0196H22.0912H23.3033V10.6687V9.31771H26.9396H30.5758V20.8202V32.3228H16.5H2.42417V20.8202V9.31771H6.06043H9.69668V10.6687ZM30.5758 35.9511V37.1863H16.5H2.42417V35.9511V34.7159H16.5H30.5758V35.9511Z" fill="#38B189"/>
<path d="M11.4561 15.9104C10.5568 16.1961 9.72007 16.8214 9.22741 17.5779C8.7113 18.3808 8.65656 18.6819 8.61746 21.1445L8.58618 23.3678H9.92339H11.2606V26.0311V28.6945H16.4608H21.6611V26.0311V23.3678H22.9904H24.3198V21.3761C24.3198 19.1296 24.2651 18.6896 23.8819 17.9253C23.4362 17.0144 22.6464 16.3273 21.6689 15.9876L21.1528 15.8024L16.4608 15.8101C12.8715 15.8101 11.6985 15.8332 11.4561 15.9104ZM15.2487 19.0447V19.9711H16.4608H17.6729V19.0447V18.1183H18.9632C20.6054 18.1183 20.9729 18.1955 21.3952 18.6124C21.794 19.0061 21.8957 19.3303 21.8957 20.2567V20.9746H20.5663H19.2369V23.638V26.3013H16.4608H13.6848V23.638V20.9746H12.3554H11.026V20.2567C11.026 19.3072 11.1198 18.9984 11.5343 18.6047C11.98 18.1878 12.2303 18.1337 13.9037 18.126L15.2487 18.1183V19.0447Z" fill="#38B189"/>
</svg>
