<svg width="44" height="36" viewBox="0 0 44 36" fill="none" xmlns="http://www.w3.org/2000/svg">
<path d="M19.9375 0.227051C13.4578 1.12939 7.92344 5.09111 5.05312 10.8919C4.79531 11.4075 4.03047 13.0747 3.34297 14.5958L2.10547 17.3716H1.05703H0V21.1958V25.02H3.56641H7.13281V25.2091C7.13281 25.3122 7.04688 26.0083 6.95234 26.756C6.84922 27.5036 6.78047 28.131 6.79766 28.1481C6.86641 28.2169 9.32422 28.5263 9.37578 28.4747C9.40156 28.4403 9.51328 27.7528 9.61641 26.9536C9.71953 26.1458 9.82266 25.3896 9.84844 25.2606L9.9 25.02H10.9055H11.9195L12.1602 26.7817L12.4008 28.5435L12.6672 28.5005C12.8133 28.4747 13.3977 28.3974 13.9648 28.32C14.532 28.2427 15.0047 28.1739 15.0219 28.1653C15.0391 28.1396 14.7555 25.9481 14.6523 25.295L14.6008 25.02H19.6367C22.9539 25.02 24.6641 25.0458 24.6641 25.106C24.6641 25.2005 24.3375 27.6067 24.2859 27.9505L24.243 28.1739L25.5492 28.3544C26.2711 28.4489 26.8641 28.5177 26.8813 28.5091C26.8898 28.4919 27.0102 27.7099 27.1391 26.7731L27.3711 25.063H28.4023H29.4336L29.657 26.7646C29.7859 27.7013 29.8977 28.4833 29.9148 28.5005C29.932 28.5177 30.5422 28.4489 31.2555 28.3544C32.5016 28.1825 32.5617 28.1653 32.5273 27.9935C32.4758 27.7614 32.1406 25.2778 32.1406 25.1317C32.1406 25.0458 32.8453 25.02 35.707 25.02H39.2734V21.1958V17.3716H37.8898H36.4977L36.5406 16.5724C36.5836 15.7388 36.7039 15.4036 37.0563 15.0771C37.3656 14.7849 37.675 14.7075 38.5086 14.7075H39.2734V12.8599V11.0122H41.6367H44V6.19971V1.38721H41.6367H39.2734V0.742676V0.0981445L30.018 0.106737C22.8594 0.115332 20.5648 0.141113 19.9375 0.227051ZM36.6008 7.46299V12.2583L36.0938 12.4989C35.4148 12.8255 34.7102 13.5388 34.332 14.3122C34.0141 14.9481 33.8594 15.7903 33.8594 16.8731V17.3716H19.4648C11.55 17.3716 5.07031 17.3544 5.07031 17.3372C5.07031 17.2599 7.17578 12.6536 7.5625 11.8716C10.0031 6.99893 15.0648 3.48408 20.5391 2.85674C21.7508 2.71064 21.8969 2.71064 29.5453 2.69346L36.6094 2.67627L36.6008 7.46299ZM41.4219 6.19971V8.34814H40.3477H39.2734V6.19971V4.05127H40.3477H41.4219V6.19971ZM36.6094 21.1958V22.356H19.5938H2.57812V21.1958V20.0356H19.5938H36.6094V21.1958Z" fill="#38B189"/>
<path d="M21.2524 4.9536C18.3735 5.58094 17.325 9.25047 19.4219 11.3473C19.9118 11.8372 20.711 12.2583 21.3899 12.3872C22.0086 12.4989 30.929 12.4989 31.5477 12.3872C32.6219 12.1895 33.7133 11.3731 34.1946 10.4278C34.9766 8.86375 34.6844 7.10203 33.4297 5.9075C32.8454 5.34891 32.3985 5.10828 31.6336 4.945C30.8258 4.77313 22.043 4.78172 21.2524 4.9536ZM31.2813 7.64344C31.6508 7.82391 31.9688 8.28797 31.9688 8.64891C31.9688 9.00985 31.6508 9.47391 31.2813 9.65438C31.0063 9.79188 30.5938 9.80906 26.4688 9.80906C22.3438 9.80906 21.9313 9.79188 21.6563 9.65438C21.2868 9.47391 20.9688 9.00985 20.9688 8.64891C20.9688 8.28797 21.2868 7.82391 21.6563 7.64344C21.9313 7.50594 22.3438 7.48875 26.4688 7.48875C30.5938 7.48875 31.0063 7.50594 31.2813 7.64344Z" fill="#38B189"/>
<path d="M9.28125 14.5786V15.8247H10.6133H11.9453V14.5786V13.3325H10.6133H9.28125V14.5786Z" fill="#38B189"/>
<path d="M13.4919 14.5786V15.8247H14.824H16.156V14.5786V13.3325H14.824H13.4919V14.5786Z" fill="#38B189"/>
<path d="M3.17969 29.6435C3.17969 30.5115 3.63516 31.5427 4.36563 32.3419C4.90703 32.9177 5.9125 33.4763 6.60859 33.5708C6.99531 33.6224 7.05547 33.6654 7.25313 33.9833C7.53672 34.4818 8.3875 35.2638 8.92031 35.5388C10.2609 36.2177 11.9883 36.1318 13.2516 35.324C13.7156 35.0232 14.3945 34.3013 14.5836 33.9146C14.6953 33.6826 14.7812 33.6396 15.2281 33.5536C16.8352 33.2443 18.1758 31.9122 18.5195 30.288C18.743 29.231 18.8547 29.3169 17.325 29.3169H16.0016L15.9414 29.5919C15.7953 30.2708 15.2883 30.8036 14.6609 30.9497C14.4547 30.9927 14.0852 30.9669 13.5609 30.8638C13.1227 30.7779 12.7531 30.7177 12.7445 30.7263C12.7273 30.7349 12.6586 31.0701 12.5813 31.4654C12.5125 31.8607 12.375 32.3333 12.2805 32.5138C11.9453 33.1755 11.0688 33.5021 10.3727 33.2357C9.66797 32.9693 9.37578 32.4966 9.19531 31.3536C9.10078 30.8122 9.05781 30.6919 8.94609 30.7263C8.53359 30.8466 7.76016 30.9669 7.43359 30.9669C6.69453 30.9669 5.98984 30.374 5.87812 29.6435L5.81797 29.3169H4.50313H3.17969V29.6435Z" fill="#38B189"/>
<path d="M20.7109 29.7466C20.7109 31.4224 22.2922 33.2185 24.0711 33.5536C24.5008 33.6396 24.5781 33.6825 24.7156 33.9489C25.2227 34.9028 26.5719 35.788 27.7922 35.9599C29.4336 36.2005 31.2898 35.3325 32.0461 33.9833C32.218 33.6825 32.2867 33.6396 32.7336 33.5536C34.1516 33.2872 35.432 32.1442 35.9133 30.7091C36.0164 30.4169 36.0938 29.9872 36.0938 29.7466V29.3169H34.7617H33.4297V29.5403C33.4297 30.1161 32.8883 30.7435 32.2609 30.9067C31.9258 30.9927 31.7195 30.9841 31.0492 30.8638C30.4648 30.7521 30.2242 30.7435 30.207 30.8122C30.1898 30.8638 30.1383 31.156 30.0781 31.4653C30.0266 31.7747 29.9492 32.1442 29.8977 32.2903C29.7344 32.806 28.9523 33.356 28.3852 33.356C27.8438 33.3474 27.1047 32.8231 26.907 32.3075C26.8641 32.1872 26.7781 31.8349 26.7266 31.5341C26.5719 30.6317 26.6664 30.6919 25.7469 30.8638C25.0852 30.9841 24.8789 30.9927 24.5438 30.9067C23.8992 30.7435 23.375 30.1247 23.375 29.5317V29.3169H22.043H20.7109V29.7466Z" fill="#38B189"/>
</svg>
