<svg width="40" height="41" viewBox="0 0 40 41" fill="none" xmlns="http://www.w3.org/2000/svg">
<path d="M25.6176 0.265606C22.8036 0.617493 20.1773 1.86863 18.1684 3.8079C15.9016 5.9974 14.6745 8.47623 14.2445 11.7214L14.1976 12.0811L12.6187 12.128C11.4384 12.1593 10.8522 12.2062 10.2816 12.3313C7.69429 12.8943 5.63855 14.0125 3.76258 15.8892C1.87098 17.7816 0.761033 19.8382 0.198243 22.489C0.0497288 23.2006 0.0262792 23.5681 0.0184627 24.9287C0.0184627 26.782 0.127894 27.5327 0.604702 29.0106C1.15968 30.6918 2.11329 32.3808 3.16852 33.5303L3.63752 34.0386L3.36394 34.5469C2.84805 35.4774 1.76155 37.3072 0.90173 38.6835C0.424922 39.4342 0.0262792 40.091 0.00282962 40.1536C-0.036253 40.2474 0.307674 40.263 2.41032 40.2396C4.75528 40.2083 4.89598 40.2005 5.60728 40.005C6.95172 39.6375 8.14765 38.9728 9.20288 38.011C9.66406 37.5809 9.73441 37.5496 9.94545 37.6122C11.2117 37.9562 14.0022 37.9875 15.4952 37.6747C18.8407 36.9632 21.7406 35.0082 23.6322 32.1932C24.6483 30.6762 25.3206 28.9402 25.6332 27.0713L25.7974 26.0391L27.3685 26C28.4941 25.9687 29.135 25.9218 29.6197 25.8124L30.3075 25.6638L30.5967 25.9687C31.3471 26.7351 32.543 27.4936 33.6452 27.9002C34.7629 28.3068 35.3335 28.3694 37.7801 28.3694C38.9995 28.3694 40 28.3459 40 28.3225C40 28.2912 39.6014 27.6343 39.1167 26.8524C37.6316 24.4908 36.4044 22.3795 36.4044 22.1997C36.4044 22.1449 36.5998 21.8791 36.8421 21.621C37.8895 20.4637 38.9057 18.6496 39.4059 17.0309C39.8749 15.5217 39.9609 14.9196 39.9609 13.1602C39.9609 11.346 39.8515 10.5875 39.3669 9.09398C38.7181 7.10779 37.7488 5.55168 36.209 4.01121C34.7004 2.50202 33.1371 1.52457 31.222 0.883358C29.8151 0.414181 29.0569 0.289066 27.3763 0.25779C26.5634 0.242149 25.7661 0.249969 25.6176 0.265606ZM29.4946 2.90865C32.1444 3.56549 34.333 5.10596 35.826 7.34238C36.5998 8.5075 37.0923 9.68045 37.3971 11.088C37.6003 12.0263 37.5925 14.294 37.3893 15.2324C36.9281 17.3672 35.8338 19.2751 34.1767 20.8469L33.4341 21.5507L33.7468 22.3013C34.0516 23.0598 34.333 23.6072 35.1694 25.0695C35.4273 25.5152 35.6227 25.8906 35.6071 25.9062C35.5368 25.9687 34.419 25.6012 33.8718 25.3275C33.0277 24.9131 32.332 24.311 31.7223 23.4977C31.4565 23.1302 31.1908 22.8409 31.1439 22.8565C29.2601 23.4665 28.5253 23.5994 27.0949 23.5994C25.8365 23.5994 24.9454 23.4586 23.8511 23.0911C20.6463 22.0198 18.1997 19.5723 17.1367 16.3741C16.7771 15.2949 16.6286 14.3644 16.6286 13.1602C16.6286 11.3695 17.0038 9.80556 17.8089 8.2651C19.2862 5.44221 22.2096 3.28399 25.2268 2.79917C25.5472 2.75225 25.8677 2.69751 25.9303 2.68187C25.9928 2.66624 26.6494 2.66624 27.3763 2.68187C28.4706 2.70533 28.8458 2.74443 29.4946 2.90865ZM14.1742 14.5912C14.2211 14.6225 14.2836 14.8179 14.3149 15.0369C14.5025 16.3662 15.0184 17.9302 15.7141 19.2439L16.1205 20.0024L14.4947 21.6289L12.8767 23.2475L10.9616 21.3317L9.04655 19.4159L8.1711 20.2917L7.29565 21.1753L9.18725 23.052C10.2268 24.092 11.0788 24.96 11.0788 24.9913C11.0788 25.0226 10.2268 25.8984 9.18725 26.9384L7.28783 28.8386L8.1711 29.7144L9.04655 30.598L10.9851 28.6587L12.9157 26.7273L14.8308 28.6431L16.7458 30.5589L17.6057 29.6987L18.4655 28.8386L16.5504 26.9227L14.6354 25.0069L16.144 23.4977L17.6447 21.9886L18.059 22.3795C19.5051 23.7402 21.0293 24.6941 22.7333 25.2963C23.3508 25.5152 23.3508 25.5152 23.3508 25.7967C23.3508 25.9531 23.2961 26.3832 23.2336 26.7585C22.4675 31.161 18.9423 34.6485 14.5259 35.3758C13.3691 35.5634 11.5713 35.4931 10.4926 35.2194C10.0627 35.1177 9.49991 34.9535 9.24978 34.8675C8.99184 34.7737 8.78079 34.7033 8.76516 34.7033C8.75734 34.7033 8.61664 34.891 8.4525 35.1099C7.78028 36.0483 7.14714 36.6347 6.3264 37.1039C5.81833 37.3854 4.79436 37.7529 4.50515 37.7529C4.341 37.7529 4.341 37.7529 4.51297 37.4558C5.07576 36.5174 5.96684 34.8362 6.2326 34.195L6.53745 33.4521L5.62291 32.5294C3.99708 30.9108 3.05128 29.2139 2.5901 27.1182C2.47285 26.5943 2.44159 26.133 2.44159 24.9678C2.4494 23.6229 2.46504 23.4039 2.65263 22.661C3.17634 20.5654 3.99708 19.1109 5.49003 17.6174C7.06897 16.03 9.01529 14.9978 11.0867 14.6537C11.7823 14.5364 14.0257 14.4895 14.1742 14.5912Z" fill="#38B189"/>
</svg>
