<svg width="36" height="40" viewBox="0 0 36 40" fill="none" xmlns="http://www.w3.org/2000/svg">
<path d="M16.6655 0.184856C15.7034 0.520748 14.8733 1.23941 14.4233 2.12991C14.1595 2.65329 13.9655 3.34851 13.9655 3.77033V4.06716H15.1603H16.3474L16.4017 3.73127C16.5724 2.66109 17.806 2.06742 18.7448 2.62204C19.6914 3.17665 19.8233 4.44992 19.0086 5.19202C18.6284 5.53572 18.2948 5.62946 17.4414 5.62946H16.7586V6.4028V7.18394L12.0491 7.20738L7.3319 7.23863L6.55603 7.44954C3.68534 8.25412 1.41983 10.3632 0.488793 13.0894C0.0155172 14.4799 0.0465517 13.4722 0.0232759 27.322L0 40H18H36V27.7047C36 19.3777 35.9767 15.2142 35.9147 14.8001C35.4259 11.2694 32.8888 8.39473 29.4284 7.44173L28.6681 7.23863L24.5716 7.20738L20.4672 7.18394L20.894 6.73088C22.8957 4.62178 21.9569 1.02068 19.1793 0.161419C18.4578 -0.0651131 17.3638 -0.0494919 16.6655 0.184856ZM14.9198 13.6597L16.7586 17.6982V25.2597V32.8134H14.3147H11.8707V31.2511V29.6888H13.0733H14.2759V28.4781V27.2673H13.0733H11.8707V21.4868V15.7063H10.6681H9.46552V22.971V30.2356H8.26293H7.05259L7.08362 21.7758C7.1069 12.4176 7.07586 13.0504 7.61897 11.9568C8.12328 10.9491 9.3181 10.0117 10.4431 9.7383C10.7224 9.668 11.3353 9.62113 11.9948 9.62113L13.081 9.61332L14.9198 13.6597ZM20.1491 9.668C20.1336 9.70706 19.6371 10.7929 19.0474 12.0974C18.4578 13.3941 17.969 14.4486 17.9534 14.433C17.9302 14.4096 16.1612 10.5351 15.8974 9.9414L15.7578 9.61332H17.969C19.1871 9.61332 20.1647 9.63675 20.1491 9.668ZM25.425 9.73049C26.9457 10.0898 28.156 11.2381 28.6759 12.816C28.8155 13.2222 28.8233 13.7456 28.8466 21.7367L28.8698 30.2356H27.6595H26.4569V22.971V15.7063H25.2543H24.0517V21.4868V27.2673H22.8879H21.7241V28.4781V29.6888H22.8879H24.0517V31.2511V32.8134H21.6078H19.1638V25.2675V17.7216L21.0026 13.6675L22.8491 9.61332H23.8966C24.5405 9.61332 25.1302 9.66019 25.425 9.73049ZM30.8793 10.7929C32.1207 11.6365 33.1293 13.1754 33.4474 14.722C33.5871 15.3938 33.5948 15.9953 33.5948 26.5408V37.6566H18H2.40517V26.5408C2.40517 15.9953 2.41293 15.3938 2.55259 14.722C2.80862 13.4566 3.46034 12.3005 4.43017 11.3631C4.8569 10.9569 5.50086 10.4726 5.61724 10.4726C5.64052 10.4726 5.57069 10.621 5.46983 10.8007C5.14397 11.3943 4.81034 12.5348 4.73276 13.3394C4.69397 13.7768 4.65517 18.1122 4.65517 23.3772V32.6572H7.06034H9.46552V33.907V35.1569H17.9612H26.4569V33.907V32.6572H28.8621H31.275L31.244 22.8382L31.2207 13.0113L31.05 12.363C30.9103 11.824 30.7552 11.449 30.2741 10.4413C30.2353 10.3554 30.3207 10.4101 30.8793 10.7929Z" fill="#38B189"/>
</svg>
