<svg width="35" height="26" viewBox="0 0 35 26" fill="none" xmlns="http://www.w3.org/2000/svg">
<path fill-rule="evenodd" clip-rule="evenodd" d="M2.45948 0.0486084C0.984638 0.332884 -0.108178 1.75253 0.00854309 3.2326C0.0562025 3.83771 0.241096 4.29387 0.684527 4.9007C0.74511 4.98365 0.717007 5.06428 0.548866 5.28986C-0.0955281 6.15459 -0.171291 7.38833 0.357749 8.40088C0.553652 8.77575 0.997288 9.28116 1.24229 9.40864L1.41658 9.4993L1.06826 9.93924C0.672972 10.4387 0.333202 11.1084 0.153778 11.7418C-0.0123806 12.3285 -0.0122438 13.6632 0.15412 14.2675C0.319458 14.8684 0.745794 15.6955 1.11018 16.1225L1.41699 16.482L1.16085 16.6624C0.661279 17.0142 0.273508 17.6173 0.0831434 18.3386C-0.120144 19.1092 0.0687841 20.0753 0.548866 20.7195C0.717691 20.9459 0.745179 21.0253 0.683844 21.1086C0.459496 21.4129 0.184958 21.9093 0.111315 22.1438C-0.0319367 22.5998 0.00970551 23.6116 0.190087 24.0596C0.51454 24.8653 1.18054 25.5131 2.02549 25.8447L2.41791 25.9988H16.538C32.4788 25.9988 30.9484 26.0518 32.195 25.4566C33.9458 24.6207 35.107 22.627 34.9765 20.6815C34.9058 19.6283 34.5509 18.7125 33.9195 17.9543L33.5983 17.5685L34.0479 17.131C34.6694 16.5264 35 15.7835 35 14.9919C35 14.4946 34.7966 13.8254 34.5181 13.4066L34.2509 13.0047L34.5181 12.6027C34.7966 12.1839 35 11.5147 35 11.0175C35 10.2174 34.6258 9.38843 34.0131 8.83131L33.5937 8.45L33.9157 8.0615C35.8883 5.68142 35.0085 1.89417 32.1684 0.540192C30.9476 -0.0417191 32.4941 0.0123177 16.7431 0.000885519C9.03095 -0.00469764 2.62509 0.0167046 2.45948 0.0486084ZM15.1448 2.95504L16.0424 3.93203L9.46945 3.9503C5.85438 3.96034 2.82968 3.95283 2.74797 3.93369C2.31213 3.83146 1.98118 3.27002 2.07383 2.79007C2.12942 2.50214 2.47418 2.12142 2.74968 2.04386C2.87125 2.00963 5.41997 1.98211 8.60611 1.98065L14.2473 1.97799L15.1448 2.95504ZM26.0668 2.05436C26.038 2.10009 25.0149 3.21147 23.7931 4.52417L21.5715 6.91091L21.3625 6.67755C21.2476 6.5492 20.2457 5.4664 19.1363 4.27127C18.0269 3.07621 17.1089 2.06978 17.0964 2.03482C17.082 1.9948 18.7484 1.97127 21.5963 1.97127C25.1967 1.97127 26.1083 1.98822 26.0668 2.05436ZM30.3503 2.04233C31.6297 2.24392 32.6801 3.2683 32.894 4.52284C33.1665 6.12175 32.0123 7.67733 30.3503 7.95104C30.0573 7.99929 28.7883 8.01777 26.6267 8.00534L23.3476 7.98646L24.26 7.00695L25.1724 6.02744L27.5391 6.00996L29.9058 5.99248V4.99549V3.99849L28.5131 3.96526L27.1203 3.93203L28.0262 2.95165L28.9321 1.97127L29.4189 1.97181C29.6868 1.97207 30.1058 2.00378 30.3503 2.04233ZM18.8628 6.96049C19.3329 7.47168 19.7279 7.91953 19.7406 7.95582C19.7559 7.99922 16.8564 8.01571 11.2497 8.00408C2.77129 7.98653 2.73484 7.98586 2.5468 7.84941C2.19643 7.59518 2.07575 7.37391 2.07944 6.99299C2.0834 6.58861 2.21578 6.34867 2.54126 6.15572C2.75446 6.02937 2.94497 6.02624 10.3839 6.02864L18.0081 6.03109L18.8628 6.96049ZM32.4016 10.1301C32.661 10.256 32.9487 10.7155 32.9487 11.0038C32.9487 11.327 32.6858 11.7249 32.3759 11.8707C32.0851 12.0076 32.0766 12.0077 18.5677 12.0077H5.05046V13.0047V14.0016H18.5677C32.0766 14.0016 32.0851 14.0017 32.3759 14.1386C32.6858 14.2844 32.9487 14.6823 32.9487 15.0056C32.9487 15.2854 32.6613 15.7429 32.4027 15.8744C32.1744 15.9906 31.5925 15.9956 18.5083 15.9956C8.61411 15.9956 4.75226 15.975 4.48969 15.9205C3.56618 15.729 2.83187 15.1867 2.42447 14.3951C1.51286 12.6237 2.45777 10.5737 4.40087 10.1071C4.66604 10.0434 7.81867 10.0237 18.4525 10.0195C31.3746 10.0142 32.1761 10.0206 32.4016 10.1301ZM30.2674 18.0584C31.5185 18.2558 32.4538 19.0145 32.7911 20.1057C32.9411 20.591 32.9422 21.4332 32.7934 21.9142C32.5142 22.8171 31.7444 23.5682 30.8036 23.8558L30.3161 24.0048H16.5326H2.74913L2.4908 23.8133C2.17701 23.5806 2.01537 23.2352 2.06207 22.897C2.1005 22.6183 2.3176 22.2853 2.54236 22.1602C2.65956 22.095 5.6009 22.0702 16.2986 22.0441L29.9058 22.0108V21.0138V20.0168L16.2986 19.9836C5.62607 19.9576 2.65935 19.9326 2.5429 19.8677C2.16183 19.6557 1.96244 19.1227 2.10604 18.6999C2.19814 18.4285 2.49907 18.1366 2.76691 18.0586C3.05731 17.9742 29.7319 17.974 30.2674 18.0584Z" fill="#38B189"/>
</svg>
