<svg width="43" height="43" viewBox="0 0 43 43" fill="none" xmlns="http://www.w3.org/2000/svg">
<path fill-rule="evenodd" clip-rule="evenodd" d="M17.1709 0.0466496C14.771 0.303698 12.7947 0.875392 10.6054 1.94588C3.90817 5.22057 -0.288262 12.2487 0.0154508 19.6819C0.208738 24.4151 2.04076 28.6763 5.36093 32.1154C9.06742 35.9548 14.4105 38.089 19.7341 37.8567C20.962 37.8031 22.1855 37.6476 23.1638 37.4208C23.4556 37.3531 23.7098 37.2978 23.7288 37.2978C23.7478 37.2978 23.9329 37.5911 24.14 37.9494C26.0383 41.2336 29.6123 43.1884 33.3482 42.9856C35.9452 42.8447 38.1301 41.862 39.9949 39.9961C41.8618 38.1281 42.8536 35.91 42.9873 33.3037C43.1777 29.5906 41.2186 26.0242 37.9493 24.1324C37.5911 23.9251 37.298 23.74 37.298 23.721C37.298 23.702 37.3533 23.4476 37.4209 23.1557C38.6671 17.7743 37.3408 11.7885 33.9187 7.35079C30.9505 3.50187 26.5904 0.921387 21.793 0.174543C20.7946 0.0191538 18.1191 -0.0549252 17.1709 0.0466496ZM21.751 2.7288C27.6557 3.7569 32.5494 7.96898 34.4741 13.6796C35.1428 15.6639 35.4266 17.6202 35.3383 19.6399C35.2891 20.7689 35.0053 22.7243 34.8712 22.8584C34.8326 22.8971 34.4647 22.8837 34.0536 22.8288C32.6818 22.6454 31.0212 22.8204 29.5984 23.2984C27.1823 24.1099 25.0133 25.9977 23.8524 28.2996C22.9656 30.0579 22.5885 32.1938 22.837 34.0516C22.892 34.4628 22.9054 34.831 22.8668 34.8696C22.8282 34.9082 22.3439 35.0181 21.7906 35.1137C14.5757 36.36 7.31002 32.6362 4.14322 26.0689C0.218738 17.9304 3.64042 8.13782 11.7986 4.15984C13.4451 3.357 15.4163 2.78471 17.2646 2.57282C18.2999 2.45409 20.6412 2.53548 21.751 2.7288ZM17.7172 6.35446V7.61574H18.9777H20.2383V6.35446V5.09318H18.9777H17.7172V6.35446ZM9.14482 9.17182L8.26494 10.0552L9.16734 10.9581L10.0697 11.861L10.9721 10.9581L11.8745 10.0552L10.9947 9.17182C10.5107 8.68597 10.0945 8.28842 10.0697 8.28842C10.0449 8.28842 9.62879 8.68597 9.14482 9.17182ZM26.9608 9.17182L26.081 10.0552L26.9834 10.9581L27.8858 11.861L28.7882 10.9581L29.6906 10.0552L28.8107 9.17182C28.3267 8.68597 27.9105 8.28842 27.8858 8.28842C27.861 8.28842 27.4448 8.68597 26.9608 9.17182ZM17.7172 15.1834V20.2285H21.4989H25.2806V18.9672V17.7059H22.7594H20.2383V13.9221V10.1383H18.9777H17.7172V15.1834ZM5.11151 18.9672V20.2285H6.37207H7.63264V18.9672V17.7059H6.37207H5.11151V18.9672ZM30.3229 18.9672V20.2285H31.5834H32.844V18.9672V17.7059H31.5834H30.3229V18.9672ZM34.3147 25.4325C35.9357 25.7684 37.2714 26.5069 38.4045 27.6935C40.8275 30.2311 41.1667 34.093 39.2202 36.9808C36.5256 40.9783 31.151 41.661 27.7392 38.4391C24.5719 35.4482 24.4674 30.5407 27.506 27.5003C29.2942 25.7111 31.8755 24.9272 34.3147 25.4325ZM9.14482 26.9979L8.26494 27.8813L9.16734 28.7842L10.0697 29.6871L10.9721 28.7842L11.8745 27.8813L10.9947 26.9979C10.5107 26.512 10.0945 26.1145 10.0697 26.1145C10.0449 26.1145 9.62879 26.512 9.14482 26.9979ZM33.6218 31.516L31.5849 33.5541L30.8052 32.7773C30.3764 32.35 29.9877 32.0004 29.9415 32.0004C29.8325 32.0004 28.2219 33.617 28.2219 33.7264C28.2219 33.7723 28.9783 34.5659 29.9028 35.4901L31.5838 37.1704L34.5249 34.2285C36.1426 32.6105 37.4661 31.2479 37.4661 31.2005C37.4661 31.0904 35.8519 29.4779 35.7416 29.4779C35.6961 29.4779 34.7422 30.395 33.6218 31.516ZM17.7172 31.58V32.8413H18.9777H20.2383V31.58V30.3187H18.9777H17.7172V31.58Z" fill="#38B189"/>
</svg>
