<svg width="43" height="43" viewBox="0 0 43 43" fill="none" xmlns="http://www.w3.org/2000/svg">
<path fill-rule="evenodd" clip-rule="evenodd" d="M19.485 1.80972C18.3999 2.80175 17.3609 3.73978 17.1762 3.89413L16.8404 4.17486L13.818 3.52446C11.7395 3.07719 10.7787 2.90303 10.7417 2.96668C10.7121 3.01765 10.2821 4.32535 9.78609 5.87264C9.29008 7.41992 8.84208 8.72863 8.79045 8.78094C8.73881 8.83326 7.43093 9.28128 5.88403 9.77658C4.33713 10.2718 3.03067 10.7014 2.98072 10.7312C2.91943 10.7678 3.10128 11.7663 3.54113 13.8085C4.16585 16.709 4.18626 16.8385 4.04546 16.9997C3.96469 17.092 3.02144 18.1407 1.94931 19.33L0 21.4924L1.94931 23.6549C3.02144 24.8442 3.96469 25.8929 4.04546 25.9852C4.18626 26.1464 4.16585 26.2759 3.54113 29.1764C3.10128 31.2185 2.91943 32.2171 2.98072 32.2537C3.03067 32.2835 4.33713 32.7131 5.88403 33.2083C7.43093 33.7036 8.73881 34.1516 8.79045 34.2039C8.84208 34.2563 9.29008 35.565 9.78609 37.1123C10.2821 38.6595 10.7121 39.9672 10.7417 40.0182C10.7787 40.0819 11.7396 39.9076 13.818 39.4601C16.6546 38.8494 16.8505 38.8178 17.0047 38.9476C17.0951 39.0236 18.1437 39.9665 19.3351 41.0429L21.5011 43L23.6624 41.0499C24.8511 39.9773 25.8993 39.0333 25.9917 38.9521C26.1531 38.8102 26.277 38.8298 29.1821 39.4557C31.2225 39.8954 32.222 40.0775 32.2583 40.0163C32.2879 39.9663 32.7179 38.6595 33.2139 37.1123C33.7099 35.565 34.1579 34.2581 34.2096 34.2081C34.2612 34.1581 35.5691 33.7101 37.116 33.2124C38.6629 32.7149 39.9693 32.2834 40.0193 32.2537C40.0805 32.2171 39.8986 31.2183 39.4589 29.1764C38.8341 26.2759 38.8137 26.1464 38.9545 25.9852C39.0353 25.8929 39.9786 24.8442 41.0507 23.6549L43 21.4924L41.0507 19.33C39.9786 18.1407 39.0353 17.092 38.9545 16.9997C38.8137 16.8385 38.8341 16.709 39.4589 13.8085C39.8986 11.7666 40.0805 10.7678 40.0193 10.7312C39.9693 10.7015 38.6629 10.27 37.116 9.77247C35.5691 9.27482 34.2612 8.8268 34.2096 8.77683C34.1579 8.72678 33.7099 7.41992 33.2139 5.87264C32.7179 4.32535 32.2879 3.01858 32.2583 2.96861C32.222 2.90739 31.2225 3.08946 29.1821 3.52916C26.277 4.15513 26.1531 4.1747 25.9917 4.03277C25.8993 3.95157 24.8535 3.00968 23.6676 1.93964C22.4817 0.869679 21.4994 -0.00318242 21.4847 8.72224e-06C21.47 0.00328384 20.5702 0.817613 19.485 1.80972ZM23.4366 5.15883C24.4607 6.08258 25.3702 6.85055 25.4577 6.86542C25.5454 6.88028 26.7127 6.65741 28.0517 6.37012C29.3909 6.08275 30.5057 5.86701 30.5294 5.89061C30.553 5.91421 30.9102 6.98744 31.3234 8.27548C31.7364 9.56353 32.1055 10.6704 32.1435 10.7354C32.1816 10.8002 33.3013 11.2044 34.6318 11.6335C35.9622 12.0626 37.072 12.4349 37.0978 12.4608C37.1237 12.4866 36.9078 13.6162 36.6179 14.971C36.328 16.3257 36.1043 17.4933 36.1207 17.5654C36.137 17.6376 36.9061 18.5345 37.8296 19.5586C38.7531 20.5827 39.5087 21.4529 39.5087 21.4924C39.5087 21.532 38.7531 22.4022 37.8296 23.4263C36.9061 24.4504 36.137 25.3473 36.1207 25.4195C36.1043 25.4916 36.328 26.6592 36.6179 28.0139C36.9078 29.3687 37.1237 30.4983 37.0978 30.5241C37.072 30.55 35.9622 30.9223 34.6318 31.3514C33.3013 31.7805 32.1816 32.1847 32.1435 32.2495C32.1055 32.3145 31.7364 33.4214 31.3234 34.7094C30.9102 35.9975 30.553 37.0707 30.5294 37.0943C30.5057 37.1179 29.3909 36.9021 28.0517 36.6148C26.7127 36.3275 25.5454 36.1046 25.4577 36.1195C25.3702 36.1343 24.4602 36.9023 23.4355 37.8261C22.4109 38.7498 21.5425 39.5056 21.5055 39.5056C21.4686 39.5056 20.5981 38.7498 19.5709 37.8261C18.5438 36.9023 17.6448 36.1331 17.5731 36.1167C17.5014 36.1003 16.3346 36.3241 14.9802 36.614C13.6257 36.904 12.496 37.1196 12.4695 37.0932C12.4432 37.0668 12.0793 35.9739 11.6609 34.6644C11.2426 33.3549 10.8578 32.2405 10.8059 32.1879C10.754 32.1352 9.63682 31.7468 8.32331 31.3247C7.00981 30.9025 5.91711 30.5392 5.89511 30.5172C5.87312 30.4952 6.09224 29.3687 6.38215 28.0139C6.67197 26.6592 6.89571 25.4916 6.87934 25.4195C6.86297 25.3473 6.09392 24.4504 5.1704 23.4263C4.24687 22.4022 3.49126 21.532 3.49126 21.4924C3.49126 21.4529 4.24687 20.5827 5.1704 19.5586C6.09392 18.5345 6.86297 17.6376 6.87934 17.5654C6.89571 17.4933 6.67197 16.3257 6.38215 14.971C6.09224 13.6162 5.87312 12.4897 5.89511 12.4677C5.91711 12.4457 7.00981 12.0824 8.32331 11.6602C9.63682 11.238 10.7534 10.8496 10.8044 10.797C10.8555 10.7444 11.2408 9.62945 11.6606 8.3194C12.0804 7.00927 12.4451 5.91622 12.471 5.89027C12.4969 5.86441 13.6063 6.07653 14.9363 6.36181C16.2663 6.64699 17.4277 6.87877 17.5172 6.87676C17.6081 6.87482 18.5145 6.11592 19.569 5.15908C20.608 4.21627 21.4843 3.45266 21.5164 3.46215C21.5484 3.47155 22.4126 4.23508 23.4366 5.15883ZM15.4551 12.2272C15.0475 12.292 14.2336 12.6165 13.9019 12.8465C12.6531 13.712 12.0085 15.1984 12.2639 16.6232C12.6314 18.673 14.6212 20.0939 16.6229 19.7361C18.2421 19.4467 19.4547 18.2337 19.744 16.6142C20.1837 14.1535 17.9176 11.8356 15.4551 12.2272ZM20.5766 20.6105L12.9791 28.2103L13.8815 29.113L14.7839 30.0156L22.402 22.3956L30.02 14.7757L29.1408 13.8932C28.6572 13.4079 28.2419 13.0107 28.2179 13.0107C28.1939 13.0107 24.7553 16.4306 20.5766 20.6105ZM16.7662 14.9828C17.0594 15.175 17.3319 15.8078 17.2677 16.1474C17.1818 16.6022 16.9045 16.9572 16.4937 17.1391C15.641 17.5164 14.7694 16.9319 14.7694 15.9828C14.7694 14.9652 15.8861 14.406 16.7662 14.9828ZM26.0337 23.3243C24.5931 23.701 23.5233 24.8743 23.256 26.3707C22.8975 28.3769 24.3147 30.3618 26.3695 30.7313C28.3966 31.0959 30.3759 29.654 30.7479 27.5418C30.9424 26.4375 30.5193 25.1723 29.6723 24.325C29.1157 23.7684 28.5935 23.4712 27.8734 23.3014C27.1876 23.1397 26.7174 23.1455 26.0337 23.3243ZM27.5462 25.8803C28.7226 26.4768 28.311 28.2247 26.9941 28.2247C26.4764 28.2247 26.1166 27.9962 25.8775 27.5157C25.6537 27.0659 25.6727 26.7528 25.9517 26.2953C26.1229 26.0145 26.6775 25.6967 27.0024 25.6932C27.0965 25.6922 27.3412 25.7763 27.5462 25.8803Z" fill="#38B189"/>
</svg>
