<svg width="32" height="31" viewBox="0 0 32 31" fill="none" xmlns="http://www.w3.org/2000/svg">
<path d="M30.8774 18.455C30.4855 11.5447 29.2025 6.50458 27.0634 3.47461C27.062 3.47259 27.0604 3.47101 27.0591 3.46899C27.0494 3.4562 27.0396 3.44385 27.0288 3.43195C27.0272 3.43038 27.0259 3.42859 27.0245 3.42701C27.0124 3.41422 26.9991 3.40209 26.9856 3.39087C26.9817 3.38773 26.9778 3.38481 26.9739 3.38189C26.9634 3.37381 26.9526 3.36595 26.9412 3.35877C26.9368 3.35607 26.9325 3.35316 26.9279 3.35046C26.9133 3.34193 26.8984 3.33407 26.8828 3.32711C26.8821 3.32667 26.8814 3.32622 26.8807 3.32599C26.8672 3.32016 26.8533 3.31477 26.8391 3.31028L19.8902 1.07299C19.3537 0.900353 18.775 1.03909 18.3797 1.43487L16 3.81943L13.6201 1.43487C13.2253 1.03909 12.6464 0.900353 12.1098 1.07299L10.1115 1.71638C9.88073 1.79069 9.75507 2.03426 9.83083 2.26055C9.9066 2.48684 10.155 2.61009 10.3857 2.53578L12.384 1.89261C12.6001 1.82324 12.8327 1.87891 12.9915 2.03808L15.5553 4.60695L15.5514 16.0298H12.0295C11.6458 16.0298 11.3258 16.3115 11.2851 16.6853C11.0021 19.2721 8.9848 20.9345 7.82128 21.6883V9.26651C7.82128 9.21577 7.81213 9.16526 7.79427 9.11744L5.86805 3.99026L7.82266 3.36101C8.05339 3.28693 8.17906 3.04313 8.10329 2.81684C8.02753 2.59056 7.77917 2.46731 7.54843 2.54162L5.16096 3.31028C5.14677 3.31499 5.13281 3.32016 5.1193 3.32599C5.11816 3.32644 5.11724 3.32711 5.1161 3.32756C5.10099 3.3343 5.08634 3.34216 5.07215 3.35046C5.06757 3.35316 5.06299 3.35607 5.05841 3.35899C5.0472 3.36618 5.03667 3.37381 5.02637 3.38167C5.02225 3.38481 5.01813 3.38773 5.01423 3.39109C5.00073 3.40232 4.98768 3.41422 4.97555 3.42701C4.97395 3.42881 4.97257 3.43061 4.97097 3.4324C4.96021 3.44407 4.95037 3.45642 4.94098 3.46899C4.93961 3.47101 4.93801 3.47259 4.93641 3.47461C2.79753 6.50458 1.51429 11.5447 1.12264 18.455C0.822315 23.7539 1.15445 28.4402 1.26341 29.7503C1.29477 30.1284 1.62256 30.4247 2.00987 30.4247H4.74939C5.10145 30.4247 5.40978 30.1793 5.48234 29.8415L6.94183 23.0418V29.6901C6.94183 30.0951 7.27787 30.4247 7.69081 30.4247H24.309C24.722 30.4247 25.058 30.0951 25.058 29.6901V23.0418L26.5175 29.8415C26.59 30.1795 26.8984 30.4247 27.2504 30.4247H29.99C30.3773 30.4247 30.705 30.1286 30.7364 29.7503C30.8454 28.4402 31.1777 23.7539 30.8774 18.455ZM6.94183 18.8552L4.64364 29.5622H2.13027C2.01399 28.1209 1.71184 23.5985 2.00071 18.5028C2.17125 15.4937 2.52078 12.807 3.03971 10.5172C3.57786 8.1427 4.30051 6.18647 5.19255 4.68686L6.94183 9.34351V18.8552ZM7.89957 22.6595C11.3322 20.6867 12.0121 17.8843 12.1453 16.8921H15.5381V26.6429H7.89957V22.6595ZM15.5466 29.5622H7.82128V27.5054H15.5473L15.5466 29.5622ZM24.1788 29.5622H16.4535L16.4528 27.5054H19.0291C19.272 27.5054 19.4688 27.3123 19.4688 27.0741C19.4688 26.8359 19.272 26.6429 19.0291 26.6429H16.462V16.8921H19.8548C19.988 17.8843 20.6678 20.6867 24.1005 22.6595V26.6429H21.765C21.5221 26.6429 21.3252 26.8359 21.3252 27.0741C21.3252 27.3123 21.5221 27.5054 21.765 27.5054H24.1788V29.5622ZM24.2058 9.11744C24.1877 9.16526 24.1785 9.21577 24.1785 9.26651V21.694C21.2831 19.8616 20.7958 17.4237 20.715 16.6853C20.6742 16.3115 20.3542 16.0298 19.9706 16.0298H16.4487L16.4448 4.60695L19.0083 2.03808C19.1674 1.87869 19.4004 1.82324 19.616 1.89261L26.132 3.99026L24.2058 9.11744ZM29.8698 29.5622H27.3564L25.058 18.8552V9.34351L26.8075 4.68686C27.6993 6.18647 28.4222 8.1427 28.9603 10.5172C29.4793 12.807 29.8288 15.4939 29.9993 18.5028C30.2882 23.5985 29.9858 28.1209 29.8698 29.5622Z" fill="url(#paint0_linear_1754_1766)" stroke="url(#paint1_linear_1754_1766)" stroke-width="0.5"/>
<defs>
<linearGradient id="paint0_linear_1754_1766" x1="1" y1="23.2396" x2="54.6801" y2="19.4326" gradientUnits="userSpaceOnUse">
<stop stop-color="#016DB4"/>
<stop offset="0.5" stop-color="#20BDFF"/>
<stop offset="1" stop-color="#E4DBD9"/>
</linearGradient>
<linearGradient id="paint1_linear_1754_1766" x1="1" y1="23.2396" x2="54.6801" y2="19.4326" gradientUnits="userSpaceOnUse">
<stop stop-color="#016DB4"/>
<stop offset="0.5" stop-color="#20BDFF"/>
<stop offset="1" stop-color="#E4DBD9"/>
</linearGradient>
</defs>
</svg>
