<svg width="30" height="35" viewBox="0 0 30 35" fill="none" xmlns="http://www.w3.org/2000/svg">
<path d="M12.3146 22.7288H9.59187C9.1411 22.7288 8.77417 23.0958 8.77417 23.5468V24.9404C8.77417 25.7193 9.40789 26.3531 10.1869 26.3531H11.7196C12.4985 26.3531 13.1323 25.7193 13.1323 24.9404V23.5468C13.1323 23.0958 12.7653 22.7288 12.3146 22.7288ZM12.151 24.9404C12.151 25.1781 11.9576 25.3715 11.7196 25.3715H10.1869C9.94886 25.3715 9.75546 25.1781 9.75546 24.9404V23.7104H12.151V24.9404Z" fill="url(#paint0_linear_1754_1776)" stroke="url(#paint1_linear_1754_1776)" stroke-width="0.5"/>
<path d="M12.0022 16.6542H11.4908C11.2199 16.6542 11 16.8739 11 17.145C11 17.4161 11.2199 17.6358 11.4908 17.6358H12.0022C12.2731 17.6358 12.493 17.4161 12.493 17.145C12.493 16.8739 12.2731 16.6542 12.0022 16.6542Z" fill="url(#paint2_linear_1754_1776)" stroke="url(#paint3_linear_1754_1776)" stroke-width="0.5"/>
<path d="M12.0022 19.402H11.4908C11.2199 19.402 11 19.6216 11 19.8927C11 20.1639 11.2199 20.3835 11.4908 20.3835H12.0022C12.2731 20.3835 12.493 20.1639 12.493 19.8927C12.493 19.6216 12.2731 19.402 12.0022 19.402Z" fill="url(#paint4_linear_1754_1776)" stroke="url(#paint5_linear_1754_1776)" stroke-width="0.5"/>
<path d="M27.9085 13.7471C27.8682 13.479 27.6183 13.2948 27.3505 13.3348C27.0824 13.3751 26.8979 13.625 26.9382 13.8928C28.0433 21.2483 27.8647 30.1668 27.803 32.2721H25.6302L22.6112 17.0515L24.7159 6.00124C25.3739 7.19224 25.938 8.84624 26.399 10.9383C26.4573 11.203 26.7193 11.3704 26.9838 11.3118C27.2483 11.2535 27.4154 10.9918 27.3573 10.727C27.0375 9.27662 26.6372 7.82877 26.0361 6.4673C25.7974 5.92658 25.5255 5.39784 25.1985 4.90477C24.7906 4.28991 24.2838 4.09625 23.6238 3.78716C21.6719 2.87365 19.7198 1.95989 17.7679 1.04638C17.7646 1.04459 17.761 1.04357 17.7577 1.04204C17.7513 1.0395 17.745 1.03695 17.7386 1.0344C17.7317 1.03185 17.7251 1.02854 17.7182 1.02625C17.7118 1.02421 17.7055 1.02268 17.6991 1.02089C17.6925 1.01886 17.6864 1.01707 17.6797 1.01529C17.6749 1.01401 17.6701 1.01274 17.6652 1.01147C17.6571 1.00968 17.6486 1.00866 17.6402 1.00739C17.6387 1.00713 17.6372 1.00688 17.6357 1.00663C17.6303 1.00561 17.625 1.00433 17.6196 1.00382C17.6168 1.00357 17.614 1.00306 17.6112 1.0028C17.6023 1.00178 17.5934 1.00178 17.5842 1.00127C17.576 1.00102 17.5681 1 17.56 1H12.2746C12.2665 1 12.2586 1.00102 12.2504 1.00127C12.2415 1.00178 12.2323 1.00204 12.2234 1.0028C12.2206 1.00331 12.2178 1.00357 12.215 1.00382C12.2099 1.00459 12.2048 1.00561 12.1997 1.00637C12.1982 1.00663 12.1964 1.00713 12.1946 1.00739C12.1862 1.00866 12.1775 1.00968 12.1694 1.01172C12.1643 1.01274 12.1597 1.01427 12.1546 1.01554C12.1482 1.01707 12.1421 1.01886 12.1357 1.02064C12.1294 1.02268 12.1227 1.02421 12.1164 1.02625C12.1095 1.02879 12.1026 1.03185 12.0957 1.0344C12.0894 1.03695 12.083 1.03924 12.0769 1.04204C12.0736 1.04357 12.07 1.04459 12.0664 1.04638C11.5199 1.30195 10.9735 1.55804 10.427 1.81388C9.18728 2.39409 7.94736 2.9743 6.70769 3.55451C6.28164 3.75403 5.851 3.94667 5.42826 4.15358C4.78384 4.46904 4.53871 5.00899 4.20872 5.62131C3.89199 6.20891 3.6308 6.82582 3.40223 7.45266C1.99948 11.3019 1.59101 15.5344 1.30103 19.5918C0.88212 25.4533 1.00723 30.9244 1.05565 32.4617C1.06966 32.9056 1.4287 33.2534 1.87309 33.2534H4.33893C4.72803 33.2534 5.06541 32.9764 5.14109 32.5947L6.35171 26.4906V33.5337C6.35171 33.9643 6.68883 34.3231 7.11921 34.3504C7.6505 34.3837 8.15172 34.399 8.6244 34.399C12.281 34.399 14.214 33.4865 14.9173 33.0602C15.6206 33.4865 17.5531 34.399 21.2104 34.399C21.6829 34.399 22.1846 34.3837 22.7156 34.3504C23.1458 34.3231 23.4829 33.9643 23.4829 33.5337V26.4904L24.6938 32.5947C24.7694 32.9764 25.1068 33.2534 25.4959 33.2534H27.9615C28.4059 33.2534 28.7649 32.9056 28.7789 32.4617C28.835 30.6775 29.0567 21.3895 27.9085 13.7471ZM18.8621 6.1475L20.034 8.04485L15.7597 12.8672L17.8545 2.50977L19.8553 4.60588L19.1521 5.00772C18.9607 5.11704 18.8195 5.30229 18.7652 5.51607C18.711 5.72961 18.7461 5.95971 18.8621 6.1475ZM14.9173 12.0821L13.4401 4.77839H16.3945L14.9173 12.0821ZM16.9601 1.98129L16.593 3.79684H13.2416L12.8744 1.98129H16.9601ZM4.20439 32.2721H2.03184C1.95259 29.5476 1.60146 12.3285 5.11815 5.99844L7.22343 17.0515L4.20439 32.2721ZM7.333 33.38V23.6925L8.20956 17.118C8.20982 17.1162 8.20982 17.1147 8.20982 17.1129C8.21262 17.0903 8.21389 17.0676 8.21364 17.0449C8.21338 17.0403 8.21313 17.036 8.21287 17.0316C8.21185 17.0082 8.20982 16.9848 8.20523 16.9613L5.9277 5.00339L10.1135 3.04412L9.12536 4.07943C8.95031 4.26264 8.87106 4.51134 8.9075 4.76208C8.94419 5.01256 9.09122 5.22839 9.31112 5.35401L10.0488 5.77573L8.90189 7.63256C8.71078 7.94191 8.74442 8.33279 8.98573 8.60493L10.2792 10.0643C10.4591 10.2671 10.7692 10.2857 10.972 10.106C11.1746 9.9264 11.1934 9.61629 11.0135 9.41346L9.80062 8.04485L10.9728 6.1475C11.0885 5.95971 11.1239 5.72961 11.0693 5.51607C11.0151 5.30229 10.8742 5.11704 10.6828 5.00772L9.9795 4.60588L11.9803 2.50977L14.0749 12.8672L12.9853 11.638C12.8056 11.4352 12.4955 11.4166 12.2927 11.5962C12.0899 11.7758 12.0713 12.086 12.2509 12.2888L14.4268 14.7434V32.2097C14.186 32.3572 13.699 32.6158 12.9257 32.8541C11.8651 33.181 10.0401 33.5337 7.333 33.38ZM22.5016 33.38C19.795 33.5337 17.9695 33.181 16.9092 32.8541C16.1348 32.6156 15.6476 32.3567 15.4081 32.2099V14.7434L20.8491 8.60493C21.0902 8.33279 21.1241 7.94191 20.933 7.63256L19.7858 5.77573L20.5237 5.35401C20.7436 5.22839 20.8907 5.01256 20.9271 4.76208C20.9635 4.51134 20.8843 4.26264 20.7095 4.07943L19.7211 3.04412L23.9071 5.00339L21.6294 16.9616C21.6248 16.9848 21.6227 17.0082 21.6217 17.0319C21.6215 17.0362 21.6212 17.0406 21.6212 17.0449C21.6207 17.0676 21.622 17.0903 21.6248 17.1129C21.6248 17.1145 21.6248 17.1165 21.625 17.1183L22.5016 23.6927V33.38Z" fill="url(#paint6_linear_1754_1776)" stroke="url(#paint7_linear_1754_1776)" stroke-width="0.5"/>
<path d="M20.2427 22.7288H17.5202C17.0692 22.7288 16.7023 23.0958 16.7023 23.5468V24.9404C16.7023 25.7193 17.336 26.3531 18.115 26.3531H19.6479C20.4266 26.3531 21.0604 25.7193 21.0604 24.9404V23.5468C21.0604 23.0958 20.6937 22.7288 20.2427 22.7288ZM20.0791 24.9404C20.0791 25.1781 19.8857 25.3715 19.6479 25.3715H18.115C17.8772 25.3715 17.6836 25.1781 17.6836 24.9404V23.7104H20.0791V24.9404Z" fill="url(#paint8_linear_1754_1776)" stroke="url(#paint9_linear_1754_1776)" stroke-width="0.5"/>
<path d="M17.4905 17.6358H18.0019C18.2731 17.6358 18.4927 17.4161 18.4927 17.145C18.4927 16.8739 18.2731 16.6542 18.0019 16.6542H17.4905C17.2196 16.6542 17 16.8739 17 17.145C17 17.4159 17.2196 17.6358 17.4905 17.6358Z" fill="url(#paint10_linear_1754_1776)" stroke="url(#paint11_linear_1754_1776)" stroke-width="0.5"/>
<path d="M18.4927 19.8927C18.4927 19.6216 18.2731 19.402 18.0019 19.402H17.4905C17.2196 19.402 17 19.6216 17 19.8927C17 20.1639 17.2196 20.3835 17.4905 20.3835H18.0019C18.2731 20.3835 18.4927 20.1639 18.4927 19.8927Z" fill="url(#paint12_linear_1754_1776)" stroke="url(#paint13_linear_1754_1776)" stroke-width="0.5"/>
<defs>
<linearGradient id="paint0_linear_1754_1776" x1="8.77417" y1="25.4681" x2="16.557" y2="24.8171" gradientUnits="userSpaceOnUse">
<stop stop-color="#016DB4"/>
<stop offset="0.5" stop-color="#20BDFF"/>
<stop offset="1" stop-color="#E4DBD9"/>
</linearGradient>
<linearGradient id="paint1_linear_1754_1776" x1="8.77417" y1="25.4681" x2="16.557" y2="24.8171" gradientUnits="userSpaceOnUse">
<stop stop-color="#016DB4"/>
<stop offset="0.5" stop-color="#20BDFF"/>
<stop offset="1" stop-color="#E4DBD9"/>
</linearGradient>
<linearGradient id="paint2_linear_1754_1776" x1="11" y1="17.3961" x2="13.6551" y2="17.1152" gradientUnits="userSpaceOnUse">
<stop stop-color="#016DB4"/>
<stop offset="0.5" stop-color="#20BDFF"/>
<stop offset="1" stop-color="#E4DBD9"/>
</linearGradient>
<linearGradient id="paint3_linear_1754_1776" x1="11" y1="17.3961" x2="13.6551" y2="17.1152" gradientUnits="userSpaceOnUse">
<stop stop-color="#016DB4"/>
<stop offset="0.5" stop-color="#20BDFF"/>
<stop offset="1" stop-color="#E4DBD9"/>
</linearGradient>
<linearGradient id="paint4_linear_1754_1776" x1="11" y1="20.1438" x2="13.6551" y2="19.8629" gradientUnits="userSpaceOnUse">
<stop stop-color="#016DB4"/>
<stop offset="0.5" stop-color="#20BDFF"/>
<stop offset="1" stop-color="#E4DBD9"/>
</linearGradient>
<linearGradient id="paint5_linear_1754_1776" x1="11" y1="20.1438" x2="13.6551" y2="19.8629" gradientUnits="userSpaceOnUse">
<stop stop-color="#016DB4"/>
<stop offset="0.5" stop-color="#20BDFF"/>
<stop offset="1" stop-color="#E4DBD9"/>
</linearGradient>
<linearGradient id="paint6_linear_1754_1776" x1="1" y1="26.2434" x2="50.8862" y2="23.3516" gradientUnits="userSpaceOnUse">
<stop stop-color="#016DB4"/>
<stop offset="0.5" stop-color="#20BDFF"/>
<stop offset="1" stop-color="#E4DBD9"/>
</linearGradient>
<linearGradient id="paint7_linear_1754_1776" x1="1" y1="26.2434" x2="50.8862" y2="23.3516" gradientUnits="userSpaceOnUse">
<stop stop-color="#016DB4"/>
<stop offset="0.5" stop-color="#20BDFF"/>
<stop offset="1" stop-color="#E4DBD9"/>
</linearGradient>
<linearGradient id="paint8_linear_1754_1776" x1="16.7023" y1="25.4681" x2="24.4851" y2="24.8171" gradientUnits="userSpaceOnUse">
<stop stop-color="#016DB4"/>
<stop offset="0.5" stop-color="#20BDFF"/>
<stop offset="1" stop-color="#E4DBD9"/>
</linearGradient>
<linearGradient id="paint9_linear_1754_1776" x1="16.7023" y1="25.4681" x2="24.4851" y2="24.8171" gradientUnits="userSpaceOnUse">
<stop stop-color="#016DB4"/>
<stop offset="0.5" stop-color="#20BDFF"/>
<stop offset="1" stop-color="#E4DBD9"/>
</linearGradient>
<linearGradient id="paint10_linear_1754_1776" x1="17" y1="17.3961" x2="19.6547" y2="17.1153" gradientUnits="userSpaceOnUse">
<stop stop-color="#016DB4"/>
<stop offset="0.5" stop-color="#20BDFF"/>
<stop offset="1" stop-color="#E4DBD9"/>
</linearGradient>
<linearGradient id="paint11_linear_1754_1776" x1="17" y1="17.3961" x2="19.6547" y2="17.1153" gradientUnits="userSpaceOnUse">
<stop stop-color="#016DB4"/>
<stop offset="0.5" stop-color="#20BDFF"/>
<stop offset="1" stop-color="#E4DBD9"/>
</linearGradient>
<linearGradient id="paint12_linear_1754_1776" x1="17" y1="20.1438" x2="19.6547" y2="19.863" gradientUnits="userSpaceOnUse">
<stop stop-color="#016DB4"/>
<stop offset="0.5" stop-color="#20BDFF"/>
<stop offset="1" stop-color="#E4DBD9"/>
</linearGradient>
<linearGradient id="paint13_linear_1754_1776" x1="17" y1="20.1438" x2="19.6547" y2="19.863" gradientUnits="userSpaceOnUse">
<stop stop-color="#016DB4"/>
<stop offset="0.5" stop-color="#20BDFF"/>
<stop offset="1" stop-color="#E4DBD9"/>
</linearGradient>
</defs>
</svg>
