<svg width="30" height="30" viewBox="0 0 30 30" fill="none" xmlns="http://www.w3.org/2000/svg">
<path d="M25.6402 5.30619C23.9164 4.6191 21.905 4.22142 20.209 3.76916V1.64989C20.209 1.17958 19.775 0.796936 19.2415 0.796936H11.3364C10.803 0.796936 10.369 1.17958 10.369 1.64989V3.76916C10.369 3.88711 7.84486 4.44207 7.63773 4.49728C6.35814 4.83825 4.95695 5.08834 3.80456 5.70066C3.21752 6.01262 2.69506 6.41675 2.26715 6.88856C1.44788 7.792 0.994141 8.93113 0.994141 10.0879V10.9153C0.994141 11.1432 1.20371 11.328 1.46226 11.328C1.72081 11.328 1.93038 11.1432 1.93038 10.9153V10.0872C1.93038 8.2782 3.21801 6.6634 5.14239 6.0485V25.2195H1.96157C1.94451 25.2195 1.93038 25.2073 1.93038 25.192V13.4099C1.93038 13.1819 1.72081 12.9972 1.46226 12.9972C1.20371 12.9972 0.994141 13.1819 0.994141 13.4099V25.192C0.994141 25.6623 1.42814 26.0449 1.96157 26.0449H5.14239V28.1047C5.14239 28.575 5.5764 28.9577 6.10982 28.9577H18.2224C18.481 28.9577 18.6906 28.7729 18.6906 28.5449C18.6906 28.317 18.481 28.1322 18.2224 28.1322H15.7571V22.6031H24.4993V28.1047C24.4993 28.12 24.4854 28.1322 24.4681 28.1322H21.1559C20.8974 28.1322 20.6878 28.317 20.6878 28.5449C20.6878 28.7729 20.8974 28.9577 21.1559 28.9577H24.4681C25.0015 28.9577 25.4355 28.575 25.4355 28.1047V26.0449H28.6164C29.1498 26.0449 29.5838 25.6623 29.5838 25.192V10.0872C29.5838 7.53912 27.8475 6.18557 25.6402 5.30619ZM6.07863 5.77521L10.9063 4.48826H14.8208V8.97517H6.07863V5.77521ZM14.8208 9.80062V15.3298H6.07863V9.80062H14.8208ZM24.4993 15.3298H15.7571V9.80062H24.4993V15.3298ZM6.07863 16.1552H14.8208V21.6844H6.07863V16.1552ZM15.7571 21.6844V16.1552H24.4993V21.6844H15.7571ZM24.499 8.97517H15.7571V4.48826H19.6714L24.4993 5.77521L24.499 8.97517ZM11.3364 1.62239H19.2415C19.2586 1.62239 19.2727 1.63463 19.2727 1.64989V3.66281H11.3052V1.64989C11.3052 1.63463 11.3191 1.62239 11.3364 1.62239ZM14.8208 28.1322H6.10982C6.09252 28.1322 6.07863 28.12 6.07863 28.1047V22.6031H14.8208V28.1322ZM28.6475 25.192C28.6475 25.207 28.6334 25.2195 28.6164 25.2195H25.4355V6.0485C27.3599 6.6634 28.6475 8.2782 28.6475 10.0872V25.192Z" fill="url(#paint0_linear_1729_1368)" stroke="url(#paint1_linear_1729_1368)" stroke-width="0.5"/>
<defs>
<linearGradient id="paint0_linear_1729_1368" x1="0.994141" y1="22.0812" x2="52.1528" y2="18.4684" gradientUnits="userSpaceOnUse">
<stop stop-color="#016DB4"/>
<stop offset="0.5" stop-color="#20BDFF"/>
<stop offset="1" stop-color="#E4DBD9"/>
</linearGradient>
<linearGradient id="paint1_linear_1729_1368" x1="0.994141" y1="22.0812" x2="52.1528" y2="18.4684" gradientUnits="userSpaceOnUse">
<stop stop-color="#016DB4"/>
<stop offset="0.5" stop-color="#20BDFF"/>
<stop offset="1" stop-color="#E4DBD9"/>
</linearGradient>
</defs>
</svg>
