<svg width="16" height="16" viewBox="0 0 16 16" fill="none" xmlns="http://www.w3.org/2000/svg">
<path fill-rule="evenodd" clip-rule="evenodd" d="M1.30719 0.941176C1.10696 0.941176 0.941176 1.10696 0.941176 1.30719C0.941176 8.90296 7.09703 15.0588 14.6928 15.0588C14.893 15.0588 15.0588 14.893 15.0588 14.6928V11.7731C15.0588 11.5728 14.893 11.4071 14.6928 11.4071C13.6051 11.4071 12.5431 11.2317 11.5585 10.9064L11.5535 10.9048C11.4312 10.8629 11.2848 10.8939 11.1856 10.9931L9.10273 13.076L8.79769 12.9197C6.34306 11.6621 4.32988 9.65816 3.07967 7.20113L2.92471 6.89656L5.00687 4.81445C5.11101 4.71026 5.14122 4.56979 5.10061 4.43755C4.77628 3.45435 4.60132 2.40198 4.60132 1.30719C4.60132 1.10696 4.43553 0.941176 4.23529 0.941176H1.30719ZM0 1.30719C0 0.587162 0.587162 0 1.30719 0H4.23529C4.95534 0 5.54249 0.587162 5.54249 1.30719C5.54249 2.30245 5.70169 3.25656 5.99558 4.14626L5.99666 4.14951L5.99769 4.15275C6.13995 4.60541 6.036 5.11628 5.67238 5.47995L4.07708 7.07525C5.19017 9.11675 6.88132 10.802 8.92541 11.9223L10.52 10.3276C10.8719 9.97581 11.3933 9.85609 11.856 10.0135C12.7448 10.3069 13.7065 10.4659 14.6928 10.4659C15.4128 10.4659 16 11.053 16 11.7731V14.6928C16 15.4128 15.4128 16 14.6928 16C6.57722 16 0 9.42278 0 1.30719Z" fill="#38B189"/>
</svg>
