<svg width="35" height="21" viewBox="0 0 35 21" fill="none" xmlns="http://www.w3.org/2000/svg">
<path fill-rule="evenodd" clip-rule="evenodd" d="M33.7279 2.15903C33.9663 1.40944 33.7279 0.858643 32.5934 0.858643H28.8417C27.8878 0.858643 27.448 1.33445 27.2095 1.85913C27.2095 1.85913 25.3016 6.24416 22.5988 9.09251C21.7244 9.91703 21.3269 10.1794 20.85 10.1794C20.6115 10.1794 20.2538 9.91703 20.2538 9.1675V2.15903C20.2538 1.25953 19.9895 0.858643 19.1945 0.858643H13.2989C12.7028 0.858643 12.3443 1.27612 12.3443 1.67178C12.3443 2.52449 13.6956 2.72114 13.8349 5.11981V10.3293C13.8349 11.4715 13.6161 11.6786 13.1392 11.6786C11.8673 11.6786 8.77355 7.27398 6.93866 2.23396C6.57907 1.25435 6.2184 0.858643 5.25957 0.858643H1.50787C0.435954 0.858643 0.221558 1.33445 0.221558 1.85913C0.221558 2.79613 1.49347 7.44349 6.14378 13.59C9.24397 17.7875 13.6119 20.0629 17.5866 20.0629C19.9714 20.0629 20.2664 19.5575 20.2664 18.687V15.5145C20.2664 14.5038 20.4923 14.3021 21.2475 14.3021C21.8039 14.3021 22.7578 14.5644 24.9837 16.5882C27.5274 18.9868 27.9468 20.0629 29.3776 20.0629H33.1293C34.2013 20.0629 34.7372 19.5575 34.428 18.5602C34.0897 17.5662 32.8752 16.124 31.2636 14.4145C30.3892 13.44 29.0776 12.3907 28.6801 11.8659C28.1236 11.1914 28.2826 10.8915 28.6801 10.2919C28.6801 10.2919 33.251 4.22031 33.7279 2.15903Z" fill="url(#paint0_linear_1756_1400)"/>
<defs>
<linearGradient id="paint0_linear_1756_1400" x1="17.3682" y1="0.858643" x2="17.3682" y2="19.9205" gradientUnits="userSpaceOnUse">
<stop stop-color="#2AABEE"/>
<stop offset="1" stop-color="#229ED9"/>
</linearGradient>
</defs>
</svg>
