<svg width="32" height="32" viewBox="0 0 32 32" fill="none" xmlns="http://www.w3.org/2000/svg">
<path d="M0 31.7919L2.24699 23.6324C0.857804 21.2374 0.12905 18.5251 0.136641 15.7524C0.136641 7.06403 7.24199 0 15.9643 0C20.2001 0 24.1779 1.63946 27.1613 4.61617C30.1522 7.59289 31.7995 11.5518 31.7919 15.76C31.7919 24.4483 24.6865 31.5124 15.9567 31.5124H15.9491C13.2998 31.5124 10.696 30.8475 8.38067 29.5934L0 31.7919ZM8.783 26.7451L9.26124 27.0322C11.2805 28.2259 13.5958 28.853 15.9567 28.8605H15.9643C23.2138 28.8605 29.1198 22.9902 29.1198 15.7675C29.1198 12.2695 27.7534 8.98303 25.271 6.50495C22.7887 4.02687 19.479 2.66695 15.9643 2.66695C8.71468 2.6594 2.80874 8.52972 2.80874 15.7524C2.80874 18.2229 3.49954 20.633 4.8204 22.7182L5.13164 23.2169L3.80318 28.0446L8.783 26.7451Z" fill="url(#paint0_linear_1756_1402)"/>
<path d="M0 31.7919L2.24699 23.6324C0.857804 21.2374 0.12905 18.5251 0.136641 15.7524C0.136641 7.06403 7.24199 0 15.9643 0C20.2001 0 24.1779 1.63946 27.1613 4.61617C30.1522 7.59289 31.7995 11.5518 31.7919 15.76C31.7919 24.4483 24.6865 31.5124 15.9567 31.5124H15.9491C13.2998 31.5124 10.696 30.8475 8.38067 29.5934L0 31.7919ZM8.783 26.7451L9.26124 27.0322C11.2805 28.2259 13.5958 28.853 15.9567 28.8605H15.9643C23.2138 28.8605 29.1198 22.9902 29.1198 15.7675C29.1198 12.2695 27.7534 8.98303 25.271 6.50495C22.7887 4.02687 19.479 2.66695 15.9643 2.66695C8.71468 2.6594 2.80874 8.52972 2.80874 15.7524C2.80874 18.2229 3.49954 20.633 4.8204 22.7182L5.13164 23.2169L3.80318 28.0446L8.783 26.7451Z" fill="url(#paint1_linear_1756_1402)"/>
<path fill-rule="evenodd" clip-rule="evenodd" d="M12.0092 9.16457C11.7132 8.50727 11.4019 8.49216 11.1211 8.48461C10.8933 8.47705 10.6276 8.47705 10.3619 8.47705C10.0962 8.47705 9.67114 8.57527 9.30677 8.96813C8.94239 9.361 7.92517 10.3129 7.92517 12.2546C7.92517 14.1887 9.34472 16.0624 9.54209 16.3268C9.73946 16.5912 12.2825 20.6937 16.2982 22.2727C19.6384 23.5873 20.3216 23.3228 21.0427 23.2548C21.7639 23.1868 23.3808 22.3029 23.7148 21.3812C24.0413 20.4595 24.0413 19.6737 23.9426 19.5075C23.8439 19.3413 23.5782 19.2431 23.1834 19.0466C22.7887 18.8502 20.8454 17.8983 20.481 17.7623C20.1166 17.6338 19.8509 17.5658 19.5928 17.9587C19.3271 18.3516 18.568 19.2355 18.3403 19.5C18.1125 19.7644 17.8772 19.7946 17.4825 19.5982C17.0877 19.4017 15.8124 18.9862 14.3018 17.6414C13.1251 16.5988 12.3281 15.3069 12.1003 14.914C11.8726 14.5211 12.0775 14.3096 12.2749 14.1132C12.4495 13.9394 12.6697 13.6523 12.867 13.4256C13.0644 13.199 13.1327 13.0328 13.2618 12.7684C13.3908 12.5039 13.3301 12.2773 13.2314 12.0808C13.1327 11.892 12.3584 9.94274 12.0092 9.16457Z" fill="url(#paint2_linear_1756_1402)"/>
<defs>
<linearGradient id="paint0_linear_1756_1402" x1="15.8951" y1="31.7903" x2="15.8951" y2="-0.00111232" gradientUnits="userSpaceOnUse">
<stop stop-color="#20B038"/>
<stop offset="1" stop-color="#60D66A"/>
</linearGradient>
<linearGradient id="paint1_linear_1756_1402" x1="15.8951" y1="31.7903" x2="15.8951" y2="-0.00111232" gradientUnits="userSpaceOnUse">
<stop stop-color="#20B038"/>
<stop offset="1" stop-color="#60D66A"/>
</linearGradient>
<linearGradient id="paint2_linear_1756_1402" x1="15.9623" y1="23.3218" x2="15.9623" y2="8.47653" gradientUnits="userSpaceOnUse">
<stop stop-color="#20B038"/>
<stop offset="1" stop-color="#60D66A"/>
</linearGradient>
</defs>
</svg>
