<svg width="24" height="20" viewBox="0 0 24 20" fill="none" xmlns="http://www.w3.org/2000/svg">
<path fill-rule="evenodd" clip-rule="evenodd" d="M1.64216 8.54837C8.0545 5.74607 12.3304 3.89862 14.4698 3.00603C20.5784 0.457483 21.8477 0.0147744 22.675 0.000155866C22.857 -0.00305932 23.2639 0.0421739 23.5274 0.256674C23.7499 0.437793 23.8111 0.682459 23.8404 0.854181C23.8697 1.0259 23.9062 1.41709 23.8772 1.72275C23.5462 5.21151 22.1139 13.6778 21.3852 17.5853C21.0768 19.2387 20.4697 19.7931 19.8819 19.8473C18.6046 19.9652 17.6346 19.0006 16.3974 18.1871C14.4615 16.9142 13.3678 16.1218 11.4886 14.8796C9.3169 13.4441 10.7247 12.6551 11.9624 11.3657C12.2863 11.0283 17.9143 5.89345 18.0233 5.42764C18.0369 5.36938 18.0495 5.15222 17.9209 5.03756C17.7923 4.92289 17.6025 4.9621 17.4655 4.99329C17.2713 5.03749 14.1786 7.08791 8.1874 11.1445C7.30954 11.7492 6.51441 12.0438 5.802 12.0284C5.01662 12.0113 3.50587 11.5829 2.38278 11.2167C1.00527 10.7676 -0.0895471 10.5301 0.00578705 9.76735C0.055443 9.37004 0.600902 8.96372 1.64216 8.54837Z" fill="#38B189"/>
</svg>
