<svg width="28" height="17" viewBox="0 0 28 17" fill="none" xmlns="http://www.w3.org/2000/svg">
<path fill-rule="evenodd" clip-rule="evenodd" d="M27.3779 1.43051C27.5664 0.797031 27.3779 0.331543 26.4808 0.331543H23.5142C22.7599 0.331543 22.4121 0.733656 22.2235 1.17707C22.2235 1.17707 20.7149 4.8829 18.5777 7.29007C17.8863 7.98688 17.572 8.20858 17.1948 8.20858C17.0063 8.20858 16.7234 7.98688 16.7234 7.35345V1.43051C16.7234 0.670334 16.5144 0.331543 15.8858 0.331543H11.224C10.7526 0.331543 10.4691 0.684359 10.4691 1.01874C10.4691 1.73937 11.5377 1.90556 11.6478 3.9327V8.33533C11.6478 9.30059 11.4748 9.4756 11.0977 9.4756C10.092 9.4756 7.64564 5.75321 6.19473 1.49383C5.91039 0.665958 5.6252 0.331543 4.86702 0.331543H1.90043C1.05283 0.331543 0.883301 0.733656 0.883301 1.17707C0.883301 1.96893 1.88904 5.89647 5.56619 11.0909C8.01761 14.6383 11.4715 16.5613 14.6144 16.5613C16.5001 16.5613 16.7334 16.1342 16.7334 15.3985V12.7174C16.7334 11.8632 16.912 11.6927 17.5092 11.6927C17.9492 11.6927 18.7035 11.9144 20.4635 13.6248C22.4749 15.6519 22.8066 16.5613 23.938 16.5613H26.9046C27.7521 16.5613 28.1759 16.1342 27.9315 15.2913C27.6639 14.4513 26.7036 13.2325 25.4293 11.7877C24.7378 10.9642 23.7007 10.0774 23.3864 9.63388C22.9464 9.06382 23.0721 8.81038 23.3864 8.30365C23.3864 8.30365 27.0007 3.17252 27.3779 1.43051Z" fill="#38B189"/>
</svg>
