<svg width="26" height="26" viewBox="0 0 26 26" fill="none" xmlns="http://www.w3.org/2000/svg">
<path d="M0 25.9381L1.78997 19.4543C0.683333 17.5512 0.102802 15.3959 0.10885 13.1926C0.10885 6.28859 5.76903 0.675293 12.7173 0.675293C16.0916 0.675293 19.2603 1.97806 21.6369 4.34345C24.0195 6.70884 25.3317 9.85469 25.3257 13.1987C25.3257 20.1027 19.6655 25.716 12.7112 25.716H12.7052C10.5947 25.716 8.5205 25.1877 6.67611 24.1911L0 25.9381ZM6.99661 21.9278L7.37758 22.1559C8.98614 23.1045 10.8305 23.6028 12.7112 23.6088H12.7173C18.4923 23.6088 23.1971 18.944 23.1971 13.2047C23.1971 10.425 22.1086 7.81349 20.1311 5.84433C18.1537 3.87517 15.5171 2.79454 12.7173 2.79454C6.94218 2.78853 2.23746 7.45328 2.23746 13.1926C2.23746 15.1558 2.78776 17.0709 3.83997 18.7279L4.08791 19.1241L3.02965 22.9604L6.99661 21.9278Z" fill="#38B189"/>
<path d="M0 25.9381L1.78997 19.4543C0.683333 17.5512 0.102802 15.3959 0.10885 13.1926C0.10885 6.28859 5.76903 0.675293 12.7173 0.675293C16.0916 0.675293 19.2603 1.97806 21.6369 4.34345C24.0195 6.70884 25.3317 9.85469 25.3257 13.1987C25.3257 20.1027 19.6655 25.716 12.7112 25.716H12.7052C10.5947 25.716 8.5205 25.1877 6.67611 24.1911L0 25.9381ZM6.99661 21.9278L7.37758 22.1559C8.98614 23.1045 10.8305 23.6028 12.7112 23.6088H12.7173C18.4923 23.6088 23.1971 18.944 23.1971 13.2047C23.1971 10.425 22.1086 7.81349 20.1311 5.84433C18.1537 3.87517 15.5171 2.79454 12.7173 2.79454C6.94218 2.78853 2.23746 7.45328 2.23746 13.1926C2.23746 15.1558 2.78776 17.0709 3.83997 18.7279L4.08791 19.1241L3.02965 22.9604L6.99661 21.9278Z" fill="#38B189"/>
<path fill-rule="evenodd" clip-rule="evenodd" d="M9.56662 7.95745C9.33078 7.43515 9.08285 7.42314 8.8591 7.41714C8.67768 7.41113 8.46603 7.41113 8.25438 7.41113C8.04273 7.41113 7.70409 7.48918 7.41382 7.80136C7.12356 8.11354 6.31323 8.86999 6.31323 10.4129C6.31323 11.9498 7.44406 13.4387 7.60128 13.6488C7.75851 13.8589 9.78432 17.1188 12.9833 18.3736C15.644 19.4182 16.1883 19.208 16.7628 19.154C17.3373 19.1 18.6253 18.3976 18.8914 17.6651C19.1514 16.9327 19.1514 16.3083 19.0728 16.1763C18.9942 16.0442 18.7825 15.9661 18.4681 15.8101C18.1536 15.654 16.6055 14.8975 16.3153 14.7895C16.025 14.6874 15.8134 14.6334 15.6078 14.9455C15.3961 15.2577 14.7914 15.9601 14.61 16.1703C14.4286 16.3804 14.2411 16.4044 13.9266 16.2483C13.6122 16.0922 12.5963 15.762 11.3929 14.6934C10.4556 13.8649 9.8206 12.8383 9.63919 12.5261C9.45777 12.2139 9.62105 12.0458 9.77827 11.8898C9.91736 11.7517 10.0927 11.5235 10.25 11.3434C10.4072 11.1633 10.4616 11.0313 10.5644 10.8211C10.6672 10.611 10.6188 10.4309 10.5402 10.2748C10.4616 10.1247 9.84479 8.57582 9.56662 7.95745Z" fill="#38B189"/>
</svg>
