<svg width="222" height="36" viewBox="0 0 222 36" fill="none" xmlns="http://www.w3.org/2000/svg">
<path d="M161.778 28.2346C156.491 25.9623 160.053 20.2903 163.782 21.2923C166.064 21.9006 166.769 23.4394 166.676 24.9424C166.583 26.5885 164.097 28.3241 162.075 26.177C162.78 26.6422 164.635 26.177 164.506 24.5845C164.45 23.8688 163.652 23.2068 162.743 23.2605C160.554 23.3857 159.738 26.0696 161.778 28.2346Z" fill="#016DB4"/>
<path fill-rule="evenodd" clip-rule="evenodd" d="M153.114 15.2446C153.114 14.3679 152.892 13.5448 152.279 12.8649C151.704 12.2387 150.981 11.9524 150.127 11.9524C149.126 11.9524 148.328 12.3102 147.734 13.1154C147.048 14.0637 146.862 15.2625 146.862 16.3898C146.862 17.517 147.048 18.7874 147.753 19.7357C148.346 20.5051 149.126 20.8808 150.127 20.8808C150.999 20.8808 151.741 20.6124 152.298 19.9504C152.892 19.2705 153.114 18.4653 153.114 17.6065V15.2446ZM88.4215 15.2446C88.4215 14.3679 88.1989 13.5448 87.5867 12.8649C87.0115 12.2387 86.288 11.9524 85.4346 11.9524C84.4327 11.9524 83.635 12.3102 83.0413 13.1154C82.3548 14.0637 82.1693 15.2625 82.1693 16.3898C82.1693 17.517 82.3548 18.7874 83.0598 19.7357C83.635 20.5051 84.4327 20.8808 85.4346 20.8808C86.3065 20.8808 87.0486 20.6124 87.6052 19.9504C88.1989 19.2705 88.4215 18.4653 88.4215 17.6065V15.2446ZM53.821 17.5886C53.821 18.4653 54.0436 19.2705 54.6373 19.9504C55.1939 20.6124 55.936 20.8808 56.808 20.8808C57.8098 20.8808 58.6076 20.523 59.1827 19.7357C59.8877 18.7874 60.0732 17.5349 60.0732 16.4077C60.0732 15.2983 59.8877 14.0637 59.2012 13.1333C58.6261 12.3281 57.8283 11.9703 56.808 11.9703C55.9545 11.9703 55.2124 12.2387 54.6559 12.8828C54.0622 13.5627 53.8395 14.3858 53.8395 15.2625V17.5886H53.821ZM153.114 22.7059C152.187 23.7794 150.869 24.2267 149.33 24.2267C147.456 24.2267 145.916 23.511 144.766 22.0796C143.467 20.4693 143.077 18.3937 143.077 16.3898C143.077 14.3679 143.504 12.346 144.84 10.7536C146.064 9.28639 147.697 8.60646 149.626 8.60646C151.036 8.60646 152.242 9.05378 153.133 10.0021C153.244 9.018 154.042 8.66014 155.044 8.66014C155.508 8.66014 156.064 8.73171 156.435 9.03589C156.806 9.32217 156.899 9.78738 156.899 10.2347V22.6164C156.899 23.0458 156.806 23.511 156.472 23.8152C156.101 24.1373 155.47 24.191 154.988 24.191C153.968 24.1731 153.133 23.7973 153.114 22.7059ZM132.632 13.8132C133.337 13.2407 134.024 12.6144 134.655 11.9703C135.434 11.1651 136.157 10.3242 136.807 9.42953C136.974 9.19692 137.196 8.96432 137.437 8.82118C137.679 8.67804 137.957 8.62436 138.217 8.62436C138.736 8.62436 139.181 8.78539 139.589 9.10746C139.942 9.39374 140.22 9.75159 140.22 10.2168C140.22 10.6104 140.072 10.9862 139.868 11.3261C139.534 11.8987 138.94 12.5428 138.495 13.0438C137.79 13.8132 137.011 14.5289 136.194 15.191C136.955 15.9246 137.66 16.7655 138.291 17.6065C138.94 18.4653 139.608 19.3421 140.183 20.2546C140.443 20.684 140.814 21.2566 140.999 21.7218C141.092 21.9544 141.166 22.2228 141.166 22.4912C141.166 22.9743 140.944 23.3858 140.573 23.7079C140.165 24.0478 139.682 24.2088 139.163 24.2088C138.847 24.2088 138.551 24.1552 138.272 23.9941C137.938 23.8331 137.697 23.4753 137.53 23.1532C136.899 22.0081 136.213 20.8987 135.434 19.843C134.784 18.9842 134.079 18.1611 133.3 17.4275C133.096 17.5886 132.836 17.7854 132.614 17.8927V22.5985C132.614 23.7615 131.76 24.1731 130.684 24.1731C129.608 24.1731 128.81 23.7257 128.81 22.5985V3.54285C128.81 3.09553 128.922 2.66611 129.293 2.37983C129.664 2.09354 130.258 2.02197 130.721 2.02197C131.185 2.02197 131.76 2.09354 132.131 2.37983C132.502 2.66611 132.614 3.09553 132.614 3.54285V13.8132H132.632ZM115.249 10.3242C116.287 9.17903 117.66 8.60646 119.33 8.60646C120.814 8.60646 122.15 9.05378 123.17 10.1273C124.247 11.2546 124.599 12.7218 124.599 14.2248V22.5806C124.599 23.7079 123.82 24.1731 122.725 24.1731C122.243 24.1731 121.649 24.1194 121.278 23.7794C120.926 23.4753 120.814 23.0279 120.814 22.5806V14.6542C120.814 13.9564 120.666 13.2586 120.165 12.7397C119.701 12.2387 119.07 12.0597 118.384 12.0597C117.475 12.0597 116.677 12.346 116.102 13.0438C115.453 13.8311 115.267 14.8689 115.267 15.853V22.5806C115.267 23.7436 114.432 24.1731 113.338 24.1731C112.243 24.1731 111.464 23.7079 111.464 22.5806V3.59653C111.464 3.14921 111.575 2.71979 111.946 2.41561C112.317 2.09354 112.911 2.02197 113.393 2.02197C113.857 2.02197 114.432 2.09354 114.803 2.39772C115.156 2.70189 115.267 3.14921 115.267 3.57863V10.3242H115.249ZM108.551 11.6482C108.551 12.1134 108.31 12.5071 107.994 12.847C107.661 13.187 107.252 13.4017 106.751 13.4017C106.213 13.4017 105.731 13.1512 105.341 12.8291C104.581 12.2387 103.746 11.9524 102.781 11.9524C101.761 11.9524 100.907 12.3102 100.277 13.0796C99.516 13.9922 99.3304 15.2446 99.3304 16.3719C99.3304 17.5349 99.5531 18.7337 100.314 19.6641C100.945 20.4514 101.761 20.8629 102.8 20.8629C103.783 20.8629 104.636 20.5051 105.397 19.9325C105.768 19.6641 106.251 19.4315 106.733 19.4315C107.252 19.4315 107.679 19.6283 108.032 19.9862C108.347 20.2904 108.588 20.684 108.588 21.1313C108.588 22.0975 107.623 22.8132 106.844 23.2784C105.601 23.9941 104.173 24.2446 102.726 24.2446C100.648 24.2446 98.8852 23.5468 97.5123 22.0617C96.0652 20.4693 95.5086 18.5011 95.5086 16.4077C95.5086 14.3142 96.0281 12.2745 97.5308 10.7178C98.9594 9.23271 100.796 8.60646 102.874 8.60646C104.265 8.60646 105.601 8.87486 106.807 9.55478C107.586 9.9842 108.551 10.682 108.551 11.6482ZM88.4215 22.7059C87.4939 23.7794 86.1767 24.2267 84.6368 24.2267C82.763 24.2267 81.2231 23.511 80.0729 22.0796C78.7742 20.4693 78.366 18.3937 78.366 16.3898C78.366 14.3679 78.8113 12.346 80.1285 10.7536C81.353 9.28639 82.9856 8.60646 84.9151 8.60646C86.3251 8.60646 87.531 9.05378 88.4215 10.0021C88.5328 9.018 89.3306 8.66014 90.3324 8.66014C90.7962 8.66014 91.3528 8.73171 91.7239 9.03589C92.0949 9.32217 92.1877 9.78738 92.1877 10.2347V22.6164C92.1877 23.0458 92.0949 23.511 91.761 23.8152C91.3899 24.1373 90.7591 24.191 90.2768 24.191C89.2564 24.1731 88.4401 23.7973 88.4215 22.7059ZM70.945 10.1273C71.7613 9.12535 72.8559 8.58857 74.2845 8.58857C74.9153 8.58857 75.5646 8.69593 76.1397 8.98221C76.6778 9.26849 76.9746 9.69792 76.9746 10.2884C76.9746 10.7894 76.8633 11.2904 76.5479 11.7019C76.2881 12.0419 75.9356 12.2923 75.4718 12.2923C75.2307 12.2923 74.9338 12.2208 74.7112 12.1492C74.4143 12.0776 74.0989 12.0419 73.8021 12.0419C72.9301 12.0419 72.2622 12.3818 71.7428 13.0617C71.1305 13.9027 70.9636 15.012 70.9636 16.014V22.5806C70.9636 23.01 70.8708 23.4753 70.5369 23.7794C70.1658 24.1194 69.5536 24.1731 69.0712 24.1731C67.958 24.1731 67.1788 23.7257 67.1788 22.5806V10.181C67.1788 9.75159 67.2902 9.32217 67.6427 9.018C68.0137 8.69593 68.6259 8.64225 69.1083 8.64225C70.1101 8.64225 70.945 9.03589 70.945 10.1273ZM53.8024 9.96631C54.1364 9.62635 54.526 9.34006 54.9713 9.12535C55.7134 8.7675 56.4926 8.60646 57.3274 8.60646C59.2569 8.60646 60.8895 9.28639 62.114 10.7715C63.4498 12.3818 63.8765 14.4037 63.8765 16.4077C63.8765 18.4116 63.4683 20.4872 62.1696 22.0975C61.0194 23.5289 59.4795 24.2446 57.5872 24.2446C56.0659 24.2446 54.7301 23.8331 53.821 22.7774V28.5031C53.821 28.9683 53.654 29.3619 53.283 29.6303C52.8748 29.9166 52.3182 29.9882 51.8359 29.9882C51.3721 29.9882 50.7598 29.9345 50.4259 29.5945C50.1105 29.2904 50.0177 28.843 50.0177 28.4315V10.2168C50.0177 9.76949 50.1476 9.34006 50.5186 9.03589C50.9082 8.73171 51.4277 8.66014 51.9101 8.66014C52.3924 8.66014 52.9119 8.73171 53.3015 9.03589C53.5984 9.26849 53.7468 9.60845 53.8024 9.96631Z" fill="#016DB4"/>
<path fill-rule="evenodd" clip-rule="evenodd" d="M189.867 11.9522C188.809 11.9522 187.937 12.2922 187.325 13.1331C186.62 14.0635 186.416 15.2623 186.416 16.3896C186.416 17.5526 186.639 18.6977 187.344 19.6639C187.956 20.5049 188.809 20.8806 189.867 20.8806C190.924 20.8806 191.834 20.5586 192.464 19.7176C193.169 18.7872 193.373 17.5168 193.373 16.3896C193.373 15.2802 193.225 13.9383 192.483 13.0436C191.815 12.2206 190.887 11.9522 189.867 11.9522ZM212.204 10.8429C213.28 9.28619 214.894 8.58838 216.879 8.58838C218.345 8.58838 219.625 9.03569 220.609 10.1093C221.666 11.2365 222 12.7574 222 14.2425V22.5983C222 23.7077 221.221 24.1729 220.145 24.1729C219.662 24.1729 219.05 24.1192 218.679 23.7792C218.327 23.4751 218.215 23.0456 218.215 22.5983V14.7077C218.215 14.0098 218.085 13.2941 217.622 12.7395C217.213 12.2385 216.638 12.0596 215.989 12.0596C215.136 12.0596 214.431 12.31 213.893 12.9542C213.262 13.7057 213.132 14.7792 213.132 15.7096V22.6162C213.132 23.7434 212.353 24.1908 211.258 24.1908C210.776 24.1908 210.182 24.1371 209.811 23.815C209.458 23.5108 209.347 23.0635 209.347 22.6341V14.7077C209.347 14.0098 209.217 13.2941 208.735 12.7395C208.327 12.2564 207.77 12.0596 207.121 12.0596C206.286 12.0596 205.562 12.3279 205.024 12.9542C204.394 13.7057 204.245 14.7792 204.245 15.7096V22.6162C204.245 23.7792 203.392 24.1908 202.316 24.1908C201.221 24.1908 200.442 23.7434 200.442 22.6162V10.1629C200.442 9.73351 200.553 9.30408 200.906 9.0178C201.277 8.71363 201.87 8.65995 202.334 8.65995C202.817 8.65995 203.392 8.71363 203.763 9.03569C204.115 9.32198 204.227 9.7514 204.227 10.1808V10.3061C205.191 9.19673 206.471 8.60627 208.067 8.60627C209.959 8.58838 211.351 9.33987 212.204 10.8429ZM189.867 24.2265C187.77 24.2265 185.934 23.5824 184.542 22.0258C183.114 20.4333 182.594 18.4651 182.594 16.3896C182.594 14.3319 183.114 12.3458 184.542 10.7534C185.934 9.21462 187.789 8.58838 189.867 8.58838C191.963 8.58838 193.837 9.19673 195.247 10.7355C196.676 12.3279 197.195 14.314 197.195 16.3717C197.195 18.4472 196.676 20.4333 195.247 22.0258C193.819 23.6003 191.963 24.2265 189.867 24.2265ZM180.683 11.648C180.683 12.1132 180.442 12.5069 180.127 12.8468C179.793 13.1868 179.385 13.4015 178.884 13.4015C178.346 13.4015 177.863 13.151 177.474 12.8289C176.713 12.2385 175.878 11.9522 174.914 11.9522C173.893 11.9522 173.04 12.31 172.409 13.0794C171.648 13.992 171.463 15.2444 171.463 16.3717C171.463 17.5347 171.685 18.7335 172.446 19.6639C173.077 20.4512 173.893 20.8627 174.932 20.8627C175.897 20.8627 176.769 20.5049 177.529 19.9323C177.901 19.6639 178.383 19.4313 178.865 19.4313C179.385 19.4313 179.811 19.6281 180.164 19.986C180.479 20.2902 180.721 20.6838 180.721 21.1311C180.721 22.0973 179.756 22.813 178.977 23.2782C177.734 23.9939 176.305 24.2444 174.858 24.2444C172.78 24.2444 171.018 23.5466 169.645 22.0615C168.198 20.4691 167.641 18.5009 167.641 16.4075C167.641 14.314 168.16 12.2743 169.663 10.7176C171.092 9.23251 172.928 8.60627 175.006 8.60627C176.398 8.60627 177.734 8.87466 178.939 9.55458C179.7 9.984 180.683 10.6818 180.683 11.648Z" fill="#016DB4"/>
<path d="M13.6546 35.9999C-13.3394 24.4234 4.87926 -4.52693 23.84 0.60826C35.4353 3.73947 39.0902 11.5049 38.6264 19.1808C38.1255 27.5725 25.4726 36.4651 15.1388 25.479C18.738 27.8051 28.2369 25.4611 27.569 17.3021C27.2722 13.7057 23.2463 10.2882 18.5711 10.5924C7.42096 11.326 3.20953 24.9959 13.6546 35.9999Z" fill="#016DB4"/>
</svg>
