<svg width="876" height="856" viewBox="0 0 876 856" fill="none" xmlns="http://www.w3.org/2000/svg">
<path d="M306.322 770.426L307.843 752.463C317.362 753.224 326.52 756.448 334.415 761.82L324.343 776.771C318.992 773.121 312.78 770.932 306.323 770.421L306.322 770.426Z" fill="#38B189"/>
<path d="M290.756 733.771L288.356 715.912C290.851 715.572 293.335 715.166 295.825 714.76C307.701 712.818 321.166 710.621 335.734 715.748C350.303 720.874 359.424 731.033 367.468 739.986C369.149 741.863 370.855 743.738 372.564 745.562L359.428 757.958C357.59 756.01 355.801 754.025 354.012 752.034C346.457 743.619 339.932 736.348 329.7 732.777C319.469 729.206 309.844 730.762 298.7 732.58C296.059 732.981 293.412 733.415 290.756 733.771Z" fill="#38B189"/>
<path d="M263.431 687.586L272.478 671.99C274.473 673.149 276.573 674.119 278.75 674.885C288.971 678.484 298.606 676.9 309.751 675.082C321.631 673.146 335.097 670.943 349.665 676.076C364.232 681.208 373.35 691.354 381.371 700.303C388.926 708.718 395.448 715.976 405.671 719.557C407.851 720.321 410.098 720.881 412.381 721.23L409.658 739.052C406.262 738.538 402.922 737.708 399.682 736.572C385.11 731.462 375.998 721.287 367.976 712.339C360.42 703.93 353.894 696.665 343.67 693.083C333.446 689.502 323.808 691.067 312.671 692.881C300.789 694.823 287.33 697.021 272.761 691.894C269.524 690.751 266.4 689.309 263.431 687.586Z" fill="#38B189"/>
<path d="M227.075 607.615L231.294 590.089C233.12 590.532 234.922 591.069 236.692 591.7C251.263 596.81 260.377 606.978 268.398 615.927C275.953 624.342 282.479 631.607 292.704 635.182C302.929 638.758 312.56 637.197 323.704 635.379C335.585 633.443 349.05 631.246 363.619 636.373C378.187 641.5 387.304 651.652 395.325 660.6C402.88 669.015 409.4 676.279 419.625 679.854C429.85 683.43 439.487 681.87 450.626 680.051C462.507 678.115 475.971 675.918 490.54 681.045C492.314 681.677 494.056 682.398 495.757 683.207L488.04 699.507C486.904 698.968 485.74 698.489 484.553 698.072C474.327 694.472 464.686 696.055 453.554 697.869C441.672 699.811 428.207 702.008 413.639 696.881C399.07 691.754 389.954 681.602 381.933 672.648C374.377 664.239 367.851 656.974 357.628 653.393C347.404 649.811 337.766 651.377 326.627 653.196C314.746 655.132 301.281 657.329 286.719 652.204C272.156 647.078 263.034 636.925 255.012 627.976C247.457 619.562 240.931 612.297 230.706 608.721C229.515 608.292 228.303 607.923 227.075 607.615Z" fill="#38B189"/>
<path d="M212.09 569.097L209.199 551.298L210.74 551.046C222.622 549.104 236.087 546.907 250.661 552.035C265.235 557.163 274.346 567.314 282.367 576.268C289.917 584.676 296.443 591.941 306.667 595.522C316.891 599.104 326.529 597.538 337.666 595.725C349.548 593.783 363.013 591.586 377.581 596.713C392.15 601.84 401.261 611.991 409.287 620.946C416.848 629.356 423.369 636.62 433.593 640.201C443.817 643.783 453.454 642.217 464.592 640.403C476.474 638.462 489.939 636.265 504.507 641.392C519.076 646.518 528.192 656.67 536.213 665.624L537.262 666.79L523.839 678.879L522.775 677.699C515.22 669.284 508.694 662.02 498.475 658.445C488.255 654.87 478.613 656.429 467.475 658.243C455.595 660.178 442.129 662.381 427.561 657.249C412.994 652.116 403.876 641.97 395.855 633.022C388.3 624.607 381.774 617.342 371.554 613.767C361.335 610.192 351.693 611.751 340.555 613.565C328.673 615.506 315.208 617.704 300.64 612.577C286.071 607.45 276.955 597.298 268.934 588.344C261.384 579.936 254.858 572.671 244.634 569.09C234.41 565.508 224.772 567.074 213.634 568.893L212.09 569.097Z" fill="#38B189"/>
<path d="M188.459 528.439L194.201 511.343C204.241 514.719 214.189 513.096 224.716 511.377C236.598 509.435 250.063 507.238 264.626 512.364C279.189 517.49 288.317 527.644 296.36 536.602C303.91 545.01 310.436 552.275 320.66 555.857C330.884 559.438 340.522 557.872 351.659 556.059C363.541 554.117 377.006 551.92 391.575 557.047C406.143 562.174 415.253 572.33 423.28 581.28C430.836 589.689 437.362 596.954 447.586 600.535C457.81 604.117 467.442 602.55 478.585 600.738C490.467 598.796 503.932 596.599 518.505 601.732C533.078 606.866 542.184 617.01 550.212 625.96C557.341 633.901 564.076 641.393 574.015 645.055L567.785 661.977C553.648 656.768 544.694 646.805 536.796 638.009C529.241 629.595 522.714 622.335 512.49 618.754C502.266 615.172 492.634 616.739 481.491 618.552C469.616 620.489 456.15 622.691 441.583 617.559C427.015 612.426 417.898 602.28 409.876 593.332C402.321 584.917 395.8 577.659 385.57 574.076C375.341 570.494 365.714 572.061 354.571 573.874C342.689 575.816 329.223 578.018 314.656 572.886C300.088 567.753 290.971 557.607 282.95 548.653C275.394 540.244 268.874 532.98 258.65 529.399C248.426 525.817 238.788 527.383 227.651 529.196C215.961 531.081 202.738 533.236 188.459 528.439Z" fill="#38B189"/>
<path d="M148.352 446.076L155.664 429.593C167.92 435.025 175.775 443.772 183.368 452.229C190.962 460.686 197.45 467.903 207.674 471.484C217.898 475.066 227.53 473.499 238.673 471.687C250.554 469.751 264.014 467.547 278.589 472.675C293.163 477.803 302.267 487.958 310.294 496.908C317.85 505.317 324.376 512.582 334.6 516.163C344.824 519.745 354.462 518.179 365.599 516.365C377.52 514.466 390.985 512.269 405.556 517.379C420.128 522.489 429.241 532.658 437.263 541.606C444.818 550.021 451.345 557.28 461.569 560.862C471.793 564.443 481.425 562.876 492.569 561.058C504.45 559.122 517.916 556.919 532.483 562.052C547.051 567.185 556.168 577.331 564.19 586.279C571.745 594.694 578.271 601.959 588.496 605.535C598.721 609.111 608.352 607.55 619.496 605.731C630.64 603.913 642.316 602.009 655.272 605.453L650.644 622.878C641.406 620.427 632.178 621.93 622.411 623.529C610.535 625.472 597.064 627.668 582.496 622.541C567.927 617.414 558.811 607.263 550.79 598.308C543.234 589.899 536.714 582.636 526.49 579.054C516.266 575.473 506.628 577.038 495.491 578.852C483.614 580.795 470.149 582.992 455.576 577.858C441.003 572.724 431.897 562.58 423.87 553.631C416.314 545.222 409.788 537.957 399.564 534.375C389.34 530.794 379.708 532.361 368.565 534.173C356.683 536.115 343.218 538.312 328.651 533.179C314.083 528.047 304.966 517.901 296.944 508.952C289.389 500.537 282.862 493.278 272.638 489.697C262.414 486.115 252.782 487.682 241.639 489.494C229.764 491.431 216.298 493.634 201.73 488.502C187.163 483.369 178.045 473.223 170.024 464.275C163.336 456.909 157.08 449.947 148.352 446.076Z" fill="#38B189"/>
<path d="M133.093 404.414L130.353 386.59C140.572 385.018 152.564 383.729 165.616 388.328C180.182 393.437 189.295 403.606 197.323 412.556C204.878 420.97 211.405 428.23 221.628 431.811C231.852 435.392 241.485 433.826 252.628 432.013C264.504 430.071 277.969 427.873 292.536 433.006C307.104 438.139 316.221 448.285 324.243 457.233C331.798 465.648 338.324 472.913 348.549 476.489C358.774 480.064 368.405 478.503 379.549 476.685C391.43 474.749 404.896 472.546 419.463 477.679C434.031 482.812 443.148 492.958 451.17 501.906C458.725 510.321 465.245 517.585 475.47 521.161C485.695 524.736 495.332 523.176 506.47 521.357C518.448 519.498 531.912 517.307 546.469 522.431C561.026 527.556 570.154 537.71 578.174 546.664C585.73 555.073 592.251 562.337 602.48 565.92C612.71 569.502 622.336 567.935 633.48 566.122C645.361 564.18 658.826 561.983 673.395 567.11C686.443 571.702 694.984 580.228 701.963 587.849L688.659 600.025C682.907 593.739 676.523 587.332 667.406 584.119C657.18 580.519 647.544 582.103 636.406 583.922C624.525 585.858 611.06 588.055 596.491 582.929C581.923 577.802 572.806 567.65 564.785 558.701C557.23 550.287 550.71 543.023 540.485 539.447C530.26 535.871 520.623 537.431 509.484 539.25C497.603 541.186 484.138 543.383 469.57 538.257C455.002 533.13 445.885 522.978 437.865 514.024C430.309 505.615 423.788 498.351 413.559 494.768C403.329 491.186 393.703 492.753 382.559 494.566C370.677 496.508 357.218 498.706 342.65 493.579C328.081 488.452 318.966 478.294 310.944 469.346C303.388 460.937 296.862 453.672 286.638 450.091C276.415 446.509 266.782 448.076 255.639 449.888C243.763 451.831 230.298 454.028 215.73 448.901C201.161 443.774 192.045 433.623 184.024 424.668C176.468 416.259 169.948 408.995 159.724 405.414C150.504 402.129 141.514 403.12 133.093 404.414Z" fill="#38B189"/>
<path d="M112.344 366.92L115.143 349.101C123.103 350.361 131.14 349.053 139.65 347.66C151.525 345.723 164.991 343.52 179.558 348.653C194.126 353.785 203.243 363.931 211.265 372.88C218.82 381.295 225.346 388.559 235.571 392.135C245.796 395.711 255.427 394.15 266.571 392.332C278.446 390.395 291.911 388.198 306.48 393.325C321.048 398.451 330.165 408.603 338.186 417.552C345.741 425.967 352.267 433.231 362.486 436.806C372.706 440.381 382.348 438.822 393.487 437.003C405.368 435.067 418.833 432.87 433.401 437.997C447.97 443.123 457.085 453.281 465.107 462.229C472.657 470.637 479.183 477.902 489.407 481.484C499.631 485.065 509.269 483.5 520.406 481.686C532.288 479.744 545.753 477.547 560.321 482.674C574.89 487.801 584.006 497.953 592.027 506.907C599.583 515.316 606.109 522.581 616.333 526.162C626.556 529.744 636.194 528.178 647.332 526.365C659.208 524.422 672.673 522.225 687.247 527.353C701.821 532.481 710.931 542.637 718.953 551.586C724.715 557.997 730.153 564.054 737.152 568.059L728.188 583.713C718.681 578.265 711.996 570.823 705.537 563.635C697.982 555.221 691.461 547.963 681.231 544.38C671.002 540.797 661.375 542.365 650.231 544.183C638.35 546.119 624.884 548.322 610.317 543.19C595.749 538.057 586.632 527.911 578.611 518.957C571.055 510.548 564.535 503.284 554.305 499.701C544.076 496.119 534.449 497.686 523.305 499.505C511.424 501.441 497.959 503.638 483.391 498.511C468.822 493.384 459.706 483.232 451.684 474.284C444.135 465.87 437.609 458.605 427.384 455.029C417.159 451.453 407.522 453.013 396.384 454.833C384.503 456.769 371.037 458.971 356.47 453.839C341.902 448.706 332.79 438.561 324.764 429.606C317.208 421.197 310.682 413.932 300.458 410.351C290.234 406.769 280.596 408.335 269.459 410.148C257.583 412.091 244.118 414.288 229.549 409.161C214.981 404.034 205.864 393.883 197.844 384.928C190.288 376.519 183.762 369.254 173.538 365.673C163.314 362.091 153.682 363.658 142.539 365.471C133.038 367.021 123.175 368.632 112.344 366.92Z" fill="#38B189"/>
<path d="M79.808 294.989L92.8984 282.584C94.7419 284.533 96.5362 286.525 98.3304 288.517C105.88 296.931 112.406 304.196 122.631 307.772C132.856 311.347 142.487 309.786 153.63 307.974C165.506 306.031 178.971 303.834 193.54 308.961C208.108 314.088 217.223 324.245 225.245 333.194C232.795 341.602 239.321 348.867 249.551 352.449C259.78 356.032 269.407 354.464 280.55 352.651C292.432 350.71 305.897 348.513 320.464 353.645C335.032 358.778 344.15 368.918 352.171 377.872C359.727 386.282 366.253 393.546 376.477 397.128C386.701 400.709 396.339 399.144 407.476 397.33C419.358 395.389 432.823 393.191 447.39 398.324C461.958 403.457 471.075 413.603 479.097 422.551C486.653 430.96 493.173 438.224 503.397 441.806C513.621 445.387 523.259 443.821 534.397 442.002C546.285 440.062 559.744 437.863 574.312 442.996C588.879 448.129 597.998 458.269 606.018 467.223C613.574 475.632 620.1 482.897 630.324 486.479C640.548 490.06 650.18 488.493 661.323 486.681C673.2 484.738 686.664 482.541 701.232 487.674C715.799 492.806 724.917 502.952 732.938 511.901C740.494 520.31 747.02 527.575 757.244 531.156C767.468 534.738 777.1 533.171 788.243 531.359C790.885 530.923 793.531 530.501 796.189 530.133L798.616 548.003C796.121 548.343 793.631 548.748 791.147 549.155C779.271 551.097 765.806 553.294 751.237 548.167C736.669 543.041 727.553 532.883 719.532 523.935C711.976 515.526 705.45 508.261 695.226 504.679C685.002 501.098 675.37 502.664 664.227 504.477C652.351 506.414 638.886 508.617 624.317 503.49C609.749 498.363 600.633 488.205 592.612 479.257C585.057 470.842 578.536 463.578 568.306 460.002C558.075 456.425 548.45 457.987 537.306 459.799C525.426 461.735 511.96 463.938 497.392 458.805C482.825 453.673 473.707 443.527 465.686 434.578C458.131 426.164 451.611 418.9 441.385 415.324C431.161 411.748 421.524 413.308 410.386 415.122C398.505 417.058 385.04 419.255 370.472 414.128C355.904 409.001 346.787 398.849 338.765 389.901C331.211 381.486 324.685 374.221 314.465 370.646C304.246 367.072 294.603 368.63 283.466 370.444C271.61 372.432 258.16 374.614 243.588 369.504C229.017 364.394 219.909 354.226 211.882 345.277C204.333 336.863 197.807 329.598 187.582 326.022C177.357 322.447 167.72 324.007 156.582 325.82C144.706 327.763 131.241 329.96 116.667 324.832C102.093 319.704 92.9877 309.554 84.9605 300.605C83.2268 298.695 81.5398 296.817 79.808 294.989Z" fill="#38B189"/>
<path d="M117.923 278.724L128 263.774C130.664 265.588 133.552 267.05 136.591 268.123C146.818 271.722 156.453 270.139 167.59 268.325C179.472 266.384 192.937 264.186 207.506 269.313C222.074 274.44 231.19 284.598 239.211 293.546C246.767 301.955 253.293 309.22 263.517 312.802C273.741 316.383 283.379 314.817 294.516 313.004C306.398 311.062 319.863 308.865 334.432 313.992C349 319.119 358.116 329.276 366.137 338.225C373.687 346.633 380.212 353.903 390.437 357.479C400.662 361.055 410.294 359.494 421.438 357.676C433.319 355.74 446.779 353.536 461.347 358.663C475.916 363.79 485.031 373.947 493.053 382.896C500.609 391.305 507.134 398.575 517.359 402.151C527.584 405.727 537.215 404.166 548.358 402.353C560.233 400.416 573.699 398.214 588.267 403.346C602.834 408.479 611.951 418.625 619.973 427.573C627.528 435.988 634.055 443.247 644.273 446.828C654.491 450.408 664.135 448.844 675.272 447.03C687.148 445.093 700.614 442.89 715.181 448.023C729.748 453.155 738.866 463.302 746.888 472.25C754.442 480.665 760.968 487.93 771.193 491.505C774.234 492.571 777.4 493.241 780.612 493.499L779.102 511.47C774.362 511.084 769.691 510.091 765.205 508.514C750.627 503.403 741.514 493.234 733.499 484.281C725.949 475.873 719.423 468.608 709.199 465.027C698.975 461.445 689.343 463.012 678.199 464.83C666.317 466.772 652.852 468.969 638.279 463.836C623.706 458.702 614.598 448.563 606.572 439.608C599.017 431.194 592.49 423.934 582.266 420.353C572.042 416.771 562.41 418.338 551.267 420.151C539.391 422.093 525.926 424.29 511.357 419.164C496.789 414.037 487.673 403.879 479.652 394.931C472.096 386.522 465.576 379.258 455.346 375.675C445.116 372.093 435.49 373.66 424.347 375.473C412.465 377.415 399 379.612 384.431 374.485C369.863 369.358 360.748 359.2 352.726 350.252C345.176 341.844 338.645 334.572 328.426 330.998C318.207 327.423 308.564 328.982 297.427 330.795C285.546 332.731 272.08 334.934 257.512 329.802C242.945 324.669 233.827 314.523 225.806 305.574C218.257 297.161 211.729 289.901 201.506 286.32C191.282 282.738 181.644 284.304 170.506 286.118C158.623 288.065 145.158 290.262 130.591 285.13C126.11 283.548 121.852 281.395 117.923 278.724Z" fill="#38B189"/>
<path d="M197.869 244.669L196.566 226.68C205.906 226.006 213.826 226.948 221.492 229.657C236.064 234.767 245.17 244.941 253.198 253.89C260.753 262.305 267.278 269.57 277.503 273.146C287.728 276.722 297.36 275.161 308.504 273.342C320.38 271.4 333.845 269.203 348.418 274.336C362.991 279.47 372.103 289.615 380.125 298.563C387.68 306.978 394.207 314.237 404.43 317.819C414.654 321.4 424.287 319.834 435.431 318.015C447.312 316.08 460.777 313.882 475.345 319.009C489.914 324.136 499.03 334.288 507.05 343.242C514.606 351.651 521.127 358.915 531.351 362.496C541.575 366.078 551.213 364.512 562.351 362.693C574.226 360.756 587.692 358.553 602.26 363.686C616.827 368.818 625.945 378.965 633.966 387.913C641.521 396.328 648.047 403.593 658.266 407.167C668.486 410.742 678.128 409.183 689.267 407.364C701.148 405.428 714.613 403.231 729.181 408.358C736.867 411.059 743.601 415.283 750.46 421.657L738.183 434.866C733.132 430.165 728.506 427.237 723.192 425.367C712.971 421.768 703.33 423.351 692.192 425.17C680.316 427.107 666.852 429.304 652.278 424.176C637.703 419.048 628.598 408.898 620.572 399.943C613.016 391.534 606.496 384.27 596.272 380.689C586.048 377.107 576.416 378.674 565.273 380.487C553.396 382.429 539.931 384.626 525.357 379.498C510.783 374.371 501.678 364.221 493.652 355.266C486.096 346.857 479.57 339.592 469.346 336.01C459.122 332.429 449.49 333.995 438.346 335.814C426.47 337.751 413.005 339.948 398.437 334.821C383.869 329.694 374.753 319.536 366.732 310.588C359.176 302.179 352.655 294.915 342.426 291.333C332.196 287.75 322.569 289.318 311.426 291.13C299.55 293.073 286.085 295.27 271.517 290.143C256.948 285.016 247.833 274.859 239.811 265.91C232.255 257.501 225.729 250.236 215.505 246.655C210.181 244.783 204.745 244.172 197.869 244.669Z" fill="#38B189"/>
<path d="M244.595 216.614L256.912 203.442C260.642 206.926 263.972 210.639 267.165 214.208C274.72 222.623 281.246 229.888 291.471 233.464C301.696 237.039 311.327 235.478 322.47 233.666C334.345 231.729 347.811 229.526 362.378 234.659C376.946 239.791 386.063 249.937 394.084 258.891C401.64 267.3 408.16 274.564 418.39 278.147C428.619 281.729 438.246 280.162 449.389 278.349C461.271 276.408 474.736 274.21 489.304 279.337C503.873 284.464 512.989 294.616 521.011 303.564C528.566 311.979 535.086 319.243 545.317 322.82C555.547 326.397 565.173 324.835 576.316 323.022C588.198 321.081 601.663 318.883 616.23 324.016C630.798 329.149 639.915 339.295 647.937 348.243C655.493 356.652 662.013 363.916 672.237 367.498C682.461 371.079 692.099 369.513 703.236 367.7C707.993 366.923 712.907 366.117 717.998 365.737L719.342 383.723C715.036 384.041 710.72 384.75 706.124 385.487C694.242 387.429 680.776 389.631 666.208 384.499C651.641 379.366 642.523 369.22 634.502 360.272C626.941 351.856 620.42 344.598 610.196 341.016C599.972 337.435 590.334 339 579.196 340.82C567.315 342.755 553.849 344.958 539.287 339.827C524.725 334.695 515.597 324.547 507.581 315.6C500.026 307.185 493.505 299.921 483.28 296.345C473.055 292.769 463.424 294.33 452.281 296.143C440.405 298.086 426.94 300.283 412.371 295.156C397.803 290.029 388.687 279.877 380.638 270.918C373.087 262.51 366.562 255.245 356.338 251.663C346.114 248.082 336.481 249.648 325.337 251.467C313.456 253.403 299.991 255.6 285.417 250.472C270.843 245.344 261.738 235.194 253.711 226.245C250.678 222.817 247.748 219.561 244.595 216.614Z" fill="#38B189"/>
<path d="M280.659 199.708L292.373 186.041C296.195 189.431 300.628 192.062 305.435 193.792C315.662 197.392 325.297 195.808 336.435 193.994C348.311 192.052 361.776 189.854 376.344 194.981C390.913 200.108 400.029 210.26 408.05 219.214C415.606 227.623 422.126 234.887 432.35 238.469C442.574 242.05 452.212 240.484 463.349 238.671C475.231 236.729 488.696 234.532 503.265 239.659C517.833 244.786 526.949 254.943 534.97 263.892C542.52 272.3 549.046 279.565 559.27 283.146C569.494 286.728 579.126 285.161 590.271 283.343C602.147 281.4 615.612 279.203 630.185 284.337C644.758 289.47 653.87 299.615 661.891 308.564C669.446 316.979 675.973 324.238 686.197 327.819C691.035 329.479 696.146 330.199 701.254 329.941L701.819 347.967C694.482 348.285 687.151 347.22 680.208 344.828C665.637 339.718 656.524 329.544 648.503 320.595C640.947 312.186 634.421 304.921 624.203 301.341C613.984 297.76 604.341 299.325 593.203 301.139C581.323 303.075 567.857 305.277 553.289 300.145C538.722 295.012 529.604 284.866 521.583 275.918C514.033 267.504 507.507 260.239 497.282 256.663C487.057 253.087 477.421 254.647 466.282 256.467C454.451 258.482 441.001 260.659 426.421 255.53C411.842 250.401 402.737 240.251 394.715 231.303C387.16 222.888 380.634 215.623 370.409 212.047C360.184 208.471 350.553 210.032 339.409 211.851C327.533 213.788 314.069 215.985 299.494 210.857C292.569 208.361 286.178 204.579 280.659 199.708Z" fill="#38B189"/>
<path d="M347.987 173.006L345.299 155.187C347.011 154.927 348.724 154.666 350.437 154.371C362.319 152.43 375.784 150.232 390.353 155.359C404.921 160.486 414.037 170.644 422.059 179.586C429.614 188.001 436.14 195.266 446.365 198.842C456.59 202.418 466.227 200.858 477.364 199.044C489.241 197.102 502.706 194.904 517.274 200.031C531.843 205.158 540.952 215.315 548.98 224.264C556.535 232.673 563.061 239.938 573.285 243.52C583.509 247.101 593.147 245.535 604.286 243.716C616.162 241.773 629.627 239.576 644.2 244.71C658.773 249.844 667.879 259.988 675.906 268.937C677.058 270.233 678.221 271.52 679.396 272.797L666.22 285.062C664.998 283.729 663.801 282.383 662.576 281.032C655.02 272.623 648.494 265.358 638.27 261.777C628.046 258.195 618.414 259.762 607.271 261.575C595.389 263.516 581.924 265.713 567.356 260.586C552.787 255.46 543.672 245.302 535.65 236.354C528.094 227.944 521.568 220.68 511.344 217.098C501.12 213.517 491.488 215.083 480.345 216.896C468.464 218.832 454.998 221.035 440.431 215.902C425.863 210.769 416.746 200.623 408.724 191.675C401.168 183.266 394.649 175.996 384.424 172.42C374.199 168.845 364.562 170.405 353.424 172.224C351.584 172.476 349.772 172.736 347.987 173.006Z" fill="#38B189"/>
<path d="M409.179 138.628L420.16 124.318C426.335 129.051 431.274 134.557 436.055 139.88C443.61 148.294 450.136 155.559 460.361 159.135C470.586 162.711 480.217 161.15 491.361 159.332C503.237 157.395 516.702 155.192 531.27 160.324C545.837 165.457 554.955 175.603 562.976 184.552C570.531 192.966 577.057 200.231 587.282 203.807C597.507 207.383 607.144 205.823 618.283 204.004C625.342 202.85 632.642 201.66 640.42 201.838L640.054 219.955C633.948 219.82 627.772 220.826 621.233 221.891C609.351 223.832 595.886 226.029 581.312 220.901C566.738 215.773 557.633 205.624 549.607 196.669C542.051 188.259 535.525 180.995 525.301 177.413C515.077 173.832 505.445 175.398 494.302 177.211C482.42 179.152 468.955 181.35 454.386 176.223C439.818 171.096 430.701 160.944 422.681 151.99C418.206 147.029 414.025 142.371 409.179 138.628Z" fill="#38B189"/>
<path d="M444.328 120.588L457.105 107.861C463.12 113.898 468.268 117.382 474.322 119.516C484.543 123.114 494.178 121.531 505.321 119.718C517.198 117.776 530.662 115.578 545.231 120.705C559.799 125.832 568.916 135.984 576.936 144.938C584.492 153.347 591.013 160.611 601.236 164.193C607.274 166.323 613.483 166.835 621.96 165.898L623.934 183.839C616.403 184.669 606.332 185.122 595.244 181.218C580.673 176.108 571.565 165.941 563.538 156.991C555.983 148.576 549.457 141.312 539.232 137.736C529.007 134.16 519.376 135.721 508.232 137.539C496.351 139.475 482.892 141.673 468.323 136.546C457.234 132.619 449.674 125.954 444.328 120.588Z" fill="#38B189"/>
<path d="M498.899 99.9776L499.632 81.9647C506.025 82.2245 512.467 81.1704 519.319 80.0594C531.196 78.1167 544.661 75.9196 559.229 81.0465C573.797 86.1734 582.913 96.3309 590.934 105.279C595.56 110.432 599.936 115.298 605.072 119.09L594.353 133.59C587.739 128.703 582.543 122.915 577.531 117.326C569.965 108.909 563.451 101.646 553.227 98.0644C543.003 94.4829 533.37 96.0496 522.226 97.8678C514.792 99.0555 507.11 100.313 498.899 99.9776Z" fill="#38B189"/>
</svg>
