<svg width="30" height="33" viewBox="0 0 30 33" fill="none" xmlns="http://www.w3.org/2000/svg">
<path d="M15.6917 9.94592C15.6917 10.3063 15.3995 10.5985 15.0391 10.5985C14.6785 10.5985 14.3862 10.3063 14.3862 9.94592C14.3862 9.58527 14.6785 9.29303 15.0391 9.29303C15.3995 9.29303 15.6917 9.58527 15.6917 9.94592Z" fill="url(#paint0_linear_1754_1743)"/>
<path d="M15.6917 13.1111C15.6917 13.4715 15.3995 13.7637 15.0391 13.7637C14.6785 13.7637 14.3862 13.4715 14.3862 13.1111C14.3862 12.7504 14.6785 12.4582 15.0391 12.4582C15.3995 12.4582 15.6917 12.7504 15.6917 13.1111Z" fill="url(#paint1_linear_1754_1743)"/>
<path d="M15.6917 16.2761C15.6917 16.6367 15.3995 16.929 15.0391 16.929C14.6785 16.929 14.3862 16.6367 14.3862 16.2761C14.3862 15.9157 14.6785 15.6235 15.0391 15.6235C15.3995 15.6235 15.6917 15.9157 15.6917 16.2761Z" fill="url(#paint2_linear_1754_1743)"/>
<path d="M28.9966 24.0097C28.9811 23.8448 28.9653 23.68 28.9497 23.5152C28.7703 21.6183 28.5908 19.7217 28.4111 17.8249C28.1701 15.2765 27.9287 12.7281 27.6874 10.1797C27.5724 8.96449 27.4998 7.74007 27.3421 6.53032C27.2627 5.92083 26.8057 5.61289 26.2917 5.20514C25.7579 4.78179 25.2244 4.35819 24.6906 3.93484C23.5546 3.03349 22.4226 2.1338 21.2625 1.25729C20.9938 1.05437 20.6352 0.964964 20.2772 1.0125C20.0703 1.0397 19.8731 1.11302 19.7106 1.22394C19.2926 1.51012 19.0595 2.01649 18.6947 2.35518C18.4943 2.54131 18.5121 2.82844 18.7345 2.99612C18.9569 3.16405 19.2997 3.14915 19.5006 2.96301C19.8239 2.66288 20.1172 2.3223 20.3733 1.95098C20.3933 1.92189 20.4238 1.91219 20.4464 1.90912C20.5436 1.89611 21.381 2.51861 21.3634 2.55645C20.3987 4.6413 17.5449 5.8002 14.986 5.78838C13.9018 5.78341 12.824 5.589 11.8239 5.24085C10.4376 4.7579 9.31371 3.88541 8.70643 2.7291C8.69315 2.70332 8.67111 2.65318 8.65613 2.61818C8.64765 2.59926 8.63946 2.5801 8.6307 2.56071L9.46404 1.93111C9.49569 1.90723 9.52989 1.90581 9.55334 1.90912C9.57566 1.91196 9.60647 1.92165 9.62681 1.95098C11.5128 4.68931 14.5964 4.66542 14.9999 4.64981C15.1437 4.65525 15.6267 4.6614 16.2848 4.53983C16.5773 4.48591 16.7621 4.24372 16.6977 3.99893C16.633 3.75414 16.3436 3.59947 16.0511 3.65339C13.8794 4.05451 11.6513 3.07275 10.5664 1.49759C10.3864 1.23624 10.0789 1.05957 9.72261 1.0125C9.36514 0.9652 9.00597 1.05437 8.73752 1.25729C7.62809 2.09525 6.54324 2.95521 5.45529 3.81871C4.92968 4.23592 4.40407 4.65289 3.87818 5.07009C3.32855 5.50622 2.72862 5.80967 2.66334 6.47308C2.61757 6.93877 2.57518 7.40493 2.53109 7.8711C2.41439 9.10427 2.29768 10.3377 2.18069 11.5711C2.15045 11.8906 2.12022 12.2106 2.08998 12.5301C2.06624 12.7801 2.2892 12.9987 2.58761 13.0185C2.88659 13.0386 3.14741 12.8518 3.17115 12.602L3.63318 7.72186L4.5821 9.12485C4.92205 9.6272 5.10177 10.1979 5.10177 10.7752V24.0948H2.09959C2.09676 24.0948 2.0928 24.0948 2.08857 24.0908C2.08404 24.0868 2.08433 24.0837 2.08461 24.0814L2.90495 15.4142C2.92869 15.1644 2.70573 14.9456 2.40732 14.926C2.10891 14.9059 1.84752 15.0927 1.82378 15.3425L1.00344 24.0097C0.979136 24.2649 1.08454 24.5189 1.29196 24.7069C1.49938 24.895 1.79383 25.0026 2.09959 25.0026H5.10177V31.2434C5.10177 31.6606 5.50728 32 6.00548 32H23.9946C24.4928 32 24.8983 31.6606 24.8983 31.2434V25.0026H27.9005C28.2062 25.0026 28.5007 24.895 28.7081 24.7069C28.9155 24.5189 29.0206 24.2647 28.9966 24.0097ZM23.8137 31.0923H6.18634V10.7752C6.18634 10.0416 5.95801 9.31618 5.52622 8.6776L3.9135 6.29333C3.9135 6.29333 7.77305 3.23051 7.78831 3.21845C7.77418 3.22932 8.11809 3.68603 8.15652 3.73499C8.70728 4.43861 9.41205 5.05921 10.2347 5.54359C11.8745 6.50974 14.1092 6.84038 16.0681 6.64266C17.4273 6.50572 18.6738 6.18548 19.8019 5.51521C20.3447 5.19261 20.8361 4.81064 21.2648 4.38421C21.3524 4.29717 22.3013 3.3017 22.212 3.21868C23.096 3.91994 24.8714 5.32884 26.0868 6.29333C26.0868 6.29333 24.4755 8.67547 24.4741 8.6776C23.8112 9.65771 23.8137 10.7655 23.8137 11.8542V14.9366V22.4111V24.5489V31.0923ZM27.9115 24.0908C27.907 24.0948 27.9033 24.0948 27.9005 24.0948H24.8983V10.7752C24.8983 10.1979 25.078 9.6272 25.418 9.12485L26.3669 7.72162L27.9155 24.0814C27.9157 24.0837 27.916 24.0868 27.9115 24.0908Z" fill="url(#paint3_linear_1754_1743)" stroke="url(#paint4_linear_1754_1743)" stroke-width="0.5"/>
<defs>
<linearGradient id="paint0_linear_1754_1743" x1="14.3862" y1="10.2797" x2="16.7226" y2="10.1172" gradientUnits="userSpaceOnUse">
<stop stop-color="#016DB4"/>
<stop offset="0.5" stop-color="#20BDFF"/>
<stop offset="1" stop-color="#E4DBD9"/>
</linearGradient>
<linearGradient id="paint1_linear_1754_1743" x1="14.3862" y1="13.4449" x2="16.7226" y2="13.2824" gradientUnits="userSpaceOnUse">
<stop stop-color="#016DB4"/>
<stop offset="0.5" stop-color="#20BDFF"/>
<stop offset="1" stop-color="#E4DBD9"/>
</linearGradient>
<linearGradient id="paint2_linear_1754_1743" x1="14.3862" y1="16.6102" x2="16.7226" y2="16.4477" gradientUnits="userSpaceOnUse">
<stop stop-color="#016DB4"/>
<stop offset="0.5" stop-color="#20BDFF"/>
<stop offset="1" stop-color="#E4DBD9"/>
</linearGradient>
<linearGradient id="paint3_linear_1754_1743" x1="1" y1="24.4302" x2="51.1555" y2="21.2791" gradientUnits="userSpaceOnUse">
<stop stop-color="#016DB4"/>
<stop offset="0.5" stop-color="#20BDFF"/>
<stop offset="1" stop-color="#E4DBD9"/>
</linearGradient>
<linearGradient id="paint4_linear_1754_1743" x1="1" y1="24.4302" x2="51.1555" y2="21.2791" gradientUnits="userSpaceOnUse">
<stop stop-color="#016DB4"/>
<stop offset="0.5" stop-color="#20BDFF"/>
<stop offset="1" stop-color="#E4DBD9"/>
</linearGradient>
</defs>
</svg>
