<svg width="30" height="33" viewBox="0 0 30 33" fill="none" xmlns="http://www.w3.org/2000/svg">
<path d="M25.0389 5.65995H24.6196V4.00171C24.6196 2.41723 23.5671 1.12821 22.2771 1.12821L5.27512 1C2.99027 1 1.1314 3.30467 1.1314 6.13729C1.1314 6.13729 1.13217 17.8397 1.13239 17.8469C1.14265 19.1185 1.52776 20.3319 2.22097 21.2686C2.49434 21.6378 2.80561 21.9518 3.14465 22.2039C2.98709 22.2969 2.8297 22.4066 2.67587 22.5359C1.62651 23.4177 1.09448 24.8799 1.09448 26.8818C1.09448 29.7145 2.95335 32.0191 5.23414 32.0191L25.0348 32.1853C25.0362 32.1853 25.0375 32.1853 25.0389 32.1853C26.3327 32.1853 27.3852 30.8963 27.3852 29.3119C27.3852 28.3362 27.0782 27.6614 26.6678 27.209C28.1453 26.423 29.1827 24.6015 29.1827 22.4853C29.1827 22.4596 29.1827 10.7275 29.1827 10.7275C29.1827 7.93325 27.3238 5.65995 25.0389 5.65995ZM22.2735 2.34761C22.9621 2.34761 23.5224 3.08966 23.5224 4.00171V6.33457L20.339 2.33305L22.2735 2.34761ZM19.4789 3.27251L22.0449 6.38769C22.044 6.38769 22.0433 6.38769 22.0425 6.38769C21.0684 6.38769 20.1278 6.78292 19.4789 7.13833V3.27251ZM2.22854 6.13729H2.2286C2.2286 3.97698 3.59526 2.21939 5.27139 2.21939L18.3816 2.31831V8.1901C18.3816 8.41741 18.4954 8.62584 18.6769 8.73091C18.7566 8.77701 18.8435 8.7998 18.9302 8.7998C19.0408 8.7998 19.1509 8.7627 19.2448 8.68955C19.2587 8.67871 20.6524 7.60708 22.0424 7.60708C22.6348 7.60708 23.1209 7.80211 23.5224 8.201V13.2279C23.1612 12.9484 22.7343 12.786 22.2771 12.786L5.27507 12.6576C4.07139 12.6576 2.98627 13.2978 2.22854 14.3173V6.13729ZM25.1818 26.3986C25.1495 26.392 6.83001 26.3881 6.83001 26.3881C6.52702 26.3881 6.28142 26.661 6.28142 26.9978C6.28142 27.3344 6.52702 27.6074 6.83001 27.6074C6.83001 27.6074 24.9743 27.6191 25.0025 27.6213C25.0056 27.6215 25.3323 27.6543 25.6525 27.871C26.0801 28.1602 26.2879 28.6316 26.2879 29.3119C26.2879 30.2231 25.7287 30.9646 25.0408 30.966L5.2382 30.7998C3.5584 30.7997 2.19168 29.0422 2.19168 26.8818C2.19168 23.4727 3.92963 22.9331 4.98316 22.9197C5.07988 22.928 24.1973 22.9144 24.1973 22.9144C24.5003 22.9144 24.7459 22.6414 24.7459 22.3047C24.7459 21.9681 24.5003 21.695 24.1973 21.695C24.1973 21.695 5.13463 21.7002 5.02705 21.7C3.46009 21.5373 2.23518 19.8359 2.22887 17.8106C2.23518 15.6571 3.59916 13.9075 5.27139 13.9075L22.2734 14.0358C22.9586 14.0358 23.5165 14.7704 23.5221 15.6762C23.5184 15.8524 23.4541 17.3578 22.4495 17.3578C22.4484 17.3578 6.83001 17.333 6.83001 17.333C6.52702 17.333 6.28142 17.606 6.28142 17.9427C6.28142 18.2794 6.52702 18.5524 6.83001 18.5524C6.83001 18.5524 25.1412 18.5691 25.1918 18.5724C26.7615 18.6749 28.0443 20.347 28.0834 22.3874C28.0834 22.3885 28.0836 22.3894 28.0836 22.3904C28.0842 22.422 28.0855 22.4535 28.0855 22.4854C28.0855 24.584 26.7956 26.3022 25.1818 26.3986ZM28.0855 19.0024H28.0855C27.4232 17.0029 24.184 17.3373 24.184 17.3373C24.453 16.8764 24.611 16.3134 24.6189 15.7064C24.619 15.7009 24.6197 6.87934 24.6197 6.87934H25.039C26.7189 6.87934 28.0855 8.60562 28.0855 10.7276V19.0024Z" fill="url(#paint0_linear_1754_1619)" stroke="url(#paint1_linear_1754_1619)" stroke-width="0.5"/>
<defs>
<linearGradient id="paint0_linear_1754_1619" x1="1.09448" y1="24.5703" x2="51.409" y2="21.418" gradientUnits="userSpaceOnUse">
<stop stop-color="#016DB4"/>
<stop offset="0.5" stop-color="#20BDFF"/>
<stop offset="1" stop-color="#E4DBD9"/>
</linearGradient>
<linearGradient id="paint1_linear_1754_1619" x1="1.09448" y1="24.5703" x2="51.409" y2="21.418" gradientUnits="userSpaceOnUse">
<stop stop-color="#016DB4"/>
<stop offset="0.5" stop-color="#20BDFF"/>
<stop offset="1" stop-color="#E4DBD9"/>
</linearGradient>
</defs>
</svg>
