<svg width="30" height="34" viewBox="0 0 30 34" fill="none" xmlns="http://www.w3.org/2000/svg">
<path d="M28.9947 29.6801L28.2201 16.1879C28.1658 15.2334 27.3695 14.4857 26.4072 14.4857H23.7292V9.67156C23.7293 4.89 19.8133 1 15 1C10.1867 1 6.27071 4.89 6.27071 9.6715V14.4856H3.59271C2.63044 14.4856 1.83409 15.2334 1.77992 16.1876L1.00529 29.6802C0.955444 30.5506 1.2594 31.3792 1.86121 32.0135C2.46472 32.6497 3.2816 33 4.16144 33H25.8386C26.7184 33 27.5353 32.6497 28.1389 32.0135C28.7407 31.3792 29.0446 30.5506 28.9947 29.6801ZM23.7965 19.4313V20.9666C23.7965 21.8132 23.1026 22.5019 22.2496 22.5019C21.3966 22.5019 20.7027 21.8132 20.7027 20.9666V19.4312L23.7965 19.4313ZM7.21232 9.6715C7.21232 5.40694 10.7059 1.9375 15 1.9375C19.2941 1.9375 22.7877 5.40694 22.7877 9.6715V18.4938H21.7115V9.6715C21.7115 5.99506 18.7008 3.00413 15 3.00413C11.2992 3.00413 8.28845 5.99506 8.28845 9.6715V10.8966C8.28845 11.1554 8.49919 11.3653 8.75926 11.3653C9.01933 11.3653 9.23006 11.1554 9.23006 10.8966V9.6715C9.23006 6.512 11.8184 3.94163 15 3.94163C18.1816 3.94163 20.7699 6.512 20.7699 9.6715V14.4856H9.23006V13.0841C9.23006 12.8252 9.01933 12.6153 8.75926 12.6153C8.49919 12.6153 8.28845 12.8252 8.28845 13.0841V18.4937H7.21232V9.6715ZM9.29723 19.4313V20.9666C9.29723 21.8132 8.60333 22.5019 7.75035 22.5019C6.89738 22.5019 6.20341 21.8132 6.20341 20.9666V19.4312L9.29723 19.4313ZM27.4543 31.3697C27.0305 31.8164 26.4567 32.0625 25.8386 32.0625H4.16144C3.5433 32.0625 2.96949 31.8164 2.5457 31.3697C2.12361 30.9249 1.91042 30.3438 1.94539 29.7336L2.2693 24.0921C4.58152 25.6964 7.77032 26.8055 11.3899 27.2566V27.7087C11.3899 28.2084 11.7982 28.6149 12.3001 28.6149H17.7C18.2019 28.6149 18.6102 28.2084 18.6102 27.7087V27.2559C19.8693 27.0986 21.0913 26.8591 22.2479 26.541C22.4985 26.4721 22.6456 26.2139 22.5763 25.9643C22.507 25.7148 22.2481 25.5684 21.9971 25.6373C20.9199 25.9336 19.7828 26.1597 18.6101 26.3115V25.9438C18.6101 25.4441 18.2018 25.0375 17.6999 25.0375H12.3C11.7981 25.0375 11.3898 25.4441 11.3898 25.9438V26.3109C7.75563 25.8388 4.49332 24.6389 2.33333 22.9756L2.72002 16.2409C2.74607 15.7823 3.12937 15.4231 3.59271 15.4231H6.27071V18.4937H6.00172C5.59375 18.4937 5.26187 18.8239 5.26187 19.2297V20.9666C5.26187 22.3301 6.37818 23.4394 7.75042 23.4394C9.12253 23.4394 10.2389 22.3301 10.2389 20.9666V19.2297C10.2389 18.8239 9.90702 18.4937 9.49911 18.4937H9.23013V15.4231H20.77V18.4937H20.501C20.0931 18.4937 19.7612 18.8239 19.7612 19.2297V20.9666C19.7612 22.3301 20.8775 23.4394 22.2497 23.4394C23.6219 23.4394 24.7383 22.3301 24.7383 20.9666V19.2297C24.7383 18.8239 24.4064 18.4937 23.9984 18.4937H23.7294V15.4231H26.4074C26.8708 15.4231 27.2541 15.7823 27.2802 16.2411L27.6668 22.976C26.6718 23.7431 25.4543 24.4106 24.0435 24.9616C23.8015 25.0562 23.6822 25.3282 23.7773 25.5692C23.8734 25.813 24.1504 25.9269 24.3875 25.8344C25.6501 25.3412 26.7704 24.7563 27.7308 24.091L28.0547 29.7336C28.0896 30.3438 27.8764 30.9249 27.4543 31.3697ZM12.3314 27.6774V25.975H17.6685V27.6774H12.3314Z" fill="url(#paint0_linear_1754_1794)" stroke="url(#paint1_linear_1754_1794)" stroke-width="0.5"/>
<defs>
<linearGradient id="paint0_linear_1754_1794" x1="1" y1="25.186" x2="51.1676" y2="22.1326" gradientUnits="userSpaceOnUse">
<stop stop-color="#016DB4"/>
<stop offset="0.5" stop-color="#20BDFF"/>
<stop offset="1" stop-color="#E4DBD9"/>
</linearGradient>
<linearGradient id="paint1_linear_1754_1794" x1="1" y1="25.186" x2="51.1676" y2="22.1326" gradientUnits="userSpaceOnUse">
<stop stop-color="#016DB4"/>
<stop offset="0.5" stop-color="#20BDFF"/>
<stop offset="1" stop-color="#E4DBD9"/>
</linearGradient>
</defs>
</svg>
