<svg width="20" height="36" viewBox="0 0 20 36" fill="none" xmlns="http://www.w3.org/2000/svg">
<path d="M18.9984 34.4268C18.4639 27.4391 15.3777 11.1629 15.063 9.51514C15.6051 7.77085 15.6118 5.60116 15.6118 5.50732C15.6118 5.36614 15.556 5.23074 15.4568 5.13093C15.3682 5.04195 15.2516 4.98796 15.1278 4.97727L15.6065 1.60775C15.6282 1.45502 15.5829 1.30029 15.4823 1.18361C15.3817 1.06694 15.2358 1 15.0823 1H12.8235C12.531 1 12.294 1.23833 12.294 1.53238V5.3858C11.5051 5.61105 10.6779 5.95988 9.99997 6.50003C9.32208 5.95988 8.49481 5.61105 7.70584 5.3858V1.53238C7.70584 1.2384 7.46882 1 7.1764 1H4.9176C4.76413 1 4.61825 1.06694 4.51767 1.18355C4.41716 1.30016 4.37186 1.45482 4.39352 1.60768L4.87224 4.97727C4.60115 5.00038 4.38824 5.22868 4.38824 5.50726C4.38824 5.60109 4.39484 7.77078 4.93695 9.51507C4.62234 11.1628 1.53614 27.439 1.00156 34.4268C0.990264 34.5747 1.04078 34.7205 1.14097 34.8293C1.24115 34.9382 1.38194 35 1.52941 35H18.4707C18.6181 35 18.7589 34.9382 18.8591 34.8293C18.9592 34.7206 19.0097 34.5747 18.9984 34.4268ZM14.472 2.06469L14.0488 5.04388C13.8378 5.06791 13.6032 5.10052 13.353 5.14441V2.06469H14.472ZM10.5294 7.44141C11.6861 6.422 13.6013 6.14383 14.5357 6.06799C14.5028 6.74208 14.4069 7.9111 14.1276 8.9402C13.4577 8.91483 12.0171 8.82319 10.5294 8.49282V7.44141ZM6.64703 2.06469V5.14435C6.39688 5.10045 6.16218 5.06791 5.95131 5.04381L5.52807 2.06463H6.64703V2.06469ZM9.47053 7.44147V8.49275C7.98281 8.82319 6.5423 8.91483 5.8724 8.9402C5.59378 7.91276 5.49749 6.74261 5.46441 6.06799C6.39932 6.14389 8.31412 6.4222 9.47053 7.44147ZM2.10494 33.9353C2.72108 27.0402 5.41996 12.6484 5.92179 10.0047C6.31902 9.99008 6.95537 9.95389 7.71172 9.8647L6.65318 16.7833C6.60873 17.0739 6.80691 17.3457 7.0959 17.3904C7.12324 17.3946 7.15032 17.3966 7.17706 17.3966C7.43395 17.3966 7.65941 17.2083 7.69963 16.9452L8.80704 9.70712C9.0245 9.66993 9.24626 9.62836 9.47053 9.58161V20.8393C9.47053 21.1332 9.70755 21.3716 9.99997 21.3716C10.2924 21.3716 10.5294 21.1333 10.5294 20.8393V9.58161C10.7537 9.62836 10.9754 9.66993 11.1929 9.70712L12.3003 16.9452C12.3405 17.2084 12.566 17.3966 12.8229 17.3966C12.8497 17.3966 12.8768 17.3946 12.904 17.3904C13.193 17.3457 13.3913 17.0739 13.3468 16.7833L12.2882 9.8647C13.0446 9.95389 13.6809 9.99008 14.0781 10.0047C14.58 12.6484 17.2789 27.0401 17.895 33.9353H2.10494Z" fill="url(#paint0_linear_1754_1804)" stroke="url(#paint1_linear_1754_1804)" stroke-width="0.5"/>
<defs>
<linearGradient id="paint0_linear_1754_1804" x1="1" y1="26.6977" x2="33.3262" y2="25.5072" gradientUnits="userSpaceOnUse">
<stop stop-color="#016DB4"/>
<stop offset="0.5" stop-color="#20BDFF"/>
<stop offset="1" stop-color="#E4DBD9"/>
</linearGradient>
<linearGradient id="paint1_linear_1754_1804" x1="1" y1="26.6977" x2="33.3262" y2="25.5072" gradientUnits="userSpaceOnUse">
<stop stop-color="#016DB4"/>
<stop offset="0.5" stop-color="#20BDFF"/>
<stop offset="1" stop-color="#E4DBD9"/>
</linearGradient>
</defs>
</svg>
