<svg width="33" height="27" viewBox="0 0 33 27" fill="none" xmlns="http://www.w3.org/2000/svg">
<path fill-rule="evenodd" clip-rule="evenodd" d="M2.77289 11.9633C11.242 8.28524 16.8894 5.86043 19.715 4.68888C27.7829 1.34386 29.4594 0.7628 30.552 0.743613C30.7924 0.739393 31.3297 0.798762 31.6778 1.0803C31.9717 1.31802 32.0525 1.63915 32.0912 1.86454C32.1299 2.08992 32.1781 2.60336 32.1398 3.00455C31.7026 7.58362 29.8109 18.6958 28.8484 23.8244C28.4412 25.9946 27.6393 26.7222 26.863 26.7934C25.176 26.9482 23.8949 25.682 22.2609 24.6143C19.704 22.9436 18.2595 21.9035 15.7776 20.2732C12.9093 18.3891 14.7687 17.3535 16.4033 15.6612C16.8311 15.2183 24.2644 8.47868 24.4082 7.86729C24.4262 7.79083 24.4429 7.50581 24.2731 7.3553C24.1032 7.2048 23.8525 7.25627 23.6716 7.2972C23.4151 7.35522 19.3304 10.0464 11.4175 15.3709C10.2581 16.1645 9.2079 16.5511 8.26699 16.5309C7.2297 16.5085 5.23438 15.9462 3.75106 15.4656C1.93172 14.8761 0.485735 14.5644 0.611647 13.5633C0.67723 13.0418 1.39764 12.5085 2.77289 11.9633Z" fill="url(#paint0_linear_1756_1401)"/>
<defs>
<linearGradient id="paint0_linear_1756_1401" x1="0.604004" y1="20.4421" x2="56.9418" y2="15.6983" gradientUnits="userSpaceOnUse">
<stop stop-color="#016DB4"/>
<stop offset="0.5" stop-color="#20BDFF"/>
<stop offset="1" stop-color="#E4DBD9"/>
</linearGradient>
</defs>
</svg>
