<svg width="44" height="26" viewBox="0 0 44 26" fill="none" xmlns="http://www.w3.org/2000/svg">
<path fill-rule="evenodd" clip-rule="evenodd" d="M42.9903 1.76055C43.2962 0.745711 42.9903 0 41.5347 0H36.721C35.4971 0 34.9328 0.644185 34.6268 1.35453C34.6268 1.35453 32.1789 7.29127 28.7112 11.1476C27.5893 12.2638 27.0792 12.619 26.4673 12.619C26.1613 12.619 25.7023 12.2638 25.7023 11.2491V1.76055C25.7023 0.542744 25.3632 0 24.3432 0H16.7789C16.0141 0 15.5541 0.565211 15.5541 1.10088C15.5541 2.25534 17.2879 2.52157 17.4666 5.76905V12.8221C17.4666 14.3684 17.1859 14.6488 16.5739 14.6488C14.9421 14.6488 10.9726 8.68552 8.61837 1.86199C8.157 0.535733 7.69424 0 6.46402 0H1.6504C0.275081 0 0 0.644185 0 1.35453C0 2.6231 1.63193 8.91501 7.59851 17.2365C11.5762 22.9194 17.1805 26 22.2802 26C25.34 26 25.7185 25.3158 25.7185 24.1372V19.8421C25.7185 18.4737 26.0083 18.2006 26.9773 18.2006C27.6912 18.2006 28.9152 18.5558 31.771 21.2958C35.0348 24.5432 35.5729 26 37.4087 26H42.2223C43.5976 26 44.2853 25.3158 43.8886 23.9655C43.4545 22.6198 41.8962 20.6673 39.8285 18.3528C38.7065 17.0335 37.0237 15.6129 36.5137 14.9023C35.7997 13.9891 36.0037 13.5831 36.5137 12.7713C36.5137 12.7713 42.3784 4.55125 42.9903 1.76055Z" fill="white"/>
</svg>
